<?xml version="1.0" encoding="UTF-8" standalone="no"?>
<!DOCTYPE svg PUBLIC "-//W3C//DTD SVG 1.1//EN"
 "http://www.w3.org/Graphics/SVG/1.1/DTD/svg11.dtd">
<!-- Generated by graphviz version 2.36.0 (20140111.2315)
 -->
<!-- Title: G Pages: 1 -->
<svg width="826pt" height="1753pt"
 viewBox="7.20 7.20 818.58 1746.20" xmlns="http://www.w3.org/2000/svg" xmlns:xlink="http://www.w3.org/1999/xlink">
<g id="graph0" class="graph" transform="scale(1 1) rotate(0) translate(11.2 1742.2)">
<title>G</title>
<polygon fill="white" stroke="none" points="-4,4 -4,-1735 807.384,-1735 807.384,4 -4,4"/>
<g id="clust1" class="cluster"><title>cluster1</title>
<polygon fill="sandybrown" stroke="sandybrown" points="559.384,-1592 559.384,-1723 685.384,-1723 685.384,-1592 559.384,-1592"/>
<text text-anchor="middle" x="622.384" y="-1707.8" font-family="Times,serif" font-size="14.00">Super region 1 [3]</text>
</g>
<g id="clust2" class="cluster"><title>cluster2</title>
<polygon fill="sandybrown" stroke="sandybrown" points="629.384,-1160 629.384,-1579 795.384,-1579 795.384,-1160 629.384,-1160"/>
<text text-anchor="middle" x="712.384" y="-1563.8" font-family="Times,serif" font-size="14.00">Super region 2 [6]</text>
</g>
<g id="clust3" class="cluster"><title>cluster3</title>
<polygon fill="sandybrown" stroke="sandybrown" points="468.384,-1088 468.384,-1363 622.384,-1363 622.384,-1088 468.384,-1088"/>
<text text-anchor="middle" x="545.384" y="-1347.8" font-family="Times,serif" font-size="14.00">Super region 3 [3]</text>
</g>
<g id="clust4" class="cluster"><title>cluster4</title>
<polygon fill="sandybrown" stroke="sandybrown" points="540.384,-800 540.384,-1075 694.384,-1075 694.384,-800 540.384,-800"/>
<text text-anchor="middle" x="617.384" y="-1059.8" font-family="Times,serif" font-size="14.00">Super region 4 [4]</text>
</g>
<g id="clust5" class="cluster"><title>cluster5</title>
<polygon fill="sandybrown" stroke="sandybrown" points="366.384,-512 366.384,-859 540.384,-859 540.384,-512 366.384,-512"/>
<text text-anchor="middle" x="453.384" y="-843.8" font-family="Times,serif" font-size="14.00">Super region 5 [4]</text>
</g>
<g id="clust6" class="cluster"><title>cluster6</title>
<polygon fill="sandybrown" stroke="sandybrown" points="92.3839,-368 92.3839,-643 234.384,-643 234.384,-368 92.3839,-368"/>
<text text-anchor="middle" x="163.384" y="-627.8" font-family="Times,serif" font-size="14.00">Super region 6 [3]</text>
</g>
<g id="clust7" class="cluster"><title>cluster7</title>
<polygon fill="sandybrown" stroke="sandybrown" points="636.384,-512 636.384,-715 752.384,-715 752.384,-512 636.384,-512"/>
<text text-anchor="middle" x="694.384" y="-699.8" font-family="Times,serif" font-size="14.00">Super region 7 [3]</text>
</g>
<g id="clust8" class="cluster"><title>cluster8</title>
<polygon fill="sandybrown" stroke="sandybrown" points="23.3839,-80 23.3839,-355 196.384,-355 196.384,-80 23.3839,-80"/>
<text text-anchor="middle" x="109.884" y="-339.8" font-family="Times,serif" font-size="14.00">Super region 8 [2]</text>
</g>
<g id="clust9" class="cluster"><title>cluster9</title>
<polygon fill="sandybrown" stroke="sandybrown" points="226.384,-8 226.384,-211 342.384,-211 342.384,-8 226.384,-8"/>
<text text-anchor="middle" x="284.384" y="-195.8" font-family="Times,serif" font-size="14.00">Super region 9 [2]</text>
</g>
<!-- 1 -->
<g id="node1" class="node"><title>1</title>
<ellipse fill="blue" stroke="blue" cx="622.384" cy="-1682" rx="27" ry="18"/>
<text text-anchor="middle" x="622.384" y="-1678.3" font-family="Times,serif" font-size="14.00" fill="white">1: 1</text>
</g>
<!-- 2 -->
<g id="node2" class="node"><title>2</title>
<ellipse fill="blue" stroke="blue" cx="658.384" cy="-1610" rx="27" ry="18"/>
<text text-anchor="middle" x="658.384" y="-1606.3" font-family="Times,serif" font-size="14.00" fill="white">2: 1</text>
</g>
<!-- 1&#45;&gt;2 -->
<g id="edge1" class="edge"><title>1&#45;&gt;2</title>
<path fill="none" stroke="grey" d="M630.734,-1664.76C636.549,-1653.46 644.274,-1638.44 650.08,-1627.15"/>
</g>
<!-- 3 -->
<g id="node3" class="node"><title>3</title>
<ellipse fill="blue" stroke="blue" cx="586.384" cy="-1610" rx="27" ry="18"/>
<text text-anchor="middle" x="586.384" y="-1606.3" font-family="Times,serif" font-size="14.00" fill="white">3: 1</text>
</g>
<!-- 1&#45;&gt;3 -->
<g id="edge2" class="edge"><title>1&#45;&gt;3</title>
<path fill="none" stroke="grey" d="M614.034,-1664.76C608.218,-1653.46 600.494,-1638.44 594.688,-1627.15"/>
</g>
<!-- 4 -->
<g id="node4" class="node"><title>4</title>
<ellipse fill="blue" stroke="blue" cx="696.384" cy="-1538" rx="27" ry="18"/>
<text text-anchor="middle" x="696.384" y="-1534.3" font-family="Times,serif" font-size="14.00" fill="white">4: 1</text>
</g>
<!-- 1&#45;&gt;4 -->
<g id="edge3" class="edge"><title>1&#45;&gt;4</title>
<path fill="none" stroke="grey" d="M644.704,-1671.37C661.682,-1662.72 683.861,-1648.24 694.384,-1628 706.217,-1605.24 703.545,-1574.57 700.204,-1555.83"/>
</g>
<!-- 6 -->
<g id="node6" class="node"><title>6</title>
<ellipse fill="blue" stroke="blue" cx="702.384" cy="-1394" rx="27" ry="18"/>
<text text-anchor="middle" x="702.384" y="-1390.3" font-family="Times,serif" font-size="14.00" fill="white">6: 1</text>
</g>
<!-- 1&#45;&gt;6 -->
<g id="edge4" class="edge"><title>1&#45;&gt;6</title>
<path fill="none" stroke="grey" d="M645.505,-1672.66C665.885,-1664.24 695.103,-1649.41 713.384,-1628 728.55,-1610.24 725.398,-1601.29 732.384,-1579 750.063,-1522.59 778.005,-1502.61 755.384,-1448 748.412,-1431.17 733.215,-1416.9 720.874,-1407.42"/>
</g>
<!-- 11 -->
<g id="node11" class="node"><title>11</title>
<ellipse fill="blue" stroke="blue" cx="544.384" cy="-1322" rx="28.3955" ry="18"/>
<text text-anchor="middle" x="544.384" y="-1318.3" font-family="Times,serif" font-size="14.00" fill="white">11: 1</text>
</g>
<!-- 1&#45;&gt;11 -->
<g id="edge5" class="edge"><title>1&#45;&gt;11</title>
<path fill="none" stroke="grey" d="M601.071,-1670.78C584.663,-1661.8 562.76,-1647.17 550.384,-1628 528.446,-1594.02 531.384,-1579.45 531.384,-1539 531.384,-1539 531.384,-1539 531.384,-1465 531.384,-1419.7 538.027,-1366.6 541.816,-1340"/>
</g>
<!-- 13 -->
<g id="node13" class="node"><title>13</title>
<ellipse fill="blue" stroke="blue" cx="593.384" cy="-1250" rx="28.3955" ry="18"/>
<text text-anchor="middle" x="593.384" y="-1246.3" font-family="Times,serif" font-size="14.00" fill="white">13: 1</text>
</g>
<!-- 1&#45;&gt;13 -->
<g id="edge6" class="edge"><title>1&#45;&gt;13</title>
<path fill="none" stroke="grey" d="M599.413,-1672.36C579.081,-1663.74 549.715,-1648.79 530.384,-1628 500.468,-1595.83 487.384,-1582.93 487.384,-1539 487.384,-1539 487.384,-1539 487.384,-1393 487.384,-1352.55 482.982,-1336.99 506.384,-1304 521.836,-1282.22 549.328,-1267.69 569.281,-1259.44"/>
</g>
<!-- 2&#45;&gt;4 -->
<g id="edge7" class="edge"><title>2&#45;&gt;4</title>
<path fill="none" stroke="grey" d="M667.197,-1592.76C673.336,-1581.46 681.49,-1566.44 687.618,-1555.15"/>
</g>
<!-- 3&#45;&gt;11 -->
<g id="edge8" class="edge"><title>3&#45;&gt;11</title>
<path fill="none" stroke="grey" d="M583.882,-1591.97C576.412,-1541.1 554.325,-1390.7 546.872,-1339.94"/>
</g>
<!-- 5 -->
<g id="node5" class="node"><title>5</title>
<ellipse fill="blue" stroke="blue" cx="719.384" cy="-1466" rx="27" ry="18"/>
<text text-anchor="middle" x="719.384" y="-1462.3" font-family="Times,serif" font-size="14.00" fill="white">5: 1</text>
</g>
<!-- 4&#45;&gt;5 -->
<g id="edge9" class="edge"><title>4&#45;&gt;5</title>
<path fill="none" stroke="grey" d="M701.952,-1520.05C705.568,-1509.05 710.262,-1494.76 713.868,-1483.79"/>
</g>
<!-- 4&#45;&gt;6 -->
<g id="edge10" class="edge"><title>4&#45;&gt;6</title>
<path fill="none" stroke="grey" d="M690.758,-1520.23C685.487,-1502.3 679.025,-1473.08 683.384,-1448 685.594,-1435.29 690.576,-1421.59 694.884,-1411.31"/>
</g>
<!-- 5&#45;&gt;6 -->
<g id="edge11" class="edge"><title>5&#45;&gt;6</title>
<path fill="none" stroke="grey" d="M715.269,-1448.05C712.635,-1437.21 709.228,-1423.18 706.579,-1412.28"/>
</g>
<!-- 7 -->
<g id="node7" class="node"><title>7</title>
<ellipse fill="blue" stroke="blue" cx="748.384" cy="-1322" rx="27" ry="18"/>
<text text-anchor="middle" x="748.384" y="-1318.3" font-family="Times,serif" font-size="14.00" fill="white">7: 1</text>
</g>
<!-- 5&#45;&gt;7 -->
<g id="edge12" class="edge"><title>5&#45;&gt;7</title>
<path fill="none" stroke="grey" d="M726.386,-1448.59C730.507,-1438.27 735.467,-1424.57 738.384,-1412 744.079,-1387.46 746.571,-1358.34 747.633,-1340.26"/>
</g>
<!-- 9 -->
<g id="node9" class="node"><title>9</title>
<ellipse fill="blue" stroke="blue" cx="746.384" cy="-1250" rx="27" ry="18"/>
<text text-anchor="middle" x="746.384" y="-1246.3" font-family="Times,serif" font-size="14.00" fill="white">9: 1</text>
</g>
<!-- 5&#45;&gt;9 -->
<g id="edge13" class="edge"><title>5&#45;&gt;9</title>
<path fill="none" stroke="grey" d="M732.799,-1450.13C748.708,-1431.4 774.334,-1397.47 784.384,-1363 791.723,-1337.83 792.409,-1328.96 784.384,-1304 779.672,-1289.34 769.242,-1275.3 760.499,-1265.36"/>
</g>
<!-- 6&#45;&gt;7 -->
<g id="edge14" class="edge"><title>6&#45;&gt;7</title>
<path fill="none" stroke="grey" d="M712.822,-1377.12C720.35,-1365.66 730.468,-1350.26 737.987,-1338.82"/>
</g>
<!-- 8 -->
<g id="node8" class="node"><title>8</title>
<ellipse fill="blue" stroke="blue" cx="656.384" cy="-1322" rx="27" ry="18"/>
<text text-anchor="middle" x="656.384" y="-1318.3" font-family="Times,serif" font-size="14.00" fill="white">8: 1</text>
</g>
<!-- 6&#45;&gt;8 -->
<g id="edge15" class="edge"><title>6&#45;&gt;8</title>
<path fill="none" stroke="grey" d="M691.946,-1377.12C684.418,-1365.66 674.299,-1350.26 666.781,-1338.82"/>
</g>
<!-- 6&#45;&gt;9 -->
<g id="edge16" class="edge"><title>6&#45;&gt;9</title>
<path fill="none" stroke="grey" d="M702.027,-1375.75C702.169,-1357.43 703.905,-1327.88 712.384,-1304 717.285,-1290.2 726.371,-1276.32 733.918,-1266.23"/>
</g>
<!-- 6&#45;&gt;13 -->
<g id="edge17" class="edge"><title>6&#45;&gt;13</title>
<path fill="none" stroke="grey" d="M675.834,-1389.86C657.71,-1386.33 634.51,-1378.84 620.384,-1363 596.553,-1336.28 592.848,-1292.17 592.775,-1268.05"/>
</g>
<!-- 7&#45;&gt;9 -->
<g id="edge18" class="edge"><title>7&#45;&gt;9</title>
<path fill="none" stroke="grey" d="M747.89,-1303.7C747.58,-1292.85 747.182,-1278.92 746.873,-1268.1"/>
</g>
<!-- 8&#45;&gt;9 -->
<g id="edge19" class="edge"><title>8&#45;&gt;9</title>
<path fill="none" stroke="grey" d="M673.312,-1307.83C689.403,-1295.32 713.466,-1276.6 729.532,-1264.11"/>
</g>
<!-- 8&#45;&gt;13 -->
<g id="edge20" class="edge"><title>8&#45;&gt;13</title>
<path fill="none" stroke="grey" d="M643.023,-1306.15C632.476,-1294.44 617.814,-1278.14 607.161,-1266.31"/>
</g>
<!-- 14 -->
<g id="node14" class="node"><title>14</title>
<ellipse fill="blue" stroke="blue" cx="569.384" cy="-1178" rx="28.3955" ry="18"/>
<text text-anchor="middle" x="569.384" y="-1174.3" font-family="Times,serif" font-size="14.00" fill="white">14: 1</text>
</g>
<!-- 8&#45;&gt;14 -->
<g id="edge21" class="edge"><title>8&#45;&gt;14</title>
<path fill="none" stroke="grey" d="M654.296,-1303.73C651.372,-1284.87 644.713,-1254.36 630.384,-1232 619.712,-1215.34 602.291,-1200.96 588.793,-1191.39"/>
</g>
<!-- 15 -->
<g id="node15" class="node"><title>15</title>
<ellipse fill="blue" stroke="blue" cx="569.384" cy="-1106" rx="28.3955" ry="18"/>
<text text-anchor="middle" x="569.384" y="-1102.3" font-family="Times,serif" font-size="14.00" fill="white">15: 1</text>
</g>
<!-- 8&#45;&gt;15 -->
<g id="edge22" class="edge"><title>8&#45;&gt;15</title>
<path fill="none" stroke="grey" d="M658.198,-1303.81C659.536,-1285.54 659.996,-1256.03 652.384,-1232 638.305,-1187.55 603.335,-1144.15 583.573,-1122.06"/>
</g>
<!-- 10 -->
<g id="node10" class="node"><title>10</title>
<ellipse fill="blue" stroke="blue" cx="746.384" cy="-1178" rx="28.3955" ry="18"/>
<text text-anchor="middle" x="746.384" y="-1174.3" font-family="Times,serif" font-size="14.00" fill="white">10: 1</text>
</g>
<!-- 9&#45;&gt;10 -->
<g id="edge23" class="edge"><title>9&#45;&gt;10</title>
<path fill="none" stroke="grey" d="M746.384,-1231.7C746.384,-1220.85 746.384,-1206.92 746.384,-1196.1"/>
</g>
<!-- 12 -->
<g id="node12" class="node"><title>12</title>
<ellipse fill="blue" stroke="blue" cx="497.384" cy="-1250" rx="28.3955" ry="18"/>
<text text-anchor="middle" x="497.384" y="-1246.3" font-family="Times,serif" font-size="14.00" fill="white">12: 1</text>
</g>
<!-- 11&#45;&gt;12 -->
<g id="edge24" class="edge"><title>11&#45;&gt;12</title>
<path fill="none" stroke="grey" d="M533.719,-1305.12C526.027,-1293.66 515.689,-1278.26 508.007,-1266.82"/>
</g>
<!-- 11&#45;&gt;13 -->
<g id="edge25" class="edge"><title>11&#45;&gt;13</title>
<path fill="none" stroke="grey" d="M555.503,-1305.12C563.522,-1293.66 574.3,-1278.26 582.309,-1266.82"/>
</g>
<!-- 11&#45;&gt;14 -->
<g id="edge26" class="edge"><title>11&#45;&gt;14</title>
<path fill="none" stroke="grey" d="M545.811,-1303.83C547.47,-1285.83 550.605,-1256.76 555.384,-1232 557.728,-1219.85 561.302,-1206.37 564.251,-1196.05"/>
</g>
<!-- 12&#45;&gt;14 -->
<g id="edge27" class="edge"><title>12&#45;&gt;14</title>
<path fill="none" stroke="grey" d="M512.302,-1234.5C524.659,-1222.48 542.133,-1205.49 554.485,-1193.49"/>
</g>
<!-- 12&#45;&gt;15 -->
<g id="edge28" class="edge"><title>12&#45;&gt;15</title>
<path fill="none" stroke="grey" d="M502.423,-1232.03C508.195,-1213.7 518.535,-1183.89 531.384,-1160 538.571,-1146.64 548.645,-1132.74 556.615,-1122.53"/>
</g>
<!-- 13&#45;&gt;14 -->
<g id="edge29" class="edge"><title>13&#45;&gt;14</title>
<path fill="none" stroke="grey" d="M587.574,-1232.05C583.801,-1221.05 578.903,-1206.76 575.14,-1195.79"/>
</g>
<!-- 14&#45;&gt;15 -->
<g id="edge30" class="edge"><title>14&#45;&gt;15</title>
<path fill="none" stroke="grey" d="M569.384,-1159.7C569.384,-1148.85 569.384,-1134.92 569.384,-1124.1"/>
</g>
<!-- 17 -->
<g id="node17" class="node"><title>17</title>
<ellipse fill="blue" stroke="blue" cx="569.384" cy="-1034" rx="28.3955" ry="18"/>
<text text-anchor="middle" x="569.384" y="-1030.3" font-family="Times,serif" font-size="14.00" fill="white">17: 1</text>
</g>
<!-- 15&#45;&gt;17 -->
<g id="edge31" class="edge"><title>15&#45;&gt;17</title>
<path fill="none" stroke="grey" d="M569.384,-1087.7C569.384,-1076.85 569.384,-1062.92 569.384,-1052.1"/>
</g>
<!-- 16 -->
<g id="node16" class="node"><title>16</title>
<ellipse fill="blue" stroke="blue" cx="644.384" cy="-1034" rx="28.3955" ry="18"/>
<text text-anchor="middle" x="644.384" y="-1030.3" font-family="Times,serif" font-size="14.00" fill="white">16: 1</text>
</g>
<!-- 18 -->
<g id="node18" class="node"><title>18</title>
<ellipse fill="blue" stroke="blue" cx="617.384" cy="-962" rx="28.3955" ry="18"/>
<text text-anchor="middle" x="617.384" y="-958.3" font-family="Times,serif" font-size="14.00" fill="white">18: 1</text>
</g>
<!-- 16&#45;&gt;18 -->
<g id="edge32" class="edge"><title>16&#45;&gt;18</title>
<path fill="none" stroke="grey" d="M637.985,-1016.41C633.744,-1005.41 628.195,-991.027 623.924,-979.956"/>
</g>
<!-- 17&#45;&gt;18 -->
<g id="edge33" class="edge"><title>17&#45;&gt;18</title>
<path fill="none" stroke="grey" d="M580.276,-1017.12C588.131,-1005.66 598.69,-990.263 606.535,-978.821"/>
</g>
<!-- 23 -->
<g id="node23" class="node"><title>23</title>
<ellipse fill="blue" stroke="blue" cx="463.384" cy="-746" rx="28.3955" ry="18"/>
<text text-anchor="middle" x="463.384" y="-742.3" font-family="Times,serif" font-size="14.00" fill="white">23: 1</text>
</g>
<!-- 17&#45;&gt;23 -->
<g id="edge34" class="edge"><title>17&#45;&gt;23</title>
<path fill="none" stroke="grey" d="M557.506,-1017.27C536.112,-987.96 491.55,-922.216 472.384,-859 462.536,-826.518 461.917,-786.45 462.531,-764.114"/>
</g>
<!-- 19 -->
<g id="node19" class="node"><title>19</title>
<ellipse fill="blue" stroke="blue" cx="569.384" cy="-890" rx="28.3955" ry="18"/>
<text text-anchor="middle" x="569.384" y="-886.3" font-family="Times,serif" font-size="14.00" fill="white">19: 1</text>
</g>
<!-- 18&#45;&gt;19 -->
<g id="edge35" class="edge"><title>18&#45;&gt;19</title>
<path fill="none" stroke="grey" d="M606.492,-945.116C598.637,-933.66 588.078,-918.263 580.233,-906.821"/>
</g>
<!-- 20 -->
<g id="node20" class="node"><title>20</title>
<ellipse fill="blue" stroke="blue" cx="665.384" cy="-890" rx="28.3955" ry="18"/>
<text text-anchor="middle" x="665.384" y="-886.3" font-family="Times,serif" font-size="14.00" fill="white">20: 1</text>
</g>
<!-- 18&#45;&gt;20 -->
<g id="edge36" class="edge"><title>18&#45;&gt;20</title>
<path fill="none" stroke="grey" d="M628.276,-945.116C636.131,-933.66 646.69,-918.263 654.535,-906.821"/>
</g>
<!-- 21 -->
<g id="node21" class="node"><title>21</title>
<ellipse fill="blue" stroke="blue" cx="589.384" cy="-818" rx="28.3955" ry="18"/>
<text text-anchor="middle" x="589.384" y="-814.3" font-family="Times,serif" font-size="14.00" fill="white">21: 1</text>
</g>
<!-- 18&#45;&gt;21 -->
<g id="edge37" class="edge"><title>18&#45;&gt;21</title>
<path fill="none" stroke="grey" d="M616.217,-943.777C614.771,-925.729 611.806,-896.632 606.384,-872 603.683,-859.732 599.342,-846.256 595.722,-835.963"/>
</g>
<!-- 18&#45;&gt;23 -->
<g id="edge38" class="edge"><title>18&#45;&gt;23</title>
<path fill="none" stroke="grey" d="M594.371,-951.36C575.416,-942.449 548.901,-927.627 531.384,-908 492.592,-864.537 473.738,-795.706 466.735,-764.007"/>
</g>
<!-- 33 -->
<g id="node33" class="node"><title>33</title>
<ellipse fill="blue" stroke="blue" cx="712.384" cy="-674" rx="28.3955" ry="18"/>
<text text-anchor="middle" x="712.384" y="-670.3" font-family="Times,serif" font-size="14.00" fill="white">33: 1</text>
</g>
<!-- 18&#45;&gt;33 -->
<g id="edge39" class="edge"><title>18&#45;&gt;33</title>
<path fill="none" stroke="grey" d="M642.274,-952.854C662.317,-944.856 689.24,-930.532 702.384,-908 743.696,-837.179 725.908,-732.61 716.669,-691.996"/>
</g>
<!-- 19&#45;&gt;21 -->
<g id="edge40" class="edge"><title>19&#45;&gt;21</title>
<path fill="none" stroke="grey" d="M574.225,-872.055C577.37,-861.049 581.451,-846.764 584.587,-835.789"/>
</g>
<!-- 19&#45;&gt;23 -->
<g id="edge41" class="edge"><title>19&#45;&gt;23</title>
<path fill="none" stroke="grey" d="M559.067,-872.896C547.306,-854.796 527.262,-824.709 508.384,-800 498.271,-786.763 485.985,-772.396 476.807,-761.964"/>
</g>
<!-- 20&#45;&gt;21 -->
<g id="edge42" class="edge"><title>20&#45;&gt;21</title>
<path fill="none" stroke="grey" d="M649.572,-874.693C644.114,-869.736 637.969,-864.136 632.384,-859 623.228,-850.58 613.033,-841.101 604.869,-833.484"/>
</g>
<!-- 20&#45;&gt;33 -->
<g id="edge43" class="edge"><title>20&#45;&gt;33</title>
<path fill="none" stroke="grey" d="M669.151,-871.849C677.973,-831.68 699.889,-731.89 708.664,-691.935"/>
</g>
<!-- 35 -->
<g id="node35" class="node"><title>35</title>
<ellipse fill="blue" stroke="blue" cx="665.384" cy="-530" rx="28.3955" ry="18"/>
<text text-anchor="middle" x="665.384" y="-526.3" font-family="Times,serif" font-size="14.00" fill="white">35: 1</text>
</g>
<!-- 20&#45;&gt;35 -->
<g id="edge44" class="edge"><title>20&#45;&gt;35</title>
<path fill="none" stroke="grey" d="M661.63,-872.049C656.093,-845.521 646.384,-792.517 646.384,-747 646.384,-747 646.384,-747 646.384,-673 646.384,-627.483 656.093,-574.479 661.63,-547.951"/>
</g>
<!-- 21&#45;&gt;23 -->
<g id="edge45" class="edge"><title>21&#45;&gt;23</title>
<path fill="none" stroke="grey" d="M568.859,-805.597C545.568,-792.658 507.78,-771.664 484.32,-758.631"/>
</g>
<!-- 26 -->
<g id="node26" class="node"><title>26</title>
<ellipse fill="blue" stroke="blue" cx="511.384" cy="-602" rx="28.3955" ry="18"/>
<text text-anchor="middle" x="511.384" y="-598.3" font-family="Times,serif" font-size="14.00" fill="white">26: 1</text>
</g>
<!-- 21&#45;&gt;26 -->
<g id="edge46" class="edge"><title>21&#45;&gt;26</title>
<path fill="none" stroke="grey" d="M583.263,-800.208C568.682,-760.204 532.028,-659.639 517.476,-619.714"/>
</g>
<!-- 21&#45;&gt;35 -->
<g id="edge47" class="edge"><title>21&#45;&gt;35</title>
<path fill="none" stroke="grey" d="M590.369,-799.738C593.086,-760.268 602.583,-660.902 632.384,-584 637.632,-570.457 646.428,-556.57 653.619,-546.411"/>
</g>
<!-- 22 -->
<g id="node22" class="node"><title>22</title>
<ellipse fill="blue" stroke="blue" cx="397.384" cy="-818" rx="28.3955" ry="18"/>
<text text-anchor="middle" x="397.384" y="-814.3" font-family="Times,serif" font-size="14.00" fill="white">22: 1</text>
</g>
<!-- 22&#45;&gt;23 -->
<g id="edge48" class="edge"><title>22&#45;&gt;23</title>
<path fill="none" stroke="grey" d="M411.381,-802.155C422.581,-790.276 438.212,-773.697 449.407,-761.824"/>
</g>
<!-- 24 -->
<g id="node24" class="node"><title>24</title>
<ellipse fill="blue" stroke="blue" cx="395.384" cy="-674" rx="28.3955" ry="18"/>
<text text-anchor="middle" x="395.384" y="-670.3" font-family="Times,serif" font-size="14.00" fill="white">24: 1</text>
</g>
<!-- 22&#45;&gt;24 -->
<g id="edge49" class="edge"><title>22&#45;&gt;24</title>
<path fill="none" stroke="grey" d="M397.143,-799.871C396.758,-772.578 396.011,-719.52 395.626,-692.189"/>
</g>
<!-- 23&#45;&gt;24 -->
<g id="edge50" class="edge"><title>23&#45;&gt;24</title>
<path fill="none" stroke="grey" d="M448.963,-730.155C437.423,-718.276 421.319,-701.697 409.784,-689.824"/>
</g>
<!-- 25 -->
<g id="node25" class="node"><title>25</title>
<ellipse fill="blue" stroke="blue" cx="415.384" cy="-602" rx="28.3955" ry="18"/>
<text text-anchor="middle" x="415.384" y="-598.3" font-family="Times,serif" font-size="14.00" fill="white">25: 1</text>
</g>
<!-- 23&#45;&gt;25 -->
<g id="edge51" class="edge"><title>23&#45;&gt;25</title>
<path fill="none" stroke="grey" d="M457.689,-728.153C448.451,-700.824 430.305,-647.14 421.071,-619.825"/>
</g>
<!-- 23&#45;&gt;26 -->
<g id="edge52" class="edge"><title>23&#45;&gt;26</title>
<path fill="none" stroke="grey" d="M469.079,-728.153C478.317,-700.824 496.463,-647.14 505.697,-619.825"/>
</g>
<!-- 27 -->
<g id="node27" class="node"><title>27</title>
<ellipse fill="blue" stroke="blue" cx="414.384" cy="-530" rx="28.3955" ry="18"/>
<text text-anchor="middle" x="414.384" y="-526.3" font-family="Times,serif" font-size="14.00" fill="white">27: 1</text>
</g>
<!-- 23&#45;&gt;27 -->
<g id="edge53" class="edge"><title>23&#45;&gt;27</title>
<path fill="none" stroke="grey" d="M465.199,-727.928C467.757,-697.837 470.298,-633.829 452.384,-584 447.251,-569.723 437.08,-555.871 428.552,-545.911"/>
</g>
<!-- 24&#45;&gt;25 -->
<g id="edge54" class="edge"><title>24&#45;&gt;25</title>
<path fill="none" stroke="grey" d="M400.225,-656.055C403.37,-645.049 407.451,-630.764 410.587,-619.789"/>
</g>
<!-- 24&#45;&gt;27 -->
<g id="edge55" class="edge"><title>24&#45;&gt;27</title>
<path fill="none" stroke="grey" d="M383.77,-657.229C381.152,-652.837 378.746,-647.917 377.384,-643 370.384,-617.729 369.516,-609.014 377.384,-584 381.896,-569.656 391.822,-555.807 400.258,-545.865"/>
</g>
<!-- 28 -->
<g id="node28" class="node"><title>28</title>
<ellipse fill="blue" stroke="blue" cx="205.384" cy="-602" rx="28.3955" ry="18"/>
<text text-anchor="middle" x="205.384" y="-598.3" font-family="Times,serif" font-size="14.00" fill="white">28: 1</text>
</g>
<!-- 24&#45;&gt;28 -->
<g id="edge56" class="edge"><title>24&#45;&gt;28</title>
<path fill="none" stroke="grey" d="M371.32,-664.134C334.773,-650.67 265.683,-625.215 229.252,-611.794"/>
</g>
<!-- 41 -->
<g id="node41" class="node"><title>41</title>
<ellipse fill="blue" stroke="blue" cx="281.384" cy="-170" rx="28.3955" ry="18"/>
<text text-anchor="middle" x="281.384" y="-166.3" font-family="Times,serif" font-size="14.00" fill="white">41: 1</text>
</g>
<!-- 24&#45;&gt;41 -->
<g id="edge57" class="edge"><title>24&#45;&gt;41</title>
<path fill="none" stroke="grey" d="M380.125,-658.814C375.811,-654.134 371.459,-648.666 368.384,-643 343.802,-597.709 338.384,-582.533 338.384,-531 338.384,-531 338.384,-531 338.384,-313 338.384,-264.121 308.938,-212.148 292.374,-186.78"/>
</g>
<!-- 25&#45;&gt;27 -->
<g id="edge58" class="edge"><title>25&#45;&gt;27</title>
<path fill="none" stroke="grey" d="M415.137,-583.697C414.982,-572.846 414.783,-558.917 414.628,-548.104"/>
</g>
<!-- 26&#45;&gt;27 -->
<g id="edge59" class="edge"><title>26&#45;&gt;27</title>
<path fill="none" stroke="grey" d="M493.139,-587.834C475.797,-575.319 449.862,-556.603 432.547,-544.107"/>
</g>
<!-- 26&#45;&gt;35 -->
<g id="edge60" class="edge"><title>26&#45;&gt;35</title>
<path fill="none" stroke="grey" d="M533.777,-590.821C562.974,-577.55 613.753,-554.468 642.964,-541.191"/>
</g>
<!-- 27&#45;&gt;41 -->
<g id="edge61" class="edge"><title>27&#45;&gt;41</title>
<path fill="none" stroke="grey" d="M406.876,-512.338C395.802,-486.197 376.384,-433.702 376.384,-387 376.384,-387 376.384,-387 376.384,-313 376.384,-272.031 375.397,-257.894 352.384,-224 339.855,-205.548 318.741,-190.995 302.787,-181.844"/>
</g>
<!-- 42 -->
<g id="node42" class="node"><title>42</title>
<ellipse fill="blue" stroke="blue" cx="308.384" cy="-98" rx="33.2209" ry="18"/>
<text text-anchor="middle" x="308.384" y="-94.3" font-family="Times,serif" font-size="14.00" fill="white">42: 36</text>
</g>
<!-- 27&#45;&gt;42 -->
<g id="edge62" class="edge"><title>27&#45;&gt;42</title>
<path fill="none" stroke="grey" d="M414.384,-511.951C414.384,-485.292 414.384,-432.115 414.384,-387 414.384,-387 414.384,-387 414.384,-241 414.384,-184.087 359.027,-135.274 328.322,-112.576"/>
</g>
<!-- 29 -->
<g id="node29" class="node"><title>29</title>
<ellipse fill="beige" stroke="beige" cx="157.384" cy="-530" rx="28.3955" ry="18"/>
<text text-anchor="middle" x="157.384" y="-526.3" font-family="Times,serif" font-size="14.00">29: 2</text>
</g>
<!-- 28&#45;&gt;29 -->
<g id="edge63" class="edge"><title>28&#45;&gt;29</title>
<path fill="none" stroke="grey" d="M194.492,-585.116C186.637,-573.66 176.078,-558.263 168.233,-546.821"/>
</g>
<!-- 30 -->
<g id="node30" class="node"><title>30</title>
<ellipse fill="blue" stroke="blue" cx="172.384" cy="-458" rx="37.5442" ry="18"/>
<text text-anchor="middle" x="172.384" y="-454.3" font-family="Times,serif" font-size="14.00" fill="white">30: 239</text>
</g>
<!-- 28&#45;&gt;30 -->
<g id="edge64" class="edge"><title>28&#45;&gt;30</title>
<path fill="none" stroke="grey" d="M204.629,-583.677C203.519,-565.548 200.824,-536.386 194.384,-512 191.077,-499.478 185.455,-486.006 180.723,-475.779"/>
</g>
<!-- 31 -->
<g id="node31" class="node"><title>31</title>
<ellipse fill="blue" stroke="blue" cx="201.384" cy="-386" rx="33.2209" ry="18"/>
<text text-anchor="middle" x="201.384" y="-382.3" font-family="Times,serif" font-size="14.00" fill="white">31: 18</text>
</g>
<!-- 28&#45;&gt;31 -->
<g id="edge65" class="edge"><title>28&#45;&gt;31</title>
<path fill="none" stroke="grey" d="M209.373,-583.981C215.702,-554.499 226.533,-492.086 218.384,-440 216.442,-427.589 212.089,-414.116 208.274,-403.859"/>
</g>
<!-- 28&#45;&gt;41 -->
<g id="edge66" class="edge"><title>28&#45;&gt;41</title>
<path fill="none" stroke="grey" d="M222.808,-587.33C250.234,-564.132 300.384,-514.17 300.384,-459 300.384,-459 300.384,-459 300.384,-313 300.384,-267.483 290.675,-214.479 285.138,-187.951"/>
</g>
<!-- 29&#45;&gt;30 -->
<g id="edge67" class="edge"><title>29&#45;&gt;30</title>
<path fill="none" stroke="grey" d="M161.015,-512.055C163.339,-501.211 166.345,-487.183 168.682,-476.275"/>
</g>
<!-- 32 -->
<g id="node32" class="node"><title>32</title>
<ellipse fill="beige" stroke="beige" cx="121.384" cy="-386" rx="28.3955" ry="18"/>
<text text-anchor="middle" x="121.384" y="-382.3" font-family="Times,serif" font-size="14.00">32: 2</text>
</g>
<!-- 29&#45;&gt;32 -->
<g id="edge68" class="edge"><title>29&#45;&gt;32</title>
<path fill="none" stroke="grey" d="M145.028,-513.299C137.875,-503.246 129.496,-489.579 125.384,-476 118.077,-451.871 118.453,-422.387 119.691,-404.15"/>
</g>
<!-- 30&#45;&gt;31 -->
<g id="edge69" class="edge"><title>30&#45;&gt;31</title>
<path fill="none" stroke="grey" d="M179.404,-440.055C183.964,-429.049 189.882,-414.764 194.428,-403.789"/>
</g>
<!-- 30&#45;&gt;32 -->
<g id="edge70" class="edge"><title>30&#45;&gt;32</title>
<path fill="none" stroke="grey" d="M160.555,-440.765C152.198,-429.294 141.06,-414.007 132.798,-402.666"/>
</g>
<!-- 38 -->
<g id="node38" class="node"><title>38</title>
<ellipse fill="beige" stroke="beige" cx="167.384" cy="-242" rx="28.3955" ry="18"/>
<text text-anchor="middle" x="167.384" y="-238.3" font-family="Times,serif" font-size="14.00">38: 6</text>
</g>
<!-- 30&#45;&gt;38 -->
<g id="edge71" class="edge"><title>30&#45;&gt;38</title>
<path fill="none" stroke="grey" d="M142.8,-446.59C123.033,-438.125 98.0555,-424.239 83.3839,-404 70.2838,-385.929 74.8434,-377.184 72.3839,-355 69.4945,-328.937 59.1061,-318.612 72.3839,-296 76.5439,-288.916 118.937,-266.977 145.668,-253.649"/>
</g>
<!-- 30&#45;&gt;41 -->
<g id="edge72" class="edge"><title>30&#45;&gt;41</title>
<path fill="none" stroke="grey" d="M197.752,-444.568C213.453,-435.519 232.608,-421.751 243.384,-404 286.454,-333.054 285.163,-228.557 282.742,-187.98"/>
</g>
<!-- 31&#45;&gt;41 -->
<g id="edge73" class="edge"><title>31&#45;&gt;41</title>
<path fill="none" stroke="grey" d="M204.741,-368.012C211.008,-338.052 225.92,-274.24 248.384,-224 254.313,-210.741 263.076,-196.841 270.083,-186.604"/>
</g>
<!-- 36 -->
<g id="node36" class="node"><title>36</title>
<ellipse fill="beige" stroke="beige" cx="110.384" cy="-314" rx="28.3955" ry="18"/>
<text text-anchor="middle" x="110.384" y="-310.3" font-family="Times,serif" font-size="14.00">36: 6</text>
</g>
<!-- 32&#45;&gt;36 -->
<g id="edge74" class="edge"><title>32&#45;&gt;36</title>
<path fill="none" stroke="grey" d="M118.721,-368.055C117.017,-357.211 114.813,-343.183 113.099,-332.275"/>
</g>
<!-- 32&#45;&gt;38 -->
<g id="edge75" class="edge"><title>32&#45;&gt;38</title>
<path fill="none" stroke="grey" d="M136.632,-370.578C140.705,-365.968 144.712,-360.598 147.384,-355 162.276,-323.806 166.154,-282.923 167.117,-260.174"/>
</g>
<!-- 34 -->
<g id="node34" class="node"><title>34</title>
<ellipse fill="blue" stroke="blue" cx="703.384" cy="-602" rx="28.3955" ry="18"/>
<text text-anchor="middle" x="703.384" y="-598.3" font-family="Times,serif" font-size="14.00" fill="white">34: 1</text>
</g>
<!-- 33&#45;&gt;34 -->
<g id="edge76" class="edge"><title>33&#45;&gt;34</title>
<path fill="none" stroke="grey" d="M710.159,-655.697C708.764,-644.846 706.973,-630.917 705.583,-620.104"/>
</g>
<!-- 33&#45;&gt;35 -->
<g id="edge77" class="edge"><title>33&#45;&gt;35</title>
<path fill="none" stroke="grey" d="M729.175,-659.346C733.688,-654.687 737.98,-649.098 740.384,-643 750,-618.604 752.442,-607.286 740.384,-584 729.607,-563.187 706.477,-548.801 688.734,-540.324"/>
</g>
<!-- 34&#45;&gt;35 -->
<g id="edge78" class="edge"><title>34&#45;&gt;35</title>
<path fill="none" stroke="grey" d="M694.57,-584.765C688.431,-573.456 680.278,-558.437 674.15,-547.147"/>
</g>
<!-- 37 -->
<g id="node37" class="node"><title>37</title>
<ellipse fill="beige" stroke="beige" cx="92.3839" cy="-242" rx="28.3955" ry="18"/>
<text text-anchor="middle" x="92.3839" y="-238.3" font-family="Times,serif" font-size="14.00">37: 2</text>
</g>
<!-- 36&#45;&gt;37 -->
<g id="edge79" class="edge"><title>36&#45;&gt;37</title>
<path fill="none" stroke="grey" d="M106.027,-296.055C103.238,-285.211 99.631,-271.183 96.8262,-260.275"/>
</g>
<!-- 36&#45;&gt;38 -->
<g id="edge80" class="edge"><title>36&#45;&gt;38</title>
<path fill="none" stroke="grey" d="M123.034,-297.465C132.48,-285.865 145.332,-270.082 154.769,-258.492"/>
</g>
<!-- 39 -->
<g id="node39" class="node"><title>39</title>
<ellipse fill="beige" stroke="beige" cx="72.3839" cy="-170" rx="28.3955" ry="18"/>
<text text-anchor="middle" x="72.3839" y="-166.3" font-family="Times,serif" font-size="14.00">39: 2</text>
</g>
<!-- 36&#45;&gt;39 -->
<g id="edge81" class="edge"><title>36&#45;&gt;39</title>
<path fill="none" stroke="grey" d="M90.8737,-300.819C77.8466,-291.451 61.7931,-277.214 54.3839,-260 44.038,-235.963 54.6779,-205.677 63.4378,-187.353"/>
</g>
<!-- 40 -->
<g id="node40" class="node"><title>40</title>
<ellipse fill="beige" stroke="beige" cx="62.3839" cy="-98" rx="28.3955" ry="18"/>
<text text-anchor="middle" x="62.3839" y="-94.3" font-family="Times,serif" font-size="14.00">40: 2</text>
</g>
<!-- 36&#45;&gt;40 -->
<g id="edge82" class="edge"><title>36&#45;&gt;40</title>
<path fill="none" stroke="grey" d="M90.083,-301.158C75.7615,-291.768 57.2596,-277.36 46.3839,-260 34.4806,-240.999 37.0699,-233.26 34.3839,-211 31.2426,-184.967 28.0741,-177.452 34.3839,-152 37.6894,-138.667 45.0304,-124.993 51.3665,-114.874"/>
</g>
<!-- 38&#45;&gt;39 -->
<g id="edge83" class="edge"><title>38&#45;&gt;39</title>
<path fill="none" stroke="grey" d="M149.515,-227.834C132.531,-215.319 107.131,-196.603 90.1726,-184.107"/>
</g>
<!-- 38&#45;&gt;41 -->
<g id="edge84" class="edge"><title>38&#45;&gt;41</title>
<path fill="none" stroke="grey" d="M186.981,-228.967C207.862,-216.145 240.732,-195.962 261.661,-183.111"/>
</g>
<!-- 43 -->
<g id="node43" class="node"><title>43</title>
<ellipse fill="beige" stroke="beige" cx="256.384" cy="-26" rx="28.3955" ry="18"/>
<text text-anchor="middle" x="256.384" y="-22.3" font-family="Times,serif" font-size="14.00">43: 2</text>
</g>
<!-- 38&#45;&gt;43 -->
<g id="edge85" class="edge"><title>38&#45;&gt;43</title>
<path fill="none" stroke="grey" d="M145.679,-230.019C140.449,-227.732 134.804,-225.549 129.384,-224 108.896,-218.146 49.2146,-226.3 34.3839,-211 -6.25773,-169.073 -12.0182,-125.656 24.3839,-80 49.6254,-48.3419 172.21,-34.0926 228.285,-29.1523"/>
</g>
<!-- 39&#45;&gt;40 -->
<g id="edge86" class="edge"><title>39&#45;&gt;40</title>
<path fill="none" stroke="grey" d="M69.9632,-152.055C68.4141,-141.211 66.4101,-127.183 64.8518,-116.275"/>
</g>
<!-- 41&#45;&gt;42 -->
<g id="edge87" class="edge"><title>41&#45;&gt;42</title>
<path fill="none" stroke="grey" d="M287.783,-152.411C292.024,-141.414 297.573,-127.027 301.844,-115.956"/>
</g>
<!-- 41&#45;&gt;43 -->
<g id="edge88" class="edge"><title>41&#45;&gt;43</title>
<path fill="none" stroke="grey" d="M275.8,-151.986C272.609,-141.675 268.779,-128.199 266.384,-116 261.532,-91.283 258.816,-62.2083 257.476,-44.189"/>
</g>
<!-- 42&#45;&gt;43 -->
<g id="edge89" class="edge"><title>42&#45;&gt;43</title>
<path fill="none" stroke="grey" d="M296.584,-81.1159C288.074,-69.66 276.636,-54.2627 268.137,-42.8212"/>
</g>
</g>
</svg>
