<?xml version="1.0" encoding="UTF-8" standalone="no"?>
<!DOCTYPE svg PUBLIC "-//W3C//DTD SVG 1.1//EN"
 "http://www.w3.org/Graphics/SVG/1.1/DTD/svg11.dtd">
<!-- Generated by graphviz version 2.36.0 (20140111.2315)
 -->
<!-- Title: G Pages: 1 -->
<svg width="826pt" height="1753pt"
 viewBox="7.20 7.20 818.60 1746.20" xmlns="http://www.w3.org/2000/svg" xmlns:xlink="http://www.w3.org/1999/xlink">
<g id="graph0" class="graph" transform="scale(1 1) rotate(0) translate(11.2 1742.2)">
<title>G</title>
<polygon fill="white" stroke="none" points="-4,4 -4,-1735 807.401,-1735 807.401,4 -4,4"/>
<g id="clust1" class="cluster"><title>cluster1</title>
<polygon fill="sandybrown" stroke="sandybrown" points="559.401,-1592 559.401,-1723 685.401,-1723 685.401,-1592 559.401,-1592"/>
<text text-anchor="middle" x="622.401" y="-1707.8" font-family="Times,serif" font-size="14.00">Super region 1 [3]</text>
</g>
<g id="clust2" class="cluster"><title>cluster2</title>
<polygon fill="sandybrown" stroke="sandybrown" points="629.401,-1160 629.401,-1579 795.401,-1579 795.401,-1160 629.401,-1160"/>
<text text-anchor="middle" x="712.401" y="-1563.8" font-family="Times,serif" font-size="14.00">Super region 2 [6]</text>
</g>
<g id="clust3" class="cluster"><title>cluster3</title>
<polygon fill="sandybrown" stroke="sandybrown" points="468.401,-1088 468.401,-1363 622.401,-1363 622.401,-1088 468.401,-1088"/>
<text text-anchor="middle" x="545.401" y="-1347.8" font-family="Times,serif" font-size="14.00">Super region 3 [3]</text>
</g>
<g id="clust4" class="cluster"><title>cluster4</title>
<polygon fill="sandybrown" stroke="sandybrown" points="540.401,-800 540.401,-1075 694.401,-1075 694.401,-800 540.401,-800"/>
<text text-anchor="middle" x="617.401" y="-1059.8" font-family="Times,serif" font-size="14.00">Super region 4 [4]</text>
</g>
<g id="clust5" class="cluster"><title>cluster5</title>
<polygon fill="sandybrown" stroke="sandybrown" points="366.401,-512 366.401,-859 540.401,-859 540.401,-512 366.401,-512"/>
<text text-anchor="middle" x="453.401" y="-843.8" font-family="Times,serif" font-size="14.00">Super region 5 [4]</text>
</g>
<g id="clust6" class="cluster"><title>cluster6</title>
<polygon fill="sandybrown" stroke="sandybrown" points="92.4011,-368 92.4011,-643 234.401,-643 234.401,-368 92.4011,-368"/>
<text text-anchor="middle" x="163.401" y="-627.8" font-family="Times,serif" font-size="14.00">Super region 6 [3]</text>
</g>
<g id="clust7" class="cluster"><title>cluster7</title>
<polygon fill="sandybrown" stroke="sandybrown" points="636.401,-512 636.401,-715 752.401,-715 752.401,-512 636.401,-512"/>
<text text-anchor="middle" x="694.401" y="-699.8" font-family="Times,serif" font-size="14.00">Super region 7 [3]</text>
</g>
<g id="clust8" class="cluster"><title>cluster8</title>
<polygon fill="sandybrown" stroke="sandybrown" points="23.4011,-80 23.4011,-355 196.401,-355 196.401,-80 23.4011,-80"/>
<text text-anchor="middle" x="109.901" y="-339.8" font-family="Times,serif" font-size="14.00">Super region 8 [2]</text>
</g>
<g id="clust9" class="cluster"><title>cluster9</title>
<polygon fill="sandybrown" stroke="sandybrown" points="224.401,-8 224.401,-211 340.401,-211 340.401,-8 224.401,-8"/>
<text text-anchor="middle" x="282.401" y="-195.8" font-family="Times,serif" font-size="14.00">Super region 9 [2]</text>
</g>
<!-- 1 -->
<g id="node1" class="node"><title>1</title>
<ellipse fill="blue" stroke="blue" cx="622.401" cy="-1682" rx="27" ry="18"/>
<text text-anchor="middle" x="622.401" y="-1678.3" font-family="Times,serif" font-size="14.00" fill="white">1: 1</text>
</g>
<!-- 2 -->
<g id="node2" class="node"><title>2</title>
<ellipse fill="blue" stroke="blue" cx="658.401" cy="-1610" rx="27" ry="18"/>
<text text-anchor="middle" x="658.401" y="-1606.3" font-family="Times,serif" font-size="14.00" fill="white">2: 1</text>
</g>
<!-- 1&#45;&gt;2 -->
<g id="edge1" class="edge"><title>1&#45;&gt;2</title>
<path fill="none" stroke="grey" d="M630.751,-1664.76C636.567,-1653.46 644.291,-1638.44 650.097,-1627.15"/>
</g>
<!-- 3 -->
<g id="node3" class="node"><title>3</title>
<ellipse fill="blue" stroke="blue" cx="586.401" cy="-1610" rx="27" ry="18"/>
<text text-anchor="middle" x="586.401" y="-1606.3" font-family="Times,serif" font-size="14.00" fill="white">3: 1</text>
</g>
<!-- 1&#45;&gt;3 -->
<g id="edge2" class="edge"><title>1&#45;&gt;3</title>
<path fill="none" stroke="grey" d="M614.052,-1664.76C608.236,-1653.46 600.511,-1638.44 594.705,-1627.15"/>
</g>
<!-- 4 -->
<g id="node4" class="node"><title>4</title>
<ellipse fill="blue" stroke="blue" cx="696.401" cy="-1538" rx="27" ry="18"/>
<text text-anchor="middle" x="696.401" y="-1534.3" font-family="Times,serif" font-size="14.00" fill="white">4: 1</text>
</g>
<!-- 1&#45;&gt;4 -->
<g id="edge3" class="edge"><title>1&#45;&gt;4</title>
<path fill="none" stroke="grey" d="M644.721,-1671.37C661.7,-1662.72 683.878,-1648.24 694.401,-1628 706.234,-1605.24 703.562,-1574.57 700.221,-1555.83"/>
</g>
<!-- 6 -->
<g id="node6" class="node"><title>6</title>
<ellipse fill="blue" stroke="blue" cx="702.401" cy="-1394" rx="27" ry="18"/>
<text text-anchor="middle" x="702.401" y="-1390.3" font-family="Times,serif" font-size="14.00" fill="white">6: 1</text>
</g>
<!-- 1&#45;&gt;6 -->
<g id="edge4" class="edge"><title>1&#45;&gt;6</title>
<path fill="none" stroke="grey" d="M645.522,-1672.66C665.902,-1664.24 695.12,-1649.41 713.401,-1628 728.567,-1610.24 725.416,-1601.29 732.401,-1579 750.08,-1522.59 778.023,-1502.61 755.401,-1448 748.429,-1431.17 733.232,-1416.9 720.891,-1407.42"/>
</g>
<!-- 11 -->
<g id="node11" class="node"><title>11</title>
<ellipse fill="blue" stroke="blue" cx="544.401" cy="-1322" rx="28.3955" ry="18"/>
<text text-anchor="middle" x="544.401" y="-1318.3" font-family="Times,serif" font-size="14.00" fill="white">11: 1</text>
</g>
<!-- 1&#45;&gt;11 -->
<g id="edge5" class="edge"><title>1&#45;&gt;11</title>
<path fill="none" stroke="grey" d="M601.089,-1670.78C584.68,-1661.8 562.777,-1647.17 550.401,-1628 528.463,-1594.02 531.401,-1579.45 531.401,-1539 531.401,-1539 531.401,-1539 531.401,-1465 531.401,-1419.7 538.044,-1366.6 541.833,-1340"/>
</g>
<!-- 13 -->
<g id="node13" class="node"><title>13</title>
<ellipse fill="blue" stroke="blue" cx="593.401" cy="-1250" rx="28.3955" ry="18"/>
<text text-anchor="middle" x="593.401" y="-1246.3" font-family="Times,serif" font-size="14.00" fill="white">13: 1</text>
</g>
<!-- 1&#45;&gt;13 -->
<g id="edge6" class="edge"><title>1&#45;&gt;13</title>
<path fill="none" stroke="grey" d="M599.431,-1672.36C579.098,-1663.74 549.732,-1648.79 530.401,-1628 500.485,-1595.83 487.401,-1582.93 487.401,-1539 487.401,-1539 487.401,-1539 487.401,-1393 487.401,-1352.55 482.999,-1336.99 506.401,-1304 521.853,-1282.22 549.345,-1267.69 569.298,-1259.44"/>
</g>
<!-- 2&#45;&gt;4 -->
<g id="edge7" class="edge"><title>2&#45;&gt;4</title>
<path fill="none" stroke="grey" d="M667.215,-1592.76C673.354,-1581.46 681.507,-1566.44 687.635,-1555.15"/>
</g>
<!-- 3&#45;&gt;11 -->
<g id="edge8" class="edge"><title>3&#45;&gt;11</title>
<path fill="none" stroke="grey" d="M583.9,-1591.97C576.43,-1541.1 554.343,-1390.7 546.89,-1339.94"/>
</g>
<!-- 5 -->
<g id="node5" class="node"><title>5</title>
<ellipse fill="blue" stroke="blue" cx="719.401" cy="-1466" rx="27" ry="18"/>
<text text-anchor="middle" x="719.401" y="-1462.3" font-family="Times,serif" font-size="14.00" fill="white">5: 1</text>
</g>
<!-- 4&#45;&gt;5 -->
<g id="edge9" class="edge"><title>4&#45;&gt;5</title>
<path fill="none" stroke="grey" d="M701.969,-1520.05C705.585,-1509.05 710.279,-1494.76 713.885,-1483.79"/>
</g>
<!-- 4&#45;&gt;6 -->
<g id="edge10" class="edge"><title>4&#45;&gt;6</title>
<path fill="none" stroke="grey" d="M690.775,-1520.23C685.504,-1502.3 679.042,-1473.08 683.401,-1448 685.611,-1435.29 690.593,-1421.59 694.902,-1411.31"/>
</g>
<!-- 5&#45;&gt;6 -->
<g id="edge11" class="edge"><title>5&#45;&gt;6</title>
<path fill="none" stroke="grey" d="M715.286,-1448.05C712.652,-1437.21 709.246,-1423.18 706.597,-1412.28"/>
</g>
<!-- 7 -->
<g id="node7" class="node"><title>7</title>
<ellipse fill="blue" stroke="blue" cx="748.401" cy="-1322" rx="27" ry="18"/>
<text text-anchor="middle" x="748.401" y="-1318.3" font-family="Times,serif" font-size="14.00" fill="white">7: 1</text>
</g>
<!-- 5&#45;&gt;7 -->
<g id="edge12" class="edge"><title>5&#45;&gt;7</title>
<path fill="none" stroke="grey" d="M726.403,-1448.59C730.524,-1438.27 735.484,-1424.57 738.401,-1412 744.096,-1387.46 746.588,-1358.34 747.65,-1340.26"/>
</g>
<!-- 9 -->
<g id="node9" class="node"><title>9</title>
<ellipse fill="blue" stroke="blue" cx="747.401" cy="-1250" rx="27" ry="18"/>
<text text-anchor="middle" x="747.401" y="-1246.3" font-family="Times,serif" font-size="14.00" fill="white">9: 1</text>
</g>
<!-- 5&#45;&gt;9 -->
<g id="edge13" class="edge"><title>5&#45;&gt;9</title>
<path fill="none" stroke="grey" d="M732.816,-1450.13C748.725,-1431.4 774.351,-1397.47 784.401,-1363 791.741,-1337.83 792.269,-1329.01 784.401,-1304 779.889,-1289.66 769.963,-1275.81 761.527,-1265.86"/>
</g>
<!-- 6&#45;&gt;7 -->
<g id="edge14" class="edge"><title>6&#45;&gt;7</title>
<path fill="none" stroke="grey" d="M712.839,-1377.12C720.367,-1365.66 730.486,-1350.26 738.004,-1338.82"/>
</g>
<!-- 8 -->
<g id="node8" class="node"><title>8</title>
<ellipse fill="blue" stroke="blue" cx="656.401" cy="-1322" rx="27" ry="18"/>
<text text-anchor="middle" x="656.401" y="-1318.3" font-family="Times,serif" font-size="14.00" fill="white">8: 1</text>
</g>
<!-- 6&#45;&gt;8 -->
<g id="edge15" class="edge"><title>6&#45;&gt;8</title>
<path fill="none" stroke="grey" d="M691.963,-1377.12C684.435,-1365.66 674.317,-1350.26 666.798,-1338.82"/>
</g>
<!-- 6&#45;&gt;9 -->
<g id="edge16" class="edge"><title>6&#45;&gt;9</title>
<path fill="none" stroke="grey" d="M701.982,-1375.73C702.072,-1357.39 703.764,-1327.83 712.401,-1304 717.437,-1290.11 726.79,-1276.24 734.562,-1266.17"/>
</g>
<!-- 6&#45;&gt;13 -->
<g id="edge17" class="edge"><title>6&#45;&gt;13</title>
<path fill="none" stroke="grey" d="M675.851,-1389.86C657.727,-1386.33 634.527,-1378.84 620.401,-1363 596.57,-1336.28 592.865,-1292.17 592.792,-1268.05"/>
</g>
<!-- 7&#45;&gt;9 -->
<g id="edge18" class="edge"><title>7&#45;&gt;9</title>
<path fill="none" stroke="grey" d="M748.154,-1303.7C747.999,-1292.85 747.8,-1278.92 747.645,-1268.1"/>
</g>
<!-- 8&#45;&gt;9 -->
<g id="edge19" class="edge"><title>8&#45;&gt;9</title>
<path fill="none" stroke="grey" d="M673.518,-1307.83C689.787,-1295.32 714.118,-1276.6 730.361,-1264.11"/>
</g>
<!-- 8&#45;&gt;13 -->
<g id="edge20" class="edge"><title>8&#45;&gt;13</title>
<path fill="none" stroke="grey" d="M643.04,-1306.15C632.494,-1294.44 617.831,-1278.14 607.178,-1266.31"/>
</g>
<!-- 14 -->
<g id="node14" class="node"><title>14</title>
<ellipse fill="blue" stroke="blue" cx="569.401" cy="-1178" rx="28.3955" ry="18"/>
<text text-anchor="middle" x="569.401" y="-1174.3" font-family="Times,serif" font-size="14.00" fill="white">14: 1</text>
</g>
<!-- 8&#45;&gt;14 -->
<g id="edge21" class="edge"><title>8&#45;&gt;14</title>
<path fill="none" stroke="grey" d="M654.313,-1303.73C651.389,-1284.87 644.73,-1254.36 630.401,-1232 619.729,-1215.34 602.308,-1200.96 588.81,-1191.39"/>
</g>
<!-- 15 -->
<g id="node15" class="node"><title>15</title>
<ellipse fill="blue" stroke="blue" cx="569.401" cy="-1106" rx="28.3955" ry="18"/>
<text text-anchor="middle" x="569.401" y="-1102.3" font-family="Times,serif" font-size="14.00" fill="white">15: 1</text>
</g>
<!-- 8&#45;&gt;15 -->
<g id="edge22" class="edge"><title>8&#45;&gt;15</title>
<path fill="none" stroke="grey" d="M658.215,-1303.81C659.553,-1285.54 660.013,-1256.03 652.401,-1232 638.322,-1187.55 603.353,-1144.15 583.59,-1122.06"/>
</g>
<!-- 10 -->
<g id="node10" class="node"><title>10</title>
<ellipse fill="blue" stroke="blue" cx="747.401" cy="-1178" rx="28.3955" ry="18"/>
<text text-anchor="middle" x="747.401" y="-1174.3" font-family="Times,serif" font-size="14.00" fill="white">10: 1</text>
</g>
<!-- 9&#45;&gt;10 -->
<g id="edge23" class="edge"><title>9&#45;&gt;10</title>
<path fill="none" stroke="grey" d="M747.401,-1231.7C747.401,-1220.85 747.401,-1206.92 747.401,-1196.1"/>
</g>
<!-- 12 -->
<g id="node12" class="node"><title>12</title>
<ellipse fill="blue" stroke="blue" cx="497.401" cy="-1250" rx="28.3955" ry="18"/>
<text text-anchor="middle" x="497.401" y="-1246.3" font-family="Times,serif" font-size="14.00" fill="white">12: 1</text>
</g>
<!-- 11&#45;&gt;12 -->
<g id="edge24" class="edge"><title>11&#45;&gt;12</title>
<path fill="none" stroke="grey" d="M533.736,-1305.12C526.044,-1293.66 515.706,-1278.26 508.024,-1266.82"/>
</g>
<!-- 11&#45;&gt;13 -->
<g id="edge25" class="edge"><title>11&#45;&gt;13</title>
<path fill="none" stroke="grey" d="M555.52,-1305.12C563.539,-1293.66 574.317,-1278.26 582.326,-1266.82"/>
</g>
<!-- 11&#45;&gt;14 -->
<g id="edge26" class="edge"><title>11&#45;&gt;14</title>
<path fill="none" stroke="grey" d="M545.828,-1303.83C547.487,-1285.83 550.623,-1256.76 555.401,-1232 557.745,-1219.85 561.319,-1206.37 564.269,-1196.05"/>
</g>
<!-- 12&#45;&gt;14 -->
<g id="edge27" class="edge"><title>12&#45;&gt;14</title>
<path fill="none" stroke="grey" d="M512.32,-1234.5C524.677,-1222.48 542.15,-1205.49 554.502,-1193.49"/>
</g>
<!-- 12&#45;&gt;15 -->
<g id="edge28" class="edge"><title>12&#45;&gt;15</title>
<path fill="none" stroke="grey" d="M502.44,-1232.03C508.212,-1213.7 518.552,-1183.89 531.401,-1160 538.588,-1146.64 548.662,-1132.74 556.633,-1122.53"/>
</g>
<!-- 13&#45;&gt;14 -->
<g id="edge29" class="edge"><title>13&#45;&gt;14</title>
<path fill="none" stroke="grey" d="M587.591,-1232.05C583.818,-1221.05 578.92,-1206.76 575.157,-1195.79"/>
</g>
<!-- 14&#45;&gt;15 -->
<g id="edge30" class="edge"><title>14&#45;&gt;15</title>
<path fill="none" stroke="grey" d="M569.401,-1159.7C569.401,-1148.85 569.401,-1134.92 569.401,-1124.1"/>
</g>
<!-- 17 -->
<g id="node17" class="node"><title>17</title>
<ellipse fill="blue" stroke="blue" cx="569.401" cy="-1034" rx="28.3955" ry="18"/>
<text text-anchor="middle" x="569.401" y="-1030.3" font-family="Times,serif" font-size="14.00" fill="white">17: 1</text>
</g>
<!-- 15&#45;&gt;17 -->
<g id="edge31" class="edge"><title>15&#45;&gt;17</title>
<path fill="none" stroke="grey" d="M569.401,-1087.7C569.401,-1076.85 569.401,-1062.92 569.401,-1052.1"/>
</g>
<!-- 16 -->
<g id="node16" class="node"><title>16</title>
<ellipse fill="blue" stroke="blue" cx="644.401" cy="-1034" rx="28.3955" ry="18"/>
<text text-anchor="middle" x="644.401" y="-1030.3" font-family="Times,serif" font-size="14.00" fill="white">16: 1</text>
</g>
<!-- 18 -->
<g id="node18" class="node"><title>18</title>
<ellipse fill="blue" stroke="blue" cx="617.401" cy="-962" rx="28.3955" ry="18"/>
<text text-anchor="middle" x="617.401" y="-958.3" font-family="Times,serif" font-size="14.00" fill="white">18: 1</text>
</g>
<!-- 16&#45;&gt;18 -->
<g id="edge32" class="edge"><title>16&#45;&gt;18</title>
<path fill="none" stroke="grey" d="M638.003,-1016.41C633.761,-1005.41 628.212,-991.027 623.941,-979.956"/>
</g>
<!-- 17&#45;&gt;18 -->
<g id="edge33" class="edge"><title>17&#45;&gt;18</title>
<path fill="none" stroke="grey" d="M580.293,-1017.12C588.149,-1005.66 598.707,-990.263 606.552,-978.821"/>
</g>
<!-- 23 -->
<g id="node23" class="node"><title>23</title>
<ellipse fill="blue" stroke="blue" cx="463.401" cy="-746" rx="28.3955" ry="18"/>
<text text-anchor="middle" x="463.401" y="-742.3" font-family="Times,serif" font-size="14.00" fill="white">23: 1</text>
</g>
<!-- 17&#45;&gt;23 -->
<g id="edge34" class="edge"><title>17&#45;&gt;23</title>
<path fill="none" stroke="grey" d="M557.523,-1017.27C536.13,-987.96 491.567,-922.216 472.401,-859 462.553,-826.518 461.934,-786.45 462.549,-764.114"/>
</g>
<!-- 19 -->
<g id="node19" class="node"><title>19</title>
<ellipse fill="blue" stroke="blue" cx="569.401" cy="-890" rx="28.3955" ry="18"/>
<text text-anchor="middle" x="569.401" y="-886.3" font-family="Times,serif" font-size="14.00" fill="white">19: 1</text>
</g>
<!-- 18&#45;&gt;19 -->
<g id="edge35" class="edge"><title>18&#45;&gt;19</title>
<path fill="none" stroke="grey" d="M606.509,-945.116C598.654,-933.66 588.096,-918.263 580.25,-906.821"/>
</g>
<!-- 20 -->
<g id="node20" class="node"><title>20</title>
<ellipse fill="blue" stroke="blue" cx="665.401" cy="-890" rx="28.3955" ry="18"/>
<text text-anchor="middle" x="665.401" y="-886.3" font-family="Times,serif" font-size="14.00" fill="white">20: 1</text>
</g>
<!-- 18&#45;&gt;20 -->
<g id="edge36" class="edge"><title>18&#45;&gt;20</title>
<path fill="none" stroke="grey" d="M628.293,-945.116C636.149,-933.66 646.707,-918.263 654.552,-906.821"/>
</g>
<!-- 21 -->
<g id="node21" class="node"><title>21</title>
<ellipse fill="blue" stroke="blue" cx="589.401" cy="-818" rx="28.3955" ry="18"/>
<text text-anchor="middle" x="589.401" y="-814.3" font-family="Times,serif" font-size="14.00" fill="white">21: 1</text>
</g>
<!-- 18&#45;&gt;21 -->
<g id="edge37" class="edge"><title>18&#45;&gt;21</title>
<path fill="none" stroke="grey" d="M616.234,-943.777C614.788,-925.729 611.824,-896.632 606.401,-872 603.7,-859.732 599.359,-846.256 595.739,-835.963"/>
</g>
<!-- 18&#45;&gt;23 -->
<g id="edge38" class="edge"><title>18&#45;&gt;23</title>
<path fill="none" stroke="grey" d="M594.388,-951.36C575.434,-942.449 548.919,-927.627 531.401,-908 492.609,-864.537 473.755,-795.706 466.753,-764.007"/>
</g>
<!-- 33 -->
<g id="node33" class="node"><title>33</title>
<ellipse fill="blue" stroke="blue" cx="712.401" cy="-674" rx="28.3955" ry="18"/>
<text text-anchor="middle" x="712.401" y="-670.3" font-family="Times,serif" font-size="14.00" fill="white">33: 1</text>
</g>
<!-- 18&#45;&gt;33 -->
<g id="edge39" class="edge"><title>18&#45;&gt;33</title>
<path fill="none" stroke="grey" d="M642.292,-952.854C662.334,-944.856 689.257,-930.532 702.401,-908 743.713,-837.179 725.925,-732.61 716.686,-691.996"/>
</g>
<!-- 19&#45;&gt;21 -->
<g id="edge40" class="edge"><title>19&#45;&gt;21</title>
<path fill="none" stroke="grey" d="M574.243,-872.055C577.387,-861.049 581.469,-846.764 584.604,-835.789"/>
</g>
<!-- 19&#45;&gt;23 -->
<g id="edge41" class="edge"><title>19&#45;&gt;23</title>
<path fill="none" stroke="grey" d="M559.084,-872.896C547.324,-854.796 527.279,-824.709 508.401,-800 498.288,-786.763 486.002,-772.396 476.824,-761.964"/>
</g>
<!-- 20&#45;&gt;21 -->
<g id="edge42" class="edge"><title>20&#45;&gt;21</title>
<path fill="none" stroke="grey" d="M649.589,-874.693C644.131,-869.736 637.986,-864.136 632.401,-859 623.245,-850.58 613.05,-841.101 604.886,-833.484"/>
</g>
<!-- 20&#45;&gt;33 -->
<g id="edge43" class="edge"><title>20&#45;&gt;33</title>
<path fill="none" stroke="grey" d="M669.168,-871.849C677.99,-831.68 699.907,-731.89 708.682,-691.935"/>
</g>
<!-- 35 -->
<g id="node35" class="node"><title>35</title>
<ellipse fill="blue" stroke="blue" cx="665.401" cy="-530" rx="28.3955" ry="18"/>
<text text-anchor="middle" x="665.401" y="-526.3" font-family="Times,serif" font-size="14.00" fill="white">35: 1</text>
</g>
<!-- 20&#45;&gt;35 -->
<g id="edge44" class="edge"><title>20&#45;&gt;35</title>
<path fill="none" stroke="grey" d="M661.647,-872.049C656.11,-845.521 646.401,-792.517 646.401,-747 646.401,-747 646.401,-747 646.401,-673 646.401,-627.483 656.11,-574.479 661.647,-547.951"/>
</g>
<!-- 21&#45;&gt;23 -->
<g id="edge45" class="edge"><title>21&#45;&gt;23</title>
<path fill="none" stroke="grey" d="M568.877,-805.597C545.586,-792.658 507.797,-771.664 484.337,-758.631"/>
</g>
<!-- 26 -->
<g id="node26" class="node"><title>26</title>
<ellipse fill="blue" stroke="blue" cx="511.401" cy="-602" rx="28.3955" ry="18"/>
<text text-anchor="middle" x="511.401" y="-598.3" font-family="Times,serif" font-size="14.00" fill="white">26: 1</text>
</g>
<!-- 21&#45;&gt;26 -->
<g id="edge46" class="edge"><title>21&#45;&gt;26</title>
<path fill="none" stroke="grey" d="M583.281,-800.208C568.7,-760.204 532.045,-659.639 517.493,-619.714"/>
</g>
<!-- 21&#45;&gt;35 -->
<g id="edge47" class="edge"><title>21&#45;&gt;35</title>
<path fill="none" stroke="grey" d="M590.386,-799.738C593.103,-760.268 602.6,-660.902 632.401,-584 637.649,-570.457 646.445,-556.57 653.636,-546.411"/>
</g>
<!-- 22 -->
<g id="node22" class="node"><title>22</title>
<ellipse fill="blue" stroke="blue" cx="397.401" cy="-818" rx="28.3955" ry="18"/>
<text text-anchor="middle" x="397.401" y="-814.3" font-family="Times,serif" font-size="14.00" fill="white">22: 1</text>
</g>
<!-- 22&#45;&gt;23 -->
<g id="edge48" class="edge"><title>22&#45;&gt;23</title>
<path fill="none" stroke="grey" d="M411.398,-802.155C422.598,-790.276 438.229,-773.697 449.424,-761.824"/>
</g>
<!-- 24 -->
<g id="node24" class="node"><title>24</title>
<ellipse fill="blue" stroke="blue" cx="395.401" cy="-674" rx="28.3955" ry="18"/>
<text text-anchor="middle" x="395.401" y="-670.3" font-family="Times,serif" font-size="14.00" fill="white">24: 1</text>
</g>
<!-- 22&#45;&gt;24 -->
<g id="edge49" class="edge"><title>22&#45;&gt;24</title>
<path fill="none" stroke="grey" d="M397.16,-799.871C396.775,-772.578 396.028,-719.52 395.643,-692.189"/>
</g>
<!-- 23&#45;&gt;24 -->
<g id="edge50" class="edge"><title>23&#45;&gt;24</title>
<path fill="none" stroke="grey" d="M448.98,-730.155C437.44,-718.276 421.336,-701.697 409.801,-689.824"/>
</g>
<!-- 25 -->
<g id="node25" class="node"><title>25</title>
<ellipse fill="blue" stroke="blue" cx="415.401" cy="-602" rx="28.3955" ry="18"/>
<text text-anchor="middle" x="415.401" y="-598.3" font-family="Times,serif" font-size="14.00" fill="white">25: 1</text>
</g>
<!-- 23&#45;&gt;25 -->
<g id="edge51" class="edge"><title>23&#45;&gt;25</title>
<path fill="none" stroke="grey" d="M457.706,-728.153C448.468,-700.824 430.322,-647.14 421.088,-619.825"/>
</g>
<!-- 23&#45;&gt;26 -->
<g id="edge52" class="edge"><title>23&#45;&gt;26</title>
<path fill="none" stroke="grey" d="M469.096,-728.153C478.334,-700.824 496.481,-647.14 505.714,-619.825"/>
</g>
<!-- 27 -->
<g id="node27" class="node"><title>27</title>
<ellipse fill="blue" stroke="blue" cx="415.401" cy="-530" rx="33.2209" ry="18"/>
<text text-anchor="middle" x="415.401" y="-526.3" font-family="Times,serif" font-size="14.00" fill="white">27: 41</text>
</g>
<!-- 23&#45;&gt;27 -->
<g id="edge53" class="edge"><title>23&#45;&gt;27</title>
<path fill="none" stroke="grey" d="M465.152,-727.951C467.61,-697.895 470.002,-633.941 452.401,-584 447.478,-570.029 437.794,-556.375 429.569,-546.425"/>
</g>
<!-- 24&#45;&gt;25 -->
<g id="edge54" class="edge"><title>24&#45;&gt;25</title>
<path fill="none" stroke="grey" d="M400.243,-656.055C403.387,-645.049 407.469,-630.764 410.604,-619.789"/>
</g>
<!-- 24&#45;&gt;27 -->
<g id="edge55" class="edge"><title>24&#45;&gt;27</title>
<path fill="none" stroke="grey" d="M383.788,-657.229C381.169,-652.837 378.763,-647.917 377.401,-643 370.402,-617.729 369.376,-608.964 377.401,-584 381.975,-569.772 391.935,-556.125 400.511,-546.244"/>
</g>
<!-- 28 -->
<g id="node28" class="node"><title>28</title>
<ellipse fill="blue" stroke="blue" cx="201.401" cy="-602" rx="33.2209" ry="18"/>
<text text-anchor="middle" x="201.401" y="-598.3" font-family="Times,serif" font-size="14.00" fill="white">28: 29</text>
</g>
<!-- 24&#45;&gt;28 -->
<g id="edge56" class="edge"><title>24&#45;&gt;28</title>
<path fill="none" stroke="grey" d="M371.223,-664.276C334.86,-651.155 266.321,-626.425 228.381,-612.735"/>
</g>
<!-- 41 -->
<g id="node41" class="node"><title>41</title>
<ellipse fill="blue" stroke="blue" cx="281.401" cy="-170" rx="37.5442" ry="18"/>
<text text-anchor="middle" x="281.401" y="-166.3" font-family="Times,serif" font-size="14.00" fill="white">41: 241</text>
</g>
<!-- 24&#45;&gt;41 -->
<g id="edge57" class="edge"><title>24&#45;&gt;41</title>
<path fill="none" stroke="grey" d="M380.142,-658.814C375.828,-654.134 371.476,-648.666 368.401,-643 343.819,-597.709 338.401,-582.533 338.401,-531 338.401,-531 338.401,-531 338.401,-313 338.401,-264.386 309.274,-212.713 292.663,-187.196"/>
</g>
<!-- 25&#45;&gt;27 -->
<g id="edge58" class="edge"><title>25&#45;&gt;27</title>
<path fill="none" stroke="grey" d="M415.401,-583.697C415.401,-572.846 415.401,-558.917 415.401,-548.104"/>
</g>
<!-- 26&#45;&gt;27 -->
<g id="edge59" class="edge"><title>26&#45;&gt;27</title>
<path fill="none" stroke="grey" d="M493.344,-587.834C476.507,-575.556 451.485,-557.311 434.362,-544.826"/>
</g>
<!-- 26&#45;&gt;35 -->
<g id="edge60" class="edge"><title>26&#45;&gt;35</title>
<path fill="none" stroke="grey" d="M533.794,-590.821C562.991,-577.55 613.771,-554.468 642.981,-541.191"/>
</g>
<!-- 27&#45;&gt;41 -->
<g id="edge61" class="edge"><title>27&#45;&gt;41</title>
<path fill="none" stroke="grey" d="M407.696,-512.358C396.33,-486.244 376.401,-433.785 376.401,-387 376.401,-387 376.401,-387 376.401,-313 376.401,-272.031 375.414,-257.894 352.401,-224 340.736,-206.82 321.63,-193.021 306.174,-183.814"/>
</g>
<!-- 42 -->
<g id="node42" class="node"><title>42</title>
<ellipse fill="beige" stroke="beige" cx="306.401" cy="-98" rx="28.3955" ry="18"/>
<text text-anchor="middle" x="306.401" y="-94.3" font-family="Times,serif" font-size="14.00">42: 6</text>
</g>
<!-- 27&#45;&gt;42 -->
<g id="edge62" class="edge"><title>27&#45;&gt;42</title>
<path fill="none" stroke="grey" d="M415.204,-511.951C414.912,-485.292 414.401,-432.116 414.401,-387 414.401,-387 414.401,-387 414.401,-241 414.401,-182.926 356.465,-133.746 325.461,-111.586"/>
</g>
<!-- 29 -->
<g id="node29" class="node"><title>29</title>
<ellipse fill="beige" stroke="beige" cx="149.401" cy="-530" rx="28.3955" ry="18"/>
<text text-anchor="middle" x="149.401" y="-526.3" font-family="Times,serif" font-size="14.00">29: 2</text>
</g>
<!-- 28&#45;&gt;29 -->
<g id="edge63" class="edge"><title>28&#45;&gt;29</title>
<path fill="none" stroke="grey" d="M189.602,-585.116C181.091,-573.66 169.653,-558.263 161.154,-546.821"/>
</g>
<!-- 30 -->
<g id="node30" class="node"><title>30</title>
<ellipse fill="beige" stroke="beige" cx="169.401" cy="-458" rx="28.3955" ry="18"/>
<text text-anchor="middle" x="169.401" y="-454.3" font-family="Times,serif" font-size="14.00">30: 2</text>
</g>
<!-- 28&#45;&gt;30 -->
<g id="edge64" class="edge"><title>28&#45;&gt;30</title>
<path fill="none" stroke="grey" d="M199.247,-583.79C196.815,-565.753 192.402,-536.665 186.401,-512 183.431,-499.794 179.094,-486.317 175.544,-476.008"/>
</g>
<!-- 31 -->
<g id="node31" class="node"><title>31</title>
<ellipse fill="red" stroke="red" cx="201.401" cy="-386" rx="33.2209" ry="18"/>
<text text-anchor="middle" x="201.401" y="-382.3" font-family="Times,serif" font-size="14.00">31: 16</text>
</g>
<!-- 28&#45;&gt;31 -->
<g id="edge65" class="edge"><title>28&#45;&gt;31</title>
<path fill="none" stroke="grey" d="M202.831,-583.601C205.059,-554.066 208.86,-492.236 206.401,-440 205.836,-427.998 204.556,-414.519 203.432,-404.157"/>
</g>
<!-- 28&#45;&gt;41 -->
<g id="edge66" class="edge"><title>28&#45;&gt;41</title>
<path fill="none" stroke="grey" d="M220.022,-587.121C248.7,-563.996 300.401,-514.598 300.401,-459 300.401,-459 300.401,-459 300.401,-313 300.401,-267.483 290.692,-214.479 285.155,-187.951"/>
</g>
<!-- 29&#45;&gt;30 -->
<g id="edge67" class="edge"><title>29&#45;&gt;30</title>
<path fill="none" stroke="grey" d="M154.243,-512.055C157.387,-501.049 161.469,-486.764 164.604,-475.789"/>
</g>
<!-- 32 -->
<g id="node32" class="node"><title>32</title>
<ellipse fill="beige" stroke="beige" cx="121.401" cy="-386" rx="28.3955" ry="18"/>
<text text-anchor="middle" x="121.401" y="-382.3" font-family="Times,serif" font-size="14.00">32: 2</text>
</g>
<!-- 29&#45;&gt;32 -->
<g id="edge68" class="edge"><title>29&#45;&gt;32</title>
<path fill="none" stroke="grey" d="M142.612,-512.081C138.752,-501.804 134.154,-488.329 131.401,-476 125.913,-451.416 123.366,-422.306 122.236,-404.243"/>
</g>
<!-- 30&#45;&gt;31 -->
<g id="edge69" class="edge"><title>30&#45;&gt;31</title>
<path fill="none" stroke="grey" d="M176.985,-440.411C182.012,-429.414 188.589,-415.027 193.65,-403.956"/>
</g>
<!-- 30&#45;&gt;32 -->
<g id="edge70" class="edge"><title>30&#45;&gt;32</title>
<path fill="none" stroke="grey" d="M158.509,-441.116C150.654,-429.66 140.096,-414.263 132.25,-402.821"/>
</g>
<!-- 38 -->
<g id="node38" class="node"><title>38</title>
<ellipse fill="beige" stroke="beige" cx="167.401" cy="-242" rx="28.3955" ry="18"/>
<text text-anchor="middle" x="167.401" y="-238.3" font-family="Times,serif" font-size="14.00">38: 6</text>
</g>
<!-- 30&#45;&gt;38 -->
<g id="edge71" class="edge"><title>30&#45;&gt;38</title>
<path fill="none" stroke="grey" d="M145.236,-448.28C125.579,-439.931 98.6793,-425.416 83.4011,-404 70.4387,-385.83 74.8606,-377.184 72.4011,-355 69.5117,-328.937 59.1233,-318.612 72.4011,-296 76.5611,-288.916 118.954,-266.977 145.685,-253.649"/>
</g>
<!-- 30&#45;&gt;41 -->
<g id="edge72" class="edge"><title>30&#45;&gt;41</title>
<path fill="none" stroke="grey" d="M191.909,-446.911C208.877,-438.085 231.235,-423.603 243.401,-404 287.169,-333.482 285.471,-228.736 282.85,-188.036"/>
</g>
<!-- 31&#45;&gt;41 -->
<g id="edge73" class="edge"><title>31&#45;&gt;41</title>
<path fill="none" stroke="grey" d="M204.758,-368.012C211.025,-338.052 225.937,-274.24 248.401,-224 254.153,-211.136 262.573,-197.67 269.468,-187.53"/>
</g>
<!-- 36 -->
<g id="node36" class="node"><title>36</title>
<ellipse fill="beige" stroke="beige" cx="110.401" cy="-314" rx="28.3955" ry="18"/>
<text text-anchor="middle" x="110.401" y="-310.3" font-family="Times,serif" font-size="14.00">36: 6</text>
</g>
<!-- 32&#45;&gt;36 -->
<g id="edge74" class="edge"><title>32&#45;&gt;36</title>
<path fill="none" stroke="grey" d="M118.738,-368.055C117.034,-357.211 114.83,-343.183 113.116,-332.275"/>
</g>
<!-- 32&#45;&gt;38 -->
<g id="edge75" class="edge"><title>32&#45;&gt;38</title>
<path fill="none" stroke="grey" d="M136.649,-370.578C140.722,-365.968 144.729,-360.598 147.401,-355 162.293,-323.806 166.171,-282.923 167.134,-260.174"/>
</g>
<!-- 34 -->
<g id="node34" class="node"><title>34</title>
<ellipse fill="blue" stroke="blue" cx="703.401" cy="-602" rx="28.3955" ry="18"/>
<text text-anchor="middle" x="703.401" y="-598.3" font-family="Times,serif" font-size="14.00" fill="white">34: 1</text>
</g>
<!-- 33&#45;&gt;34 -->
<g id="edge76" class="edge"><title>33&#45;&gt;34</title>
<path fill="none" stroke="grey" d="M710.176,-655.697C708.781,-644.846 706.99,-630.917 705.6,-620.104"/>
</g>
<!-- 33&#45;&gt;35 -->
<g id="edge77" class="edge"><title>33&#45;&gt;35</title>
<path fill="none" stroke="grey" d="M729.192,-659.346C733.705,-654.687 737.998,-649.098 740.401,-643 750.017,-618.604 752.459,-607.286 740.401,-584 729.624,-563.187 706.494,-548.801 688.751,-540.324"/>
</g>
<!-- 34&#45;&gt;35 -->
<g id="edge78" class="edge"><title>34&#45;&gt;35</title>
<path fill="none" stroke="grey" d="M694.588,-584.765C688.449,-573.456 680.295,-558.437 674.167,-547.147"/>
</g>
<!-- 37 -->
<g id="node37" class="node"><title>37</title>
<ellipse fill="beige" stroke="beige" cx="92.4011" cy="-242" rx="28.3955" ry="18"/>
<text text-anchor="middle" x="92.4011" y="-238.3" font-family="Times,serif" font-size="14.00">37: 2</text>
</g>
<!-- 36&#45;&gt;37 -->
<g id="edge79" class="edge"><title>36&#45;&gt;37</title>
<path fill="none" stroke="grey" d="M106.044,-296.055C103.255,-285.211 99.6482,-271.183 96.8434,-260.275"/>
</g>
<!-- 36&#45;&gt;38 -->
<g id="edge80" class="edge"><title>36&#45;&gt;38</title>
<path fill="none" stroke="grey" d="M123.051,-297.465C132.497,-285.865 145.349,-270.082 154.786,-258.492"/>
</g>
<!-- 39 -->
<g id="node39" class="node"><title>39</title>
<ellipse fill="beige" stroke="beige" cx="72.4011" cy="-170" rx="28.3955" ry="18"/>
<text text-anchor="middle" x="72.4011" y="-166.3" font-family="Times,serif" font-size="14.00">39: 2</text>
</g>
<!-- 36&#45;&gt;39 -->
<g id="edge81" class="edge"><title>36&#45;&gt;39</title>
<path fill="none" stroke="grey" d="M90.8909,-300.819C77.8638,-291.451 61.8104,-277.214 54.4011,-260 44.0552,-235.963 54.6951,-205.677 63.4551,-187.353"/>
</g>
<!-- 40 -->
<g id="node40" class="node"><title>40</title>
<ellipse fill="beige" stroke="beige" cx="62.4011" cy="-98" rx="28.3955" ry="18"/>
<text text-anchor="middle" x="62.4011" y="-94.3" font-family="Times,serif" font-size="14.00">40: 2</text>
</g>
<!-- 36&#45;&gt;40 -->
<g id="edge82" class="edge"><title>36&#45;&gt;40</title>
<path fill="none" stroke="grey" d="M90.1002,-301.158C75.7787,-291.768 57.2768,-277.36 46.4011,-260 34.4978,-240.999 37.0872,-233.26 34.4011,-211 31.2598,-184.967 28.0913,-177.452 34.4011,-152 37.7066,-138.667 45.0476,-124.993 51.3838,-114.874"/>
</g>
<!-- 38&#45;&gt;39 -->
<g id="edge83" class="edge"><title>38&#45;&gt;39</title>
<path fill="none" stroke="grey" d="M149.532,-227.834C132.548,-215.319 107.148,-196.603 90.1898,-184.107"/>
</g>
<!-- 38&#45;&gt;41 -->
<g id="edge84" class="edge"><title>38&#45;&gt;41</title>
<path fill="none" stroke="grey" d="M186.998,-228.967C207.115,-216.614 238.36,-197.429 259.334,-184.55"/>
</g>
<!-- 43 -->
<g id="node43" class="node"><title>43</title>
<ellipse fill="beige" stroke="beige" cx="258.401" cy="-26" rx="28.3955" ry="18"/>
<text text-anchor="middle" x="258.401" y="-22.3" font-family="Times,serif" font-size="14.00">43: 2</text>
</g>
<!-- 38&#45;&gt;43 -->
<g id="edge85" class="edge"><title>38&#45;&gt;43</title>
<path fill="none" stroke="grey" d="M145.696,-230.019C140.467,-227.732 134.822,-225.549 129.401,-224 108.913,-218.146 49.2318,-226.3 34.4011,-211 -6.24052,-169.073 -12.0433,-125.622 24.4011,-80 49.9441,-48.0247 174.142,-33.9101 230.495,-29.0764"/>
</g>
<!-- 39&#45;&gt;40 -->
<g id="edge86" class="edge"><title>39&#45;&gt;40</title>
<path fill="none" stroke="grey" d="M69.9804,-152.055C68.4313,-141.211 66.4273,-127.183 64.869,-116.275"/>
</g>
<!-- 41&#45;&gt;42 -->
<g id="edge87" class="edge"><title>41&#45;&gt;42</title>
<path fill="none" stroke="grey" d="M287.453,-152.055C291.384,-141.049 296.486,-126.764 300.405,-115.789"/>
</g>
<!-- 41&#45;&gt;43 -->
<g id="edge88" class="edge"><title>41&#45;&gt;43</title>
<path fill="none" stroke="grey" d="M276.623,-151.933C273.879,-141.603 270.56,-128.126 268.401,-116 263.986,-91.2013 261.154,-62.1483 259.67,-44.156"/>
</g>
<!-- 42&#45;&gt;43 -->
<g id="edge89" class="edge"><title>42&#45;&gt;43</title>
<path fill="none" stroke="grey" d="M295.509,-81.1159C287.654,-69.66 277.096,-54.2627 269.25,-42.8212"/>
</g>
</g>
</svg>
