<?xml version="1.0" encoding="UTF-8" standalone="no"?>
<!DOCTYPE svg PUBLIC "-//W3C//DTD SVG 1.1//EN"
 "http://www.w3.org/Graphics/SVG/1.1/DTD/svg11.dtd">
<!-- Generated by graphviz version 2.36.0 (20140111.2315)
 -->
<!-- Title: G Pages: 1 -->
<svg width="817pt" height="1753pt"
 viewBox="7.20 7.20 809.63 1746.20" xmlns="http://www.w3.org/2000/svg" xmlns:xlink="http://www.w3.org/1999/xlink">
<g id="graph0" class="graph" transform="scale(1 1) rotate(0) translate(11.2 1742.2)">
<title>G</title>
<polygon fill="white" stroke="none" points="-4,4 -4,-1735 798.435,-1735 798.435,4 -4,4"/>
<g id="clust1" class="cluster"><title>cluster1</title>
<polygon fill="sandybrown" stroke="sandybrown" points="537.435,-1592 537.435,-1723 663.435,-1723 663.435,-1592 537.435,-1592"/>
<text text-anchor="middle" x="600.435" y="-1707.8" font-family="Times,serif" font-size="14.00">Super region 1 [3]</text>
</g>
<g id="clust2" class="cluster"><title>cluster2</title>
<polygon fill="sandybrown" stroke="sandybrown" points="620.435,-1160 620.435,-1579 786.435,-1579 786.435,-1160 620.435,-1160"/>
<text text-anchor="middle" x="703.435" y="-1563.8" font-family="Times,serif" font-size="14.00">Super region 2 [6]</text>
</g>
<g id="clust3" class="cluster"><title>cluster3</title>
<polygon fill="sandybrown" stroke="sandybrown" points="456.435,-1088 456.435,-1363 610.435,-1363 610.435,-1088 456.435,-1088"/>
<text text-anchor="middle" x="533.435" y="-1347.8" font-family="Times,serif" font-size="14.00">Super region 3 [3]</text>
</g>
<g id="clust4" class="cluster"><title>cluster4</title>
<polygon fill="sandybrown" stroke="sandybrown" points="540.435,-800 540.435,-1075 702.435,-1075 702.435,-800 540.435,-800"/>
<text text-anchor="middle" x="621.435" y="-1059.8" font-family="Times,serif" font-size="14.00">Super region 4 [4]</text>
</g>
<g id="clust5" class="cluster"><title>cluster5</title>
<polygon fill="sandybrown" stroke="sandybrown" points="366.435,-512 366.435,-859 540.435,-859 540.435,-512 366.435,-512"/>
<text text-anchor="middle" x="453.435" y="-843.8" font-family="Times,serif" font-size="14.00">Super region 5 [4]</text>
</g>
<g id="clust6" class="cluster"><title>cluster6</title>
<polygon fill="sandybrown" stroke="sandybrown" points="101.435,-368 101.435,-643 234.435,-643 234.435,-368 101.435,-368"/>
<text text-anchor="middle" x="167.935" y="-627.8" font-family="Times,serif" font-size="14.00">Super region 6 [3]</text>
</g>
<g id="clust7" class="cluster"><title>cluster7</title>
<polygon fill="sandybrown" stroke="sandybrown" points="644.435,-512 644.435,-715 760.435,-715 760.435,-512 644.435,-512"/>
<text text-anchor="middle" x="702.435" y="-699.8" font-family="Times,serif" font-size="14.00">Super region 7 [3]</text>
</g>
<g id="clust8" class="cluster"><title>cluster8</title>
<polygon fill="sandybrown" stroke="sandybrown" points="23.4347,-80 23.4347,-355 196.435,-355 196.435,-80 23.4347,-80"/>
<text text-anchor="middle" x="109.935" y="-339.8" font-family="Times,serif" font-size="14.00">Super region 8 [2]</text>
</g>
<g id="clust9" class="cluster"><title>cluster9</title>
<polygon fill="sandybrown" stroke="sandybrown" points="228.435,-8 228.435,-211 344.435,-211 344.435,-8 228.435,-8"/>
<text text-anchor="middle" x="286.435" y="-195.8" font-family="Times,serif" font-size="14.00">Super region 9 [2]</text>
</g>
<!-- 1 -->
<g id="node1" class="node"><title>1</title>
<ellipse fill="blue" stroke="blue" cx="600.435" cy="-1682" rx="27" ry="18"/>
<text text-anchor="middle" x="600.435" y="-1678.3" font-family="Times,serif" font-size="14.00" fill="white">1: 1</text>
</g>
<!-- 2 -->
<g id="node2" class="node"><title>2</title>
<ellipse fill="blue" stroke="blue" cx="636.435" cy="-1610" rx="27" ry="18"/>
<text text-anchor="middle" x="636.435" y="-1606.3" font-family="Times,serif" font-size="14.00" fill="white">2: 1</text>
</g>
<!-- 1&#45;&gt;2 -->
<g id="edge1" class="edge"><title>1&#45;&gt;2</title>
<path fill="none" stroke="grey" d="M608.784,-1664.76C614.6,-1653.46 622.324,-1638.44 628.13,-1627.15"/>
</g>
<!-- 3 -->
<g id="node3" class="node"><title>3</title>
<ellipse fill="blue" stroke="blue" cx="564.435" cy="-1610" rx="27" ry="18"/>
<text text-anchor="middle" x="564.435" y="-1606.3" font-family="Times,serif" font-size="14.00" fill="white">3: 1</text>
</g>
<!-- 1&#45;&gt;3 -->
<g id="edge2" class="edge"><title>1&#45;&gt;3</title>
<path fill="none" stroke="grey" d="M592.085,-1664.76C586.269,-1653.46 578.545,-1638.44 572.739,-1627.15"/>
</g>
<!-- 4 -->
<g id="node4" class="node"><title>4</title>
<ellipse fill="blue" stroke="blue" cx="669.435" cy="-1538" rx="27" ry="18"/>
<text text-anchor="middle" x="669.435" y="-1534.3" font-family="Times,serif" font-size="14.00" fill="white">4: 1</text>
</g>
<!-- 1&#45;&gt;4 -->
<g id="edge3" class="edge"><title>1&#45;&gt;4</title>
<path fill="none" stroke="grey" d="M622.532,-1671.61C639.625,-1663.01 662.07,-1648.5 672.435,-1628 684.015,-1605.1 679.315,-1574.47 674.58,-1555.77"/>
</g>
<!-- 6 -->
<g id="node6" class="node"><title>6</title>
<ellipse fill="blue" stroke="blue" cx="693.435" cy="-1394" rx="27" ry="18"/>
<text text-anchor="middle" x="693.435" y="-1390.3" font-family="Times,serif" font-size="14.00" fill="white">6: 1</text>
</g>
<!-- 1&#45;&gt;6 -->
<g id="edge4" class="edge"><title>1&#45;&gt;6</title>
<path fill="none" stroke="grey" d="M623.88,-1672.59C644.139,-1664.2 672.852,-1649.46 690.435,-1628 733.37,-1575.59 729.167,-1550.8 740.435,-1484 743.096,-1468.22 746.112,-1462.96 740.435,-1448 734.413,-1432.13 721.225,-1417.97 710.348,-1408.29"/>
</g>
<!-- 11 -->
<g id="node11" class="node"><title>11</title>
<ellipse fill="blue" stroke="blue" cx="531.435" cy="-1322" rx="33.2209" ry="18"/>
<text text-anchor="middle" x="531.435" y="-1318.3" font-family="Times,serif" font-size="14.00" fill="white">11: 11</text>
</g>
<!-- 1&#45;&gt;11 -->
<g id="edge5" class="edge"><title>1&#45;&gt;11</title>
<path fill="none" stroke="grey" d="M579.122,-1670.78C562.714,-1661.8 540.81,-1647.17 528.435,-1628 506.497,-1594.02 509.435,-1579.45 509.435,-1539 509.435,-1539 509.435,-1539 509.435,-1465 509.435,-1419.35 520.677,-1366.4 527.088,-1339.92"/>
</g>
<!-- 13 -->
<g id="node13" class="node"><title>13</title>
<ellipse fill="blue" stroke="blue" cx="581.435" cy="-1250" rx="28.3955" ry="18"/>
<text text-anchor="middle" x="581.435" y="-1246.3" font-family="Times,serif" font-size="14.00" fill="white">13: 1</text>
</g>
<!-- 1&#45;&gt;13 -->
<g id="edge6" class="edge"><title>1&#45;&gt;13</title>
<path fill="none" stroke="grey" d="M577.231,-1672.57C556.742,-1664.1 527.277,-1649.23 508.435,-1628 479.886,-1595.83 470.435,-1582.01 470.435,-1539 470.435,-1539 470.435,-1539 470.435,-1393 470.435,-1352.55 465.631,-1336.7 489.435,-1304 505.924,-1281.35 535.266,-1266.91 556.385,-1258.92"/>
</g>
<!-- 2&#45;&gt;4 -->
<g id="edge7" class="edge"><title>2&#45;&gt;4</title>
<path fill="none" stroke="grey" d="M644.255,-1592.41C649.516,-1581.25 656.422,-1566.6 661.67,-1555.47"/>
</g>
<!-- 3&#45;&gt;11 -->
<g id="edge8" class="edge"><title>3&#45;&gt;11</title>
<path fill="none" stroke="grey" d="M562.469,-1591.97C556.614,-1541.22 539.328,-1391.41 533.432,-1340.31"/>
</g>
<!-- 5 -->
<g id="node5" class="node"><title>5</title>
<ellipse fill="beige" stroke="beige" cx="704.435" cy="-1466" rx="27" ry="18"/>
<text text-anchor="middle" x="704.435" y="-1462.3" font-family="Times,serif" font-size="14.00">5: 1</text>
</g>
<!-- 4&#45;&gt;5 -->
<g id="edge9" class="edge"><title>4&#45;&gt;5</title>
<path fill="none" stroke="grey" d="M677.552,-1520.76C683.126,-1509.62 690.502,-1494.87 696.118,-1483.63"/>
</g>
<!-- 4&#45;&gt;6 -->
<g id="edge10" class="edge"><title>4&#45;&gt;6</title>
<path fill="none" stroke="grey" d="M666.955,-1520.03C664.84,-1501.94 662.929,-1472.58 668.435,-1448 671.37,-1434.9 677.925,-1421.21 683.587,-1411.03"/>
</g>
<!-- 5&#45;&gt;6 -->
<g id="edge11" class="edge"><title>5&#45;&gt;6</title>
<path fill="none" stroke="grey" d="M701.772,-1448.05C700.068,-1437.21 697.863,-1423.18 696.149,-1412.28"/>
</g>
<!-- 7 -->
<g id="node7" class="node"><title>7</title>
<ellipse fill="beige" stroke="beige" cx="739.435" cy="-1322" rx="27" ry="18"/>
<text text-anchor="middle" x="739.435" y="-1318.3" font-family="Times,serif" font-size="14.00">7: 2</text>
</g>
<!-- 5&#45;&gt;7 -->
<g id="edge12" class="edge"><title>5&#45;&gt;7</title>
<path fill="none" stroke="grey" d="M713.77,-1448.84C719.239,-1438.61 725.771,-1424.92 729.435,-1412 736.349,-1387.62 738.513,-1358.2 739.172,-1340.05"/>
</g>
<!-- 9 -->
<g id="node9" class="node"><title>9</title>
<ellipse fill="beige" stroke="beige" cx="735.435" cy="-1250" rx="27" ry="18"/>
<text text-anchor="middle" x="735.435" y="-1246.3" font-family="Times,serif" font-size="14.00">9: 2</text>
</g>
<!-- 5&#45;&gt;9 -->
<g id="edge13" class="edge"><title>5&#45;&gt;9</title>
<path fill="none" stroke="grey" d="M718.762,-1450.7C736.093,-1432.28 764.324,-1398.41 775.435,-1363 783.285,-1337.98 783.764,-1328.86 775.435,-1304 770.455,-1289.13 759.477,-1275.11 750.279,-1265.22"/>
</g>
<!-- 6&#45;&gt;7 -->
<g id="edge14" class="edge"><title>6&#45;&gt;7</title>
<path fill="none" stroke="grey" d="M703.873,-1377.12C711.401,-1365.66 721.519,-1350.26 729.038,-1338.82"/>
</g>
<!-- 8 -->
<g id="node8" class="node"><title>8</title>
<ellipse fill="blue" stroke="blue" cx="647.435" cy="-1322" rx="27" ry="18"/>
<text text-anchor="middle" x="647.435" y="-1318.3" font-family="Times,serif" font-size="14.00" fill="white">8: 1</text>
</g>
<!-- 6&#45;&gt;8 -->
<g id="edge15" class="edge"><title>6&#45;&gt;8</title>
<path fill="none" stroke="grey" d="M682.997,-1377.12C675.468,-1365.66 665.35,-1350.26 657.832,-1338.82"/>
</g>
<!-- 6&#45;&gt;9 -->
<g id="edge16" class="edge"><title>6&#45;&gt;9</title>
<path fill="none" stroke="grey" d="M693.207,-1375.8C693.456,-1357.52 695.281,-1328 703.435,-1304 708.068,-1290.36 716.619,-1276.48 723.716,-1266.35"/>
</g>
<!-- 6&#45;&gt;13 -->
<g id="edge17" class="edge"><title>6&#45;&gt;13</title>
<path fill="none" stroke="grey" d="M667.007,-1389.75C648.94,-1386.16 625.759,-1378.66 611.435,-1363 587.115,-1336.41 582.138,-1292.25 581.344,-1268.09"/>
</g>
<!-- 7&#45;&gt;9 -->
<g id="edge18" class="edge"><title>7&#45;&gt;9</title>
<path fill="none" stroke="grey" d="M738.446,-1303.7C737.826,-1292.85 737.03,-1278.92 736.412,-1268.1"/>
</g>
<!-- 8&#45;&gt;9 -->
<g id="edge19" class="edge"><title>8&#45;&gt;9</title>
<path fill="none" stroke="grey" d="M664.402,-1307.5C680.085,-1295.03 703.248,-1276.6 718.818,-1264.22"/>
</g>
<!-- 8&#45;&gt;13 -->
<g id="edge20" class="edge"><title>8&#45;&gt;13</title>
<path fill="none" stroke="grey" d="M633.438,-1306.15C622.237,-1294.28 606.607,-1277.7 595.411,-1265.82"/>
</g>
<!-- 14 -->
<g id="node14" class="node"><title>14</title>
<ellipse fill="blue" stroke="blue" cx="569.435" cy="-1178" rx="28.3955" ry="18"/>
<text text-anchor="middle" x="569.435" y="-1174.3" font-family="Times,serif" font-size="14.00" fill="white">14: 1</text>
</g>
<!-- 8&#45;&gt;14 -->
<g id="edge21" class="edge"><title>8&#45;&gt;14</title>
<path fill="none" stroke="grey" d="M644.19,-1304.02C640.129,-1285.41 632.004,-1255.13 618.435,-1232 609.683,-1217.08 596.128,-1202.85 585.492,-1192.89"/>
</g>
<!-- 15 -->
<g id="node15" class="node"><title>15</title>
<ellipse fill="blue" stroke="blue" cx="569.435" cy="-1106" rx="28.3955" ry="18"/>
<text text-anchor="middle" x="569.435" y="-1102.3" font-family="Times,serif" font-size="14.00" fill="white">15: 1</text>
</g>
<!-- 8&#45;&gt;15 -->
<g id="edge22" class="edge"><title>8&#45;&gt;15</title>
<path fill="none" stroke="grey" d="M647.904,-1303.96C647.989,-1285.82 646.925,-1256.42 640.435,-1232 628.957,-1188.83 598.818,-1144.91 581.725,-1122.41"/>
</g>
<!-- 10 -->
<g id="node10" class="node"><title>10</title>
<ellipse fill="beige" stroke="beige" cx="735.435" cy="-1178" rx="28.3955" ry="18"/>
<text text-anchor="middle" x="735.435" y="-1174.3" font-family="Times,serif" font-size="14.00">10: 2</text>
</g>
<!-- 9&#45;&gt;10 -->
<g id="edge23" class="edge"><title>9&#45;&gt;10</title>
<path fill="none" stroke="grey" d="M735.435,-1231.7C735.435,-1220.85 735.435,-1206.92 735.435,-1196.1"/>
</g>
<!-- 12 -->
<g id="node12" class="node"><title>12</title>
<ellipse fill="blue" stroke="blue" cx="485.435" cy="-1250" rx="28.3955" ry="18"/>
<text text-anchor="middle" x="485.435" y="-1246.3" font-family="Times,serif" font-size="14.00" fill="white">12: 1</text>
</g>
<!-- 11&#45;&gt;12 -->
<g id="edge24" class="edge"><title>11&#45;&gt;12</title>
<path fill="none" stroke="grey" d="M520.766,-1304.76C513.334,-1293.46 503.465,-1278.44 496.046,-1267.15"/>
</g>
<!-- 11&#45;&gt;13 -->
<g id="edge25" class="edge"><title>11&#45;&gt;13</title>
<path fill="none" stroke="grey" d="M543.031,-1304.76C551.224,-1293.29 562.144,-1278.01 570.245,-1266.67"/>
</g>
<!-- 11&#45;&gt;14 -->
<g id="edge26" class="edge"><title>11&#45;&gt;14</title>
<path fill="none" stroke="grey" d="M532.109,-1303.92C533.201,-1285.75 536.045,-1256.32 543.435,-1232 547.369,-1219.06 554.158,-1205.37 559.813,-1195.15"/>
</g>
<!-- 12&#45;&gt;14 -->
<g id="edge27" class="edge"><title>12&#45;&gt;14</title>
<path fill="none" stroke="grey" d="M502.03,-1235.17C516.757,-1222.9 538.158,-1205.06 552.873,-1192.8"/>
</g>
<!-- 12&#45;&gt;15 -->
<g id="edge28" class="edge"><title>12&#45;&gt;15</title>
<path fill="none" stroke="grey" d="M493.058,-1232.53C501.669,-1214.37 516.446,-1184.47 531.435,-1160 539.477,-1146.87 549.699,-1132.73 557.515,-1122.36"/>
</g>
<!-- 13&#45;&gt;14 -->
<g id="edge29" class="edge"><title>13&#45;&gt;14</title>
<path fill="none" stroke="grey" d="M578.53,-1232.05C576.671,-1221.21 574.266,-1207.18 572.396,-1196.28"/>
</g>
<!-- 14&#45;&gt;15 -->
<g id="edge30" class="edge"><title>14&#45;&gt;15</title>
<path fill="none" stroke="grey" d="M569.435,-1159.7C569.435,-1148.85 569.435,-1134.92 569.435,-1124.1"/>
</g>
<!-- 17 -->
<g id="node17" class="node"><title>17</title>
<ellipse fill="blue" stroke="blue" cx="569.435" cy="-1034" rx="28.3955" ry="18"/>
<text text-anchor="middle" x="569.435" y="-1030.3" font-family="Times,serif" font-size="14.00" fill="white">17: 1</text>
</g>
<!-- 15&#45;&gt;17 -->
<g id="edge31" class="edge"><title>15&#45;&gt;17</title>
<path fill="none" stroke="grey" d="M569.435,-1087.7C569.435,-1076.85 569.435,-1062.92 569.435,-1052.1"/>
</g>
<!-- 16 -->
<g id="node16" class="node"><title>16</title>
<ellipse fill="blue" stroke="blue" cx="644.435" cy="-1034" rx="28.3955" ry="18"/>
<text text-anchor="middle" x="644.435" y="-1030.3" font-family="Times,serif" font-size="14.00" fill="white">16: 1</text>
</g>
<!-- 18 -->
<g id="node18" class="node"><title>18</title>
<ellipse fill="blue" stroke="blue" cx="625.435" cy="-962" rx="28.3955" ry="18"/>
<text text-anchor="middle" x="625.435" y="-958.3" font-family="Times,serif" font-size="14.00" fill="white">18: 1</text>
</g>
<!-- 16&#45;&gt;18 -->
<g id="edge32" class="edge"><title>16&#45;&gt;18</title>
<path fill="none" stroke="grey" d="M639.835,-1016.05C636.848,-1005.05 632.971,-990.764 629.992,-979.789"/>
</g>
<!-- 17&#45;&gt;18 -->
<g id="edge33" class="edge"><title>17&#45;&gt;18</title>
<path fill="none" stroke="grey" d="M581.863,-1017.46C591.143,-1005.86 603.769,-990.082 613.041,-978.492"/>
</g>
<!-- 23 -->
<g id="node23" class="node"><title>23</title>
<ellipse fill="red" stroke="red" cx="464.435" cy="-746" rx="33.2209" ry="18"/>
<text text-anchor="middle" x="464.435" y="-742.3" font-family="Times,serif" font-size="14.00">23: 19</text>
</g>
<!-- 17&#45;&gt;23 -->
<g id="edge34" class="edge"><title>17&#45;&gt;23</title>
<path fill="none" stroke="grey" d="M558.75,-1017.03C539.447,-987.32 498.956,-920.956 479.435,-859 469.176,-826.443 465.933,-786.402 464.908,-764.091"/>
</g>
<!-- 19 -->
<g id="node19" class="node"><title>19</title>
<ellipse fill="blue" stroke="blue" cx="573.435" cy="-890" rx="33.2209" ry="18"/>
<text text-anchor="middle" x="573.435" y="-886.3" font-family="Times,serif" font-size="14.00" fill="white">19: 45</text>
</g>
<!-- 18&#45;&gt;19 -->
<g id="edge35" class="edge"><title>18&#45;&gt;19</title>
<path fill="none" stroke="grey" d="M613.894,-945.465C605.397,-934.026 593.878,-918.519 585.303,-906.977"/>
</g>
<!-- 20 -->
<g id="node20" class="node"><title>20</title>
<ellipse fill="red" stroke="red" cx="673.435" cy="-890" rx="28.3955" ry="18"/>
<text text-anchor="middle" x="673.435" y="-886.3" font-family="Times,serif" font-size="14.00">20: 4</text>
</g>
<!-- 18&#45;&gt;20 -->
<g id="edge36" class="edge"><title>18&#45;&gt;20</title>
<path fill="none" stroke="grey" d="M636.327,-945.116C644.182,-933.66 654.74,-918.263 662.586,-906.821"/>
</g>
<!-- 21 -->
<g id="node21" class="node"><title>21</title>
<ellipse fill="red" stroke="red" cx="597.435" cy="-818" rx="28.3955" ry="18"/>
<text text-anchor="middle" x="597.435" y="-814.3" font-family="Times,serif" font-size="14.00">21: 1</text>
</g>
<!-- 18&#45;&gt;21 -->
<g id="edge37" class="edge"><title>18&#45;&gt;21</title>
<path fill="none" stroke="grey" d="M624.6,-943.757C623.47,-925.694 620.923,-896.584 615.435,-872 612.682,-859.671 608.084,-846.196 604.223,-835.919"/>
</g>
<!-- 18&#45;&gt;23 -->
<g id="edge38" class="edge"><title>18&#45;&gt;23</title>
<path fill="none" stroke="grey" d="M601.269,-952.576C580.322,-944.182 550.462,-929.438 531.435,-908 511.389,-885.413 481.897,-800.254 469.856,-763.765"/>
</g>
<!-- 33 -->
<g id="node33" class="node"><title>33</title>
<ellipse fill="blue" stroke="blue" cx="720.435" cy="-674" rx="28.3955" ry="18"/>
<text text-anchor="middle" x="720.435" y="-670.3" font-family="Times,serif" font-size="14.00" fill="white">33: 1</text>
</g>
<!-- 18&#45;&gt;33 -->
<g id="edge39" class="edge"><title>18&#45;&gt;33</title>
<path fill="none" stroke="grey" d="M650.325,-952.854C670.367,-944.856 697.291,-930.532 710.435,-908 751.747,-837.179 733.959,-732.61 724.72,-691.996"/>
</g>
<!-- 19&#45;&gt;21 -->
<g id="edge40" class="edge"><title>19&#45;&gt;21</title>
<path fill="none" stroke="grey" d="M579.244,-872.055C583.018,-861.049 587.916,-846.764 591.678,-835.789"/>
</g>
<!-- 19&#45;&gt;23 -->
<g id="edge41" class="edge"><title>19&#45;&gt;23</title>
<path fill="none" stroke="grey" d="M564.291,-872.567C553.747,-854.172 535.415,-823.822 516.435,-800 505.51,-786.289 491.517,-772.188 480.799,-761.981"/>
</g>
<!-- 20&#45;&gt;21 -->
<g id="edge42" class="edge"><title>20&#45;&gt;21</title>
<path fill="none" stroke="grey" d="M657.623,-874.693C652.165,-869.736 646.02,-864.136 640.435,-859 631.279,-850.58 621.084,-841.101 612.919,-833.484"/>
</g>
<!-- 20&#45;&gt;33 -->
<g id="edge43" class="edge"><title>20&#45;&gt;33</title>
<path fill="none" stroke="grey" d="M677.201,-871.849C686.024,-831.68 707.94,-731.89 716.715,-691.935"/>
</g>
<!-- 35 -->
<g id="node35" class="node"><title>35</title>
<ellipse fill="red" stroke="red" cx="673.435" cy="-530" rx="28.3955" ry="18"/>
<text text-anchor="middle" x="673.435" y="-526.3" font-family="Times,serif" font-size="14.00">35: 1</text>
</g>
<!-- 20&#45;&gt;35 -->
<g id="edge44" class="edge"><title>20&#45;&gt;35</title>
<path fill="none" stroke="grey" d="M669.681,-872.049C664.144,-845.521 654.435,-792.517 654.435,-747 654.435,-747 654.435,-747 654.435,-673 654.435,-627.483 664.144,-574.479 669.681,-547.951"/>
</g>
<!-- 21&#45;&gt;23 -->
<g id="edge45" class="edge"><title>21&#45;&gt;23</title>
<path fill="none" stroke="grey" d="M576.36,-805.908C552.189,-793.186 512.68,-772.392 487.645,-759.216"/>
</g>
<!-- 26 -->
<g id="node26" class="node"><title>26</title>
<ellipse fill="red" stroke="red" cx="511.435" cy="-602" rx="28.3955" ry="18"/>
<text text-anchor="middle" x="511.435" y="-598.3" font-family="Times,serif" font-size="14.00">26: 1</text>
</g>
<!-- 21&#45;&gt;26 -->
<g id="edge46" class="edge"><title>21&#45;&gt;26</title>
<path fill="none" stroke="grey" d="M590.686,-800.208C574.61,-760.204 534.196,-659.639 518.152,-619.714"/>
</g>
<!-- 21&#45;&gt;35 -->
<g id="edge47" class="edge"><title>21&#45;&gt;35</title>
<path fill="none" stroke="grey" d="M598.419,-799.738C601.137,-760.268 610.634,-660.902 640.435,-584 645.683,-570.457 654.478,-556.57 661.67,-546.411"/>
</g>
<!-- 22 -->
<g id="node22" class="node"><title>22</title>
<ellipse fill="red" stroke="red" cx="401.435" cy="-818" rx="33.2209" ry="18"/>
<text text-anchor="middle" x="401.435" y="-814.3" font-family="Times,serif" font-size="14.00">22: 10</text>
</g>
<!-- 22&#45;&gt;23 -->
<g id="edge48" class="edge"><title>22&#45;&gt;23</title>
<path fill="none" stroke="grey" d="M415.416,-801.465C425.857,-789.865 440.061,-774.082 450.492,-762.492"/>
</g>
<!-- 24 -->
<g id="node24" class="node"><title>24</title>
<ellipse fill="red" stroke="red" cx="395.435" cy="-674" rx="28.3955" ry="18"/>
<text text-anchor="middle" x="395.435" y="-670.3" font-family="Times,serif" font-size="14.00">24: 1</text>
</g>
<!-- 22&#45;&gt;24 -->
<g id="edge49" class="edge"><title>22&#45;&gt;24</title>
<path fill="none" stroke="grey" d="M400.711,-799.871C399.558,-772.578 397.316,-719.52 396.161,-692.189"/>
</g>
<!-- 23&#45;&gt;24 -->
<g id="edge50" class="edge"><title>23&#45;&gt;24</title>
<path fill="none" stroke="grey" d="M449.463,-729.811C437.731,-717.909 421.506,-701.449 409.905,-689.68"/>
</g>
<!-- 25 -->
<g id="node25" class="node"><title>25</title>
<ellipse fill="red" stroke="red" cx="415.435" cy="-602" rx="28.3955" ry="18"/>
<text text-anchor="middle" x="415.435" y="-598.3" font-family="Times,serif" font-size="14.00">25: 1</text>
</g>
<!-- 23&#45;&gt;25 -->
<g id="edge51" class="edge"><title>23&#45;&gt;25</title>
<path fill="none" stroke="grey" d="M458.621,-728.153C449.191,-700.824 430.666,-647.14 421.241,-619.825"/>
</g>
<!-- 23&#45;&gt;26 -->
<g id="edge52" class="edge"><title>23&#45;&gt;26</title>
<path fill="none" stroke="grey" d="M470.011,-728.153C479.056,-700.824 496.825,-647.14 505.866,-619.825"/>
</g>
<!-- 27 -->
<g id="node27" class="node"><title>27</title>
<ellipse fill="red" stroke="red" cx="415.435" cy="-530" rx="28.3955" ry="18"/>
<text text-anchor="middle" x="415.435" y="-526.3" font-family="Times,serif" font-size="14.00">27: 1</text>
</g>
<!-- 23&#45;&gt;27 -->
<g id="edge53" class="edge"><title>23&#45;&gt;27</title>
<path fill="none" stroke="grey" d="M466.049,-727.944C468.273,-697.878 470.197,-633.908 452.435,-584 447.393,-569.833 437.492,-555.976 429.2,-545.986"/>
</g>
<!-- 24&#45;&gt;25 -->
<g id="edge54" class="edge"><title>24&#45;&gt;25</title>
<path fill="none" stroke="grey" d="M400.276,-656.055C403.421,-645.049 407.502,-630.764 410.638,-619.789"/>
</g>
<!-- 24&#45;&gt;27 -->
<g id="edge55" class="edge"><title>24&#45;&gt;27</title>
<path fill="none" stroke="grey" d="M383.821,-657.229C381.203,-652.837 378.797,-647.917 377.435,-643 370.435,-617.729 369.41,-608.964 377.435,-584 382.078,-569.556 392.271,-555.712 400.933,-545.797"/>
</g>
<!-- 28 -->
<g id="node28" class="node"><title>28</title>
<ellipse fill="red" stroke="red" cx="205.435" cy="-602" rx="28.3955" ry="18"/>
<text text-anchor="middle" x="205.435" y="-598.3" font-family="Times,serif" font-size="14.00">28: 1</text>
</g>
<!-- 24&#45;&gt;28 -->
<g id="edge56" class="edge"><title>24&#45;&gt;28</title>
<path fill="none" stroke="grey" d="M371.371,-664.134C334.824,-650.67 265.734,-625.215 229.303,-611.794"/>
</g>
<!-- 41 -->
<g id="node41" class="node"><title>41</title>
<ellipse fill="beige" stroke="beige" cx="281.435" cy="-170" rx="28.3955" ry="18"/>
<text text-anchor="middle" x="281.435" y="-166.3" font-family="Times,serif" font-size="14.00">41: 2</text>
</g>
<!-- 24&#45;&gt;41 -->
<g id="edge57" class="edge"><title>24&#45;&gt;41</title>
<path fill="none" stroke="grey" d="M380.176,-658.814C375.862,-654.134 371.51,-648.666 368.435,-643 343.852,-597.709 338.435,-582.533 338.435,-531 338.435,-531 338.435,-531 338.435,-313 338.435,-264.121 308.988,-212.148 292.425,-186.78"/>
</g>
<!-- 25&#45;&gt;27 -->
<g id="edge58" class="edge"><title>25&#45;&gt;27</title>
<path fill="none" stroke="grey" d="M415.435,-583.697C415.435,-572.846 415.435,-558.917 415.435,-548.104"/>
</g>
<!-- 26&#45;&gt;27 -->
<g id="edge59" class="edge"><title>26&#45;&gt;27</title>
<path fill="none" stroke="grey" d="M493.378,-587.834C476.215,-575.319 450.547,-556.603 433.411,-544.107"/>
</g>
<!-- 26&#45;&gt;35 -->
<g id="edge60" class="edge"><title>26&#45;&gt;35</title>
<path fill="none" stroke="grey" d="M534.302,-591.119C565.177,-577.778 619.869,-554.146 650.684,-540.831"/>
</g>
<!-- 27&#45;&gt;41 -->
<g id="edge61" class="edge"><title>27&#45;&gt;41</title>
<path fill="none" stroke="grey" d="M407.73,-512.358C396.364,-486.244 376.435,-433.785 376.435,-387 376.435,-387 376.435,-387 376.435,-313 376.435,-272.031 375.448,-257.894 352.435,-224 339.906,-205.548 318.792,-190.995 302.838,-181.844"/>
</g>
<!-- 42 -->
<g id="node42" class="node"><title>42</title>
<ellipse fill="beige" stroke="beige" cx="310.435" cy="-98" rx="28.3955" ry="18"/>
<text text-anchor="middle" x="310.435" y="-94.3" font-family="Times,serif" font-size="14.00">42: 6</text>
</g>
<!-- 27&#45;&gt;42 -->
<g id="edge62" class="edge"><title>27&#45;&gt;42</title>
<path fill="none" stroke="grey" d="M415.237,-511.951C414.946,-485.292 414.435,-432.116 414.435,-387 414.435,-387 414.435,-387 414.435,-241 414.435,-183.857 358.942,-134.428 329.028,-111.933"/>
</g>
<!-- 29 -->
<g id="node29" class="node"><title>29</title>
<ellipse fill="beige" stroke="beige" cx="157.435" cy="-530" rx="28.3955" ry="18"/>
<text text-anchor="middle" x="157.435" y="-526.3" font-family="Times,serif" font-size="14.00">29: 2</text>
</g>
<!-- 28&#45;&gt;29 -->
<g id="edge63" class="edge"><title>28&#45;&gt;29</title>
<path fill="none" stroke="grey" d="M194.543,-585.116C186.687,-573.66 176.129,-558.263 168.284,-546.821"/>
</g>
<!-- 30 -->
<g id="node30" class="node"><title>30</title>
<ellipse fill="beige" stroke="beige" cx="177.435" cy="-458" rx="28.3955" ry="18"/>
<text text-anchor="middle" x="177.435" y="-454.3" font-family="Times,serif" font-size="14.00">30: 2</text>
</g>
<!-- 28&#45;&gt;30 -->
<g id="edge64" class="edge"><title>28&#45;&gt;30</title>
<path fill="none" stroke="grey" d="M204.268,-583.777C202.822,-565.729 199.857,-536.632 194.435,-512 191.734,-499.732 187.392,-486.256 183.773,-475.963"/>
</g>
<!-- 31 -->
<g id="node31" class="node"><title>31</title>
<ellipse fill="beige" stroke="beige" cx="205.435" cy="-386" rx="28.3955" ry="18"/>
<text text-anchor="middle" x="205.435" y="-382.3" font-family="Times,serif" font-size="14.00">31: 1</text>
</g>
<!-- 28&#45;&gt;31 -->
<g id="edge65" class="edge"><title>28&#45;&gt;31</title>
<path fill="none" stroke="grey" d="M207.938,-584.057C211.93,-554.69 218.856,-492.445 214.435,-440 213.415,-427.91 211.111,-414.431 209.089,-404.092"/>
</g>
<!-- 28&#45;&gt;41 -->
<g id="edge66" class="edge"><title>28&#45;&gt;41</title>
<path fill="none" stroke="grey" d="M222.859,-587.33C250.285,-564.132 300.435,-514.17 300.435,-459 300.435,-459 300.435,-459 300.435,-313 300.435,-267.483 290.726,-214.479 285.188,-187.951"/>
</g>
<!-- 29&#45;&gt;30 -->
<g id="edge67" class="edge"><title>29&#45;&gt;30</title>
<path fill="none" stroke="grey" d="M162.276,-512.055C165.421,-501.049 169.502,-486.764 172.638,-475.789"/>
</g>
<!-- 32 -->
<g id="node32" class="node"><title>32</title>
<ellipse fill="beige" stroke="beige" cx="130.435" cy="-386" rx="28.3955" ry="18"/>
<text text-anchor="middle" x="130.435" y="-382.3" font-family="Times,serif" font-size="14.00">32: 2</text>
</g>
<!-- 29&#45;&gt;32 -->
<g id="edge68" class="edge"><title>29&#45;&gt;32</title>
<path fill="none" stroke="grey" d="M150.596,-512.092C146.718,-501.819 142.119,-488.344 139.435,-476 134.089,-451.415 131.905,-422.306 131.022,-404.243"/>
</g>
<!-- 30&#45;&gt;31 -->
<g id="edge69" class="edge"><title>30&#45;&gt;31</title>
<path fill="none" stroke="grey" d="M184.07,-440.411C188.469,-429.414 194.224,-415.027 198.652,-403.956"/>
</g>
<!-- 30&#45;&gt;32 -->
<g id="edge70" class="edge"><title>30&#45;&gt;32</title>
<path fill="none" stroke="grey" d="M166.77,-441.116C159.078,-429.66 148.74,-414.263 141.058,-402.821"/>
</g>
<!-- 38 -->
<g id="node38" class="node"><title>38</title>
<ellipse fill="beige" stroke="beige" cx="167.435" cy="-242" rx="28.3955" ry="18"/>
<text text-anchor="middle" x="167.435" y="-238.3" font-family="Times,serif" font-size="14.00">38: 6</text>
</g>
<!-- 30&#45;&gt;38 -->
<g id="edge71" class="edge"><title>30&#45;&gt;38</title>
<path fill="none" stroke="grey" d="M154.053,-447.346C135.19,-438.516 109.135,-423.812 92.4347,-404 77.2744,-386.015 76.9639,-378.082 72.4347,-355 67.3856,-329.268 59.1569,-318.612 72.4347,-296 76.5947,-288.916 118.987,-266.977 145.718,-253.649"/>
</g>
<!-- 30&#45;&gt;41 -->
<g id="edge72" class="edge"><title>30&#45;&gt;41</title>
<path fill="none" stroke="grey" d="M198.134,-445.661C212.919,-436.432 231.975,-422.004 242.435,-404 284.052,-332.363 284.274,-228.708 282.516,-188.166"/>
</g>
<!-- 31&#45;&gt;41 -->
<g id="edge73" class="edge"><title>31&#45;&gt;41</title>
<path fill="none" stroke="grey" d="M208.261,-367.998C213.616,-338.016 226.692,-274.171 248.435,-224 254.21,-210.673 262.981,-196.777 270.029,-186.558"/>
</g>
<!-- 36 -->
<g id="node36" class="node"><title>36</title>
<ellipse fill="beige" stroke="beige" cx="110.435" cy="-314" rx="28.3955" ry="18"/>
<text text-anchor="middle" x="110.435" y="-310.3" font-family="Times,serif" font-size="14.00">36: 6</text>
</g>
<!-- 32&#45;&gt;36 -->
<g id="edge74" class="edge"><title>32&#45;&gt;36</title>
<path fill="none" stroke="grey" d="M125.593,-368.055C122.449,-357.049 118.367,-342.764 115.232,-331.789"/>
</g>
<!-- 32&#45;&gt;38 -->
<g id="edge75" class="edge"><title>32&#45;&gt;38</title>
<path fill="none" stroke="grey" d="M140.835,-368.976C143.312,-364.586 145.729,-359.73 147.435,-355 159.095,-322.67 164.144,-282.547 166.182,-260.161"/>
</g>
<!-- 34 -->
<g id="node34" class="node"><title>34</title>
<ellipse fill="beige" stroke="beige" cx="711.435" cy="-602" rx="28.3955" ry="18"/>
<text text-anchor="middle" x="711.435" y="-598.3" font-family="Times,serif" font-size="14.00">34: 2</text>
</g>
<!-- 33&#45;&gt;34 -->
<g id="edge76" class="edge"><title>33&#45;&gt;34</title>
<path fill="none" stroke="grey" d="M718.21,-655.697C716.815,-644.846 715.024,-630.917 713.634,-620.104"/>
</g>
<!-- 33&#45;&gt;35 -->
<g id="edge77" class="edge"><title>33&#45;&gt;35</title>
<path fill="none" stroke="grey" d="M737.226,-659.346C741.739,-654.687 746.031,-649.098 748.435,-643 758.051,-618.604 760.493,-607.286 748.435,-584 737.657,-563.187 714.528,-548.801 696.785,-540.324"/>
</g>
<!-- 34&#45;&gt;35 -->
<g id="edge78" class="edge"><title>34&#45;&gt;35</title>
<path fill="none" stroke="grey" d="M702.621,-584.765C696.482,-573.456 688.329,-558.437 682.2,-547.147"/>
</g>
<!-- 37 -->
<g id="node37" class="node"><title>37</title>
<ellipse fill="beige" stroke="beige" cx="92.4347" cy="-242" rx="28.3955" ry="18"/>
<text text-anchor="middle" x="92.4347" y="-238.3" font-family="Times,serif" font-size="14.00">37: 2</text>
</g>
<!-- 36&#45;&gt;37 -->
<g id="edge79" class="edge"><title>36&#45;&gt;37</title>
<path fill="none" stroke="grey" d="M106.077,-296.055C103.289,-285.211 99.6818,-271.183 96.8769,-260.275"/>
</g>
<!-- 36&#45;&gt;38 -->
<g id="edge80" class="edge"><title>36&#45;&gt;38</title>
<path fill="none" stroke="grey" d="M123.085,-297.465C132.531,-285.865 145.383,-270.082 154.82,-258.492"/>
</g>
<!-- 39 -->
<g id="node39" class="node"><title>39</title>
<ellipse fill="beige" stroke="beige" cx="72.4347" cy="-170" rx="28.3955" ry="18"/>
<text text-anchor="middle" x="72.4347" y="-166.3" font-family="Times,serif" font-size="14.00">39: 2</text>
</g>
<!-- 36&#45;&gt;39 -->
<g id="edge81" class="edge"><title>36&#45;&gt;39</title>
<path fill="none" stroke="grey" d="M90.9245,-300.819C77.8973,-291.451 61.8439,-277.214 54.4347,-260 44.0887,-235.963 54.7287,-205.677 63.4886,-187.353"/>
</g>
<!-- 40 -->
<g id="node40" class="node"><title>40</title>
<ellipse fill="beige" stroke="beige" cx="62.4347" cy="-98" rx="28.3955" ry="18"/>
<text text-anchor="middle" x="62.4347" y="-94.3" font-family="Times,serif" font-size="14.00">40: 2</text>
</g>
<!-- 36&#45;&gt;40 -->
<g id="edge82" class="edge"><title>36&#45;&gt;40</title>
<path fill="none" stroke="grey" d="M90.1338,-301.158C75.8122,-291.768 57.3104,-277.36 46.4347,-260 34.5314,-240.999 37.1207,-233.26 34.4347,-211 31.2934,-184.967 28.1248,-177.452 34.4347,-152 37.7402,-138.667 45.0812,-124.993 51.4173,-114.874"/>
</g>
<!-- 38&#45;&gt;39 -->
<g id="edge83" class="edge"><title>38&#45;&gt;39</title>
<path fill="none" stroke="grey" d="M149.566,-227.834C132.581,-215.319 107.181,-196.603 90.2234,-184.107"/>
</g>
<!-- 38&#45;&gt;41 -->
<g id="edge84" class="edge"><title>38&#45;&gt;41</title>
<path fill="none" stroke="grey" d="M187.032,-228.967C207.913,-216.145 240.783,-195.962 261.712,-183.111"/>
</g>
<!-- 43 -->
<g id="node43" class="node"><title>43</title>
<ellipse fill="beige" stroke="beige" cx="262.435" cy="-26" rx="28.3955" ry="18"/>
<text text-anchor="middle" x="262.435" y="-22.3" font-family="Times,serif" font-size="14.00">43: 2</text>
</g>
<!-- 38&#45;&gt;43 -->
<g id="edge85" class="edge"><title>38&#45;&gt;43</title>
<path fill="none" stroke="grey" d="M145.73,-230.019C140.5,-227.732 134.855,-225.549 129.435,-224 108.947,-218.146 49.2654,-226.3 34.4347,-211 -6.20696,-169.073 -12.0924,-125.556 24.4347,-80 50.5182,-47.4691 177.396,-33.6198 234.493,-28.9641"/>
</g>
<!-- 39&#45;&gt;40 -->
<g id="edge86" class="edge"><title>39&#45;&gt;40</title>
<path fill="none" stroke="grey" d="M70.014,-152.055C68.4649,-141.211 66.4608,-127.183 64.9026,-116.275"/>
</g>
<!-- 41&#45;&gt;42 -->
<g id="edge87" class="edge"><title>41&#45;&gt;42</title>
<path fill="none" stroke="grey" d="M288.307,-152.411C292.93,-141.252 298.999,-126.604 303.611,-115.47"/>
</g>
<!-- 41&#45;&gt;43 -->
<g id="edge88" class="edge"><title>41&#45;&gt;43</title>
<path fill="none" stroke="grey" d="M278.271,-151.852C276.423,-141.494 274.128,-128.014 272.435,-116 268.919,-91.0579 265.848,-62.0429 264.067,-44.0979"/>
</g>
<!-- 42&#45;&gt;43 -->
<g id="edge89" class="edge"><title>42&#45;&gt;43</title>
<path fill="none" stroke="grey" d="M299.543,-81.1159C291.687,-69.66 281.129,-54.2627 273.284,-42.8212"/>
</g>
</g>
</svg>
