<?xml version="1.0" encoding="UTF-8" standalone="no"?>
<!DOCTYPE svg PUBLIC "-//W3C//DTD SVG 1.1//EN"
 "http://www.w3.org/Graphics/SVG/1.1/DTD/svg11.dtd">
<!-- Generated by graphviz version 2.36.0 (20140111.2315)
 -->
<!-- Title: G Pages: 1 -->
<svg width="825pt" height="1753pt"
 viewBox="7.20 7.20 817.63 1746.20" xmlns="http://www.w3.org/2000/svg" xmlns:xlink="http://www.w3.org/1999/xlink">
<g id="graph0" class="graph" transform="scale(1 1) rotate(0) translate(11.2 1742.2)">
<title>G</title>
<polygon fill="white" stroke="none" points="-4,4 -4,-1735 806.435,-1735 806.435,4 -4,4"/>
<g id="clust1" class="cluster"><title>cluster1</title>
<polygon fill="sandybrown" stroke="sandybrown" points="560.435,-1592 560.435,-1723 686.435,-1723 686.435,-1592 560.435,-1592"/>
<text text-anchor="middle" x="623.435" y="-1707.8" font-family="Times,serif" font-size="14.00">Super region 1 [3]</text>
</g>
<g id="clust2" class="cluster"><title>cluster2</title>
<polygon fill="sandybrown" stroke="sandybrown" points="628.435,-1160 628.435,-1579 794.435,-1579 794.435,-1160 628.435,-1160"/>
<text text-anchor="middle" x="711.435" y="-1563.8" font-family="Times,serif" font-size="14.00">Super region 2 [6]</text>
</g>
<g id="clust3" class="cluster"><title>cluster3</title>
<polygon fill="sandybrown" stroke="sandybrown" points="464.435,-1088 464.435,-1363 618.435,-1363 618.435,-1088 464.435,-1088"/>
<text text-anchor="middle" x="541.435" y="-1347.8" font-family="Times,serif" font-size="14.00">Super region 3 [3]</text>
</g>
<g id="clust4" class="cluster"><title>cluster4</title>
<polygon fill="sandybrown" stroke="sandybrown" points="548.435,-800 548.435,-1075 702.435,-1075 702.435,-800 548.435,-800"/>
<text text-anchor="middle" x="625.435" y="-1059.8" font-family="Times,serif" font-size="14.00">Super region 4 [4]</text>
</g>
<g id="clust5" class="cluster"><title>cluster5</title>
<polygon fill="sandybrown" stroke="sandybrown" points="366.435,-512 366.435,-859 548.435,-859 548.435,-512 366.435,-512"/>
<text text-anchor="middle" x="457.435" y="-843.8" font-family="Times,serif" font-size="14.00">Super region 5 [4]</text>
</g>
<g id="clust6" class="cluster"><title>cluster6</title>
<polygon fill="sandybrown" stroke="sandybrown" points="101.435,-368 101.435,-643 234.435,-643 234.435,-368 101.435,-368"/>
<text text-anchor="middle" x="167.935" y="-627.8" font-family="Times,serif" font-size="14.00">Super region 6 [3]</text>
</g>
<g id="clust7" class="cluster"><title>cluster7</title>
<polygon fill="sandybrown" stroke="sandybrown" points="644.435,-512 644.435,-715 760.435,-715 760.435,-512 644.435,-512"/>
<text text-anchor="middle" x="702.435" y="-699.8" font-family="Times,serif" font-size="14.00">Super region 7 [3]</text>
</g>
<g id="clust8" class="cluster"><title>cluster8</title>
<polygon fill="sandybrown" stroke="sandybrown" points="23.4347,-80 23.4347,-355 196.435,-355 196.435,-80 23.4347,-80"/>
<text text-anchor="middle" x="109.935" y="-339.8" font-family="Times,serif" font-size="14.00">Super region 8 [2]</text>
</g>
<g id="clust9" class="cluster"><title>cluster9</title>
<polygon fill="sandybrown" stroke="sandybrown" points="228.435,-8 228.435,-211 344.435,-211 344.435,-8 228.435,-8"/>
<text text-anchor="middle" x="286.435" y="-195.8" font-family="Times,serif" font-size="14.00">Super region 9 [2]</text>
</g>
<!-- 1 -->
<g id="node1" class="node"><title>1</title>
<ellipse fill="blue" stroke="blue" cx="623.435" cy="-1682" rx="27" ry="18"/>
<text text-anchor="middle" x="623.435" y="-1678.3" font-family="Times,serif" font-size="14.00" fill="white">1: 1</text>
</g>
<!-- 2 -->
<g id="node2" class="node"><title>2</title>
<ellipse fill="blue" stroke="blue" cx="659.435" cy="-1610" rx="27" ry="18"/>
<text text-anchor="middle" x="659.435" y="-1606.3" font-family="Times,serif" font-size="14.00" fill="white">2: 1</text>
</g>
<!-- 1&#45;&gt;2 -->
<g id="edge1" class="edge"><title>1&#45;&gt;2</title>
<path fill="none" stroke="grey" d="M631.784,-1664.76C637.6,-1653.46 645.324,-1638.44 651.13,-1627.15"/>
</g>
<!-- 3 -->
<g id="node3" class="node"><title>3</title>
<ellipse fill="blue" stroke="blue" cx="587.435" cy="-1610" rx="27" ry="18"/>
<text text-anchor="middle" x="587.435" y="-1606.3" font-family="Times,serif" font-size="14.00" fill="white">3: 1</text>
</g>
<!-- 1&#45;&gt;3 -->
<g id="edge2" class="edge"><title>1&#45;&gt;3</title>
<path fill="none" stroke="grey" d="M615.085,-1664.76C609.269,-1653.46 601.545,-1638.44 595.739,-1627.15"/>
</g>
<!-- 4 -->
<g id="node4" class="node"><title>4</title>
<ellipse fill="blue" stroke="blue" cx="688.435" cy="-1538" rx="27" ry="18"/>
<text text-anchor="middle" x="688.435" y="-1534.3" font-family="Times,serif" font-size="14.00" fill="white">4: 1</text>
</g>
<!-- 1&#45;&gt;4 -->
<g id="edge3" class="edge"><title>1&#45;&gt;4</title>
<path fill="none" stroke="grey" d="M645.532,-1671.61C662.625,-1663.01 685.07,-1648.5 695.435,-1628 707.044,-1605.04 700.654,-1574.43 694.726,-1555.75"/>
</g>
<!-- 6 -->
<g id="node6" class="node"><title>6</title>
<ellipse fill="blue" stroke="blue" cx="701.435" cy="-1394" rx="27" ry="18"/>
<text text-anchor="middle" x="701.435" y="-1390.3" font-family="Times,serif" font-size="14.00" fill="white">6: 1</text>
</g>
<!-- 1&#45;&gt;6 -->
<g id="edge4" class="edge"><title>1&#45;&gt;6</title>
<path fill="none" stroke="grey" d="M647.08,-1673.21C667.761,-1665.16 696.99,-1650.57 713.435,-1628 761.197,-1562.45 770.104,-1524.59 743.435,-1448 738.184,-1432.92 726.659,-1418.91 717.008,-1409.08"/>
</g>
<!-- 11 -->
<g id="node11" class="node"><title>11</title>
<ellipse fill="blue" stroke="blue" cx="539.435" cy="-1322" rx="33.2209" ry="18"/>
<text text-anchor="middle" x="539.435" y="-1318.3" font-family="Times,serif" font-size="14.00" fill="white">11: 11</text>
</g>
<!-- 1&#45;&gt;11 -->
<g id="edge5" class="edge"><title>1&#45;&gt;11</title>
<path fill="none" stroke="grey" d="M602.122,-1670.78C585.714,-1661.8 563.81,-1647.17 551.435,-1628 529.497,-1594.02 532.435,-1579.45 532.435,-1539 532.435,-1539 532.435,-1539 532.435,-1465 532.435,-1419.83 536.012,-1366.68 538.052,-1340.04"/>
</g>
<!-- 13 -->
<g id="node13" class="node"><title>13</title>
<ellipse fill="blue" stroke="blue" cx="589.435" cy="-1250" rx="28.3955" ry="18"/>
<text text-anchor="middle" x="589.435" y="-1246.3" font-family="Times,serif" font-size="14.00" fill="white">13: 1</text>
</g>
<!-- 1&#45;&gt;13 -->
<g id="edge6" class="edge"><title>1&#45;&gt;13</title>
<path fill="none" stroke="grey" d="M601.096,-1671.64C560.423,-1652.94 478.435,-1606.83 478.435,-1539 478.435,-1539 478.435,-1539 478.435,-1393 478.435,-1352.55 473.631,-1336.7 497.435,-1304 513.924,-1281.35 543.266,-1266.91 564.385,-1258.92"/>
</g>
<!-- 2&#45;&gt;4 -->
<g id="edge7" class="edge"><title>2&#45;&gt;4</title>
<path fill="none" stroke="grey" d="M666.307,-1592.41C670.93,-1581.25 676.999,-1566.6 681.611,-1555.47"/>
</g>
<!-- 3&#45;&gt;11 -->
<g id="edge8" class="edge"><title>3&#45;&gt;11</title>
<path fill="none" stroke="grey" d="M584.576,-1591.97C576.039,-1541.1 550.796,-1390.7 542.279,-1339.94"/>
</g>
<!-- 5 -->
<g id="node5" class="node"><title>5</title>
<ellipse fill="beige" stroke="beige" cx="707.435" cy="-1466" rx="27" ry="18"/>
<text text-anchor="middle" x="707.435" y="-1462.3" font-family="Times,serif" font-size="14.00">5: 1</text>
</g>
<!-- 4&#45;&gt;5 -->
<g id="edge9" class="edge"><title>4&#45;&gt;5</title>
<path fill="none" stroke="grey" d="M693.034,-1520.05C696.021,-1509.05 699.899,-1494.76 702.878,-1483.79"/>
</g>
<!-- 4&#45;&gt;6 -->
<g id="edge10" class="edge"><title>4&#45;&gt;6</title>
<path fill="none" stroke="grey" d="M680.88,-1520.44C673.689,-1502.46 664.864,-1472.95 671.435,-1448 675.043,-1434.3 683.094,-1420.42 689.947,-1410.3"/>
</g>
<!-- 5&#45;&gt;6 -->
<g id="edge11" class="edge"><title>5&#45;&gt;6</title>
<path fill="none" stroke="grey" d="M705.952,-1447.7C705.022,-1436.85 703.828,-1422.92 702.901,-1412.1"/>
</g>
<!-- 7 -->
<g id="node7" class="node"><title>7</title>
<ellipse fill="beige" stroke="beige" cx="747.435" cy="-1322" rx="27" ry="18"/>
<text text-anchor="middle" x="747.435" y="-1318.3" font-family="Times,serif" font-size="14.00">7: 2</text>
</g>
<!-- 5&#45;&gt;7 -->
<g id="edge12" class="edge"><title>5&#45;&gt;7</title>
<path fill="none" stroke="grey" d="M718.404,-1449.54C725.051,-1439.37 733.066,-1425.48 737.435,-1412 745.25,-1387.89 747.167,-1358.4 747.529,-1340.16"/>
</g>
<!-- 9 -->
<g id="node9" class="node"><title>9</title>
<ellipse fill="beige" stroke="beige" cx="745.435" cy="-1250" rx="27" ry="18"/>
<text text-anchor="middle" x="745.435" y="-1246.3" font-family="Times,serif" font-size="14.00">9: 2</text>
</g>
<!-- 5&#45;&gt;9 -->
<g id="edge13" class="edge"><title>5&#45;&gt;9</title>
<path fill="none" stroke="grey" d="M722.751,-1450.91C741.282,-1432.7 771.48,-1399.05 783.435,-1363 791.688,-1338.11 791.459,-1328.96 783.435,-1304 778.723,-1289.34 768.292,-1275.3 759.55,-1265.36"/>
</g>
<!-- 6&#45;&gt;7 -->
<g id="edge14" class="edge"><title>6&#45;&gt;7</title>
<path fill="none" stroke="grey" d="M711.873,-1377.12C719.401,-1365.66 729.519,-1350.26 737.038,-1338.82"/>
</g>
<!-- 8 -->
<g id="node8" class="node"><title>8</title>
<ellipse fill="blue" stroke="blue" cx="655.435" cy="-1322" rx="27" ry="18"/>
<text text-anchor="middle" x="655.435" y="-1318.3" font-family="Times,serif" font-size="14.00" fill="white">8: 1</text>
</g>
<!-- 6&#45;&gt;8 -->
<g id="edge15" class="edge"><title>6&#45;&gt;8</title>
<path fill="none" stroke="grey" d="M690.997,-1377.12C683.468,-1365.66 673.35,-1350.26 665.832,-1338.82"/>
</g>
<!-- 6&#45;&gt;9 -->
<g id="edge16" class="edge"><title>6&#45;&gt;9</title>
<path fill="none" stroke="grey" d="M701.078,-1375.75C701.22,-1357.43 702.956,-1327.88 711.435,-1304 716.336,-1290.2 725.421,-1276.32 732.968,-1266.23"/>
</g>
<!-- 6&#45;&gt;13 -->
<g id="edge17" class="edge"><title>6&#45;&gt;13</title>
<path fill="none" stroke="grey" d="M675.007,-1389.75C656.94,-1386.16 633.759,-1378.66 619.435,-1363 595.115,-1336.41 590.138,-1292.25 589.344,-1268.09"/>
</g>
<!-- 7&#45;&gt;9 -->
<g id="edge18" class="edge"><title>7&#45;&gt;9</title>
<path fill="none" stroke="grey" d="M746.94,-1303.7C746.63,-1292.85 746.232,-1278.92 745.923,-1268.1"/>
</g>
<!-- 8&#45;&gt;9 -->
<g id="edge19" class="edge"><title>8&#45;&gt;9</title>
<path fill="none" stroke="grey" d="M672.363,-1307.83C688.454,-1295.32 712.517,-1276.6 728.582,-1264.11"/>
</g>
<!-- 8&#45;&gt;13 -->
<g id="edge20" class="edge"><title>8&#45;&gt;13</title>
<path fill="none" stroke="grey" d="M641.438,-1306.15C630.237,-1294.28 614.607,-1277.7 603.411,-1265.82"/>
</g>
<!-- 14 -->
<g id="node14" class="node"><title>14</title>
<ellipse fill="blue" stroke="blue" cx="577.435" cy="-1178" rx="28.3955" ry="18"/>
<text text-anchor="middle" x="577.435" y="-1174.3" font-family="Times,serif" font-size="14.00" fill="white">14: 1</text>
</g>
<!-- 8&#45;&gt;14 -->
<g id="edge21" class="edge"><title>8&#45;&gt;14</title>
<path fill="none" stroke="grey" d="M652.19,-1304.02C648.129,-1285.41 640.004,-1255.13 626.435,-1232 617.683,-1217.08 604.128,-1202.85 593.492,-1192.89"/>
</g>
<!-- 15 -->
<g id="node15" class="node"><title>15</title>
<ellipse fill="blue" stroke="blue" cx="577.435" cy="-1106" rx="28.3955" ry="18"/>
<text text-anchor="middle" x="577.435" y="-1102.3" font-family="Times,serif" font-size="14.00" fill="white">15: 1</text>
</g>
<!-- 8&#45;&gt;15 -->
<g id="edge22" class="edge"><title>8&#45;&gt;15</title>
<path fill="none" stroke="grey" d="M655.904,-1303.96C655.989,-1285.82 654.925,-1256.42 648.435,-1232 636.957,-1188.83 606.818,-1144.91 589.725,-1122.41"/>
</g>
<!-- 10 -->
<g id="node10" class="node"><title>10</title>
<ellipse fill="beige" stroke="beige" cx="745.435" cy="-1178" rx="28.3955" ry="18"/>
<text text-anchor="middle" x="745.435" y="-1174.3" font-family="Times,serif" font-size="14.00">10: 2</text>
</g>
<!-- 9&#45;&gt;10 -->
<g id="edge23" class="edge"><title>9&#45;&gt;10</title>
<path fill="none" stroke="grey" d="M745.435,-1231.7C745.435,-1220.85 745.435,-1206.92 745.435,-1196.1"/>
</g>
<!-- 12 -->
<g id="node12" class="node"><title>12</title>
<ellipse fill="blue" stroke="blue" cx="493.435" cy="-1250" rx="28.3955" ry="18"/>
<text text-anchor="middle" x="493.435" y="-1246.3" font-family="Times,serif" font-size="14.00" fill="white">12: 1</text>
</g>
<!-- 11&#45;&gt;12 -->
<g id="edge24" class="edge"><title>11&#45;&gt;12</title>
<path fill="none" stroke="grey" d="M528.766,-1304.76C521.334,-1293.46 511.465,-1278.44 504.046,-1267.15"/>
</g>
<!-- 11&#45;&gt;13 -->
<g id="edge25" class="edge"><title>11&#45;&gt;13</title>
<path fill="none" stroke="grey" d="M551.031,-1304.76C559.224,-1293.29 570.144,-1278.01 578.245,-1266.67"/>
</g>
<!-- 11&#45;&gt;14 -->
<g id="edge26" class="edge"><title>11&#45;&gt;14</title>
<path fill="none" stroke="grey" d="M540.109,-1303.92C541.201,-1285.75 544.045,-1256.32 551.435,-1232 555.369,-1219.06 562.158,-1205.37 567.813,-1195.15"/>
</g>
<!-- 12&#45;&gt;14 -->
<g id="edge27" class="edge"><title>12&#45;&gt;14</title>
<path fill="none" stroke="grey" d="M510.03,-1235.17C524.757,-1222.9 546.158,-1205.06 560.873,-1192.8"/>
</g>
<!-- 12&#45;&gt;15 -->
<g id="edge28" class="edge"><title>12&#45;&gt;15</title>
<path fill="none" stroke="grey" d="M501.058,-1232.53C509.669,-1214.37 524.446,-1184.47 539.435,-1160 547.477,-1146.87 557.699,-1132.73 565.515,-1122.36"/>
</g>
<!-- 13&#45;&gt;14 -->
<g id="edge29" class="edge"><title>13&#45;&gt;14</title>
<path fill="none" stroke="grey" d="M586.53,-1232.05C584.671,-1221.21 582.266,-1207.18 580.396,-1196.28"/>
</g>
<!-- 14&#45;&gt;15 -->
<g id="edge30" class="edge"><title>14&#45;&gt;15</title>
<path fill="none" stroke="grey" d="M577.435,-1159.7C577.435,-1148.85 577.435,-1134.92 577.435,-1124.1"/>
</g>
<!-- 17 -->
<g id="node17" class="node"><title>17</title>
<ellipse fill="blue" stroke="blue" cx="577.435" cy="-1034" rx="28.3955" ry="18"/>
<text text-anchor="middle" x="577.435" y="-1030.3" font-family="Times,serif" font-size="14.00" fill="white">17: 1</text>
</g>
<!-- 15&#45;&gt;17 -->
<g id="edge31" class="edge"><title>15&#45;&gt;17</title>
<path fill="none" stroke="grey" d="M577.435,-1087.7C577.435,-1076.85 577.435,-1062.92 577.435,-1052.1"/>
</g>
<!-- 16 -->
<g id="node16" class="node"><title>16</title>
<ellipse fill="blue" stroke="blue" cx="652.435" cy="-1034" rx="28.3955" ry="18"/>
<text text-anchor="middle" x="652.435" y="-1030.3" font-family="Times,serif" font-size="14.00" fill="white">16: 1</text>
</g>
<!-- 18 -->
<g id="node18" class="node"><title>18</title>
<ellipse fill="blue" stroke="blue" cx="625.435" cy="-962" rx="33.2209" ry="18"/>
<text text-anchor="middle" x="625.435" y="-958.3" font-family="Times,serif" font-size="14.00" fill="white">18: 47</text>
</g>
<!-- 16&#45;&gt;18 -->
<g id="edge32" class="edge"><title>16&#45;&gt;18</title>
<path fill="none" stroke="grey" d="M646.036,-1016.41C641.794,-1005.41 636.245,-991.027 631.975,-979.956"/>
</g>
<!-- 17&#45;&gt;18 -->
<g id="edge33" class="edge"><title>17&#45;&gt;18</title>
<path fill="none" stroke="grey" d="M588.327,-1017.12C596.071,-1005.82 606.443,-990.696 614.253,-979.307"/>
</g>
<!-- 23 -->
<g id="node23" class="node"><title>23</title>
<ellipse fill="red" stroke="red" cx="471.435" cy="-746" rx="33.2209" ry="18"/>
<text text-anchor="middle" x="471.435" y="-742.3" font-family="Times,serif" font-size="14.00">23: 10</text>
</g>
<!-- 17&#45;&gt;23 -->
<g id="edge34" class="edge"><title>17&#45;&gt;23</title>
<path fill="none" stroke="grey" d="M565.557,-1017.27C544.163,-987.96 499.601,-922.216 480.435,-859 470.587,-826.518 469.968,-786.45 470.582,-764.114"/>
</g>
<!-- 19 -->
<g id="node19" class="node"><title>19</title>
<ellipse fill="red" stroke="red" cx="577.435" cy="-890" rx="28.3955" ry="18"/>
<text text-anchor="middle" x="577.435" y="-886.3" font-family="Times,serif" font-size="14.00">19: 1</text>
</g>
<!-- 18&#45;&gt;19 -->
<g id="edge35" class="edge"><title>18&#45;&gt;19</title>
<path fill="none" stroke="grey" d="M614.302,-944.765C606.437,-933.294 595.954,-918.007 588.177,-906.666"/>
</g>
<!-- 20 -->
<g id="node20" class="node"><title>20</title>
<ellipse fill="blue" stroke="blue" cx="673.435" cy="-890" rx="28.3955" ry="18"/>
<text text-anchor="middle" x="673.435" y="-886.3" font-family="Times,serif" font-size="14.00" fill="white">20: 1</text>
</g>
<!-- 18&#45;&gt;20 -->
<g id="edge36" class="edge"><title>18&#45;&gt;20</title>
<path fill="none" stroke="grey" d="M636.568,-944.765C644.433,-933.294 654.916,-918.007 662.692,-906.666"/>
</g>
<!-- 21 -->
<g id="node21" class="node"><title>21</title>
<ellipse fill="red" stroke="red" cx="597.435" cy="-818" rx="28.3955" ry="18"/>
<text text-anchor="middle" x="597.435" y="-814.3" font-family="Times,serif" font-size="14.00">21: 6</text>
</g>
<!-- 18&#45;&gt;21 -->
<g id="edge37" class="edge"><title>18&#45;&gt;21</title>
<path fill="none" stroke="grey" d="M624.268,-943.777C622.822,-925.729 619.857,-896.632 614.435,-872 611.734,-859.732 607.392,-846.256 603.773,-835.963"/>
</g>
<!-- 18&#45;&gt;23 -->
<g id="edge38" class="edge"><title>18&#45;&gt;23</title>
<path fill="none" stroke="grey" d="M600.112,-950.262C581.36,-941.256 556.252,-926.842 539.435,-908 500.642,-864.537 481.789,-795.706 474.786,-764.007"/>
</g>
<!-- 33 -->
<g id="node33" class="node"><title>33</title>
<ellipse fill="blue" stroke="blue" cx="720.435" cy="-674" rx="28.3955" ry="18"/>
<text text-anchor="middle" x="720.435" y="-670.3" font-family="Times,serif" font-size="14.00" fill="white">33: 1</text>
</g>
<!-- 18&#45;&gt;33 -->
<g id="edge39" class="edge"><title>18&#45;&gt;33</title>
<path fill="none" stroke="grey" d="M653.174,-951.693C672.85,-943.501 697.904,-929.481 710.435,-908 751.747,-837.179 733.959,-732.61 724.72,-691.996"/>
</g>
<!-- 19&#45;&gt;21 -->
<g id="edge40" class="edge"><title>19&#45;&gt;21</title>
<path fill="none" stroke="grey" d="M582.276,-872.055C585.421,-861.049 589.502,-846.764 592.638,-835.789"/>
</g>
<!-- 19&#45;&gt;23 -->
<g id="edge41" class="edge"><title>19&#45;&gt;23</title>
<path fill="none" stroke="grey" d="M567.117,-872.896C555.357,-854.796 535.313,-824.709 516.435,-800 506.469,-786.955 494.391,-772.813 485.259,-762.42"/>
</g>
<!-- 20&#45;&gt;21 -->
<g id="edge42" class="edge"><title>20&#45;&gt;21</title>
<path fill="none" stroke="grey" d="M657.623,-874.693C652.165,-869.736 646.02,-864.136 640.435,-859 631.279,-850.58 621.084,-841.101 612.919,-833.484"/>
</g>
<!-- 20&#45;&gt;33 -->
<g id="edge43" class="edge"><title>20&#45;&gt;33</title>
<path fill="none" stroke="grey" d="M677.201,-871.849C686.024,-831.68 707.94,-731.89 716.715,-691.935"/>
</g>
<!-- 35 -->
<g id="node35" class="node"><title>35</title>
<ellipse fill="red" stroke="red" cx="673.435" cy="-530" rx="28.3955" ry="18"/>
<text text-anchor="middle" x="673.435" y="-526.3" font-family="Times,serif" font-size="14.00">35: 1</text>
</g>
<!-- 20&#45;&gt;35 -->
<g id="edge44" class="edge"><title>20&#45;&gt;35</title>
<path fill="none" stroke="grey" d="M669.681,-872.049C664.144,-845.521 654.435,-792.517 654.435,-747 654.435,-747 654.435,-747 654.435,-673 654.435,-627.483 664.144,-574.479 669.681,-547.951"/>
</g>
<!-- 21&#45;&gt;23 -->
<g id="edge45" class="edge"><title>21&#45;&gt;23</title>
<path fill="none" stroke="grey" d="M576.91,-805.597C554.038,-792.89 517.183,-772.416 493.648,-759.341"/>
</g>
<!-- 26 -->
<g id="node26" class="node"><title>26</title>
<ellipse fill="red" stroke="red" cx="519.435" cy="-602" rx="28.3955" ry="18"/>
<text text-anchor="middle" x="519.435" y="-598.3" font-family="Times,serif" font-size="14.00">26: 1</text>
</g>
<!-- 21&#45;&gt;26 -->
<g id="edge46" class="edge"><title>21&#45;&gt;26</title>
<path fill="none" stroke="grey" d="M591.314,-800.208C576.733,-760.204 540.079,-659.639 525.527,-619.714"/>
</g>
<!-- 21&#45;&gt;35 -->
<g id="edge47" class="edge"><title>21&#45;&gt;35</title>
<path fill="none" stroke="grey" d="M598.419,-799.738C601.137,-760.268 610.634,-660.902 640.435,-584 645.683,-570.457 654.478,-556.57 661.67,-546.411"/>
</g>
<!-- 22 -->
<g id="node22" class="node"><title>22</title>
<ellipse fill="red" stroke="red" cx="405.435" cy="-818" rx="28.3955" ry="18"/>
<text text-anchor="middle" x="405.435" y="-814.3" font-family="Times,serif" font-size="14.00">22: 1</text>
</g>
<!-- 22&#45;&gt;23 -->
<g id="edge48" class="edge"><title>22&#45;&gt;23</title>
<path fill="none" stroke="grey" d="M419.432,-802.155C430.481,-790.436 445.841,-774.145 457.002,-762.308"/>
</g>
<!-- 24 -->
<g id="node24" class="node"><title>24</title>
<ellipse fill="red" stroke="red" cx="397.435" cy="-674" rx="28.3955" ry="18"/>
<text text-anchor="middle" x="397.435" y="-670.3" font-family="Times,serif" font-size="14.00">24: 1</text>
</g>
<!-- 22&#45;&gt;24 -->
<g id="edge49" class="edge"><title>22&#45;&gt;24</title>
<path fill="none" stroke="grey" d="M404.47,-799.871C402.932,-772.578 399.943,-719.52 398.403,-692.189"/>
</g>
<!-- 23&#45;&gt;24 -->
<g id="edge50" class="edge"><title>23&#45;&gt;24</title>
<path fill="none" stroke="grey" d="M455.741,-730.155C443.013,-718.115 425.183,-701.248 412.599,-689.345"/>
</g>
<!-- 25 -->
<g id="node25" class="node"><title>25</title>
<ellipse fill="red" stroke="red" cx="419.435" cy="-602" rx="33.2209" ry="18"/>
<text text-anchor="middle" x="419.435" y="-598.3" font-family="Times,serif" font-size="14.00">25: 10</text>
</g>
<!-- 23&#45;&gt;25 -->
<g id="edge51" class="edge"><title>23&#45;&gt;25</title>
<path fill="none" stroke="grey" d="M465.265,-728.153C455.258,-700.824 435.599,-647.14 425.596,-619.825"/>
</g>
<!-- 23&#45;&gt;26 -->
<g id="edge52" class="edge"><title>23&#45;&gt;26</title>
<path fill="none" stroke="grey" d="M477.129,-728.153C486.367,-700.824 504.514,-647.14 513.747,-619.825"/>
</g>
<!-- 27 -->
<g id="node27" class="node"><title>27</title>
<ellipse fill="red" stroke="red" cx="418.435" cy="-530" rx="28.3955" ry="18"/>
<text text-anchor="middle" x="418.435" y="-526.3" font-family="Times,serif" font-size="14.00">27: 1</text>
</g>
<!-- 23&#45;&gt;27 -->
<g id="edge53" class="edge"><title>23&#45;&gt;27</title>
<path fill="none" stroke="grey" d="M473.69,-727.822C476.951,-697.567 480.665,-633.313 461.435,-584 455.58,-568.987 443.81,-554.967 434.062,-545.122"/>
</g>
<!-- 24&#45;&gt;25 -->
<g id="edge54" class="edge"><title>24&#45;&gt;25</title>
<path fill="none" stroke="grey" d="M402.76,-656.055C406.219,-645.049 410.709,-630.764 414.158,-619.789"/>
</g>
<!-- 24&#45;&gt;27 -->
<g id="edge55" class="edge"><title>24&#45;&gt;27</title>
<path fill="none" stroke="grey" d="M384.753,-657.698C381.764,-653.229 378.995,-648.152 377.435,-643 369.836,-617.903 368.957,-608.814 377.435,-584 382.474,-569.249 393.472,-555.419 402.809,-545.587"/>
</g>
<!-- 28 -->
<g id="node28" class="node"><title>28</title>
<ellipse fill="red" stroke="red" cx="205.435" cy="-602" rx="28.3955" ry="18"/>
<text text-anchor="middle" x="205.435" y="-598.3" font-family="Times,serif" font-size="14.00">28: 1</text>
</g>
<!-- 24&#45;&gt;28 -->
<g id="edge56" class="edge"><title>24&#45;&gt;28</title>
<path fill="none" stroke="grey" d="M373.506,-664.276C336.613,-650.825 266.255,-625.174 229.363,-611.724"/>
</g>
<!-- 41 -->
<g id="node41" class="node"><title>41</title>
<ellipse fill="beige" stroke="beige" cx="281.435" cy="-170" rx="28.3955" ry="18"/>
<text text-anchor="middle" x="281.435" y="-166.3" font-family="Times,serif" font-size="14.00">41: 2</text>
</g>
<!-- 24&#45;&gt;41 -->
<g id="edge57" class="edge"><title>24&#45;&gt;41</title>
<path fill="none" stroke="grey" d="M380.727,-659.385C375.829,-654.652 370.871,-649.011 367.435,-643 341.913,-598.361 338.435,-582.419 338.435,-531 338.435,-531 338.435,-531 338.435,-313 338.435,-264.121 308.988,-212.148 292.425,-186.78"/>
</g>
<!-- 25&#45;&gt;27 -->
<g id="edge58" class="edge"><title>25&#45;&gt;27</title>
<path fill="none" stroke="grey" d="M419.188,-583.697C419.033,-572.846 418.834,-558.917 418.679,-548.104"/>
</g>
<!-- 26&#45;&gt;27 -->
<g id="edge59" class="edge"><title>26&#45;&gt;27</title>
<path fill="none" stroke="grey" d="M500.91,-588.161C482.686,-575.531 455.025,-556.36 436.842,-543.758"/>
</g>
<!-- 26&#45;&gt;35 -->
<g id="edge60" class="edge"><title>26&#45;&gt;35</title>
<path fill="none" stroke="grey" d="M541.828,-590.821C571.025,-577.55 621.804,-554.468 651.015,-541.191"/>
</g>
<!-- 27&#45;&gt;41 -->
<g id="edge61" class="edge"><title>27&#45;&gt;41</title>
<path fill="none" stroke="grey" d="M410.334,-512.4C398.386,-486.343 377.435,-433.957 377.435,-387 377.435,-387 377.435,-387 377.435,-313 377.435,-271.914 375.691,-257.871 352.435,-224 339.81,-205.613 318.709,-191.052 302.783,-181.881"/>
</g>
<!-- 42 -->
<g id="node42" class="node"><title>42</title>
<ellipse fill="beige" stroke="beige" cx="310.435" cy="-98" rx="28.3955" ry="18"/>
<text text-anchor="middle" x="310.435" y="-94.3" font-family="Times,serif" font-size="14.00">42: 6</text>
</g>
<!-- 27&#45;&gt;42 -->
<g id="edge62" class="edge"><title>27&#45;&gt;42</title>
<path fill="none" stroke="grey" d="M418.04,-511.952C417.457,-485.294 416.435,-432.119 416.435,-387 416.435,-387 416.435,-387 416.435,-241 416.435,-183.471 359.875,-134.219 329.385,-111.849"/>
</g>
<!-- 29 -->
<g id="node29" class="node"><title>29</title>
<ellipse fill="beige" stroke="beige" cx="157.435" cy="-530" rx="28.3955" ry="18"/>
<text text-anchor="middle" x="157.435" y="-526.3" font-family="Times,serif" font-size="14.00">29: 2</text>
</g>
<!-- 28&#45;&gt;29 -->
<g id="edge63" class="edge"><title>28&#45;&gt;29</title>
<path fill="none" stroke="grey" d="M194.543,-585.116C186.687,-573.66 176.129,-558.263 168.284,-546.821"/>
</g>
<!-- 30 -->
<g id="node30" class="node"><title>30</title>
<ellipse fill="beige" stroke="beige" cx="178.435" cy="-458" rx="28.3955" ry="18"/>
<text text-anchor="middle" x="178.435" y="-454.3" font-family="Times,serif" font-size="14.00">30: 2</text>
</g>
<!-- 28&#45;&gt;30 -->
<g id="edge64" class="edge"><title>28&#45;&gt;30</title>
<path fill="none" stroke="grey" d="M204.182,-583.795C202.666,-565.763 199.645,-536.678 194.435,-512 191.853,-499.775 187.768,-486.298 184.371,-475.994"/>
</g>
<!-- 31 -->
<g id="node31" class="node"><title>31</title>
<ellipse fill="beige" stroke="beige" cx="205.435" cy="-386" rx="28.3955" ry="18"/>
<text text-anchor="middle" x="205.435" y="-382.3" font-family="Times,serif" font-size="14.00">31: 1</text>
</g>
<!-- 28&#45;&gt;31 -->
<g id="edge65" class="edge"><title>28&#45;&gt;31</title>
<path fill="none" stroke="grey" d="M208.214,-584.052C212.646,-554.677 220.337,-492.421 215.435,-440 214.301,-427.88 211.74,-414.402 209.494,-404.071"/>
</g>
<!-- 28&#45;&gt;41 -->
<g id="edge66" class="edge"><title>28&#45;&gt;41</title>
<path fill="none" stroke="grey" d="M222.859,-587.33C250.285,-564.132 300.435,-514.17 300.435,-459 300.435,-459 300.435,-459 300.435,-313 300.435,-267.483 290.726,-214.479 285.188,-187.951"/>
</g>
<!-- 29&#45;&gt;30 -->
<g id="edge67" class="edge"><title>29&#45;&gt;30</title>
<path fill="none" stroke="grey" d="M162.518,-512.055C165.82,-501.049 170.106,-486.764 173.398,-475.789"/>
</g>
<!-- 32 -->
<g id="node32" class="node"><title>32</title>
<ellipse fill="beige" stroke="beige" cx="130.435" cy="-386" rx="28.3955" ry="18"/>
<text text-anchor="middle" x="130.435" y="-382.3" font-family="Times,serif" font-size="14.00">32: 2</text>
</g>
<!-- 29&#45;&gt;32 -->
<g id="edge68" class="edge"><title>29&#45;&gt;32</title>
<path fill="none" stroke="grey" d="M151.047,-512.048C147.41,-501.758 143.067,-488.283 140.435,-476 135.156,-451.371 132.553,-422.273 131.354,-404.224"/>
</g>
<!-- 30&#45;&gt;31 -->
<g id="edge69" class="edge"><title>30&#45;&gt;31</title>
<path fill="none" stroke="grey" d="M184.833,-440.411C189.075,-429.414 194.624,-415.027 198.894,-403.956"/>
</g>
<!-- 30&#45;&gt;32 -->
<g id="edge70" class="edge"><title>30&#45;&gt;32</title>
<path fill="none" stroke="grey" d="M167.543,-441.116C159.687,-429.66 149.129,-414.263 141.284,-402.821"/>
</g>
<!-- 38 -->
<g id="node38" class="node"><title>38</title>
<ellipse fill="beige" stroke="beige" cx="167.435" cy="-242" rx="28.3955" ry="18"/>
<text text-anchor="middle" x="167.435" y="-238.3" font-family="Times,serif" font-size="14.00">38: 6</text>
</g>
<!-- 30&#45;&gt;38 -->
<g id="edge71" class="edge"><title>30&#45;&gt;38</title>
<path fill="none" stroke="grey" d="M155.159,-447.588C136.045,-438.816 109.443,-424.07 92.4347,-404 77.2274,-386.055 76.9639,-378.082 72.4347,-355 67.3856,-329.268 59.1569,-318.612 72.4347,-296 76.5947,-288.916 118.987,-266.977 145.718,-253.649"/>
</g>
<!-- 30&#45;&gt;41 -->
<g id="edge72" class="edge"><title>30&#45;&gt;41</title>
<path fill="none" stroke="grey" d="M199.124,-445.391C213.638,-436.118 232.212,-421.752 242.435,-404 283.78,-332.205 284.159,-228.641 282.48,-188.145"/>
</g>
<!-- 31&#45;&gt;41 -->
<g id="edge73" class="edge"><title>31&#45;&gt;41</title>
<path fill="none" stroke="grey" d="M208.261,-367.998C213.616,-338.016 226.692,-274.171 248.435,-224 254.21,-210.673 262.981,-196.777 270.029,-186.558"/>
</g>
<!-- 36 -->
<g id="node36" class="node"><title>36</title>
<ellipse fill="beige" stroke="beige" cx="110.435" cy="-314" rx="28.3955" ry="18"/>
<text text-anchor="middle" x="110.435" y="-310.3" font-family="Times,serif" font-size="14.00">36: 6</text>
</g>
<!-- 32&#45;&gt;36 -->
<g id="edge74" class="edge"><title>32&#45;&gt;36</title>
<path fill="none" stroke="grey" d="M125.593,-368.055C122.449,-357.049 118.367,-342.764 115.232,-331.789"/>
</g>
<!-- 32&#45;&gt;38 -->
<g id="edge75" class="edge"><title>32&#45;&gt;38</title>
<path fill="none" stroke="grey" d="M140.835,-368.976C143.312,-364.586 145.729,-359.73 147.435,-355 159.095,-322.67 164.144,-282.547 166.182,-260.161"/>
</g>
<!-- 34 -->
<g id="node34" class="node"><title>34</title>
<ellipse fill="beige" stroke="beige" cx="711.435" cy="-602" rx="28.3955" ry="18"/>
<text text-anchor="middle" x="711.435" y="-598.3" font-family="Times,serif" font-size="14.00">34: 2</text>
</g>
<!-- 33&#45;&gt;34 -->
<g id="edge76" class="edge"><title>33&#45;&gt;34</title>
<path fill="none" stroke="grey" d="M718.21,-655.697C716.815,-644.846 715.024,-630.917 713.634,-620.104"/>
</g>
<!-- 33&#45;&gt;35 -->
<g id="edge77" class="edge"><title>33&#45;&gt;35</title>
<path fill="none" stroke="grey" d="M737.226,-659.346C741.739,-654.687 746.031,-649.098 748.435,-643 758.051,-618.604 760.493,-607.286 748.435,-584 737.657,-563.187 714.528,-548.801 696.785,-540.324"/>
</g>
<!-- 34&#45;&gt;35 -->
<g id="edge78" class="edge"><title>34&#45;&gt;35</title>
<path fill="none" stroke="grey" d="M702.621,-584.765C696.482,-573.456 688.329,-558.437 682.2,-547.147"/>
</g>
<!-- 37 -->
<g id="node37" class="node"><title>37</title>
<ellipse fill="beige" stroke="beige" cx="92.4347" cy="-242" rx="28.3955" ry="18"/>
<text text-anchor="middle" x="92.4347" y="-238.3" font-family="Times,serif" font-size="14.00">37: 2</text>
</g>
<!-- 36&#45;&gt;37 -->
<g id="edge79" class="edge"><title>36&#45;&gt;37</title>
<path fill="none" stroke="grey" d="M106.077,-296.055C103.289,-285.211 99.6818,-271.183 96.8769,-260.275"/>
</g>
<!-- 36&#45;&gt;38 -->
<g id="edge80" class="edge"><title>36&#45;&gt;38</title>
<path fill="none" stroke="grey" d="M123.085,-297.465C132.531,-285.865 145.383,-270.082 154.82,-258.492"/>
</g>
<!-- 39 -->
<g id="node39" class="node"><title>39</title>
<ellipse fill="beige" stroke="beige" cx="72.4347" cy="-170" rx="28.3955" ry="18"/>
<text text-anchor="middle" x="72.4347" y="-166.3" font-family="Times,serif" font-size="14.00">39: 2</text>
</g>
<!-- 36&#45;&gt;39 -->
<g id="edge81" class="edge"><title>36&#45;&gt;39</title>
<path fill="none" stroke="grey" d="M90.9245,-300.819C77.8973,-291.451 61.8439,-277.214 54.4347,-260 44.0887,-235.963 54.7287,-205.677 63.4886,-187.353"/>
</g>
<!-- 40 -->
<g id="node40" class="node"><title>40</title>
<ellipse fill="beige" stroke="beige" cx="62.4347" cy="-98" rx="28.3955" ry="18"/>
<text text-anchor="middle" x="62.4347" y="-94.3" font-family="Times,serif" font-size="14.00">40: 2</text>
</g>
<!-- 36&#45;&gt;40 -->
<g id="edge82" class="edge"><title>36&#45;&gt;40</title>
<path fill="none" stroke="grey" d="M90.1338,-301.158C75.8122,-291.768 57.3104,-277.36 46.4347,-260 34.5314,-240.999 37.1207,-233.26 34.4347,-211 31.2934,-184.967 28.1248,-177.452 34.4347,-152 37.7402,-138.667 45.0812,-124.993 51.4173,-114.874"/>
</g>
<!-- 38&#45;&gt;39 -->
<g id="edge83" class="edge"><title>38&#45;&gt;39</title>
<path fill="none" stroke="grey" d="M149.566,-227.834C132.581,-215.319 107.181,-196.603 90.2234,-184.107"/>
</g>
<!-- 38&#45;&gt;41 -->
<g id="edge84" class="edge"><title>38&#45;&gt;41</title>
<path fill="none" stroke="grey" d="M187.032,-228.967C207.913,-216.145 240.783,-195.962 261.712,-183.111"/>
</g>
<!-- 43 -->
<g id="node43" class="node"><title>43</title>
<ellipse fill="beige" stroke="beige" cx="262.435" cy="-26" rx="28.3955" ry="18"/>
<text text-anchor="middle" x="262.435" y="-22.3" font-family="Times,serif" font-size="14.00">43: 2</text>
</g>
<!-- 38&#45;&gt;43 -->
<g id="edge85" class="edge"><title>38&#45;&gt;43</title>
<path fill="none" stroke="grey" d="M145.73,-230.019C140.5,-227.732 134.855,-225.549 129.435,-224 108.947,-218.146 49.2654,-226.3 34.4347,-211 -6.20696,-169.073 -12.0924,-125.556 24.4347,-80 50.5182,-47.4691 177.396,-33.6198 234.493,-28.9641"/>
</g>
<!-- 39&#45;&gt;40 -->
<g id="edge86" class="edge"><title>39&#45;&gt;40</title>
<path fill="none" stroke="grey" d="M70.014,-152.055C68.4649,-141.211 66.4608,-127.183 64.9026,-116.275"/>
</g>
<!-- 41&#45;&gt;42 -->
<g id="edge87" class="edge"><title>41&#45;&gt;42</title>
<path fill="none" stroke="grey" d="M288.307,-152.411C292.93,-141.252 298.999,-126.604 303.611,-115.47"/>
</g>
<!-- 41&#45;&gt;43 -->
<g id="edge88" class="edge"><title>41&#45;&gt;43</title>
<path fill="none" stroke="grey" d="M278.271,-151.852C276.423,-141.494 274.128,-128.014 272.435,-116 268.919,-91.0579 265.848,-62.0429 264.067,-44.0979"/>
</g>
<!-- 42&#45;&gt;43 -->
<g id="edge89" class="edge"><title>42&#45;&gt;43</title>
<path fill="none" stroke="grey" d="M299.543,-81.1159C291.687,-69.66 281.129,-54.2627 273.284,-42.8212"/>
</g>
</g>
</svg>
