<?xml version="1.0" encoding="UTF-8" standalone="no"?>
<!DOCTYPE svg PUBLIC "-//W3C//DTD SVG 1.1//EN"
 "http://www.w3.org/Graphics/SVG/1.1/DTD/svg11.dtd">
<!-- Generated by graphviz version 2.36.0 (20140111.2315)
 -->
<!-- Title: G Pages: 1 -->
<svg width="829pt" height="1753pt"
 viewBox="7.20 7.20 821.63 1746.20" xmlns="http://www.w3.org/2000/svg" xmlns:xlink="http://www.w3.org/1999/xlink">
<g id="graph0" class="graph" transform="scale(1 1) rotate(0) translate(11.2 1742.2)">
<title>G</title>
<polygon fill="white" stroke="none" points="-4,4 -4,-1735 810.435,-1735 810.435,4 -4,4"/>
<g id="clust1" class="cluster"><title>cluster1</title>
<polygon fill="sandybrown" stroke="sandybrown" points="560.435,-1592 560.435,-1723 686.435,-1723 686.435,-1592 560.435,-1592"/>
<text text-anchor="middle" x="623.435" y="-1707.8" font-family="Times,serif" font-size="14.00">Super region 1 [3]</text>
</g>
<g id="clust2" class="cluster"><title>cluster2</title>
<polygon fill="sandybrown" stroke="sandybrown" points="628.435,-1160 628.435,-1579 798.435,-1579 798.435,-1160 628.435,-1160"/>
<text text-anchor="middle" x="713.435" y="-1563.8" font-family="Times,serif" font-size="14.00">Super region 2 [6]</text>
</g>
<g id="clust3" class="cluster"><title>cluster3</title>
<polygon fill="sandybrown" stroke="sandybrown" points="468.435,-1088 468.435,-1363 622.435,-1363 622.435,-1088 468.435,-1088"/>
<text text-anchor="middle" x="545.435" y="-1347.8" font-family="Times,serif" font-size="14.00">Super region 3 [3]</text>
</g>
<g id="clust4" class="cluster"><title>cluster4</title>
<polygon fill="sandybrown" stroke="sandybrown" points="540.435,-800 540.435,-1075 702.435,-1075 702.435,-800 540.435,-800"/>
<text text-anchor="middle" x="621.435" y="-1059.8" font-family="Times,serif" font-size="14.00">Super region 4 [4]</text>
</g>
<g id="clust5" class="cluster"><title>cluster5</title>
<polygon fill="sandybrown" stroke="sandybrown" points="366.435,-512 366.435,-859 540.435,-859 540.435,-512 366.435,-512"/>
<text text-anchor="middle" x="453.435" y="-843.8" font-family="Times,serif" font-size="14.00">Super region 5 [4]</text>
</g>
<g id="clust6" class="cluster"><title>cluster6</title>
<polygon fill="sandybrown" stroke="sandybrown" points="101.435,-368 101.435,-643 234.435,-643 234.435,-368 101.435,-368"/>
<text text-anchor="middle" x="167.935" y="-627.8" font-family="Times,serif" font-size="14.00">Super region 6 [3]</text>
</g>
<g id="clust7" class="cluster"><title>cluster7</title>
<polygon fill="sandybrown" stroke="sandybrown" points="643.435,-512 643.435,-715 759.435,-715 759.435,-512 643.435,-512"/>
<text text-anchor="middle" x="701.435" y="-699.8" font-family="Times,serif" font-size="14.00">Super region 7 [3]</text>
</g>
<g id="clust8" class="cluster"><title>cluster8</title>
<polygon fill="sandybrown" stroke="sandybrown" points="23.4347,-80 23.4347,-355 196.435,-355 196.435,-80 23.4347,-80"/>
<text text-anchor="middle" x="109.935" y="-339.8" font-family="Times,serif" font-size="14.00">Super region 8 [2]</text>
</g>
<g id="clust9" class="cluster"><title>cluster9</title>
<polygon fill="sandybrown" stroke="sandybrown" points="228.435,-8 228.435,-211 344.435,-211 344.435,-8 228.435,-8"/>
<text text-anchor="middle" x="286.435" y="-195.8" font-family="Times,serif" font-size="14.00">Super region 9 [2]</text>
</g>
<!-- 1 -->
<g id="node1" class="node"><title>1</title>
<ellipse fill="blue" stroke="blue" cx="623.435" cy="-1682" rx="27" ry="18"/>
<text text-anchor="middle" x="623.435" y="-1678.3" font-family="Times,serif" font-size="14.00" fill="white">1: 1</text>
</g>
<!-- 2 -->
<g id="node2" class="node"><title>2</title>
<ellipse fill="blue" stroke="blue" cx="659.435" cy="-1610" rx="27" ry="18"/>
<text text-anchor="middle" x="659.435" y="-1606.3" font-family="Times,serif" font-size="14.00" fill="white">2: 1</text>
</g>
<!-- 1&#45;&gt;2 -->
<g id="edge1" class="edge"><title>1&#45;&gt;2</title>
<path fill="none" stroke="grey" d="M631.784,-1664.76C637.6,-1653.46 645.324,-1638.44 651.13,-1627.15"/>
</g>
<!-- 3 -->
<g id="node3" class="node"><title>3</title>
<ellipse fill="blue" stroke="blue" cx="587.435" cy="-1610" rx="27" ry="18"/>
<text text-anchor="middle" x="587.435" y="-1606.3" font-family="Times,serif" font-size="14.00" fill="white">3: 1</text>
</g>
<!-- 1&#45;&gt;3 -->
<g id="edge2" class="edge"><title>1&#45;&gt;3</title>
<path fill="none" stroke="grey" d="M615.085,-1664.76C609.269,-1653.46 601.545,-1638.44 595.739,-1627.15"/>
</g>
<!-- 4 -->
<g id="node4" class="node"><title>4</title>
<ellipse fill="blue" stroke="blue" cx="698.435" cy="-1538" rx="27" ry="18"/>
<text text-anchor="middle" x="698.435" y="-1534.3" font-family="Times,serif" font-size="14.00" fill="white">4: 1</text>
</g>
<!-- 1&#45;&gt;4 -->
<g id="edge3" class="edge"><title>1&#45;&gt;4</title>
<path fill="none" stroke="grey" d="M645.693,-1671.34C662.637,-1662.66 684.798,-1648.19 695.435,-1628 707.399,-1605.3 705.108,-1574.61 702.019,-1555.85"/>
</g>
<!-- 6 -->
<g id="node6" class="node"><title>6</title>
<ellipse fill="blue" stroke="blue" cx="705.435" cy="-1394" rx="27" ry="18"/>
<text text-anchor="middle" x="705.435" y="-1390.3" font-family="Times,serif" font-size="14.00" fill="white">6: 1</text>
</g>
<!-- 1&#45;&gt;6 -->
<g id="edge4" class="edge"><title>1&#45;&gt;6</title>
<path fill="none" stroke="grey" d="M646.466,-1672.58C666.786,-1664.11 695.966,-1649.25 714.435,-1628 729.864,-1610.25 727.202,-1601.38 734.435,-1579 752.61,-1522.75 779.796,-1502.72 757.435,-1448 750.608,-1431.29 735.696,-1417.01 723.584,-1407.49"/>
</g>
<!-- 11 -->
<g id="node11" class="node"><title>11</title>
<ellipse fill="blue" stroke="blue" cx="543.435" cy="-1322" rx="28.3955" ry="18"/>
<text text-anchor="middle" x="543.435" y="-1318.3" font-family="Times,serif" font-size="14.00" fill="white">11: 1</text>
</g>
<!-- 1&#45;&gt;11 -->
<g id="edge5" class="edge"><title>1&#45;&gt;11</title>
<path fill="none" stroke="grey" d="M602.122,-1670.78C585.714,-1661.8 563.81,-1647.17 551.435,-1628 529.497,-1594.02 532.435,-1579.45 532.435,-1539 532.435,-1539 532.435,-1539 532.435,-1465 532.435,-1419.75 538.056,-1366.63 541.261,-1340.02"/>
</g>
<!-- 13 -->
<g id="node13" class="node"><title>13</title>
<ellipse fill="blue" stroke="blue" cx="593.435" cy="-1250" rx="28.3955" ry="18"/>
<text text-anchor="middle" x="593.435" y="-1246.3" font-family="Times,serif" font-size="14.00" fill="white">13: 1</text>
</g>
<!-- 1&#45;&gt;13 -->
<g id="edge6" class="edge"><title>1&#45;&gt;13</title>
<path fill="none" stroke="grey" d="M600.553,-1672.28C580.281,-1663.6 550.953,-1648.61 531.435,-1628 500.959,-1595.82 486.435,-1583.32 486.435,-1539 486.435,-1539 486.435,-1539 486.435,-1393 486.435,-1352.55 481.95,-1336.93 505.435,-1304 521.072,-1282.07 548.878,-1267.57 569.058,-1259.37"/>
</g>
<!-- 2&#45;&gt;4 -->
<g id="edge7" class="edge"><title>2&#45;&gt;4</title>
<path fill="none" stroke="grey" d="M668.48,-1592.76C674.781,-1581.46 683.149,-1566.44 689.438,-1555.15"/>
</g>
<!-- 3&#45;&gt;11 -->
<g id="edge8" class="edge"><title>3&#45;&gt;11</title>
<path fill="none" stroke="grey" d="M584.814,-1591.97C576.988,-1541.1 553.849,-1390.7 546.042,-1339.94"/>
</g>
<!-- 5 -->
<g id="node5" class="node"><title>5</title>
<ellipse fill="blue" stroke="blue" cx="721.435" cy="-1466" rx="27" ry="18"/>
<text text-anchor="middle" x="721.435" y="-1462.3" font-family="Times,serif" font-size="14.00" fill="white">5: 1</text>
</g>
<!-- 4&#45;&gt;5 -->
<g id="edge9" class="edge"><title>4&#45;&gt;5</title>
<path fill="none" stroke="grey" d="M704.002,-1520.05C707.619,-1509.05 712.312,-1494.76 715.918,-1483.79"/>
</g>
<!-- 4&#45;&gt;6 -->
<g id="edge10" class="edge"><title>4&#45;&gt;6</title>
<path fill="none" stroke="grey" d="M692.726,-1520.21C687.387,-1502.27 680.867,-1473.04 685.435,-1448 687.764,-1435.23 693.009,-1421.54 697.543,-1411.27"/>
</g>
<!-- 5&#45;&gt;6 -->
<g id="edge11" class="edge"><title>5&#45;&gt;6</title>
<path fill="none" stroke="grey" d="M717.562,-1448.05C715.083,-1437.21 711.877,-1423.18 709.383,-1412.28"/>
</g>
<!-- 7 -->
<g id="node7" class="node"><title>7</title>
<ellipse fill="blue" stroke="blue" cx="751.435" cy="-1322" rx="27" ry="18"/>
<text text-anchor="middle" x="751.435" y="-1318.3" font-family="Times,serif" font-size="14.00" fill="white">7: 1</text>
</g>
<!-- 5&#45;&gt;7 -->
<g id="edge12" class="edge"><title>5&#45;&gt;7</title>
<path fill="none" stroke="grey" d="M728.826,-1448.63C733.172,-1438.32 738.395,-1424.62 741.435,-1412 747.333,-1387.51 749.771,-1358.38 750.766,-1340.28"/>
</g>
<!-- 9 -->
<g id="node9" class="node"><title>9</title>
<ellipse fill="blue" stroke="blue" cx="749.435" cy="-1250" rx="27" ry="18"/>
<text text-anchor="middle" x="749.435" y="-1246.3" font-family="Times,serif" font-size="14.00" fill="white">9: 1</text>
</g>
<!-- 5&#45;&gt;9 -->
<g id="edge13" class="edge"><title>5&#45;&gt;9</title>
<path fill="none" stroke="grey" d="M735.053,-1450.17C751.203,-1431.48 777.22,-1397.59 787.435,-1363 794.861,-1337.85 795.459,-1328.96 787.435,-1304 782.723,-1289.34 772.292,-1275.3 763.55,-1265.36"/>
</g>
<!-- 6&#45;&gt;7 -->
<g id="edge14" class="edge"><title>6&#45;&gt;7</title>
<path fill="none" stroke="grey" d="M715.873,-1377.12C723.401,-1365.66 733.519,-1350.26 741.038,-1338.82"/>
</g>
<!-- 8 -->
<g id="node8" class="node"><title>8</title>
<ellipse fill="blue" stroke="blue" cx="657.435" cy="-1322" rx="28.3955" ry="18"/>
<text text-anchor="middle" x="657.435" y="-1318.3" font-family="Times,serif" font-size="14.00" fill="white">8: 16</text>
</g>
<!-- 6&#45;&gt;8 -->
<g id="edge15" class="edge"><title>6&#45;&gt;8</title>
<path fill="none" stroke="grey" d="M694.543,-1377.12C686.687,-1365.66 676.129,-1350.26 668.284,-1338.82"/>
</g>
<!-- 6&#45;&gt;9 -->
<g id="edge16" class="edge"><title>6&#45;&gt;9</title>
<path fill="none" stroke="grey" d="M705.078,-1375.75C705.22,-1357.43 706.956,-1327.88 715.435,-1304 720.336,-1290.2 729.421,-1276.32 736.968,-1266.23"/>
</g>
<!-- 6&#45;&gt;13 -->
<g id="edge17" class="edge"><title>6&#45;&gt;13</title>
<path fill="none" stroke="grey" d="M678.789,-1390.46C659.606,-1387.21 634.542,-1379.83 619.435,-1363 595.563,-1336.41 592.363,-1292.25 592.597,-1268.09"/>
</g>
<!-- 7&#45;&gt;9 -->
<g id="edge18" class="edge"><title>7&#45;&gt;9</title>
<path fill="none" stroke="grey" d="M750.94,-1303.7C750.63,-1292.85 750.232,-1278.92 749.923,-1268.1"/>
</g>
<!-- 8&#45;&gt;9 -->
<g id="edge19" class="edge"><title>8&#45;&gt;9</title>
<path fill="none" stroke="grey" d="M675.173,-1307.5C691.673,-1294.95 716.094,-1276.37 732.373,-1263.98"/>
</g>
<!-- 8&#45;&gt;13 -->
<g id="edge20" class="edge"><title>8&#45;&gt;13</title>
<path fill="none" stroke="grey" d="M643.862,-1306.15C633.001,-1294.28 617.844,-1277.7 606.988,-1265.82"/>
</g>
<!-- 14 -->
<g id="node14" class="node"><title>14</title>
<ellipse fill="blue" stroke="blue" cx="569.435" cy="-1178" rx="28.3955" ry="18"/>
<text text-anchor="middle" x="569.435" y="-1174.3" font-family="Times,serif" font-size="14.00" fill="white">14: 1</text>
</g>
<!-- 8&#45;&gt;14 -->
<g id="edge21" class="edge"><title>8&#45;&gt;14</title>
<path fill="none" stroke="grey" d="M655.118,-1303.73C651.952,-1284.87 644.924,-1254.36 630.435,-1232 619.677,-1215.4 602.265,-1201.01 588.792,-1191.43"/>
</g>
<!-- 15 -->
<g id="node15" class="node"><title>15</title>
<ellipse fill="blue" stroke="blue" cx="569.435" cy="-1106" rx="28.3955" ry="18"/>
<text text-anchor="middle" x="569.435" y="-1102.3" font-family="Times,serif" font-size="14.00" fill="white">15: 1</text>
</g>
<!-- 8&#45;&gt;15 -->
<g id="edge22" class="edge"><title>8&#45;&gt;15</title>
<path fill="none" stroke="grey" d="M659.003,-1303.8C660.093,-1285.52 660.186,-1256.01 652.435,-1232 638.107,-1187.63 603.236,-1144.19 583.556,-1122.08"/>
</g>
<!-- 10 -->
<g id="node10" class="node"><title>10</title>
<ellipse fill="beige" stroke="beige" cx="749.435" cy="-1178" rx="28.3955" ry="18"/>
<text text-anchor="middle" x="749.435" y="-1174.3" font-family="Times,serif" font-size="14.00">10: 2</text>
</g>
<!-- 9&#45;&gt;10 -->
<g id="edge23" class="edge"><title>9&#45;&gt;10</title>
<path fill="none" stroke="grey" d="M749.435,-1231.7C749.435,-1220.85 749.435,-1206.92 749.435,-1196.1"/>
</g>
<!-- 12 -->
<g id="node12" class="node"><title>12</title>
<ellipse fill="blue" stroke="blue" cx="497.435" cy="-1250" rx="28.3955" ry="18"/>
<text text-anchor="middle" x="497.435" y="-1246.3" font-family="Times,serif" font-size="14.00" fill="white">12: 1</text>
</g>
<!-- 11&#45;&gt;12 -->
<g id="edge24" class="edge"><title>11&#45;&gt;12</title>
<path fill="none" stroke="grey" d="M532.997,-1305.12C525.468,-1293.66 515.35,-1278.26 507.832,-1266.82"/>
</g>
<!-- 11&#45;&gt;13 -->
<g id="edge25" class="edge"><title>11&#45;&gt;13</title>
<path fill="none" stroke="grey" d="M554.78,-1305.12C562.963,-1293.66 573.961,-1278.26 582.134,-1266.82"/>
</g>
<!-- 11&#45;&gt;14 -->
<g id="edge26" class="edge"><title>11&#45;&gt;14</title>
<path fill="none" stroke="grey" d="M545.109,-1303.83C547.014,-1285.83 550.512,-1256.77 555.435,-1232 557.846,-1219.87 561.418,-1206.39 564.351,-1196.06"/>
</g>
<!-- 12&#45;&gt;14 -->
<g id="edge27" class="edge"><title>12&#45;&gt;14</title>
<path fill="none" stroke="grey" d="M512.353,-1234.5C524.71,-1222.48 542.184,-1205.49 554.535,-1193.49"/>
</g>
<!-- 12&#45;&gt;15 -->
<g id="edge28" class="edge"><title>12&#45;&gt;15</title>
<path fill="none" stroke="grey" d="M502.473,-1232.03C508.246,-1213.7 518.585,-1183.89 531.435,-1160 538.621,-1146.64 548.696,-1132.74 556.666,-1122.53"/>
</g>
<!-- 13&#45;&gt;14 -->
<g id="edge29" class="edge"><title>13&#45;&gt;14</title>
<path fill="none" stroke="grey" d="M587.625,-1232.05C583.852,-1221.05 578.954,-1206.76 575.191,-1195.79"/>
</g>
<!-- 14&#45;&gt;15 -->
<g id="edge30" class="edge"><title>14&#45;&gt;15</title>
<path fill="none" stroke="grey" d="M569.435,-1159.7C569.435,-1148.85 569.435,-1134.92 569.435,-1124.1"/>
</g>
<!-- 17 -->
<g id="node17" class="node"><title>17</title>
<ellipse fill="blue" stroke="blue" cx="569.435" cy="-1034" rx="28.3955" ry="18"/>
<text text-anchor="middle" x="569.435" y="-1030.3" font-family="Times,serif" font-size="14.00" fill="white">17: 1</text>
</g>
<!-- 15&#45;&gt;17 -->
<g id="edge31" class="edge"><title>15&#45;&gt;17</title>
<path fill="none" stroke="grey" d="M569.435,-1087.7C569.435,-1076.85 569.435,-1062.92 569.435,-1052.1"/>
</g>
<!-- 16 -->
<g id="node16" class="node"><title>16</title>
<ellipse fill="blue" stroke="blue" cx="644.435" cy="-1034" rx="28.3955" ry="18"/>
<text text-anchor="middle" x="644.435" y="-1030.3" font-family="Times,serif" font-size="14.00" fill="white">16: 1</text>
</g>
<!-- 18 -->
<g id="node18" class="node"><title>18</title>
<ellipse fill="red" stroke="red" cx="617.435" cy="-962" rx="33.2209" ry="18"/>
<text text-anchor="middle" x="617.435" y="-958.3" font-family="Times,serif" font-size="14.00">18: 11</text>
</g>
<!-- 16&#45;&gt;18 -->
<g id="edge32" class="edge"><title>16&#45;&gt;18</title>
<path fill="none" stroke="grey" d="M638.036,-1016.41C633.794,-1005.41 628.245,-991.027 623.975,-979.956"/>
</g>
<!-- 17&#45;&gt;18 -->
<g id="edge33" class="edge"><title>17&#45;&gt;18</title>
<path fill="none" stroke="grey" d="M580.327,-1017.12C588.071,-1005.82 598.443,-990.696 606.253,-979.307"/>
</g>
<!-- 23 -->
<g id="node23" class="node"><title>23</title>
<ellipse fill="red" stroke="red" cx="463.435" cy="-746" rx="28.3955" ry="18"/>
<text text-anchor="middle" x="463.435" y="-742.3" font-family="Times,serif" font-size="14.00">23: 4</text>
</g>
<!-- 17&#45;&gt;23 -->
<g id="edge34" class="edge"><title>17&#45;&gt;23</title>
<path fill="none" stroke="grey" d="M558.626,-1017.05C539.098,-987.372 498.143,-921.058 478.435,-859 468.103,-826.466 464.886,-786.417 463.886,-764.098"/>
</g>
<!-- 19 -->
<g id="node19" class="node"><title>19</title>
<ellipse fill="red" stroke="red" cx="569.435" cy="-890" rx="28.3955" ry="18"/>
<text text-anchor="middle" x="569.435" y="-886.3" font-family="Times,serif" font-size="14.00">19: 1</text>
</g>
<!-- 18&#45;&gt;19 -->
<g id="edge35" class="edge"><title>18&#45;&gt;19</title>
<path fill="none" stroke="grey" d="M606.302,-944.765C598.437,-933.294 587.954,-918.007 580.177,-906.666"/>
</g>
<!-- 20 -->
<g id="node20" class="node"><title>20</title>
<ellipse fill="blue" stroke="blue" cx="669.435" cy="-890" rx="33.2209" ry="18"/>
<text text-anchor="middle" x="669.435" y="-886.3" font-family="Times,serif" font-size="14.00" fill="white">20: 81</text>
</g>
<!-- 18&#45;&gt;20 -->
<g id="edge36" class="edge"><title>18&#45;&gt;20</title>
<path fill="none" stroke="grey" d="M629.234,-945.116C637.625,-933.821 648.861,-918.696 657.321,-907.307"/>
</g>
<!-- 21 -->
<g id="node21" class="node"><title>21</title>
<ellipse fill="red" stroke="red" cx="596.435" cy="-818" rx="28.3955" ry="18"/>
<text text-anchor="middle" x="596.435" y="-814.3" font-family="Times,serif" font-size="14.00">21: 1</text>
</g>
<!-- 18&#45;&gt;21 -->
<g id="edge37" class="edge"><title>18&#45;&gt;21</title>
<path fill="none" stroke="grey" d="M615.647,-943.893C613.694,-925.941 610.322,-896.92 606.435,-872 604.559,-859.973 602.009,-846.493 599.954,-836.138"/>
</g>
<!-- 18&#45;&gt;23 -->
<g id="edge38" class="edge"><title>18&#45;&gt;23</title>
<path fill="none" stroke="grey" d="M591.898,-950.449C573.034,-941.541 547.879,-927.168 531.435,-908 511.728,-885.029 481.439,-800.084 469.03,-763.708"/>
</g>
<!-- 33 -->
<g id="node33" class="node"><title>33</title>
<ellipse fill="blue" stroke="blue" cx="720.435" cy="-674" rx="28.3955" ry="18"/>
<text text-anchor="middle" x="720.435" y="-670.3" font-family="Times,serif" font-size="14.00" fill="white">33: 1</text>
</g>
<!-- 18&#45;&gt;33 -->
<g id="edge39" class="edge"><title>18&#45;&gt;33</title>
<path fill="none" stroke="grey" d="M646.243,-953.142C668.222,-945.493 697.087,-931.507 711.435,-908 754.248,-837.856 734.821,-732.446 724.942,-691.806"/>
</g>
<!-- 19&#45;&gt;21 -->
<g id="edge40" class="edge"><title>19&#45;&gt;21</title>
<path fill="none" stroke="grey" d="M575.833,-872.411C580.075,-861.414 585.624,-847.027 589.894,-835.956"/>
</g>
<!-- 19&#45;&gt;23 -->
<g id="edge41" class="edge"><title>19&#45;&gt;23</title>
<path fill="none" stroke="grey" d="M560.931,-872.518C551.084,-854.079 533.844,-823.689 515.435,-800 504.519,-785.954 490.261,-771.65 479.437,-761.448"/>
</g>
<!-- 20&#45;&gt;21 -->
<g id="edge42" class="edge"><title>20&#45;&gt;21</title>
<path fill="none" stroke="grey" d="M653.595,-873.811C641.183,-861.909 624.017,-845.449 611.743,-833.68"/>
</g>
<!-- 20&#45;&gt;33 -->
<g id="edge43" class="edge"><title>20&#45;&gt;33</title>
<path fill="none" stroke="grey" d="M673.522,-871.849C683.095,-831.68 706.877,-731.89 716.399,-691.935"/>
</g>
<!-- 35 -->
<g id="node35" class="node"><title>35</title>
<ellipse fill="red" stroke="red" cx="672.435" cy="-530" rx="28.3955" ry="18"/>
<text text-anchor="middle" x="672.435" y="-526.3" font-family="Times,serif" font-size="14.00">35: 1</text>
</g>
<!-- 20&#45;&gt;35 -->
<g id="edge44" class="edge"><title>20&#45;&gt;35</title>
<path fill="none" stroke="grey" d="M666.274,-872.02C661.611,-845.454 653.435,-792.4 653.435,-747 653.435,-747 653.435,-747 653.435,-673 653.435,-627.483 663.144,-574.479 668.681,-547.951"/>
</g>
<!-- 21&#45;&gt;23 -->
<g id="edge45" class="edge"><title>21&#45;&gt;23</title>
<path fill="none" stroke="grey" d="M575.36,-805.908C550.603,-792.878 509.755,-771.379 484.851,-758.272"/>
</g>
<!-- 26 -->
<g id="node26" class="node"><title>26</title>
<ellipse fill="red" stroke="red" cx="511.435" cy="-602" rx="28.3955" ry="18"/>
<text text-anchor="middle" x="511.435" y="-598.3" font-family="Times,serif" font-size="14.00">26: 1</text>
</g>
<!-- 21&#45;&gt;26 -->
<g id="edge46" class="edge"><title>21&#45;&gt;26</title>
<path fill="none" stroke="grey" d="M589.765,-800.208C573.875,-760.204 533.932,-659.639 518.074,-619.714"/>
</g>
<!-- 21&#45;&gt;35 -->
<g id="edge47" class="edge"><title>21&#45;&gt;35</title>
<path fill="none" stroke="grey" d="M597.419,-799.738C600.137,-760.268 609.634,-660.902 639.435,-584 644.683,-570.457 653.478,-556.57 660.67,-546.411"/>
</g>
<!-- 22 -->
<g id="node22" class="node"><title>22</title>
<ellipse fill="red" stroke="red" cx="401.435" cy="-818" rx="28.3955" ry="18"/>
<text text-anchor="middle" x="401.435" y="-814.3" font-family="Times,serif" font-size="14.00">22: 1</text>
</g>
<!-- 22&#45;&gt;23 -->
<g id="edge48" class="edge"><title>22&#45;&gt;23</title>
<path fill="none" stroke="grey" d="M414.888,-801.811C425.287,-790.07 439.615,-773.893 450.008,-762.159"/>
</g>
<!-- 24 -->
<g id="node24" class="node"><title>24</title>
<ellipse fill="red" stroke="red" cx="395.435" cy="-674" rx="28.3955" ry="18"/>
<text text-anchor="middle" x="395.435" y="-670.3" font-family="Times,serif" font-size="14.00">24: 1</text>
</g>
<!-- 22&#45;&gt;24 -->
<g id="edge49" class="edge"><title>22&#45;&gt;24</title>
<path fill="none" stroke="grey" d="M400.711,-799.871C399.558,-772.578 397.316,-719.52 396.161,-692.189"/>
</g>
<!-- 23&#45;&gt;24 -->
<g id="edge50" class="edge"><title>23&#45;&gt;24</title>
<path fill="none" stroke="grey" d="M449.014,-730.155C437.474,-718.276 421.369,-701.697 409.835,-689.824"/>
</g>
<!-- 25 -->
<g id="node25" class="node"><title>25</title>
<ellipse fill="red" stroke="red" cx="415.435" cy="-602" rx="28.3955" ry="18"/>
<text text-anchor="middle" x="415.435" y="-598.3" font-family="Times,serif" font-size="14.00">25: 1</text>
</g>
<!-- 23&#45;&gt;25 -->
<g id="edge51" class="edge"><title>23&#45;&gt;25</title>
<path fill="none" stroke="grey" d="M457.74,-728.153C448.502,-700.824 430.355,-647.14 421.122,-619.825"/>
</g>
<!-- 23&#45;&gt;26 -->
<g id="edge52" class="edge"><title>23&#45;&gt;26</title>
<path fill="none" stroke="grey" d="M469.129,-728.153C478.367,-700.824 496.514,-647.14 505.747,-619.825"/>
</g>
<!-- 27 -->
<g id="node27" class="node"><title>27</title>
<ellipse fill="red" stroke="red" cx="415.435" cy="-530" rx="33.2209" ry="18"/>
<text text-anchor="middle" x="415.435" y="-526.3" font-family="Times,serif" font-size="14.00">27: 10</text>
</g>
<!-- 23&#45;&gt;27 -->
<g id="edge53" class="edge"><title>23&#45;&gt;27</title>
<path fill="none" stroke="grey" d="M465.185,-727.951C467.643,-697.895 470.035,-633.941 452.435,-584 447.511,-570.029 437.828,-556.375 429.602,-546.425"/>
</g>
<!-- 24&#45;&gt;25 -->
<g id="edge54" class="edge"><title>24&#45;&gt;25</title>
<path fill="none" stroke="grey" d="M400.276,-656.055C403.421,-645.049 407.502,-630.764 410.638,-619.789"/>
</g>
<!-- 24&#45;&gt;27 -->
<g id="edge55" class="edge"><title>24&#45;&gt;27</title>
<path fill="none" stroke="grey" d="M383.821,-657.229C381.203,-652.837 378.797,-647.917 377.435,-643 370.435,-617.729 369.41,-608.964 377.435,-584 382.008,-569.772 391.968,-556.125 400.544,-546.244"/>
</g>
<!-- 28 -->
<g id="node28" class="node"><title>28</title>
<ellipse fill="red" stroke="red" cx="205.435" cy="-602" rx="28.3955" ry="18"/>
<text text-anchor="middle" x="205.435" y="-598.3" font-family="Times,serif" font-size="14.00">28: 1</text>
</g>
<!-- 24&#45;&gt;28 -->
<g id="edge56" class="edge"><title>24&#45;&gt;28</title>
<path fill="none" stroke="grey" d="M371.371,-664.134C334.824,-650.67 265.734,-625.215 229.303,-611.794"/>
</g>
<!-- 41 -->
<g id="node41" class="node"><title>41</title>
<ellipse fill="beige" stroke="beige" cx="281.435" cy="-170" rx="28.3955" ry="18"/>
<text text-anchor="middle" x="281.435" y="-166.3" font-family="Times,serif" font-size="14.00">41: 2</text>
</g>
<!-- 24&#45;&gt;41 -->
<g id="edge57" class="edge"><title>24&#45;&gt;41</title>
<path fill="none" stroke="grey" d="M380.176,-658.814C375.862,-654.134 371.51,-648.666 368.435,-643 343.852,-597.709 338.435,-582.533 338.435,-531 338.435,-531 338.435,-531 338.435,-313 338.435,-264.121 308.988,-212.148 292.425,-186.78"/>
</g>
<!-- 25&#45;&gt;27 -->
<g id="edge58" class="edge"><title>25&#45;&gt;27</title>
<path fill="none" stroke="grey" d="M415.435,-583.697C415.435,-572.846 415.435,-558.917 415.435,-548.104"/>
</g>
<!-- 26&#45;&gt;27 -->
<g id="edge59" class="edge"><title>26&#45;&gt;27</title>
<path fill="none" stroke="grey" d="M493.378,-587.834C476.54,-575.556 451.519,-557.311 434.396,-544.826"/>
</g>
<!-- 26&#45;&gt;35 -->
<g id="edge60" class="edge"><title>26&#45;&gt;35</title>
<path fill="none" stroke="grey" d="M534.161,-591.119C564.845,-577.778 619.2,-554.146 649.824,-540.831"/>
</g>
<!-- 27&#45;&gt;41 -->
<g id="edge61" class="edge"><title>27&#45;&gt;41</title>
<path fill="none" stroke="grey" d="M407.927,-512.338C396.853,-486.197 377.435,-433.702 377.435,-387 377.435,-387 377.435,-387 377.435,-313 377.435,-271.914 375.691,-257.871 352.435,-224 339.81,-205.613 318.709,-191.052 302.783,-181.881"/>
</g>
<!-- 42 -->
<g id="node42" class="node"><title>42</title>
<ellipse fill="beige" stroke="beige" cx="310.435" cy="-98" rx="28.3955" ry="18"/>
<text text-anchor="middle" x="310.435" y="-94.3" font-family="Times,serif" font-size="14.00">42: 6</text>
</g>
<!-- 27&#45;&gt;42 -->
<g id="edge62" class="edge"><title>27&#45;&gt;42</title>
<path fill="none" stroke="grey" d="M415.435,-511.951C415.435,-485.292 415.435,-432.115 415.435,-387 415.435,-387 415.435,-387 415.435,-241 415.435,-183.665 359.408,-134.324 329.207,-111.891"/>
</g>
<!-- 29 -->
<g id="node29" class="node"><title>29</title>
<ellipse fill="beige" stroke="beige" cx="157.435" cy="-530" rx="28.3955" ry="18"/>
<text text-anchor="middle" x="157.435" y="-526.3" font-family="Times,serif" font-size="14.00">29: 2</text>
</g>
<!-- 28&#45;&gt;29 -->
<g id="edge63" class="edge"><title>28&#45;&gt;29</title>
<path fill="none" stroke="grey" d="M194.543,-585.116C186.687,-573.66 176.129,-558.263 168.284,-546.821"/>
</g>
<!-- 30 -->
<g id="node30" class="node"><title>30</title>
<ellipse fill="beige" stroke="beige" cx="177.435" cy="-458" rx="28.3955" ry="18"/>
<text text-anchor="middle" x="177.435" y="-454.3" font-family="Times,serif" font-size="14.00">30: 2</text>
</g>
<!-- 28&#45;&gt;30 -->
<g id="edge64" class="edge"><title>28&#45;&gt;30</title>
<path fill="none" stroke="grey" d="M204.268,-583.777C202.822,-565.729 199.857,-536.632 194.435,-512 191.734,-499.732 187.392,-486.256 183.773,-475.963"/>
</g>
<!-- 31 -->
<g id="node31" class="node"><title>31</title>
<ellipse fill="beige" stroke="beige" cx="205.435" cy="-386" rx="28.3955" ry="18"/>
<text text-anchor="middle" x="205.435" y="-382.3" font-family="Times,serif" font-size="14.00">31: 1</text>
</g>
<!-- 28&#45;&gt;31 -->
<g id="edge65" class="edge"><title>28&#45;&gt;31</title>
<path fill="none" stroke="grey" d="M207.938,-584.057C211.93,-554.69 218.856,-492.445 214.435,-440 213.415,-427.91 211.111,-414.431 209.089,-404.092"/>
</g>
<!-- 28&#45;&gt;41 -->
<g id="edge66" class="edge"><title>28&#45;&gt;41</title>
<path fill="none" stroke="grey" d="M222.859,-587.33C250.285,-564.132 300.435,-514.17 300.435,-459 300.435,-459 300.435,-459 300.435,-313 300.435,-267.483 290.726,-214.479 285.188,-187.951"/>
</g>
<!-- 29&#45;&gt;30 -->
<g id="edge67" class="edge"><title>29&#45;&gt;30</title>
<path fill="none" stroke="grey" d="M162.276,-512.055C165.421,-501.049 169.502,-486.764 172.638,-475.789"/>
</g>
<!-- 32 -->
<g id="node32" class="node"><title>32</title>
<ellipse fill="beige" stroke="beige" cx="130.435" cy="-386" rx="28.3955" ry="18"/>
<text text-anchor="middle" x="130.435" y="-382.3" font-family="Times,serif" font-size="14.00">32: 2</text>
</g>
<!-- 29&#45;&gt;32 -->
<g id="edge68" class="edge"><title>29&#45;&gt;32</title>
<path fill="none" stroke="grey" d="M150.596,-512.092C146.718,-501.819 142.119,-488.344 139.435,-476 134.089,-451.415 131.905,-422.306 131.022,-404.243"/>
</g>
<!-- 30&#45;&gt;31 -->
<g id="edge69" class="edge"><title>30&#45;&gt;31</title>
<path fill="none" stroke="grey" d="M184.07,-440.411C188.469,-429.414 194.224,-415.027 198.652,-403.956"/>
</g>
<!-- 30&#45;&gt;32 -->
<g id="edge70" class="edge"><title>30&#45;&gt;32</title>
<path fill="none" stroke="grey" d="M166.77,-441.116C159.078,-429.66 148.74,-414.263 141.058,-402.821"/>
</g>
<!-- 38 -->
<g id="node38" class="node"><title>38</title>
<ellipse fill="beige" stroke="beige" cx="167.435" cy="-242" rx="28.3955" ry="18"/>
<text text-anchor="middle" x="167.435" y="-238.3" font-family="Times,serif" font-size="14.00">38: 6</text>
</g>
<!-- 30&#45;&gt;38 -->
<g id="edge71" class="edge"><title>30&#45;&gt;38</title>
<path fill="none" stroke="grey" d="M154.053,-447.346C135.19,-438.516 109.135,-423.812 92.4347,-404 77.2744,-386.015 76.9639,-378.082 72.4347,-355 67.3856,-329.268 59.1569,-318.612 72.4347,-296 76.5947,-288.916 118.987,-266.977 145.718,-253.649"/>
</g>
<!-- 30&#45;&gt;41 -->
<g id="edge72" class="edge"><title>30&#45;&gt;41</title>
<path fill="none" stroke="grey" d="M198.134,-445.661C212.919,-436.432 231.975,-422.004 242.435,-404 284.052,-332.363 284.274,-228.708 282.516,-188.166"/>
</g>
<!-- 31&#45;&gt;41 -->
<g id="edge73" class="edge"><title>31&#45;&gt;41</title>
<path fill="none" stroke="grey" d="M208.261,-367.998C213.616,-338.016 226.692,-274.171 248.435,-224 254.21,-210.673 262.981,-196.777 270.029,-186.558"/>
</g>
<!-- 36 -->
<g id="node36" class="node"><title>36</title>
<ellipse fill="beige" stroke="beige" cx="110.435" cy="-314" rx="28.3955" ry="18"/>
<text text-anchor="middle" x="110.435" y="-310.3" font-family="Times,serif" font-size="14.00">36: 6</text>
</g>
<!-- 32&#45;&gt;36 -->
<g id="edge74" class="edge"><title>32&#45;&gt;36</title>
<path fill="none" stroke="grey" d="M125.593,-368.055C122.449,-357.049 118.367,-342.764 115.232,-331.789"/>
</g>
<!-- 32&#45;&gt;38 -->
<g id="edge75" class="edge"><title>32&#45;&gt;38</title>
<path fill="none" stroke="grey" d="M140.835,-368.976C143.312,-364.586 145.729,-359.73 147.435,-355 159.095,-322.67 164.144,-282.547 166.182,-260.161"/>
</g>
<!-- 34 -->
<g id="node34" class="node"><title>34</title>
<ellipse fill="beige" stroke="beige" cx="710.435" cy="-602" rx="28.3955" ry="18"/>
<text text-anchor="middle" x="710.435" y="-598.3" font-family="Times,serif" font-size="14.00">34: 2</text>
</g>
<!-- 33&#45;&gt;34 -->
<g id="edge76" class="edge"><title>33&#45;&gt;34</title>
<path fill="none" stroke="grey" d="M718.014,-656.055C716.465,-645.211 714.461,-631.183 712.903,-620.275"/>
</g>
<!-- 33&#45;&gt;35 -->
<g id="edge77" class="edge"><title>33&#45;&gt;35</title>
<path fill="none" stroke="grey" d="M736.92,-658.943C741.168,-654.344 745.175,-648.888 747.435,-643 756.829,-618.518 759.493,-607.286 747.435,-584 736.657,-563.187 713.528,-548.801 695.785,-540.324"/>
</g>
<!-- 34&#45;&gt;35 -->
<g id="edge78" class="edge"><title>34&#45;&gt;35</title>
<path fill="none" stroke="grey" d="M701.621,-584.765C695.482,-573.456 687.329,-558.437 681.2,-547.147"/>
</g>
<!-- 37 -->
<g id="node37" class="node"><title>37</title>
<ellipse fill="beige" stroke="beige" cx="92.4347" cy="-242" rx="28.3955" ry="18"/>
<text text-anchor="middle" x="92.4347" y="-238.3" font-family="Times,serif" font-size="14.00">37: 2</text>
</g>
<!-- 36&#45;&gt;37 -->
<g id="edge79" class="edge"><title>36&#45;&gt;37</title>
<path fill="none" stroke="grey" d="M106.077,-296.055C103.289,-285.211 99.6818,-271.183 96.8769,-260.275"/>
</g>
<!-- 36&#45;&gt;38 -->
<g id="edge80" class="edge"><title>36&#45;&gt;38</title>
<path fill="none" stroke="grey" d="M123.085,-297.465C132.531,-285.865 145.383,-270.082 154.82,-258.492"/>
</g>
<!-- 39 -->
<g id="node39" class="node"><title>39</title>
<ellipse fill="beige" stroke="beige" cx="72.4347" cy="-170" rx="28.3955" ry="18"/>
<text text-anchor="middle" x="72.4347" y="-166.3" font-family="Times,serif" font-size="14.00">39: 2</text>
</g>
<!-- 36&#45;&gt;39 -->
<g id="edge81" class="edge"><title>36&#45;&gt;39</title>
<path fill="none" stroke="grey" d="M90.9245,-300.819C77.8973,-291.451 61.8439,-277.214 54.4347,-260 44.0887,-235.963 54.7287,-205.677 63.4886,-187.353"/>
</g>
<!-- 40 -->
<g id="node40" class="node"><title>40</title>
<ellipse fill="beige" stroke="beige" cx="62.4347" cy="-98" rx="28.3955" ry="18"/>
<text text-anchor="middle" x="62.4347" y="-94.3" font-family="Times,serif" font-size="14.00">40: 2</text>
</g>
<!-- 36&#45;&gt;40 -->
<g id="edge82" class="edge"><title>36&#45;&gt;40</title>
<path fill="none" stroke="grey" d="M90.1338,-301.158C75.8122,-291.768 57.3104,-277.36 46.4347,-260 34.5314,-240.999 37.1207,-233.26 34.4347,-211 31.2934,-184.967 28.1248,-177.452 34.4347,-152 37.7402,-138.667 45.0812,-124.993 51.4173,-114.874"/>
</g>
<!-- 38&#45;&gt;39 -->
<g id="edge83" class="edge"><title>38&#45;&gt;39</title>
<path fill="none" stroke="grey" d="M149.566,-227.834C132.581,-215.319 107.181,-196.603 90.2234,-184.107"/>
</g>
<!-- 38&#45;&gt;41 -->
<g id="edge84" class="edge"><title>38&#45;&gt;41</title>
<path fill="none" stroke="grey" d="M187.032,-228.967C207.913,-216.145 240.783,-195.962 261.712,-183.111"/>
</g>
<!-- 43 -->
<g id="node43" class="node"><title>43</title>
<ellipse fill="beige" stroke="beige" cx="262.435" cy="-26" rx="28.3955" ry="18"/>
<text text-anchor="middle" x="262.435" y="-22.3" font-family="Times,serif" font-size="14.00">43: 2</text>
</g>
<!-- 38&#45;&gt;43 -->
<g id="edge85" class="edge"><title>38&#45;&gt;43</title>
<path fill="none" stroke="grey" d="M145.73,-230.019C140.5,-227.732 134.855,-225.549 129.435,-224 108.947,-218.146 49.2654,-226.3 34.4347,-211 -6.20696,-169.073 -12.0924,-125.556 24.4347,-80 50.5182,-47.4691 177.396,-33.6198 234.493,-28.9641"/>
</g>
<!-- 39&#45;&gt;40 -->
<g id="edge86" class="edge"><title>39&#45;&gt;40</title>
<path fill="none" stroke="grey" d="M70.014,-152.055C68.4649,-141.211 66.4608,-127.183 64.9026,-116.275"/>
</g>
<!-- 41&#45;&gt;42 -->
<g id="edge87" class="edge"><title>41&#45;&gt;42</title>
<path fill="none" stroke="grey" d="M288.307,-152.411C292.93,-141.252 298.999,-126.604 303.611,-115.47"/>
</g>
<!-- 41&#45;&gt;43 -->
<g id="edge88" class="edge"><title>41&#45;&gt;43</title>
<path fill="none" stroke="grey" d="M278.271,-151.852C276.423,-141.494 274.128,-128.014 272.435,-116 268.919,-91.0579 265.848,-62.0429 264.067,-44.0979"/>
</g>
<!-- 42&#45;&gt;43 -->
<g id="edge89" class="edge"><title>42&#45;&gt;43</title>
<path fill="none" stroke="grey" d="M299.543,-81.1159C291.687,-69.66 281.129,-54.2627 273.284,-42.8212"/>
</g>
</g>
</svg>
