<?xml version="1.0" encoding="UTF-8" standalone="no"?>
<!DOCTYPE svg PUBLIC "-//W3C//DTD SVG 1.1//EN"
 "http://www.w3.org/Graphics/SVG/1.1/DTD/svg11.dtd">
<!-- Generated by graphviz version 2.36.0 (20140111.2315)
 -->
<!-- Title: G Pages: 1 -->
<svg width="825pt" height="1753pt"
 viewBox="7.20 7.20 817.63 1746.20" xmlns="http://www.w3.org/2000/svg" xmlns:xlink="http://www.w3.org/1999/xlink">
<g id="graph0" class="graph" transform="scale(1 1) rotate(0) translate(11.2 1742.2)">
<title>G</title>
<polygon fill="white" stroke="none" points="-4,4 -4,-1735 806.435,-1735 806.435,4 -4,4"/>
<g id="clust1" class="cluster"><title>cluster1</title>
<polygon fill="sandybrown" stroke="sandybrown" points="558.435,-1592 558.435,-1723 684.435,-1723 684.435,-1592 558.435,-1592"/>
<text text-anchor="middle" x="621.435" y="-1707.8" font-family="Times,serif" font-size="14.00">Super region 1 [3]</text>
</g>
<g id="clust2" class="cluster"><title>cluster2</title>
<polygon fill="sandybrown" stroke="sandybrown" points="628.435,-1160 628.435,-1579 794.435,-1579 794.435,-1160 628.435,-1160"/>
<text text-anchor="middle" x="711.435" y="-1563.8" font-family="Times,serif" font-size="14.00">Super region 2 [6]</text>
</g>
<g id="clust3" class="cluster"><title>cluster3</title>
<polygon fill="sandybrown" stroke="sandybrown" points="468.435,-1088 468.435,-1363 622.435,-1363 622.435,-1088 468.435,-1088"/>
<text text-anchor="middle" x="545.435" y="-1347.8" font-family="Times,serif" font-size="14.00">Super region 3 [3]</text>
</g>
<g id="clust4" class="cluster"><title>cluster4</title>
<polygon fill="sandybrown" stroke="sandybrown" points="540.435,-800 540.435,-1075 694.435,-1075 694.435,-800 540.435,-800"/>
<text text-anchor="middle" x="617.435" y="-1059.8" font-family="Times,serif" font-size="14.00">Super region 4 [4]</text>
</g>
<g id="clust5" class="cluster"><title>cluster5</title>
<polygon fill="sandybrown" stroke="sandybrown" points="366.435,-512 366.435,-859 540.435,-859 540.435,-512 366.435,-512"/>
<text text-anchor="middle" x="453.435" y="-843.8" font-family="Times,serif" font-size="14.00">Super region 5 [4]</text>
</g>
<g id="clust6" class="cluster"><title>cluster6</title>
<polygon fill="sandybrown" stroke="sandybrown" points="101.435,-368 101.435,-643 234.435,-643 234.435,-368 101.435,-368"/>
<text text-anchor="middle" x="167.935" y="-627.8" font-family="Times,serif" font-size="14.00">Super region 6 [3]</text>
</g>
<g id="clust7" class="cluster"><title>cluster7</title>
<polygon fill="sandybrown" stroke="sandybrown" points="636.435,-512 636.435,-715 752.435,-715 752.435,-512 636.435,-512"/>
<text text-anchor="middle" x="694.435" y="-699.8" font-family="Times,serif" font-size="14.00">Super region 7 [3]</text>
</g>
<g id="clust8" class="cluster"><title>cluster8</title>
<polygon fill="sandybrown" stroke="sandybrown" points="23.4347,-80 23.4347,-355 196.435,-355 196.435,-80 23.4347,-80"/>
<text text-anchor="middle" x="109.935" y="-339.8" font-family="Times,serif" font-size="14.00">Super region 8 [2]</text>
</g>
<g id="clust9" class="cluster"><title>cluster9</title>
<polygon fill="sandybrown" stroke="sandybrown" points="228.435,-8 228.435,-211 344.435,-211 344.435,-8 228.435,-8"/>
<text text-anchor="middle" x="286.435" y="-195.8" font-family="Times,serif" font-size="14.00">Super region 9 [2]</text>
</g>
<!-- 1 -->
<g id="node1" class="node"><title>1</title>
<ellipse fill="blue" stroke="blue" cx="621.435" cy="-1682" rx="27" ry="18"/>
<text text-anchor="middle" x="621.435" y="-1678.3" font-family="Times,serif" font-size="14.00" fill="white">1: 1</text>
</g>
<!-- 2 -->
<g id="node2" class="node"><title>2</title>
<ellipse fill="blue" stroke="blue" cx="657.435" cy="-1610" rx="27" ry="18"/>
<text text-anchor="middle" x="657.435" y="-1606.3" font-family="Times,serif" font-size="14.00" fill="white">2: 1</text>
</g>
<!-- 1&#45;&gt;2 -->
<g id="edge1" class="edge"><title>1&#45;&gt;2</title>
<path fill="none" stroke="grey" d="M629.784,-1664.76C635.6,-1653.46 643.324,-1638.44 649.13,-1627.15"/>
</g>
<!-- 3 -->
<g id="node3" class="node"><title>3</title>
<ellipse fill="blue" stroke="blue" cx="585.435" cy="-1610" rx="27" ry="18"/>
<text text-anchor="middle" x="585.435" y="-1606.3" font-family="Times,serif" font-size="14.00" fill="white">3: 1</text>
</g>
<!-- 1&#45;&gt;3 -->
<g id="edge2" class="edge"><title>1&#45;&gt;3</title>
<path fill="none" stroke="grey" d="M613.085,-1664.76C607.269,-1653.46 599.545,-1638.44 593.739,-1627.15"/>
</g>
<!-- 4 -->
<g id="node4" class="node"><title>4</title>
<ellipse fill="blue" stroke="blue" cx="695.435" cy="-1538" rx="27" ry="18"/>
<text text-anchor="middle" x="695.435" y="-1534.3" font-family="Times,serif" font-size="14.00" fill="white">4: 1</text>
</g>
<!-- 1&#45;&gt;4 -->
<g id="edge3" class="edge"><title>1&#45;&gt;4</title>
<path fill="none" stroke="grey" d="M643.755,-1671.37C660.733,-1662.72 682.912,-1648.24 693.435,-1628 705.267,-1605.24 702.595,-1574.57 699.254,-1555.83"/>
</g>
<!-- 6 -->
<g id="node6" class="node"><title>6</title>
<ellipse fill="blue" stroke="blue" cx="701.435" cy="-1394" rx="27" ry="18"/>
<text text-anchor="middle" x="701.435" y="-1390.3" font-family="Times,serif" font-size="14.00" fill="white">6: 1</text>
</g>
<!-- 1&#45;&gt;6 -->
<g id="edge4" class="edge"><title>1&#45;&gt;6</title>
<path fill="none" stroke="grey" d="M644.556,-1672.66C664.936,-1664.24 694.153,-1649.41 712.435,-1628 727.601,-1610.24 724.449,-1601.29 731.435,-1579 749.114,-1522.59 777.056,-1502.61 754.435,-1448 747.463,-1431.17 732.266,-1416.9 719.925,-1407.42"/>
</g>
<!-- 11 -->
<g id="node11" class="node"><title>11</title>
<ellipse fill="blue" stroke="blue" cx="543.435" cy="-1322" rx="28.3955" ry="18"/>
<text text-anchor="middle" x="543.435" y="-1318.3" font-family="Times,serif" font-size="14.00" fill="white">11: 1</text>
</g>
<!-- 1&#45;&gt;11 -->
<g id="edge5" class="edge"><title>1&#45;&gt;11</title>
<path fill="none" stroke="grey" d="M600.122,-1670.78C583.714,-1661.8 561.81,-1647.17 549.435,-1628 527.497,-1594.02 530.435,-1579.45 530.435,-1539 530.435,-1539 530.435,-1539 530.435,-1465 530.435,-1419.7 537.078,-1366.6 540.866,-1340"/>
</g>
<!-- 13 -->
<g id="node13" class="node"><title>13</title>
<ellipse fill="blue" stroke="blue" cx="593.435" cy="-1250" rx="28.3955" ry="18"/>
<text text-anchor="middle" x="593.435" y="-1246.3" font-family="Times,serif" font-size="14.00" fill="white">13: 1</text>
</g>
<!-- 1&#45;&gt;13 -->
<g id="edge6" class="edge"><title>1&#45;&gt;13</title>
<path fill="none" stroke="grey" d="M598.464,-1672.36C578.132,-1663.74 548.766,-1648.79 529.435,-1628 499.519,-1595.83 486.435,-1582.93 486.435,-1539 486.435,-1539 486.435,-1539 486.435,-1393 486.435,-1352.55 481.95,-1336.93 505.435,-1304 521.072,-1282.07 548.878,-1267.57 569.058,-1259.37"/>
</g>
<!-- 2&#45;&gt;4 -->
<g id="edge7" class="edge"><title>2&#45;&gt;4</title>
<path fill="none" stroke="grey" d="M666.248,-1592.76C672.387,-1581.46 680.541,-1566.44 686.669,-1555.15"/>
</g>
<!-- 3&#45;&gt;11 -->
<g id="edge8" class="edge"><title>3&#45;&gt;11</title>
<path fill="none" stroke="grey" d="M582.933,-1591.97C575.463,-1541.1 553.376,-1390.7 545.923,-1339.94"/>
</g>
<!-- 5 -->
<g id="node5" class="node"><title>5</title>
<ellipse fill="beige" stroke="beige" cx="718.435" cy="-1466" rx="27" ry="18"/>
<text text-anchor="middle" x="718.435" y="-1462.3" font-family="Times,serif" font-size="14.00">5: 1</text>
</g>
<!-- 4&#45;&gt;5 -->
<g id="edge9" class="edge"><title>4&#45;&gt;5</title>
<path fill="none" stroke="grey" d="M701.002,-1520.05C704.619,-1509.05 709.312,-1494.76 712.918,-1483.79"/>
</g>
<!-- 4&#45;&gt;6 -->
<g id="edge10" class="edge"><title>4&#45;&gt;6</title>
<path fill="none" stroke="grey" d="M689.808,-1520.23C684.538,-1502.3 678.076,-1473.08 682.435,-1448 684.644,-1435.29 689.627,-1421.59 693.935,-1411.31"/>
</g>
<!-- 5&#45;&gt;6 -->
<g id="edge11" class="edge"><title>5&#45;&gt;6</title>
<path fill="none" stroke="grey" d="M714.319,-1448.05C711.686,-1437.21 708.279,-1423.18 705.63,-1412.28"/>
</g>
<!-- 7 -->
<g id="node7" class="node"><title>7</title>
<ellipse fill="beige" stroke="beige" cx="747.435" cy="-1322" rx="27" ry="18"/>
<text text-anchor="middle" x="747.435" y="-1318.3" font-family="Times,serif" font-size="14.00">7: 2</text>
</g>
<!-- 5&#45;&gt;7 -->
<g id="edge12" class="edge"><title>5&#45;&gt;7</title>
<path fill="none" stroke="grey" d="M725.436,-1448.59C729.557,-1438.27 734.518,-1424.57 737.435,-1412 743.129,-1387.46 745.621,-1358.34 746.683,-1340.26"/>
</g>
<!-- 9 -->
<g id="node9" class="node"><title>9</title>
<ellipse fill="beige" stroke="beige" cx="746.435" cy="-1250" rx="27" ry="18"/>
<text text-anchor="middle" x="746.435" y="-1246.3" font-family="Times,serif" font-size="14.00">9: 2</text>
</g>
<!-- 5&#45;&gt;9 -->
<g id="edge13" class="edge"><title>5&#45;&gt;9</title>
<path fill="none" stroke="grey" d="M731.85,-1450.13C747.759,-1431.4 773.385,-1397.47 783.435,-1363 790.774,-1337.83 791.302,-1329.01 783.435,-1304 778.923,-1289.66 768.997,-1275.81 760.561,-1265.86"/>
</g>
<!-- 6&#45;&gt;7 -->
<g id="edge14" class="edge"><title>6&#45;&gt;7</title>
<path fill="none" stroke="grey" d="M711.873,-1377.12C719.401,-1365.66 729.519,-1350.26 737.038,-1338.82"/>
</g>
<!-- 8 -->
<g id="node8" class="node"><title>8</title>
<ellipse fill="blue" stroke="blue" cx="655.435" cy="-1322" rx="27" ry="18"/>
<text text-anchor="middle" x="655.435" y="-1318.3" font-family="Times,serif" font-size="14.00" fill="white">8: 1</text>
</g>
<!-- 6&#45;&gt;8 -->
<g id="edge15" class="edge"><title>6&#45;&gt;8</title>
<path fill="none" stroke="grey" d="M690.997,-1377.12C683.468,-1365.66 673.35,-1350.26 665.832,-1338.82"/>
</g>
<!-- 6&#45;&gt;9 -->
<g id="edge16" class="edge"><title>6&#45;&gt;9</title>
<path fill="none" stroke="grey" d="M701.015,-1375.73C701.105,-1357.39 702.797,-1327.83 711.435,-1304 716.47,-1290.11 725.824,-1276.24 733.595,-1266.17"/>
</g>
<!-- 6&#45;&gt;13 -->
<g id="edge17" class="edge"><title>6&#45;&gt;13</title>
<path fill="none" stroke="grey" d="M674.843,-1389.9C656.699,-1386.38 633.494,-1378.9 619.435,-1363 595.765,-1336.23 592.484,-1292.14 592.652,-1268.04"/>
</g>
<!-- 7&#45;&gt;9 -->
<g id="edge18" class="edge"><title>7&#45;&gt;9</title>
<path fill="none" stroke="grey" d="M747.188,-1303.7C747.033,-1292.85 746.834,-1278.92 746.679,-1268.1"/>
</g>
<!-- 8&#45;&gt;9 -->
<g id="edge19" class="edge"><title>8&#45;&gt;9</title>
<path fill="none" stroke="grey" d="M672.551,-1307.83C688.82,-1295.32 713.151,-1276.6 729.395,-1264.11"/>
</g>
<!-- 8&#45;&gt;13 -->
<g id="edge20" class="edge"><title>8&#45;&gt;13</title>
<path fill="none" stroke="grey" d="M642.286,-1306.15C631.907,-1294.44 617.477,-1278.14 606.993,-1266.31"/>
</g>
<!-- 14 -->
<g id="node14" class="node"><title>14</title>
<ellipse fill="blue" stroke="blue" cx="569.435" cy="-1178" rx="33.2209" ry="18"/>
<text text-anchor="middle" x="569.435" y="-1174.3" font-family="Times,serif" font-size="14.00" fill="white">14: 11</text>
</g>
<!-- 8&#45;&gt;14 -->
<g id="edge21" class="edge"><title>8&#45;&gt;14</title>
<path fill="none" stroke="grey" d="M653.575,-1303.74C650.895,-1284.88 644.606,-1254.37 630.435,-1232 620.15,-1215.76 603.403,-1201.73 590.056,-1192.18"/>
</g>
<!-- 15 -->
<g id="node15" class="node"><title>15</title>
<ellipse fill="blue" stroke="blue" cx="569.435" cy="-1106" rx="33.2209" ry="18"/>
<text text-anchor="middle" x="569.435" y="-1102.3" font-family="Times,serif" font-size="14.00" fill="white">15: 12</text>
</g>
<!-- 8&#45;&gt;15 -->
<g id="edge22" class="edge"><title>8&#45;&gt;15</title>
<path fill="none" stroke="grey" d="M657.25,-1303.9C658.635,-1285.7 659.294,-1256.25 652.435,-1232 639.813,-1187.38 604.617,-1144.38 584.34,-1122.32"/>
</g>
<!-- 10 -->
<g id="node10" class="node"><title>10</title>
<ellipse fill="beige" stroke="beige" cx="746.435" cy="-1178" rx="28.3955" ry="18"/>
<text text-anchor="middle" x="746.435" y="-1174.3" font-family="Times,serif" font-size="14.00">10: 2</text>
</g>
<!-- 9&#45;&gt;10 -->
<g id="edge23" class="edge"><title>9&#45;&gt;10</title>
<path fill="none" stroke="grey" d="M746.435,-1231.7C746.435,-1220.85 746.435,-1206.92 746.435,-1196.1"/>
</g>
<!-- 12 -->
<g id="node12" class="node"><title>12</title>
<ellipse fill="blue" stroke="blue" cx="497.435" cy="-1250" rx="28.3955" ry="18"/>
<text text-anchor="middle" x="497.435" y="-1246.3" font-family="Times,serif" font-size="14.00" fill="white">12: 1</text>
</g>
<!-- 11&#45;&gt;12 -->
<g id="edge24" class="edge"><title>11&#45;&gt;12</title>
<path fill="none" stroke="grey" d="M532.997,-1305.12C525.468,-1293.66 515.35,-1278.26 507.832,-1266.82"/>
</g>
<!-- 11&#45;&gt;13 -->
<g id="edge25" class="edge"><title>11&#45;&gt;13</title>
<path fill="none" stroke="grey" d="M554.78,-1305.12C562.963,-1293.66 573.961,-1278.26 582.134,-1266.82"/>
</g>
<!-- 11&#45;&gt;14 -->
<g id="edge26" class="edge"><title>11&#45;&gt;14</title>
<path fill="none" stroke="grey" d="M545.109,-1303.83C547.014,-1285.83 550.512,-1256.77 555.435,-1232 557.846,-1219.87 561.418,-1206.39 564.351,-1196.06"/>
</g>
<!-- 12&#45;&gt;14 -->
<g id="edge27" class="edge"><title>12&#45;&gt;14</title>
<path fill="none" stroke="grey" d="M512.353,-1234.5C524.545,-1222.64 541.719,-1205.95 554.039,-1193.97"/>
</g>
<!-- 12&#45;&gt;15 -->
<g id="edge28" class="edge"><title>12&#45;&gt;15</title>
<path fill="none" stroke="grey" d="M501.328,-1231.88C505.948,-1213.41 514.67,-1183.5 527.435,-1160 534.944,-1146.18 546.1,-1132.3 555.027,-1122.22"/>
</g>
<!-- 13&#45;&gt;14 -->
<g id="edge29" class="edge"><title>13&#45;&gt;14</title>
<path fill="none" stroke="grey" d="M587.625,-1232.05C583.852,-1221.05 578.954,-1206.76 575.191,-1195.79"/>
</g>
<!-- 14&#45;&gt;15 -->
<g id="edge30" class="edge"><title>14&#45;&gt;15</title>
<path fill="none" stroke="grey" d="M569.435,-1159.7C569.435,-1148.85 569.435,-1134.92 569.435,-1124.1"/>
</g>
<!-- 17 -->
<g id="node17" class="node"><title>17</title>
<ellipse fill="blue" stroke="blue" cx="569.435" cy="-1034" rx="28.3955" ry="18"/>
<text text-anchor="middle" x="569.435" y="-1030.3" font-family="Times,serif" font-size="14.00" fill="white">17: 1</text>
</g>
<!-- 15&#45;&gt;17 -->
<g id="edge31" class="edge"><title>15&#45;&gt;17</title>
<path fill="none" stroke="grey" d="M569.435,-1087.7C569.435,-1076.85 569.435,-1062.92 569.435,-1052.1"/>
</g>
<!-- 16 -->
<g id="node16" class="node"><title>16</title>
<ellipse fill="blue" stroke="blue" cx="649.435" cy="-1034" rx="33.2209" ry="18"/>
<text text-anchor="middle" x="649.435" y="-1030.3" font-family="Times,serif" font-size="14.00" fill="white">16: 12</text>
</g>
<!-- 18 -->
<g id="node18" class="node"><title>18</title>
<ellipse fill="red" stroke="red" cx="617.435" cy="-962" rx="28.3955" ry="18"/>
<text text-anchor="middle" x="617.435" y="-958.3" font-family="Times,serif" font-size="14.00">18: 2</text>
</g>
<!-- 16&#45;&gt;18 -->
<g id="edge32" class="edge"><title>16&#45;&gt;18</title>
<path fill="none" stroke="grey" d="M641.851,-1016.41C636.75,-1005.25 630.053,-990.604 624.964,-979.47"/>
</g>
<!-- 17&#45;&gt;18 -->
<g id="edge33" class="edge"><title>17&#45;&gt;18</title>
<path fill="none" stroke="grey" d="M580.327,-1017.12C588.182,-1005.66 598.74,-990.263 606.586,-978.821"/>
</g>
<!-- 23 -->
<g id="node23" class="node"><title>23</title>
<ellipse fill="blue" stroke="blue" cx="471.435" cy="-746" rx="33.2209" ry="18"/>
<text text-anchor="middle" x="471.435" y="-742.3" font-family="Times,serif" font-size="14.00" fill="white">23: 30</text>
</g>
<!-- 17&#45;&gt;23 -->
<g id="edge34" class="edge"><title>17&#45;&gt;23</title>
<path fill="none" stroke="grey" d="M558.02,-1017.21C537.486,-987.801 494.84,-921.903 477.435,-859 468.399,-826.345 468.874,-786.339 470.106,-764.061"/>
</g>
<!-- 19 -->
<g id="node19" class="node"><title>19</title>
<ellipse fill="blue" stroke="blue" cx="569.435" cy="-890" rx="28.3955" ry="18"/>
<text text-anchor="middle" x="569.435" y="-886.3" font-family="Times,serif" font-size="14.00" fill="white">19: 1</text>
</g>
<!-- 18&#45;&gt;19 -->
<g id="edge35" class="edge"><title>18&#45;&gt;19</title>
<path fill="none" stroke="grey" d="M606.543,-945.116C598.687,-933.66 588.129,-918.263 580.284,-906.821"/>
</g>
<!-- 20 -->
<g id="node20" class="node"><title>20</title>
<ellipse fill="red" stroke="red" cx="665.435" cy="-890" rx="28.3955" ry="18"/>
<text text-anchor="middle" x="665.435" y="-886.3" font-family="Times,serif" font-size="14.00">20: 6</text>
</g>
<!-- 18&#45;&gt;20 -->
<g id="edge36" class="edge"><title>18&#45;&gt;20</title>
<path fill="none" stroke="grey" d="M628.327,-945.116C636.182,-933.66 646.74,-918.263 654.586,-906.821"/>
</g>
<!-- 21 -->
<g id="node21" class="node"><title>21</title>
<ellipse fill="red" stroke="red" cx="589.435" cy="-818" rx="28.3955" ry="18"/>
<text text-anchor="middle" x="589.435" y="-814.3" font-family="Times,serif" font-size="14.00">21: 1</text>
</g>
<!-- 18&#45;&gt;21 -->
<g id="edge37" class="edge"><title>18&#45;&gt;21</title>
<path fill="none" stroke="grey" d="M616.268,-943.777C614.822,-925.729 611.857,-896.632 606.435,-872 603.734,-859.732 599.392,-846.256 595.773,-835.963"/>
</g>
<!-- 18&#45;&gt;23 -->
<g id="edge38" class="edge"><title>18&#45;&gt;23</title>
<path fill="none" stroke="grey" d="M594.422,-951.36C575.467,-942.449 548.952,-927.627 531.435,-908 493.298,-865.272 478.616,-796.073 473.659,-764.145"/>
</g>
<!-- 33 -->
<g id="node33" class="node"><title>33</title>
<ellipse fill="blue" stroke="blue" cx="712.435" cy="-674" rx="28.3955" ry="18"/>
<text text-anchor="middle" x="712.435" y="-670.3" font-family="Times,serif" font-size="14.00" fill="white">33: 1</text>
</g>
<!-- 18&#45;&gt;33 -->
<g id="edge39" class="edge"><title>18&#45;&gt;33</title>
<path fill="none" stroke="grey" d="M642.325,-952.854C662.367,-944.856 689.291,-930.532 702.435,-908 743.747,-837.179 725.959,-732.61 716.72,-691.996"/>
</g>
<!-- 19&#45;&gt;21 -->
<g id="edge40" class="edge"><title>19&#45;&gt;21</title>
<path fill="none" stroke="grey" d="M574.276,-872.055C577.421,-861.049 581.502,-846.764 584.638,-835.789"/>
</g>
<!-- 19&#45;&gt;23 -->
<g id="edge41" class="edge"><title>19&#45;&gt;23</title>
<path fill="none" stroke="grey" d="M558.677,-873.217C546.522,-855.403 526.125,-825.573 508.435,-800 499.88,-787.633 490.144,-773.692 482.806,-763.212"/>
</g>
<!-- 20&#45;&gt;21 -->
<g id="edge42" class="edge"><title>20&#45;&gt;21</title>
<path fill="none" stroke="grey" d="M649.623,-874.693C644.165,-869.736 638.02,-864.136 632.435,-859 623.279,-850.58 613.084,-841.101 604.919,-833.484"/>
</g>
<!-- 20&#45;&gt;33 -->
<g id="edge43" class="edge"><title>20&#45;&gt;33</title>
<path fill="none" stroke="grey" d="M669.201,-871.849C678.024,-831.68 699.94,-731.89 708.715,-691.935"/>
</g>
<!-- 35 -->
<g id="node35" class="node"><title>35</title>
<ellipse fill="red" stroke="red" cx="665.435" cy="-530" rx="28.3955" ry="18"/>
<text text-anchor="middle" x="665.435" y="-526.3" font-family="Times,serif" font-size="14.00">35: 1</text>
</g>
<!-- 20&#45;&gt;35 -->
<g id="edge44" class="edge"><title>20&#45;&gt;35</title>
<path fill="none" stroke="grey" d="M661.681,-872.049C656.144,-845.521 646.435,-792.517 646.435,-747 646.435,-747 646.435,-747 646.435,-673 646.435,-627.483 656.144,-574.479 661.681,-547.951"/>
</g>
<!-- 21&#45;&gt;23 -->
<g id="edge45" class="edge"><title>21&#45;&gt;23</title>
<path fill="none" stroke="grey" d="M569.418,-805.125C548.245,-792.565 514.949,-772.814 493.153,-759.884"/>
</g>
<!-- 26 -->
<g id="node26" class="node"><title>26</title>
<ellipse fill="red" stroke="red" cx="511.435" cy="-602" rx="28.3955" ry="18"/>
<text text-anchor="middle" x="511.435" y="-598.3" font-family="Times,serif" font-size="14.00">26: 1</text>
</g>
<!-- 21&#45;&gt;26 -->
<g id="edge46" class="edge"><title>21&#45;&gt;26</title>
<path fill="none" stroke="grey" d="M583.314,-800.208C568.733,-760.204 532.079,-659.639 517.527,-619.714"/>
</g>
<!-- 21&#45;&gt;35 -->
<g id="edge47" class="edge"><title>21&#45;&gt;35</title>
<path fill="none" stroke="grey" d="M590.419,-799.738C593.137,-760.268 602.634,-660.902 632.435,-584 637.683,-570.457 646.478,-556.57 653.67,-546.411"/>
</g>
<!-- 22 -->
<g id="node22" class="node"><title>22</title>
<ellipse fill="red" stroke="red" cx="399.435" cy="-818" rx="28.3955" ry="18"/>
<text text-anchor="middle" x="399.435" y="-814.3" font-family="Times,serif" font-size="14.00">22: 1</text>
</g>
<!-- 22&#45;&gt;23 -->
<g id="edge48" class="edge"><title>22&#45;&gt;23</title>
<path fill="none" stroke="grey" d="M414.353,-802.496C426.545,-790.642 443.719,-773.946 456.039,-761.968"/>
</g>
<!-- 24 -->
<g id="node24" class="node"><title>24</title>
<ellipse fill="red" stroke="red" cx="399.435" cy="-674" rx="33.2209" ry="18"/>
<text text-anchor="middle" x="399.435" y="-670.3" font-family="Times,serif" font-size="14.00">24: 10</text>
</g>
<!-- 22&#45;&gt;24 -->
<g id="edge49" class="edge"><title>22&#45;&gt;24</title>
<path fill="none" stroke="grey" d="M399.435,-799.871C399.435,-772.578 399.435,-719.52 399.435,-692.189"/>
</g>
<!-- 23&#45;&gt;24 -->
<g id="edge50" class="edge"><title>23&#45;&gt;24</title>
<path fill="none" stroke="grey" d="M455.812,-729.811C443.735,-718.07 427.096,-701.893 415.027,-690.159"/>
</g>
<!-- 25 -->
<g id="node25" class="node"><title>25</title>
<ellipse fill="red" stroke="red" cx="415.435" cy="-602" rx="28.3955" ry="18"/>
<text text-anchor="middle" x="415.435" y="-598.3" font-family="Times,serif" font-size="14.00">25: 1</text>
</g>
<!-- 23&#45;&gt;25 -->
<g id="edge51" class="edge"><title>23&#45;&gt;25</title>
<path fill="none" stroke="grey" d="M466.44,-728.027C460.949,-709.938 451.554,-680.576 441.435,-656 436.284,-643.49 429.532,-629.79 424.2,-619.453"/>
</g>
<!-- 23&#45;&gt;26 -->
<g id="edge52" class="edge"><title>23&#45;&gt;26</title>
<path fill="none" stroke="grey" d="M476.18,-728.153C483.879,-700.824 499.001,-647.14 506.695,-619.825"/>
</g>
<!-- 27 -->
<g id="node27" class="node"><title>27</title>
<ellipse fill="red" stroke="red" cx="415.435" cy="-530" rx="28.3955" ry="18"/>
<text text-anchor="middle" x="415.435" y="-526.3" font-family="Times,serif" font-size="14.00">27: 1</text>
</g>
<!-- 23&#45;&gt;27 -->
<g id="edge53" class="edge"><title>23&#45;&gt;27</title>
<path fill="none" stroke="grey" d="M472.098,-727.905C472.69,-697.78 471.346,-633.72 452.435,-584 447.089,-569.945 437.202,-556.083 428.993,-546.062"/>
</g>
<!-- 24&#45;&gt;25 -->
<g id="edge54" class="edge"><title>24&#45;&gt;25</title>
<path fill="none" stroke="grey" d="M403.308,-656.055C405.786,-645.211 408.993,-631.183 411.486,-620.275"/>
</g>
<!-- 24&#45;&gt;27 -->
<g id="edge55" class="edge"><title>24&#45;&gt;27</title>
<path fill="none" stroke="grey" d="M385.272,-657.553C382.072,-653.158 379.123,-648.156 377.435,-643 369.276,-618.079 369.41,-608.964 377.435,-584 382.078,-569.556 392.271,-555.712 400.933,-545.797"/>
</g>
<!-- 28 -->
<g id="node28" class="node"><title>28</title>
<ellipse fill="red" stroke="red" cx="205.435" cy="-602" rx="28.3955" ry="18"/>
<text text-anchor="middle" x="205.435" y="-598.3" font-family="Times,serif" font-size="14.00">28: 1</text>
</g>
<!-- 24&#45;&gt;28 -->
<g id="edge56" class="edge"><title>24&#45;&gt;28</title>
<path fill="none" stroke="grey" d="M372.46,-663.267C334.459,-649.555 265.754,-624.765 229.436,-611.66"/>
</g>
<!-- 41 -->
<g id="node41" class="node"><title>41</title>
<ellipse fill="beige" stroke="beige" cx="281.435" cy="-170" rx="28.3955" ry="18"/>
<text text-anchor="middle" x="281.435" y="-166.3" font-family="Times,serif" font-size="14.00">41: 2</text>
</g>
<!-- 24&#45;&gt;41 -->
<g id="edge57" class="edge"><title>24&#45;&gt;41</title>
<path fill="none" stroke="grey" d="M380.931,-658.952C375.925,-654.352 370.932,-648.894 367.435,-643 341.197,-598.779 338.435,-582.419 338.435,-531 338.435,-531 338.435,-531 338.435,-313 338.435,-264.121 308.988,-212.148 292.425,-186.78"/>
</g>
<!-- 25&#45;&gt;27 -->
<g id="edge58" class="edge"><title>25&#45;&gt;27</title>
<path fill="none" stroke="grey" d="M415.435,-583.697C415.435,-572.846 415.435,-558.917 415.435,-548.104"/>
</g>
<!-- 26&#45;&gt;27 -->
<g id="edge59" class="edge"><title>26&#45;&gt;27</title>
<path fill="none" stroke="grey" d="M493.378,-587.834C476.215,-575.319 450.547,-556.603 433.411,-544.107"/>
</g>
<!-- 26&#45;&gt;35 -->
<g id="edge60" class="edge"><title>26&#45;&gt;35</title>
<path fill="none" stroke="grey" d="M533.828,-590.821C563.025,-577.55 613.804,-554.468 643.015,-541.191"/>
</g>
<!-- 27&#45;&gt;41 -->
<g id="edge61" class="edge"><title>27&#45;&gt;41</title>
<path fill="none" stroke="grey" d="M407.927,-512.338C396.853,-486.197 377.435,-433.702 377.435,-387 377.435,-387 377.435,-387 377.435,-313 377.435,-271.914 375.691,-257.871 352.435,-224 339.81,-205.613 318.709,-191.052 302.783,-181.881"/>
</g>
<!-- 42 -->
<g id="node42" class="node"><title>42</title>
<ellipse fill="beige" stroke="beige" cx="310.435" cy="-98" rx="28.3955" ry="18"/>
<text text-anchor="middle" x="310.435" y="-94.3" font-family="Times,serif" font-size="14.00">42: 6</text>
</g>
<!-- 27&#45;&gt;42 -->
<g id="edge62" class="edge"><title>27&#45;&gt;42</title>
<path fill="none" stroke="grey" d="M415.435,-511.951C415.435,-485.292 415.435,-432.115 415.435,-387 415.435,-387 415.435,-387 415.435,-241 415.435,-183.665 359.408,-134.324 329.207,-111.891"/>
</g>
<!-- 29 -->
<g id="node29" class="node"><title>29</title>
<ellipse fill="beige" stroke="beige" cx="157.435" cy="-530" rx="28.3955" ry="18"/>
<text text-anchor="middle" x="157.435" y="-526.3" font-family="Times,serif" font-size="14.00">29: 2</text>
</g>
<!-- 28&#45;&gt;29 -->
<g id="edge63" class="edge"><title>28&#45;&gt;29</title>
<path fill="none" stroke="grey" d="M194.543,-585.116C186.687,-573.66 176.129,-558.263 168.284,-546.821"/>
</g>
<!-- 30 -->
<g id="node30" class="node"><title>30</title>
<ellipse fill="beige" stroke="beige" cx="178.435" cy="-458" rx="28.3955" ry="18"/>
<text text-anchor="middle" x="178.435" y="-454.3" font-family="Times,serif" font-size="14.00">30: 2</text>
</g>
<!-- 28&#45;&gt;30 -->
<g id="edge64" class="edge"><title>28&#45;&gt;30</title>
<path fill="none" stroke="grey" d="M204.182,-583.795C202.666,-565.763 199.645,-536.678 194.435,-512 191.853,-499.775 187.768,-486.298 184.371,-475.994"/>
</g>
<!-- 31 -->
<g id="node31" class="node"><title>31</title>
<ellipse fill="beige" stroke="beige" cx="205.435" cy="-386" rx="28.3955" ry="18"/>
<text text-anchor="middle" x="205.435" y="-382.3" font-family="Times,serif" font-size="14.00">31: 1</text>
</g>
<!-- 28&#45;&gt;31 -->
<g id="edge65" class="edge"><title>28&#45;&gt;31</title>
<path fill="none" stroke="grey" d="M208.214,-584.052C212.646,-554.677 220.337,-492.421 215.435,-440 214.301,-427.88 211.74,-414.402 209.494,-404.071"/>
</g>
<!-- 28&#45;&gt;41 -->
<g id="edge66" class="edge"><title>28&#45;&gt;41</title>
<path fill="none" stroke="grey" d="M222.859,-587.33C250.285,-564.132 300.435,-514.17 300.435,-459 300.435,-459 300.435,-459 300.435,-313 300.435,-267.483 290.726,-214.479 285.188,-187.951"/>
</g>
<!-- 29&#45;&gt;30 -->
<g id="edge67" class="edge"><title>29&#45;&gt;30</title>
<path fill="none" stroke="grey" d="M162.518,-512.055C165.82,-501.049 170.106,-486.764 173.398,-475.789"/>
</g>
<!-- 32 -->
<g id="node32" class="node"><title>32</title>
<ellipse fill="beige" stroke="beige" cx="130.435" cy="-386" rx="28.3955" ry="18"/>
<text text-anchor="middle" x="130.435" y="-382.3" font-family="Times,serif" font-size="14.00">32: 2</text>
</g>
<!-- 29&#45;&gt;32 -->
<g id="edge68" class="edge"><title>29&#45;&gt;32</title>
<path fill="none" stroke="grey" d="M151.047,-512.048C147.41,-501.758 143.067,-488.283 140.435,-476 135.156,-451.371 132.553,-422.273 131.354,-404.224"/>
</g>
<!-- 30&#45;&gt;31 -->
<g id="edge69" class="edge"><title>30&#45;&gt;31</title>
<path fill="none" stroke="grey" d="M184.833,-440.411C189.075,-429.414 194.624,-415.027 198.894,-403.956"/>
</g>
<!-- 30&#45;&gt;32 -->
<g id="edge70" class="edge"><title>30&#45;&gt;32</title>
<path fill="none" stroke="grey" d="M167.543,-441.116C159.687,-429.66 149.129,-414.263 141.284,-402.821"/>
</g>
<!-- 38 -->
<g id="node38" class="node"><title>38</title>
<ellipse fill="beige" stroke="beige" cx="167.435" cy="-242" rx="28.3955" ry="18"/>
<text text-anchor="middle" x="167.435" y="-238.3" font-family="Times,serif" font-size="14.00">38: 6</text>
</g>
<!-- 30&#45;&gt;38 -->
<g id="edge71" class="edge"><title>30&#45;&gt;38</title>
<path fill="none" stroke="grey" d="M155.159,-447.588C136.045,-438.816 109.443,-424.07 92.4347,-404 77.2274,-386.055 76.9639,-378.082 72.4347,-355 67.3856,-329.268 59.1569,-318.612 72.4347,-296 76.5947,-288.916 118.987,-266.977 145.718,-253.649"/>
</g>
<!-- 30&#45;&gt;41 -->
<g id="edge72" class="edge"><title>30&#45;&gt;41</title>
<path fill="none" stroke="grey" d="M199.124,-445.391C213.638,-436.118 232.212,-421.752 242.435,-404 283.78,-332.205 284.159,-228.641 282.48,-188.145"/>
</g>
<!-- 31&#45;&gt;41 -->
<g id="edge73" class="edge"><title>31&#45;&gt;41</title>
<path fill="none" stroke="grey" d="M208.261,-367.998C213.616,-338.016 226.692,-274.171 248.435,-224 254.21,-210.673 262.981,-196.777 270.029,-186.558"/>
</g>
<!-- 36 -->
<g id="node36" class="node"><title>36</title>
<ellipse fill="beige" stroke="beige" cx="110.435" cy="-314" rx="28.3955" ry="18"/>
<text text-anchor="middle" x="110.435" y="-310.3" font-family="Times,serif" font-size="14.00">36: 6</text>
</g>
<!-- 32&#45;&gt;36 -->
<g id="edge74" class="edge"><title>32&#45;&gt;36</title>
<path fill="none" stroke="grey" d="M125.593,-368.055C122.449,-357.049 118.367,-342.764 115.232,-331.789"/>
</g>
<!-- 32&#45;&gt;38 -->
<g id="edge75" class="edge"><title>32&#45;&gt;38</title>
<path fill="none" stroke="grey" d="M140.835,-368.976C143.312,-364.586 145.729,-359.73 147.435,-355 159.095,-322.67 164.144,-282.547 166.182,-260.161"/>
</g>
<!-- 34 -->
<g id="node34" class="node"><title>34</title>
<ellipse fill="beige" stroke="beige" cx="703.435" cy="-602" rx="28.3955" ry="18"/>
<text text-anchor="middle" x="703.435" y="-598.3" font-family="Times,serif" font-size="14.00">34: 2</text>
</g>
<!-- 33&#45;&gt;34 -->
<g id="edge76" class="edge"><title>33&#45;&gt;34</title>
<path fill="none" stroke="grey" d="M710.21,-655.697C708.815,-644.846 707.024,-630.917 705.634,-620.104"/>
</g>
<!-- 33&#45;&gt;35 -->
<g id="edge77" class="edge"><title>33&#45;&gt;35</title>
<path fill="none" stroke="grey" d="M729.226,-659.346C733.739,-654.687 738.031,-649.098 740.435,-643 750.051,-618.604 752.493,-607.286 740.435,-584 729.657,-563.187 706.528,-548.801 688.785,-540.324"/>
</g>
<!-- 34&#45;&gt;35 -->
<g id="edge78" class="edge"><title>34&#45;&gt;35</title>
<path fill="none" stroke="grey" d="M694.621,-584.765C688.482,-573.456 680.329,-558.437 674.2,-547.147"/>
</g>
<!-- 37 -->
<g id="node37" class="node"><title>37</title>
<ellipse fill="beige" stroke="beige" cx="92.4347" cy="-242" rx="28.3955" ry="18"/>
<text text-anchor="middle" x="92.4347" y="-238.3" font-family="Times,serif" font-size="14.00">37: 2</text>
</g>
<!-- 36&#45;&gt;37 -->
<g id="edge79" class="edge"><title>36&#45;&gt;37</title>
<path fill="none" stroke="grey" d="M106.077,-296.055C103.289,-285.211 99.6818,-271.183 96.8769,-260.275"/>
</g>
<!-- 36&#45;&gt;38 -->
<g id="edge80" class="edge"><title>36&#45;&gt;38</title>
<path fill="none" stroke="grey" d="M123.085,-297.465C132.531,-285.865 145.383,-270.082 154.82,-258.492"/>
</g>
<!-- 39 -->
<g id="node39" class="node"><title>39</title>
<ellipse fill="beige" stroke="beige" cx="72.4347" cy="-170" rx="28.3955" ry="18"/>
<text text-anchor="middle" x="72.4347" y="-166.3" font-family="Times,serif" font-size="14.00">39: 2</text>
</g>
<!-- 36&#45;&gt;39 -->
<g id="edge81" class="edge"><title>36&#45;&gt;39</title>
<path fill="none" stroke="grey" d="M90.9245,-300.819C77.8973,-291.451 61.8439,-277.214 54.4347,-260 44.0887,-235.963 54.7287,-205.677 63.4886,-187.353"/>
</g>
<!-- 40 -->
<g id="node40" class="node"><title>40</title>
<ellipse fill="beige" stroke="beige" cx="62.4347" cy="-98" rx="28.3955" ry="18"/>
<text text-anchor="middle" x="62.4347" y="-94.3" font-family="Times,serif" font-size="14.00">40: 2</text>
</g>
<!-- 36&#45;&gt;40 -->
<g id="edge82" class="edge"><title>36&#45;&gt;40</title>
<path fill="none" stroke="grey" d="M90.1338,-301.158C75.8122,-291.768 57.3104,-277.36 46.4347,-260 34.5314,-240.999 37.1207,-233.26 34.4347,-211 31.2934,-184.967 28.1248,-177.452 34.4347,-152 37.7402,-138.667 45.0812,-124.993 51.4173,-114.874"/>
</g>
<!-- 38&#45;&gt;39 -->
<g id="edge83" class="edge"><title>38&#45;&gt;39</title>
<path fill="none" stroke="grey" d="M149.566,-227.834C132.581,-215.319 107.181,-196.603 90.2234,-184.107"/>
</g>
<!-- 38&#45;&gt;41 -->
<g id="edge84" class="edge"><title>38&#45;&gt;41</title>
<path fill="none" stroke="grey" d="M187.032,-228.967C207.913,-216.145 240.783,-195.962 261.712,-183.111"/>
</g>
<!-- 43 -->
<g id="node43" class="node"><title>43</title>
<ellipse fill="beige" stroke="beige" cx="262.435" cy="-26" rx="28.3955" ry="18"/>
<text text-anchor="middle" x="262.435" y="-22.3" font-family="Times,serif" font-size="14.00">43: 2</text>
</g>
<!-- 38&#45;&gt;43 -->
<g id="edge85" class="edge"><title>38&#45;&gt;43</title>
<path fill="none" stroke="grey" d="M145.73,-230.019C140.5,-227.732 134.855,-225.549 129.435,-224 108.947,-218.146 49.2654,-226.3 34.4347,-211 -6.20696,-169.073 -12.0924,-125.556 24.4347,-80 50.5182,-47.4691 177.396,-33.6198 234.493,-28.9641"/>
</g>
<!-- 39&#45;&gt;40 -->
<g id="edge86" class="edge"><title>39&#45;&gt;40</title>
<path fill="none" stroke="grey" d="M70.014,-152.055C68.4649,-141.211 66.4608,-127.183 64.9026,-116.275"/>
</g>
<!-- 41&#45;&gt;42 -->
<g id="edge87" class="edge"><title>41&#45;&gt;42</title>
<path fill="none" stroke="grey" d="M288.307,-152.411C292.93,-141.252 298.999,-126.604 303.611,-115.47"/>
</g>
<!-- 41&#45;&gt;43 -->
<g id="edge88" class="edge"><title>41&#45;&gt;43</title>
<path fill="none" stroke="grey" d="M278.271,-151.852C276.423,-141.494 274.128,-128.014 272.435,-116 268.919,-91.0579 265.848,-62.0429 264.067,-44.0979"/>
</g>
<!-- 42&#45;&gt;43 -->
<g id="edge89" class="edge"><title>42&#45;&gt;43</title>
<path fill="none" stroke="grey" d="M299.543,-81.1159C291.687,-69.66 281.129,-54.2627 273.284,-42.8212"/>
</g>
</g>
</svg>
