<?xml version="1.0" encoding="UTF-8" standalone="no"?>
<!DOCTYPE svg PUBLIC "-//W3C//DTD SVG 1.1//EN"
 "http://www.w3.org/Graphics/SVG/1.1/DTD/svg11.dtd">
<!-- Generated by graphviz version 2.36.0 (20140111.2315)
 -->
<!-- Title: G Pages: 1 -->
<svg width="834pt" height="1753pt"
 viewBox="7.20 7.20 826.62 1746.20" xmlns="http://www.w3.org/2000/svg" xmlns:xlink="http://www.w3.org/1999/xlink">
<g id="graph0" class="graph" transform="scale(1 1) rotate(0) translate(11.2 1742.2)">
<title>G</title>
<polygon fill="white" stroke="none" points="-4,4 -4,-1735 815.418,-1735 815.418,4 -4,4"/>
<g id="clust1" class="cluster"><title>cluster1</title>
<polygon fill="sandybrown" stroke="sandybrown" points="567.418,-1592 567.418,-1723 693.418,-1723 693.418,-1592 567.418,-1592"/>
<text text-anchor="middle" x="630.418" y="-1707.8" font-family="Times,serif" font-size="14.00">Super region 1 [3]</text>
</g>
<g id="clust2" class="cluster"><title>cluster2</title>
<polygon fill="sandybrown" stroke="sandybrown" points="637.418,-1160 637.418,-1579 803.418,-1579 803.418,-1160 637.418,-1160"/>
<text text-anchor="middle" x="720.418" y="-1563.8" font-family="Times,serif" font-size="14.00">Super region 2 [6]</text>
</g>
<g id="clust3" class="cluster"><title>cluster3</title>
<polygon fill="sandybrown" stroke="sandybrown" points="476.418,-1088 476.418,-1363 630.418,-1363 630.418,-1088 476.418,-1088"/>
<text text-anchor="middle" x="553.418" y="-1347.8" font-family="Times,serif" font-size="14.00">Super region 3 [3]</text>
</g>
<g id="clust4" class="cluster"><title>cluster4</title>
<polygon fill="sandybrown" stroke="sandybrown" points="548.418,-800 548.418,-1075 702.418,-1075 702.418,-800 548.418,-800"/>
<text text-anchor="middle" x="625.418" y="-1059.8" font-family="Times,serif" font-size="14.00">Super region 4 [4]</text>
</g>
<g id="clust5" class="cluster"><title>cluster5</title>
<polygon fill="sandybrown" stroke="sandybrown" points="366.418,-512 366.418,-859 548.418,-859 548.418,-512 366.418,-512"/>
<text text-anchor="middle" x="457.418" y="-843.8" font-family="Times,serif" font-size="14.00">Super region 5 [4]</text>
</g>
<g id="clust6" class="cluster"><title>cluster6</title>
<polygon fill="sandybrown" stroke="sandybrown" points="101.418,-368 101.418,-643 234.418,-643 234.418,-368 101.418,-368"/>
<text text-anchor="middle" x="167.918" y="-627.8" font-family="Times,serif" font-size="14.00">Super region 6 [3]</text>
</g>
<g id="clust7" class="cluster"><title>cluster7</title>
<polygon fill="sandybrown" stroke="sandybrown" points="643.418,-512 643.418,-715 759.418,-715 759.418,-512 643.418,-512"/>
<text text-anchor="middle" x="701.418" y="-699.8" font-family="Times,serif" font-size="14.00">Super region 7 [3]</text>
</g>
<g id="clust8" class="cluster"><title>cluster8</title>
<polygon fill="sandybrown" stroke="sandybrown" points="23.4181,-80 23.4181,-355 196.418,-355 196.418,-80 23.4181,-80"/>
<text text-anchor="middle" x="109.918" y="-339.8" font-family="Times,serif" font-size="14.00">Super region 8 [2]</text>
</g>
<g id="clust9" class="cluster"><title>cluster9</title>
<polygon fill="sandybrown" stroke="sandybrown" points="226.418,-8 226.418,-211 342.418,-211 342.418,-8 226.418,-8"/>
<text text-anchor="middle" x="284.418" y="-195.8" font-family="Times,serif" font-size="14.00">Super region 9 [2]</text>
</g>
<!-- 1 -->
<g id="node1" class="node"><title>1</title>
<ellipse fill="blue" stroke="blue" cx="630.418" cy="-1682" rx="27" ry="18"/>
<text text-anchor="middle" x="630.418" y="-1678.3" font-family="Times,serif" font-size="14.00" fill="white">1: 1</text>
</g>
<!-- 2 -->
<g id="node2" class="node"><title>2</title>
<ellipse fill="blue" stroke="blue" cx="666.418" cy="-1610" rx="27" ry="18"/>
<text text-anchor="middle" x="666.418" y="-1606.3" font-family="Times,serif" font-size="14.00" fill="white">2: 1</text>
</g>
<!-- 1&#45;&gt;2 -->
<g id="edge1" class="edge"><title>1&#45;&gt;2</title>
<path fill="none" stroke="grey" d="M638.768,-1664.76C644.584,-1653.46 652.308,-1638.44 658.114,-1627.15"/>
</g>
<!-- 3 -->
<g id="node3" class="node"><title>3</title>
<ellipse fill="blue" stroke="blue" cx="594.418" cy="-1610" rx="27" ry="18"/>
<text text-anchor="middle" x="594.418" y="-1606.3" font-family="Times,serif" font-size="14.00" fill="white">3: 1</text>
</g>
<!-- 1&#45;&gt;3 -->
<g id="edge2" class="edge"><title>1&#45;&gt;3</title>
<path fill="none" stroke="grey" d="M622.068,-1664.76C616.253,-1653.46 608.528,-1638.44 602.722,-1627.15"/>
</g>
<!-- 4 -->
<g id="node4" class="node"><title>4</title>
<ellipse fill="blue" stroke="blue" cx="704.418" cy="-1538" rx="27" ry="18"/>
<text text-anchor="middle" x="704.418" y="-1534.3" font-family="Times,serif" font-size="14.00" fill="white">4: 1</text>
</g>
<!-- 1&#45;&gt;4 -->
<g id="edge3" class="edge"><title>1&#45;&gt;4</title>
<path fill="none" stroke="grey" d="M652.738,-1671.37C669.717,-1662.72 691.895,-1648.24 702.418,-1628 714.251,-1605.24 711.579,-1574.57 708.238,-1555.83"/>
</g>
<!-- 6 -->
<g id="node6" class="node"><title>6</title>
<ellipse fill="blue" stroke="blue" cx="710.418" cy="-1394" rx="27" ry="18"/>
<text text-anchor="middle" x="710.418" y="-1390.3" font-family="Times,serif" font-size="14.00" fill="white">6: 1</text>
</g>
<!-- 1&#45;&gt;6 -->
<g id="edge4" class="edge"><title>1&#45;&gt;6</title>
<path fill="none" stroke="grey" d="M653.539,-1672.66C673.919,-1664.24 703.137,-1649.41 721.418,-1628 736.584,-1610.24 733.432,-1601.29 740.418,-1579 758.097,-1522.59 786.04,-1502.61 763.418,-1448 756.446,-1431.17 741.249,-1416.9 728.908,-1407.42"/>
</g>
<!-- 11 -->
<g id="node11" class="node"><title>11</title>
<ellipse fill="blue" stroke="blue" cx="552.418" cy="-1322" rx="28.3955" ry="18"/>
<text text-anchor="middle" x="552.418" y="-1318.3" font-family="Times,serif" font-size="14.00" fill="white">11: 1</text>
</g>
<!-- 1&#45;&gt;11 -->
<g id="edge5" class="edge"><title>1&#45;&gt;11</title>
<path fill="none" stroke="grey" d="M609.106,-1670.78C592.697,-1661.8 570.794,-1647.17 558.418,-1628 536.48,-1594.02 539.418,-1579.45 539.418,-1539 539.418,-1539 539.418,-1539 539.418,-1465 539.418,-1419.7 546.061,-1366.6 549.85,-1340"/>
</g>
<!-- 13 -->
<g id="node13" class="node"><title>13</title>
<ellipse fill="blue" stroke="blue" cx="601.418" cy="-1250" rx="28.3955" ry="18"/>
<text text-anchor="middle" x="601.418" y="-1246.3" font-family="Times,serif" font-size="14.00" fill="white">13: 1</text>
</g>
<!-- 1&#45;&gt;13 -->
<g id="edge6" class="edge"><title>1&#45;&gt;13</title>
<path fill="none" stroke="grey" d="M607.448,-1672.36C587.115,-1663.74 557.749,-1648.79 538.418,-1628 508.502,-1595.83 495.418,-1582.93 495.418,-1539 495.418,-1539 495.418,-1539 495.418,-1393 495.418,-1352.55 491.016,-1336.99 514.418,-1304 529.87,-1282.22 557.362,-1267.69 577.315,-1259.44"/>
</g>
<!-- 2&#45;&gt;4 -->
<g id="edge7" class="edge"><title>2&#45;&gt;4</title>
<path fill="none" stroke="grey" d="M675.232,-1592.76C681.371,-1581.46 689.524,-1566.44 695.652,-1555.15"/>
</g>
<!-- 3&#45;&gt;11 -->
<g id="edge8" class="edge"><title>3&#45;&gt;11</title>
<path fill="none" stroke="grey" d="M591.917,-1591.97C584.446,-1541.1 562.359,-1390.7 554.906,-1339.94"/>
</g>
<!-- 5 -->
<g id="node5" class="node"><title>5</title>
<ellipse fill="blue" stroke="blue" cx="727.418" cy="-1466" rx="27" ry="18"/>
<text text-anchor="middle" x="727.418" y="-1462.3" font-family="Times,serif" font-size="14.00" fill="white">5: 1</text>
</g>
<!-- 4&#45;&gt;5 -->
<g id="edge9" class="edge"><title>4&#45;&gt;5</title>
<path fill="none" stroke="grey" d="M709.986,-1520.05C713.602,-1509.05 718.296,-1494.76 721.902,-1483.79"/>
</g>
<!-- 4&#45;&gt;6 -->
<g id="edge10" class="edge"><title>4&#45;&gt;6</title>
<path fill="none" stroke="grey" d="M698.792,-1520.23C693.521,-1502.3 687.059,-1473.08 691.418,-1448 693.628,-1435.29 698.61,-1421.59 702.919,-1411.31"/>
</g>
<!-- 5&#45;&gt;6 -->
<g id="edge11" class="edge"><title>5&#45;&gt;6</title>
<path fill="none" stroke="grey" d="M723.303,-1448.05C720.669,-1437.21 717.263,-1423.18 714.613,-1412.28"/>
</g>
<!-- 7 -->
<g id="node7" class="node"><title>7</title>
<ellipse fill="blue" stroke="blue" cx="756.418" cy="-1322" rx="27" ry="18"/>
<text text-anchor="middle" x="756.418" y="-1318.3" font-family="Times,serif" font-size="14.00" fill="white">7: 1</text>
</g>
<!-- 5&#45;&gt;7 -->
<g id="edge12" class="edge"><title>5&#45;&gt;7</title>
<path fill="none" stroke="grey" d="M734.42,-1448.59C738.541,-1438.27 743.501,-1424.57 746.418,-1412 752.113,-1387.46 754.605,-1358.34 755.667,-1340.26"/>
</g>
<!-- 9 -->
<g id="node9" class="node"><title>9</title>
<ellipse fill="blue" stroke="blue" cx="755.418" cy="-1250" rx="27" ry="18"/>
<text text-anchor="middle" x="755.418" y="-1246.3" font-family="Times,serif" font-size="14.00" fill="white">9: 1</text>
</g>
<!-- 5&#45;&gt;9 -->
<g id="edge13" class="edge"><title>5&#45;&gt;9</title>
<path fill="none" stroke="grey" d="M740.833,-1450.13C756.742,-1431.4 782.368,-1397.47 792.418,-1363 799.757,-1337.83 800.286,-1329.01 792.418,-1304 787.906,-1289.66 777.98,-1275.81 769.544,-1265.86"/>
</g>
<!-- 6&#45;&gt;7 -->
<g id="edge14" class="edge"><title>6&#45;&gt;7</title>
<path fill="none" stroke="grey" d="M720.856,-1377.12C728.384,-1365.66 738.503,-1350.26 746.021,-1338.82"/>
</g>
<!-- 8 -->
<g id="node8" class="node"><title>8</title>
<ellipse fill="blue" stroke="blue" cx="664.418" cy="-1322" rx="27" ry="18"/>
<text text-anchor="middle" x="664.418" y="-1318.3" font-family="Times,serif" font-size="14.00" fill="white">8: 1</text>
</g>
<!-- 6&#45;&gt;8 -->
<g id="edge15" class="edge"><title>6&#45;&gt;8</title>
<path fill="none" stroke="grey" d="M699.98,-1377.12C692.452,-1365.66 682.334,-1350.26 674.815,-1338.82"/>
</g>
<!-- 6&#45;&gt;9 -->
<g id="edge16" class="edge"><title>6&#45;&gt;9</title>
<path fill="none" stroke="grey" d="M709.999,-1375.73C710.088,-1357.39 711.781,-1327.83 720.418,-1304 725.454,-1290.11 734.807,-1276.24 742.579,-1266.17"/>
</g>
<!-- 6&#45;&gt;13 -->
<g id="edge17" class="edge"><title>6&#45;&gt;13</title>
<path fill="none" stroke="grey" d="M683.868,-1389.86C665.744,-1386.33 642.544,-1378.84 628.418,-1363 604.587,-1336.28 600.882,-1292.17 600.809,-1268.05"/>
</g>
<!-- 7&#45;&gt;9 -->
<g id="edge18" class="edge"><title>7&#45;&gt;9</title>
<path fill="none" stroke="grey" d="M756.171,-1303.7C756.016,-1292.85 755.817,-1278.92 755.662,-1268.1"/>
</g>
<!-- 8&#45;&gt;9 -->
<g id="edge19" class="edge"><title>8&#45;&gt;9</title>
<path fill="none" stroke="grey" d="M681.534,-1307.83C697.804,-1295.32 722.134,-1276.6 738.378,-1264.11"/>
</g>
<!-- 8&#45;&gt;13 -->
<g id="edge20" class="edge"><title>8&#45;&gt;13</title>
<path fill="none" stroke="grey" d="M651.057,-1306.15C640.511,-1294.44 625.848,-1278.14 615.195,-1266.31"/>
</g>
<!-- 14 -->
<g id="node14" class="node"><title>14</title>
<ellipse fill="blue" stroke="blue" cx="577.418" cy="-1178" rx="28.3955" ry="18"/>
<text text-anchor="middle" x="577.418" y="-1174.3" font-family="Times,serif" font-size="14.00" fill="white">14: 1</text>
</g>
<!-- 8&#45;&gt;14 -->
<g id="edge21" class="edge"><title>8&#45;&gt;14</title>
<path fill="none" stroke="grey" d="M662.33,-1303.73C659.406,-1284.87 652.747,-1254.36 638.418,-1232 627.746,-1215.34 610.325,-1200.96 596.827,-1191.39"/>
</g>
<!-- 15 -->
<g id="node15" class="node"><title>15</title>
<ellipse fill="blue" stroke="blue" cx="577.418" cy="-1106" rx="28.3955" ry="18"/>
<text text-anchor="middle" x="577.418" y="-1102.3" font-family="Times,serif" font-size="14.00" fill="white">15: 1</text>
</g>
<!-- 8&#45;&gt;15 -->
<g id="edge22" class="edge"><title>8&#45;&gt;15</title>
<path fill="none" stroke="grey" d="M666.232,-1303.81C667.57,-1285.54 668.03,-1256.03 660.418,-1232 646.339,-1187.55 611.37,-1144.15 591.607,-1122.06"/>
</g>
<!-- 10 -->
<g id="node10" class="node"><title>10</title>
<ellipse fill="blue" stroke="blue" cx="755.418" cy="-1178" rx="28.3955" ry="18"/>
<text text-anchor="middle" x="755.418" y="-1174.3" font-family="Times,serif" font-size="14.00" fill="white">10: 1</text>
</g>
<!-- 9&#45;&gt;10 -->
<g id="edge23" class="edge"><title>9&#45;&gt;10</title>
<path fill="none" stroke="grey" d="M755.418,-1231.7C755.418,-1220.85 755.418,-1206.92 755.418,-1196.1"/>
</g>
<!-- 12 -->
<g id="node12" class="node"><title>12</title>
<ellipse fill="blue" stroke="blue" cx="505.418" cy="-1250" rx="28.3955" ry="18"/>
<text text-anchor="middle" x="505.418" y="-1246.3" font-family="Times,serif" font-size="14.00" fill="white">12: 1</text>
</g>
<!-- 11&#45;&gt;12 -->
<g id="edge24" class="edge"><title>11&#45;&gt;12</title>
<path fill="none" stroke="grey" d="M541.753,-1305.12C534.061,-1293.66 523.723,-1278.26 516.041,-1266.82"/>
</g>
<!-- 11&#45;&gt;13 -->
<g id="edge25" class="edge"><title>11&#45;&gt;13</title>
<path fill="none" stroke="grey" d="M563.537,-1305.12C571.556,-1293.66 582.334,-1278.26 590.343,-1266.82"/>
</g>
<!-- 11&#45;&gt;14 -->
<g id="edge26" class="edge"><title>11&#45;&gt;14</title>
<path fill="none" stroke="grey" d="M553.845,-1303.83C555.504,-1285.83 558.64,-1256.76 563.418,-1232 565.762,-1219.85 569.336,-1206.37 572.286,-1196.05"/>
</g>
<!-- 12&#45;&gt;14 -->
<g id="edge27" class="edge"><title>12&#45;&gt;14</title>
<path fill="none" stroke="grey" d="M520.337,-1234.5C532.693,-1222.48 550.167,-1205.49 562.519,-1193.49"/>
</g>
<!-- 12&#45;&gt;15 -->
<g id="edge28" class="edge"><title>12&#45;&gt;15</title>
<path fill="none" stroke="grey" d="M510.457,-1232.03C516.229,-1213.7 526.569,-1183.89 539.418,-1160 546.605,-1146.64 556.679,-1132.74 564.649,-1122.53"/>
</g>
<!-- 13&#45;&gt;14 -->
<g id="edge29" class="edge"><title>13&#45;&gt;14</title>
<path fill="none" stroke="grey" d="M595.608,-1232.05C591.835,-1221.05 586.937,-1206.76 583.174,-1195.79"/>
</g>
<!-- 14&#45;&gt;15 -->
<g id="edge30" class="edge"><title>14&#45;&gt;15</title>
<path fill="none" stroke="grey" d="M577.418,-1159.7C577.418,-1148.85 577.418,-1134.92 577.418,-1124.1"/>
</g>
<!-- 17 -->
<g id="node17" class="node"><title>17</title>
<ellipse fill="blue" stroke="blue" cx="577.418" cy="-1034" rx="28.3955" ry="18"/>
<text text-anchor="middle" x="577.418" y="-1030.3" font-family="Times,serif" font-size="14.00" fill="white">17: 1</text>
</g>
<!-- 15&#45;&gt;17 -->
<g id="edge31" class="edge"><title>15&#45;&gt;17</title>
<path fill="none" stroke="grey" d="M577.418,-1087.7C577.418,-1076.85 577.418,-1062.92 577.418,-1052.1"/>
</g>
<!-- 16 -->
<g id="node16" class="node"><title>16</title>
<ellipse fill="blue" stroke="blue" cx="652.418" cy="-1034" rx="28.3955" ry="18"/>
<text text-anchor="middle" x="652.418" y="-1030.3" font-family="Times,serif" font-size="14.00" fill="white">16: 1</text>
</g>
<!-- 18 -->
<g id="node18" class="node"><title>18</title>
<ellipse fill="blue" stroke="blue" cx="625.418" cy="-962" rx="28.3955" ry="18"/>
<text text-anchor="middle" x="625.418" y="-958.3" font-family="Times,serif" font-size="14.00" fill="white">18: 1</text>
</g>
<!-- 16&#45;&gt;18 -->
<g id="edge32" class="edge"><title>16&#45;&gt;18</title>
<path fill="none" stroke="grey" d="M646.019,-1016.41C641.778,-1005.41 636.229,-991.027 631.958,-979.956"/>
</g>
<!-- 17&#45;&gt;18 -->
<g id="edge33" class="edge"><title>17&#45;&gt;18</title>
<path fill="none" stroke="grey" d="M588.31,-1017.12C596.166,-1005.66 606.724,-990.263 614.569,-978.821"/>
</g>
<!-- 23 -->
<g id="node23" class="node"><title>23</title>
<ellipse fill="blue" stroke="blue" cx="463.418" cy="-746" rx="28.3955" ry="18"/>
<text text-anchor="middle" x="463.418" y="-742.3" font-family="Times,serif" font-size="14.00" fill="white">23: 1</text>
</g>
<!-- 17&#45;&gt;23 -->
<g id="edge34" class="edge"><title>17&#45;&gt;23</title>
<path fill="none" stroke="grey" d="M565.436,-1017.25C543.81,-987.905 498.54,-922.107 477.418,-859 466.596,-826.666 464.017,-786.545 463.476,-764.16"/>
</g>
<!-- 19 -->
<g id="node19" class="node"><title>19</title>
<ellipse fill="blue" stroke="blue" cx="577.418" cy="-890" rx="28.3955" ry="18"/>
<text text-anchor="middle" x="577.418" y="-886.3" font-family="Times,serif" font-size="14.00" fill="white">19: 1</text>
</g>
<!-- 18&#45;&gt;19 -->
<g id="edge35" class="edge"><title>18&#45;&gt;19</title>
<path fill="none" stroke="grey" d="M614.526,-945.116C606.671,-933.66 596.112,-918.263 588.267,-906.821"/>
</g>
<!-- 20 -->
<g id="node20" class="node"><title>20</title>
<ellipse fill="blue" stroke="blue" cx="673.418" cy="-890" rx="28.3955" ry="18"/>
<text text-anchor="middle" x="673.418" y="-886.3" font-family="Times,serif" font-size="14.00" fill="white">20: 1</text>
</g>
<!-- 18&#45;&gt;20 -->
<g id="edge36" class="edge"><title>18&#45;&gt;20</title>
<path fill="none" stroke="grey" d="M636.31,-945.116C644.166,-933.66 654.724,-918.263 662.569,-906.821"/>
</g>
<!-- 21 -->
<g id="node21" class="node"><title>21</title>
<ellipse fill="blue" stroke="blue" cx="596.418" cy="-818" rx="28.3955" ry="18"/>
<text text-anchor="middle" x="596.418" y="-814.3" font-family="Times,serif" font-size="14.00" fill="white">21: 1</text>
</g>
<!-- 18&#45;&gt;21 -->
<g id="edge37" class="edge"><title>18&#45;&gt;21</title>
<path fill="none" stroke="grey" d="M624.336,-943.758C622.959,-925.695 620.05,-896.585 614.418,-872 611.597,-859.686 607,-846.211 603.157,-835.93"/>
</g>
<!-- 18&#45;&gt;23 -->
<g id="edge38" class="edge"><title>18&#45;&gt;23</title>
<path fill="none" stroke="grey" d="M602.488,-951.285C583.585,-942.329 557.098,-927.481 539.418,-908 499.535,-864.054 476.727,-795.465 467.815,-763.916"/>
</g>
<!-- 33 -->
<g id="node33" class="node"><title>33</title>
<ellipse fill="blue" stroke="blue" cx="720.418" cy="-674" rx="28.3955" ry="18"/>
<text text-anchor="middle" x="720.418" y="-670.3" font-family="Times,serif" font-size="14.00" fill="white">33: 1</text>
</g>
<!-- 18&#45;&gt;33 -->
<g id="edge39" class="edge"><title>18&#45;&gt;33</title>
<path fill="none" stroke="grey" d="M650.308,-952.854C670.351,-944.856 697.274,-930.532 710.418,-908 751.73,-837.179 733.942,-732.61 724.703,-691.996"/>
</g>
<!-- 19&#45;&gt;21 -->
<g id="edge40" class="edge"><title>19&#45;&gt;21</title>
<path fill="none" stroke="grey" d="M582.017,-872.055C585.005,-861.049 588.882,-846.764 591.861,-835.789"/>
</g>
<!-- 19&#45;&gt;23 -->
<g id="edge41" class="edge"><title>19&#45;&gt;23</title>
<path fill="none" stroke="grey" d="M567.425,-872.987C555.757,-854.708 535.488,-824.211 515.418,-800 503.9,-786.106 489.429,-771.558 478.678,-761.226"/>
</g>
<!-- 20&#45;&gt;21 -->
<g id="edge42" class="edge"><title>20&#45;&gt;21</title>
<path fill="none" stroke="grey" d="M657.428,-875.045C651.716,-870.019 645.252,-864.285 639.418,-859 630.2,-850.648 620.002,-841.172 611.852,-833.54"/>
</g>
<!-- 20&#45;&gt;33 -->
<g id="edge43" class="edge"><title>20&#45;&gt;33</title>
<path fill="none" stroke="grey" d="M677.185,-871.849C686.007,-831.68 707.923,-731.89 716.699,-691.935"/>
</g>
<!-- 35 -->
<g id="node35" class="node"><title>35</title>
<ellipse fill="blue" stroke="blue" cx="672.418" cy="-530" rx="28.3955" ry="18"/>
<text text-anchor="middle" x="672.418" y="-526.3" font-family="Times,serif" font-size="14.00" fill="white">35: 1</text>
</g>
<!-- 20&#45;&gt;35 -->
<g id="edge44" class="edge"><title>20&#45;&gt;35</title>
<path fill="none" stroke="grey" d="M669.467,-872.059C663.638,-845.546 653.418,-792.56 653.418,-747 653.418,-747 653.418,-747 653.418,-673 653.418,-627.483 663.127,-574.479 668.664,-547.951"/>
</g>
<!-- 21&#45;&gt;23 -->
<g id="edge45" class="edge"><title>21&#45;&gt;23</title>
<path fill="none" stroke="grey" d="M575.344,-805.908C550.586,-792.878 509.739,-771.379 484.834,-758.272"/>
</g>
<!-- 26 -->
<g id="node26" class="node"><title>26</title>
<ellipse fill="blue" stroke="blue" cx="515.418" cy="-602" rx="33.2209" ry="18"/>
<text text-anchor="middle" x="515.418" y="-598.3" font-family="Times,serif" font-size="14.00" fill="white">26: 19</text>
</g>
<!-- 21&#45;&gt;26 -->
<g id="edge46" class="edge"><title>21&#45;&gt;26</title>
<path fill="none" stroke="grey" d="M590.062,-800.208C574.92,-760.204 536.856,-659.639 521.744,-619.714"/>
</g>
<!-- 21&#45;&gt;35 -->
<g id="edge47" class="edge"><title>21&#45;&gt;35</title>
<path fill="none" stroke="grey" d="M597.403,-799.738C600.12,-760.268 609.617,-660.902 639.418,-584 644.666,-570.457 653.462,-556.57 660.653,-546.411"/>
</g>
<!-- 22 -->
<g id="node22" class="node"><title>22</title>
<ellipse fill="blue" stroke="blue" cx="401.418" cy="-818" rx="28.3955" ry="18"/>
<text text-anchor="middle" x="401.418" y="-814.3" font-family="Times,serif" font-size="14.00" fill="white">22: 1</text>
</g>
<!-- 22&#45;&gt;23 -->
<g id="edge48" class="edge"><title>22&#45;&gt;23</title>
<path fill="none" stroke="grey" d="M414.871,-801.811C425.271,-790.07 439.598,-773.893 449.991,-762.159"/>
</g>
<!-- 24 -->
<g id="node24" class="node"><title>24</title>
<ellipse fill="blue" stroke="blue" cx="395.418" cy="-674" rx="28.3955" ry="18"/>
<text text-anchor="middle" x="395.418" y="-670.3" font-family="Times,serif" font-size="14.00" fill="white">24: 1</text>
</g>
<!-- 22&#45;&gt;24 -->
<g id="edge49" class="edge"><title>22&#45;&gt;24</title>
<path fill="none" stroke="grey" d="M400.694,-799.871C399.541,-772.578 397.299,-719.52 396.144,-692.189"/>
</g>
<!-- 23&#45;&gt;24 -->
<g id="edge50" class="edge"><title>23&#45;&gt;24</title>
<path fill="none" stroke="grey" d="M448.997,-730.155C437.457,-718.276 421.353,-701.697 409.818,-689.824"/>
</g>
<!-- 25 -->
<g id="node25" class="node"><title>25</title>
<ellipse fill="blue" stroke="blue" cx="415.418" cy="-602" rx="28.3955" ry="18"/>
<text text-anchor="middle" x="415.418" y="-598.3" font-family="Times,serif" font-size="14.00" fill="white">25: 1</text>
</g>
<!-- 23&#45;&gt;25 -->
<g id="edge51" class="edge"><title>23&#45;&gt;25</title>
<path fill="none" stroke="grey" d="M457.723,-728.153C448.485,-700.824 430.339,-647.14 421.105,-619.825"/>
</g>
<!-- 23&#45;&gt;26 -->
<g id="edge52" class="edge"><title>23&#45;&gt;26</title>
<path fill="none" stroke="grey" d="M469.587,-728.153C479.595,-700.824 499.254,-647.14 509.257,-619.825"/>
</g>
<!-- 27 -->
<g id="node27" class="node"><title>27</title>
<ellipse fill="red" stroke="red" cx="415.418" cy="-530" rx="28.3955" ry="18"/>
<text text-anchor="middle" x="415.418" y="-526.3" font-family="Times,serif" font-size="14.00">27: 1</text>
</g>
<!-- 23&#45;&gt;27 -->
<g id="edge53" class="edge"><title>23&#45;&gt;27</title>
<path fill="none" stroke="grey" d="M465.169,-727.951C467.627,-697.895 470.019,-633.941 452.418,-584 447.42,-569.818 437.517,-555.961 429.213,-545.975"/>
</g>
<!-- 24&#45;&gt;25 -->
<g id="edge54" class="edge"><title>24&#45;&gt;25</title>
<path fill="none" stroke="grey" d="M400.26,-656.055C403.404,-645.049 407.486,-630.764 410.621,-619.789"/>
</g>
<!-- 24&#45;&gt;27 -->
<g id="edge55" class="edge"><title>24&#45;&gt;27</title>
<path fill="none" stroke="grey" d="M383.805,-657.229C381.186,-652.837 378.78,-647.917 377.418,-643 370.418,-617.729 369.393,-608.964 377.418,-584 382.061,-569.556 392.255,-555.712 400.916,-545.797"/>
</g>
<!-- 28 -->
<g id="node28" class="node"><title>28</title>
<ellipse fill="blue" stroke="blue" cx="196.418" cy="-602" rx="37.5442" ry="18"/>
<text text-anchor="middle" x="196.418" y="-598.3" font-family="Times,serif" font-size="14.00" fill="white">28: 243</text>
</g>
<!-- 24&#45;&gt;28 -->
<g id="edge56" class="edge"><title>24&#45;&gt;28</title>
<path fill="none" stroke="grey" d="M371.017,-664.417C334.38,-651.529 265.267,-627.218 225.875,-613.362"/>
</g>
<!-- 41 -->
<g id="node41" class="node"><title>41</title>
<ellipse fill="red" stroke="red" cx="281.418" cy="-170" rx="33.2209" ry="18"/>
<text text-anchor="middle" x="281.418" y="-166.3" font-family="Times,serif" font-size="14.00">41: 11</text>
</g>
<!-- 24&#45;&gt;41 -->
<g id="edge57" class="edge"><title>24&#45;&gt;41</title>
<path fill="none" stroke="grey" d="M380.159,-658.814C375.845,-654.134 371.493,-648.666 368.418,-643 343.836,-597.709 338.418,-582.533 338.418,-531 338.418,-531 338.418,-531 338.418,-313 338.418,-264.386 309.291,-212.713 292.679,-187.196"/>
</g>
<!-- 25&#45;&gt;27 -->
<g id="edge58" class="edge"><title>25&#45;&gt;27</title>
<path fill="none" stroke="grey" d="M415.418,-583.697C415.418,-572.846 415.418,-558.917 415.418,-548.104"/>
</g>
<!-- 26&#45;&gt;27 -->
<g id="edge59" class="edge"><title>26&#45;&gt;27</title>
<path fill="none" stroke="grey" d="M495.661,-587.17C477.675,-574.58 451.324,-556.134 433.785,-543.857"/>
</g>
<!-- 26&#45;&gt;35 -->
<g id="edge60" class="edge"><title>26&#45;&gt;35</title>
<path fill="none" stroke="grey" d="M540.295,-589.908C570.385,-576.493 620.609,-554.1 649.696,-541.131"/>
</g>
<!-- 27&#45;&gt;41 -->
<g id="edge61" class="edge"><title>27&#45;&gt;41</title>
<path fill="none" stroke="grey" d="M407.91,-512.338C396.836,-486.197 377.418,-433.702 377.418,-387 377.418,-387 377.418,-387 377.418,-313 377.418,-271.914 375.675,-257.871 352.418,-224 340.316,-206.374 320.424,-192.264 304.769,-183.047"/>
</g>
<!-- 42 -->
<g id="node42" class="node"><title>42</title>
<ellipse fill="beige" stroke="beige" cx="308.418" cy="-98" rx="28.3955" ry="18"/>
<text text-anchor="middle" x="308.418" y="-94.3" font-family="Times,serif" font-size="14.00">42: 6</text>
</g>
<!-- 27&#45;&gt;42 -->
<g id="edge62" class="edge"><title>27&#45;&gt;42</title>
<path fill="none" stroke="grey" d="M415.418,-511.951C415.418,-485.292 415.418,-432.115 415.418,-387 415.418,-387 415.418,-387 415.418,-241 415.418,-183.277 358.325,-134.114 327.548,-111.806"/>
</g>
<!-- 29 -->
<g id="node29" class="node"><title>29</title>
<ellipse fill="beige" stroke="beige" cx="148.418" cy="-530" rx="28.3955" ry="18"/>
<text text-anchor="middle" x="148.418" y="-526.3" font-family="Times,serif" font-size="14.00">29: 2</text>
</g>
<!-- 28&#45;&gt;29 -->
<g id="edge63" class="edge"><title>28&#45;&gt;29</title>
<path fill="none" stroke="grey" d="M185.285,-584.765C177.42,-573.294 166.937,-558.007 159.16,-546.666"/>
</g>
<!-- 30 -->
<g id="node30" class="node"><title>30</title>
<ellipse fill="beige" stroke="beige" cx="173.418" cy="-458" rx="28.3955" ry="18"/>
<text text-anchor="middle" x="173.418" y="-454.3" font-family="Times,serif" font-size="14.00">30: 2</text>
</g>
<!-- 28&#45;&gt;30 -->
<g id="edge64" class="edge"><title>28&#45;&gt;30</title>
<path fill="none" stroke="grey" d="M194.812,-583.863C193.008,-565.886 189.755,-536.846 185.418,-512 183.309,-499.918 180.248,-486.44 177.745,-476.098"/>
</g>
<!-- 31 -->
<g id="node31" class="node"><title>31</title>
<ellipse fill="red" stroke="red" cx="205.418" cy="-386" rx="28.3955" ry="18"/>
<text text-anchor="middle" x="205.418" y="-382.3" font-family="Times,serif" font-size="14.00">31: 1</text>
</g>
<!-- 28&#45;&gt;31 -->
<g id="edge65" class="edge"><title>28&#45;&gt;31</title>
<path fill="none" stroke="grey" d="M199.459,-583.638C204.278,-554.158 212.885,-492.408 210.418,-440 209.853,-427.998 208.573,-414.519 207.449,-404.157"/>
</g>
<!-- 28&#45;&gt;41 -->
<g id="edge66" class="edge"><title>28&#45;&gt;41</title>
<path fill="none" stroke="grey" d="M216.965,-586.587C247.274,-563.454 300.418,-514.92 300.418,-459 300.418,-459 300.418,-459 300.418,-313 300.418,-267.483 290.709,-214.479 285.172,-187.951"/>
</g>
<!-- 29&#45;&gt;30 -->
<g id="edge67" class="edge"><title>29&#45;&gt;30</title>
<path fill="none" stroke="grey" d="M154.47,-512.055C158.4,-501.049 163.503,-486.764 167.422,-475.789"/>
</g>
<!-- 32 -->
<g id="node32" class="node"><title>32</title>
<ellipse fill="beige" stroke="beige" cx="130.418" cy="-386" rx="28.3955" ry="18"/>
<text text-anchor="middle" x="130.418" y="-382.3" font-family="Times,serif" font-size="14.00">32: 2</text>
</g>
<!-- 29&#45;&gt;32 -->
<g id="edge68" class="edge"><title>29&#45;&gt;32</title>
<path fill="none" stroke="grey" d="M143.393,-511.974C140.562,-501.658 137.238,-488.181 135.418,-476 131.713,-451.205 130.695,-422.151 130.447,-404.157"/>
</g>
<!-- 30&#45;&gt;31 -->
<g id="edge69" class="edge"><title>30&#45;&gt;31</title>
<path fill="none" stroke="grey" d="M181.002,-440.411C186.103,-429.252 192.799,-414.604 197.889,-403.47"/>
</g>
<!-- 30&#45;&gt;32 -->
<g id="edge70" class="edge"><title>30&#45;&gt;32</title>
<path fill="none" stroke="grey" d="M163.445,-440.765C156.498,-429.456 147.272,-414.437 140.337,-403.147"/>
</g>
<!-- 38 -->
<g id="node38" class="node"><title>38</title>
<ellipse fill="beige" stroke="beige" cx="167.418" cy="-242" rx="28.3955" ry="18"/>
<text text-anchor="middle" x="167.418" y="-238.3" font-family="Times,serif" font-size="14.00">38: 6</text>
</g>
<!-- 30&#45;&gt;38 -->
<g id="edge71" class="edge"><title>30&#45;&gt;38</title>
<path fill="none" stroke="grey" d="M150.781,-446.907C132.84,-437.906 108.24,-423.191 92.4181,-404 77.4553,-385.851 76.9473,-378.082 72.4181,-355 67.3689,-329.268 59.1402,-318.612 72.4181,-296 76.578,-288.916 118.971,-266.977 145.702,-253.649"/>
</g>
<!-- 30&#45;&gt;41 -->
<g id="edge72" class="edge"><title>30&#45;&gt;41</title>
<path fill="none" stroke="grey" d="M195.053,-446.15C210.787,-437.086 231.22,-422.647 242.418,-404 285.072,-332.975 284.695,-228.966 282.638,-188.247"/>
</g>
<!-- 31&#45;&gt;41 -->
<g id="edge73" class="edge"><title>31&#45;&gt;41</title>
<path fill="none" stroke="grey" d="M208.244,-367.998C213.599,-338.016 226.675,-274.171 248.418,-224 254.107,-210.872 262.703,-197.191 269.696,-187.018"/>
</g>
<!-- 36 -->
<g id="node36" class="node"><title>36</title>
<ellipse fill="beige" stroke="beige" cx="110.418" cy="-314" rx="28.3955" ry="18"/>
<text text-anchor="middle" x="110.418" y="-310.3" font-family="Times,serif" font-size="14.00">36: 6</text>
</g>
<!-- 32&#45;&gt;36 -->
<g id="edge74" class="edge"><title>32&#45;&gt;36</title>
<path fill="none" stroke="grey" d="M125.577,-368.055C122.432,-357.049 118.351,-342.764 115.215,-331.789"/>
</g>
<!-- 32&#45;&gt;38 -->
<g id="edge75" class="edge"><title>32&#45;&gt;38</title>
<path fill="none" stroke="grey" d="M140.818,-368.976C143.295,-364.586 145.712,-359.73 147.418,-355 159.078,-322.67 164.127,-282.547 166.166,-260.161"/>
</g>
<!-- 34 -->
<g id="node34" class="node"><title>34</title>
<ellipse fill="blue" stroke="blue" cx="710.418" cy="-602" rx="28.3955" ry="18"/>
<text text-anchor="middle" x="710.418" y="-598.3" font-family="Times,serif" font-size="14.00" fill="white">34: 1</text>
</g>
<!-- 33&#45;&gt;34 -->
<g id="edge76" class="edge"><title>33&#45;&gt;34</title>
<path fill="none" stroke="grey" d="M717.997,-656.055C716.448,-645.211 714.444,-631.183 712.886,-620.275"/>
</g>
<!-- 33&#45;&gt;35 -->
<g id="edge77" class="edge"><title>33&#45;&gt;35</title>
<path fill="none" stroke="grey" d="M736.903,-658.943C741.151,-654.344 745.159,-648.888 747.418,-643 756.813,-618.518 759.476,-607.286 747.418,-584 736.641,-563.187 713.511,-548.801 695.768,-540.324"/>
</g>
<!-- 34&#45;&gt;35 -->
<g id="edge78" class="edge"><title>34&#45;&gt;35</title>
<path fill="none" stroke="grey" d="M701.605,-584.765C695.466,-573.456 687.312,-558.437 681.184,-547.147"/>
</g>
<!-- 37 -->
<g id="node37" class="node"><title>37</title>
<ellipse fill="beige" stroke="beige" cx="92.4181" cy="-242" rx="28.3955" ry="18"/>
<text text-anchor="middle" x="92.4181" y="-238.3" font-family="Times,serif" font-size="14.00">37: 2</text>
</g>
<!-- 36&#45;&gt;37 -->
<g id="edge79" class="edge"><title>36&#45;&gt;37</title>
<path fill="none" stroke="grey" d="M106.061,-296.055C103.272,-285.211 99.6651,-271.183 96.8603,-260.275"/>
</g>
<!-- 36&#45;&gt;38 -->
<g id="edge80" class="edge"><title>36&#45;&gt;38</title>
<path fill="none" stroke="grey" d="M123.068,-297.465C132.514,-285.865 145.366,-270.082 154.803,-258.492"/>
</g>
<!-- 39 -->
<g id="node39" class="node"><title>39</title>
<ellipse fill="beige" stroke="beige" cx="72.4181" cy="-170" rx="28.3955" ry="18"/>
<text text-anchor="middle" x="72.4181" y="-166.3" font-family="Times,serif" font-size="14.00">39: 2</text>
</g>
<!-- 36&#45;&gt;39 -->
<g id="edge81" class="edge"><title>36&#45;&gt;39</title>
<path fill="none" stroke="grey" d="M90.9079,-300.819C77.8807,-291.451 61.8273,-277.214 54.4181,-260 44.0721,-235.963 54.712,-205.677 63.472,-187.353"/>
</g>
<!-- 40 -->
<g id="node40" class="node"><title>40</title>
<ellipse fill="beige" stroke="beige" cx="62.4181" cy="-98" rx="28.3955" ry="18"/>
<text text-anchor="middle" x="62.4181" y="-94.3" font-family="Times,serif" font-size="14.00">40: 2</text>
</g>
<!-- 36&#45;&gt;40 -->
<g id="edge82" class="edge"><title>36&#45;&gt;40</title>
<path fill="none" stroke="grey" d="M90.1172,-301.158C75.7956,-291.768 57.2937,-277.36 46.4181,-260 34.5147,-240.999 37.1041,-233.26 34.4181,-211 31.2767,-184.967 28.1082,-177.452 34.4181,-152 37.7235,-138.667 45.0646,-124.993 51.4007,-114.874"/>
</g>
<!-- 38&#45;&gt;39 -->
<g id="edge83" class="edge"><title>38&#45;&gt;39</title>
<path fill="none" stroke="grey" d="M149.549,-227.834C132.565,-215.319 107.165,-196.603 90.2067,-184.107"/>
</g>
<!-- 38&#45;&gt;41 -->
<g id="edge84" class="edge"><title>38&#45;&gt;41</title>
<path fill="none" stroke="grey" d="M187.015,-228.967C207.387,-216.458 239.17,-196.942 260.143,-184.064"/>
</g>
<!-- 43 -->
<g id="node43" class="node"><title>43</title>
<ellipse fill="beige" stroke="beige" cx="260.418" cy="-26" rx="28.3955" ry="18"/>
<text text-anchor="middle" x="260.418" y="-22.3" font-family="Times,serif" font-size="14.00">43: 2</text>
</g>
<!-- 38&#45;&gt;43 -->
<g id="edge85" class="edge"><title>38&#45;&gt;43</title>
<path fill="none" stroke="grey" d="M145.713,-230.019C140.483,-227.732 134.838,-225.549 129.418,-224 108.93,-218.146 49.2487,-226.3 34.4181,-211 -6.2236,-169.073 -12.0681,-125.589 24.4181,-80 50.1981,-47.7882 175.447,-33.8002 232.276,-29.0381"/>
</g>
<!-- 39&#45;&gt;40 -->
<g id="edge86" class="edge"><title>39&#45;&gt;40</title>
<path fill="none" stroke="grey" d="M69.9973,-152.055C68.4482,-141.211 66.4442,-127.183 64.886,-116.275"/>
</g>
<!-- 41&#45;&gt;42 -->
<g id="edge87" class="edge"><title>41&#45;&gt;42</title>
<path fill="none" stroke="grey" d="M287.954,-152.055C292.199,-141.049 297.709,-126.764 301.942,-115.789"/>
</g>
<!-- 41&#45;&gt;43 -->
<g id="edge88" class="edge"><title>41&#45;&gt;43</title>
<path fill="none" stroke="grey" d="M277.446,-151.889C275.15,-141.543 272.343,-128.064 270.418,-116 266.448,-91.126 263.498,-62.093 261.867,-44.1255"/>
</g>
<!-- 42&#45;&gt;43 -->
<g id="edge89" class="edge"><title>42&#45;&gt;43</title>
<path fill="none" stroke="grey" d="M297.526,-81.1159C289.671,-69.66 279.112,-54.2627 271.267,-42.8212"/>
</g>
</g>
</svg>
