<?xml version="1.0" encoding="UTF-8" standalone="no"?>
<!DOCTYPE svg PUBLIC "-//W3C//DTD SVG 1.1//EN"
 "http://www.w3.org/Graphics/SVG/1.1/DTD/svg11.dtd">
<!-- Generated by graphviz version 2.36.0 (20140111.2315)
 -->
<!-- Title: G Pages: 1 -->
<svg width="826pt" height="1753pt"
 viewBox="7.20 7.20 818.63 1746.20" xmlns="http://www.w3.org/2000/svg" xmlns:xlink="http://www.w3.org/1999/xlink">
<g id="graph0" class="graph" transform="scale(1 1) rotate(0) translate(11.2 1742.2)">
<title>G</title>
<polygon fill="white" stroke="none" points="-4,4 -4,-1735 807.435,-1735 807.435,4 -4,4"/>
<g id="clust1" class="cluster"><title>cluster1</title>
<polygon fill="sandybrown" stroke="sandybrown" points="559.435,-1592 559.435,-1723 685.435,-1723 685.435,-1592 559.435,-1592"/>
<text text-anchor="middle" x="622.435" y="-1707.8" font-family="Times,serif" font-size="14.00">Super region 1 [3]</text>
</g>
<g id="clust2" class="cluster"><title>cluster2</title>
<polygon fill="sandybrown" stroke="sandybrown" points="629.435,-1160 629.435,-1579 795.435,-1579 795.435,-1160 629.435,-1160"/>
<text text-anchor="middle" x="712.435" y="-1563.8" font-family="Times,serif" font-size="14.00">Super region 2 [6]</text>
</g>
<g id="clust3" class="cluster"><title>cluster3</title>
<polygon fill="sandybrown" stroke="sandybrown" points="468.435,-1088 468.435,-1363 622.435,-1363 622.435,-1088 468.435,-1088"/>
<text text-anchor="middle" x="545.435" y="-1347.8" font-family="Times,serif" font-size="14.00">Super region 3 [3]</text>
</g>
<g id="clust4" class="cluster"><title>cluster4</title>
<polygon fill="sandybrown" stroke="sandybrown" points="540.435,-800 540.435,-1075 694.435,-1075 694.435,-800 540.435,-800"/>
<text text-anchor="middle" x="617.435" y="-1059.8" font-family="Times,serif" font-size="14.00">Super region 4 [4]</text>
</g>
<g id="clust5" class="cluster"><title>cluster5</title>
<polygon fill="sandybrown" stroke="sandybrown" points="366.435,-512 366.435,-859 540.435,-859 540.435,-512 366.435,-512"/>
<text text-anchor="middle" x="453.435" y="-843.8" font-family="Times,serif" font-size="14.00">Super region 5 [4]</text>
</g>
<g id="clust6" class="cluster"><title>cluster6</title>
<polygon fill="sandybrown" stroke="sandybrown" points="101.435,-368 101.435,-643 234.435,-643 234.435,-368 101.435,-368"/>
<text text-anchor="middle" x="167.935" y="-627.8" font-family="Times,serif" font-size="14.00">Super region 6 [3]</text>
</g>
<g id="clust7" class="cluster"><title>cluster7</title>
<polygon fill="sandybrown" stroke="sandybrown" points="641.435,-512 641.435,-715 757.435,-715 757.435,-512 641.435,-512"/>
<text text-anchor="middle" x="699.435" y="-699.8" font-family="Times,serif" font-size="14.00">Super region 7 [3]</text>
</g>
<g id="clust8" class="cluster"><title>cluster8</title>
<polygon fill="sandybrown" stroke="sandybrown" points="23.4347,-80 23.4347,-355 196.435,-355 196.435,-80 23.4347,-80"/>
<text text-anchor="middle" x="109.935" y="-339.8" font-family="Times,serif" font-size="14.00">Super region 8 [2]</text>
</g>
<g id="clust9" class="cluster"><title>cluster9</title>
<polygon fill="sandybrown" stroke="sandybrown" points="228.435,-8 228.435,-211 344.435,-211 344.435,-8 228.435,-8"/>
<text text-anchor="middle" x="286.435" y="-195.8" font-family="Times,serif" font-size="14.00">Super region 9 [2]</text>
</g>
<!-- 1 -->
<g id="node1" class="node"><title>1</title>
<ellipse fill="blue" stroke="blue" cx="622.435" cy="-1682" rx="27" ry="18"/>
<text text-anchor="middle" x="622.435" y="-1678.3" font-family="Times,serif" font-size="14.00" fill="white">1: 1</text>
</g>
<!-- 2 -->
<g id="node2" class="node"><title>2</title>
<ellipse fill="blue" stroke="blue" cx="658.435" cy="-1610" rx="27" ry="18"/>
<text text-anchor="middle" x="658.435" y="-1606.3" font-family="Times,serif" font-size="14.00" fill="white">2: 1</text>
</g>
<!-- 1&#45;&gt;2 -->
<g id="edge1" class="edge"><title>1&#45;&gt;2</title>
<path fill="none" stroke="grey" d="M630.784,-1664.76C636.6,-1653.46 644.324,-1638.44 650.13,-1627.15"/>
</g>
<!-- 3 -->
<g id="node3" class="node"><title>3</title>
<ellipse fill="blue" stroke="blue" cx="586.435" cy="-1610" rx="27" ry="18"/>
<text text-anchor="middle" x="586.435" y="-1606.3" font-family="Times,serif" font-size="14.00" fill="white">3: 1</text>
</g>
<!-- 1&#45;&gt;3 -->
<g id="edge2" class="edge"><title>1&#45;&gt;3</title>
<path fill="none" stroke="grey" d="M614.085,-1664.76C608.269,-1653.46 600.545,-1638.44 594.739,-1627.15"/>
</g>
<!-- 4 -->
<g id="node4" class="node"><title>4</title>
<ellipse fill="blue" stroke="blue" cx="696.435" cy="-1538" rx="27" ry="18"/>
<text text-anchor="middle" x="696.435" y="-1534.3" font-family="Times,serif" font-size="14.00" fill="white">4: 1</text>
</g>
<!-- 1&#45;&gt;4 -->
<g id="edge3" class="edge"><title>1&#45;&gt;4</title>
<path fill="none" stroke="grey" d="M644.755,-1671.37C661.733,-1662.72 683.912,-1648.24 694.435,-1628 706.267,-1605.24 703.595,-1574.57 700.254,-1555.83"/>
</g>
<!-- 6 -->
<g id="node6" class="node"><title>6</title>
<ellipse fill="blue" stroke="blue" cx="702.435" cy="-1394" rx="27" ry="18"/>
<text text-anchor="middle" x="702.435" y="-1390.3" font-family="Times,serif" font-size="14.00" fill="white">6: 1</text>
</g>
<!-- 1&#45;&gt;6 -->
<g id="edge4" class="edge"><title>1&#45;&gt;6</title>
<path fill="none" stroke="grey" d="M645.556,-1672.66C665.936,-1664.24 695.153,-1649.41 713.435,-1628 728.601,-1610.24 725.449,-1601.29 732.435,-1579 750.114,-1522.59 778.056,-1502.61 755.435,-1448 748.463,-1431.17 733.266,-1416.9 720.925,-1407.42"/>
</g>
<!-- 11 -->
<g id="node11" class="node"><title>11</title>
<ellipse fill="blue" stroke="blue" cx="544.435" cy="-1322" rx="28.3955" ry="18"/>
<text text-anchor="middle" x="544.435" y="-1318.3" font-family="Times,serif" font-size="14.00" fill="white">11: 1</text>
</g>
<!-- 1&#45;&gt;11 -->
<g id="edge5" class="edge"><title>1&#45;&gt;11</title>
<path fill="none" stroke="grey" d="M601.122,-1670.78C584.714,-1661.8 562.81,-1647.17 550.435,-1628 528.497,-1594.02 531.435,-1579.45 531.435,-1539 531.435,-1539 531.435,-1539 531.435,-1465 531.435,-1419.7 538.078,-1366.6 541.866,-1340"/>
</g>
<!-- 13 -->
<g id="node13" class="node"><title>13</title>
<ellipse fill="blue" stroke="blue" cx="593.435" cy="-1250" rx="28.3955" ry="18"/>
<text text-anchor="middle" x="593.435" y="-1246.3" font-family="Times,serif" font-size="14.00" fill="white">13: 1</text>
</g>
<!-- 1&#45;&gt;13 -->
<g id="edge6" class="edge"><title>1&#45;&gt;13</title>
<path fill="none" stroke="grey" d="M599.464,-1672.36C579.132,-1663.74 549.766,-1648.79 530.435,-1628 500.519,-1595.83 487.435,-1582.93 487.435,-1539 487.435,-1539 487.435,-1539 487.435,-1393 487.435,-1352.55 483.033,-1336.99 506.435,-1304 521.886,-1282.22 549.379,-1267.69 569.331,-1259.44"/>
</g>
<!-- 2&#45;&gt;4 -->
<g id="edge7" class="edge"><title>2&#45;&gt;4</title>
<path fill="none" stroke="grey" d="M667.248,-1592.76C673.387,-1581.46 681.541,-1566.44 687.669,-1555.15"/>
</g>
<!-- 3&#45;&gt;11 -->
<g id="edge8" class="edge"><title>3&#45;&gt;11</title>
<path fill="none" stroke="grey" d="M583.933,-1591.97C576.463,-1541.1 554.376,-1390.7 546.923,-1339.94"/>
</g>
<!-- 5 -->
<g id="node5" class="node"><title>5</title>
<ellipse fill="blue" stroke="blue" cx="719.435" cy="-1466" rx="27" ry="18"/>
<text text-anchor="middle" x="719.435" y="-1462.3" font-family="Times,serif" font-size="14.00" fill="white">5: 1</text>
</g>
<!-- 4&#45;&gt;5 -->
<g id="edge9" class="edge"><title>4&#45;&gt;5</title>
<path fill="none" stroke="grey" d="M702.002,-1520.05C705.619,-1509.05 710.312,-1494.76 713.918,-1483.79"/>
</g>
<!-- 4&#45;&gt;6 -->
<g id="edge10" class="edge"><title>4&#45;&gt;6</title>
<path fill="none" stroke="grey" d="M690.808,-1520.23C685.538,-1502.3 679.076,-1473.08 683.435,-1448 685.644,-1435.29 690.627,-1421.59 694.935,-1411.31"/>
</g>
<!-- 5&#45;&gt;6 -->
<g id="edge11" class="edge"><title>5&#45;&gt;6</title>
<path fill="none" stroke="grey" d="M715.319,-1448.05C712.686,-1437.21 709.279,-1423.18 706.63,-1412.28"/>
</g>
<!-- 7 -->
<g id="node7" class="node"><title>7</title>
<ellipse fill="blue" stroke="blue" cx="748.435" cy="-1322" rx="27" ry="18"/>
<text text-anchor="middle" x="748.435" y="-1318.3" font-family="Times,serif" font-size="14.00" fill="white">7: 1</text>
</g>
<!-- 5&#45;&gt;7 -->
<g id="edge12" class="edge"><title>5&#45;&gt;7</title>
<path fill="none" stroke="grey" d="M726.436,-1448.59C730.557,-1438.27 735.518,-1424.57 738.435,-1412 744.129,-1387.46 746.621,-1358.34 747.683,-1340.26"/>
</g>
<!-- 9 -->
<g id="node9" class="node"><title>9</title>
<ellipse fill="blue" stroke="blue" cx="746.435" cy="-1250" rx="27" ry="18"/>
<text text-anchor="middle" x="746.435" y="-1246.3" font-family="Times,serif" font-size="14.00" fill="white">9: 1</text>
</g>
<!-- 5&#45;&gt;9 -->
<g id="edge13" class="edge"><title>5&#45;&gt;9</title>
<path fill="none" stroke="grey" d="M732.85,-1450.13C748.759,-1431.4 774.385,-1397.47 784.435,-1363 791.774,-1337.83 792.459,-1328.96 784.435,-1304 779.723,-1289.34 769.292,-1275.3 760.55,-1265.36"/>
</g>
<!-- 6&#45;&gt;7 -->
<g id="edge14" class="edge"><title>6&#45;&gt;7</title>
<path fill="none" stroke="grey" d="M712.873,-1377.12C720.401,-1365.66 730.519,-1350.26 738.038,-1338.82"/>
</g>
<!-- 8 -->
<g id="node8" class="node"><title>8</title>
<ellipse fill="blue" stroke="blue" cx="656.435" cy="-1322" rx="27" ry="18"/>
<text text-anchor="middle" x="656.435" y="-1318.3" font-family="Times,serif" font-size="14.00" fill="white">8: 1</text>
</g>
<!-- 6&#45;&gt;8 -->
<g id="edge15" class="edge"><title>6&#45;&gt;8</title>
<path fill="none" stroke="grey" d="M691.997,-1377.12C684.468,-1365.66 674.35,-1350.26 666.832,-1338.82"/>
</g>
<!-- 6&#45;&gt;9 -->
<g id="edge16" class="edge"><title>6&#45;&gt;9</title>
<path fill="none" stroke="grey" d="M702.078,-1375.75C702.22,-1357.43 703.956,-1327.88 712.435,-1304 717.336,-1290.2 726.421,-1276.32 733.968,-1266.23"/>
</g>
<!-- 6&#45;&gt;13 -->
<g id="edge17" class="edge"><title>6&#45;&gt;13</title>
<path fill="none" stroke="grey" d="M675.885,-1389.86C657.76,-1386.33 634.561,-1378.84 620.435,-1363 596.604,-1336.28 592.899,-1292.17 592.825,-1268.05"/>
</g>
<!-- 7&#45;&gt;9 -->
<g id="edge18" class="edge"><title>7&#45;&gt;9</title>
<path fill="none" stroke="grey" d="M747.94,-1303.7C747.63,-1292.85 747.232,-1278.92 746.923,-1268.1"/>
</g>
<!-- 8&#45;&gt;9 -->
<g id="edge19" class="edge"><title>8&#45;&gt;9</title>
<path fill="none" stroke="grey" d="M673.363,-1307.83C689.454,-1295.32 713.517,-1276.6 729.582,-1264.11"/>
</g>
<!-- 8&#45;&gt;13 -->
<g id="edge20" class="edge"><title>8&#45;&gt;13</title>
<path fill="none" stroke="grey" d="M643.074,-1306.15C632.527,-1294.44 617.865,-1278.14 607.212,-1266.31"/>
</g>
<!-- 14 -->
<g id="node14" class="node"><title>14</title>
<ellipse fill="blue" stroke="blue" cx="569.435" cy="-1178" rx="28.3955" ry="18"/>
<text text-anchor="middle" x="569.435" y="-1174.3" font-family="Times,serif" font-size="14.00" fill="white">14: 1</text>
</g>
<!-- 8&#45;&gt;14 -->
<g id="edge21" class="edge"><title>8&#45;&gt;14</title>
<path fill="none" stroke="grey" d="M654.346,-1303.73C651.423,-1284.87 644.764,-1254.36 630.435,-1232 619.763,-1215.34 602.342,-1200.96 588.843,-1191.39"/>
</g>
<!-- 15 -->
<g id="node15" class="node"><title>15</title>
<ellipse fill="blue" stroke="blue" cx="569.435" cy="-1106" rx="28.3955" ry="18"/>
<text text-anchor="middle" x="569.435" y="-1102.3" font-family="Times,serif" font-size="14.00" fill="white">15: 1</text>
</g>
<!-- 8&#45;&gt;15 -->
<g id="edge22" class="edge"><title>8&#45;&gt;15</title>
<path fill="none" stroke="grey" d="M658.248,-1303.81C659.587,-1285.54 660.047,-1256.03 652.435,-1232 638.356,-1187.55 603.386,-1144.15 583.623,-1122.06"/>
</g>
<!-- 10 -->
<g id="node10" class="node"><title>10</title>
<ellipse fill="blue" stroke="blue" cx="746.435" cy="-1178" rx="28.3955" ry="18"/>
<text text-anchor="middle" x="746.435" y="-1174.3" font-family="Times,serif" font-size="14.00" fill="white">10: 1</text>
</g>
<!-- 9&#45;&gt;10 -->
<g id="edge23" class="edge"><title>9&#45;&gt;10</title>
<path fill="none" stroke="grey" d="M746.435,-1231.7C746.435,-1220.85 746.435,-1206.92 746.435,-1196.1"/>
</g>
<!-- 12 -->
<g id="node12" class="node"><title>12</title>
<ellipse fill="blue" stroke="blue" cx="497.435" cy="-1250" rx="28.3955" ry="18"/>
<text text-anchor="middle" x="497.435" y="-1246.3" font-family="Times,serif" font-size="14.00" fill="white">12: 1</text>
</g>
<!-- 11&#45;&gt;12 -->
<g id="edge24" class="edge"><title>11&#45;&gt;12</title>
<path fill="none" stroke="grey" d="M533.77,-1305.12C526.078,-1293.66 515.74,-1278.26 508.058,-1266.82"/>
</g>
<!-- 11&#45;&gt;13 -->
<g id="edge25" class="edge"><title>11&#45;&gt;13</title>
<path fill="none" stroke="grey" d="M555.554,-1305.12C563.573,-1293.66 574.351,-1278.26 582.36,-1266.82"/>
</g>
<!-- 11&#45;&gt;14 -->
<g id="edge26" class="edge"><title>11&#45;&gt;14</title>
<path fill="none" stroke="grey" d="M545.862,-1303.83C547.521,-1285.83 550.656,-1256.76 555.435,-1232 557.779,-1219.85 561.352,-1206.37 564.302,-1196.05"/>
</g>
<!-- 12&#45;&gt;14 -->
<g id="edge27" class="edge"><title>12&#45;&gt;14</title>
<path fill="none" stroke="grey" d="M512.353,-1234.5C524.71,-1222.48 542.184,-1205.49 554.535,-1193.49"/>
</g>
<!-- 12&#45;&gt;15 -->
<g id="edge28" class="edge"><title>12&#45;&gt;15</title>
<path fill="none" stroke="grey" d="M502.473,-1232.03C508.246,-1213.7 518.585,-1183.89 531.435,-1160 538.621,-1146.64 548.696,-1132.74 556.666,-1122.53"/>
</g>
<!-- 13&#45;&gt;14 -->
<g id="edge29" class="edge"><title>13&#45;&gt;14</title>
<path fill="none" stroke="grey" d="M587.625,-1232.05C583.852,-1221.05 578.954,-1206.76 575.191,-1195.79"/>
</g>
<!-- 14&#45;&gt;15 -->
<g id="edge30" class="edge"><title>14&#45;&gt;15</title>
<path fill="none" stroke="grey" d="M569.435,-1159.7C569.435,-1148.85 569.435,-1134.92 569.435,-1124.1"/>
</g>
<!-- 17 -->
<g id="node17" class="node"><title>17</title>
<ellipse fill="blue" stroke="blue" cx="569.435" cy="-1034" rx="28.3955" ry="18"/>
<text text-anchor="middle" x="569.435" y="-1030.3" font-family="Times,serif" font-size="14.00" fill="white">17: 1</text>
</g>
<!-- 15&#45;&gt;17 -->
<g id="edge31" class="edge"><title>15&#45;&gt;17</title>
<path fill="none" stroke="grey" d="M569.435,-1087.7C569.435,-1076.85 569.435,-1062.92 569.435,-1052.1"/>
</g>
<!-- 16 -->
<g id="node16" class="node"><title>16</title>
<ellipse fill="blue" stroke="blue" cx="644.435" cy="-1034" rx="28.3955" ry="18"/>
<text text-anchor="middle" x="644.435" y="-1030.3" font-family="Times,serif" font-size="14.00" fill="white">16: 1</text>
</g>
<!-- 18 -->
<g id="node18" class="node"><title>18</title>
<ellipse fill="blue" stroke="blue" cx="617.435" cy="-962" rx="28.3955" ry="18"/>
<text text-anchor="middle" x="617.435" y="-958.3" font-family="Times,serif" font-size="14.00" fill="white">18: 1</text>
</g>
<!-- 16&#45;&gt;18 -->
<g id="edge32" class="edge"><title>16&#45;&gt;18</title>
<path fill="none" stroke="grey" d="M638.036,-1016.41C633.794,-1005.41 628.245,-991.027 623.975,-979.956"/>
</g>
<!-- 17&#45;&gt;18 -->
<g id="edge33" class="edge"><title>17&#45;&gt;18</title>
<path fill="none" stroke="grey" d="M580.327,-1017.12C588.182,-1005.66 598.74,-990.263 606.586,-978.821"/>
</g>
<!-- 23 -->
<g id="node23" class="node"><title>23</title>
<ellipse fill="blue" stroke="blue" cx="481.435" cy="-746" rx="28.3955" ry="18"/>
<text text-anchor="middle" x="481.435" y="-742.3" font-family="Times,serif" font-size="14.00" fill="white">23: 1</text>
</g>
<!-- 17&#45;&gt;23 -->
<g id="edge34" class="edge"><title>17&#45;&gt;23</title>
<path fill="none" stroke="grey" d="M558.643,-1017.13C539.274,-987.587 499.25,-921.482 484.435,-859 476.626,-826.068 478.046,-786.162 479.757,-763.976"/>
</g>
<!-- 19 -->
<g id="node19" class="node"><title>19</title>
<ellipse fill="blue" stroke="blue" cx="569.435" cy="-890" rx="28.3955" ry="18"/>
<text text-anchor="middle" x="569.435" y="-886.3" font-family="Times,serif" font-size="14.00" fill="white">19: 1</text>
</g>
<!-- 18&#45;&gt;19 -->
<g id="edge35" class="edge"><title>18&#45;&gt;19</title>
<path fill="none" stroke="grey" d="M606.543,-945.116C598.687,-933.66 588.129,-918.263 580.284,-906.821"/>
</g>
<!-- 20 -->
<g id="node20" class="node"><title>20</title>
<ellipse fill="blue" stroke="blue" cx="665.435" cy="-890" rx="28.3955" ry="18"/>
<text text-anchor="middle" x="665.435" y="-886.3" font-family="Times,serif" font-size="14.00" fill="white">20: 1</text>
</g>
<!-- 18&#45;&gt;20 -->
<g id="edge36" class="edge"><title>18&#45;&gt;20</title>
<path fill="none" stroke="grey" d="M628.327,-945.116C636.182,-933.66 646.74,-918.263 654.586,-906.821"/>
</g>
<!-- 21 -->
<g id="node21" class="node"><title>21</title>
<ellipse fill="blue" stroke="blue" cx="594.435" cy="-818" rx="28.3955" ry="18"/>
<text text-anchor="middle" x="594.435" y="-814.3" font-family="Times,serif" font-size="14.00" fill="white">21: 1</text>
</g>
<!-- 18&#45;&gt;21 -->
<g id="edge37" class="edge"><title>18&#45;&gt;21</title>
<path fill="none" stroke="grey" d="M615.829,-943.863C614.025,-925.886 610.772,-896.846 606.435,-872 604.326,-859.918 601.264,-846.44 598.761,-836.098"/>
</g>
<!-- 18&#45;&gt;23 -->
<g id="edge38" class="edge"><title>18&#45;&gt;23</title>
<path fill="none" stroke="grey" d="M593.975,-951.741C574.748,-943.064 548.084,-928.368 531.435,-908 495.87,-864.491 485.527,-795.683 482.579,-763.998"/>
</g>
<!-- 33 -->
<g id="node33" class="node"><title>33</title>
<ellipse fill="blue" stroke="blue" cx="717.435" cy="-674" rx="28.3955" ry="18"/>
<text text-anchor="middle" x="717.435" y="-670.3" font-family="Times,serif" font-size="14.00" fill="white">33: 1</text>
</g>
<!-- 18&#45;&gt;33 -->
<g id="edge39" class="edge"><title>18&#45;&gt;33</title>
<path fill="none" stroke="grey" d="M642.133,-952.74C662.058,-944.672 688.917,-930.31 702.435,-908 744.971,-837.797 729.599,-732.868 721.316,-692.077"/>
</g>
<!-- 19&#45;&gt;21 -->
<g id="edge40" class="edge"><title>19&#45;&gt;21</title>
<path fill="none" stroke="grey" d="M575.487,-872.055C579.417,-861.049 584.519,-846.764 588.439,-835.789"/>
</g>
<!-- 19&#45;&gt;23 -->
<g id="edge41" class="edge"><title>19&#45;&gt;23</title>
<path fill="none" stroke="grey" d="M559.511,-872.987C542.61,-845.715 508.425,-790.553 491.457,-763.173"/>
</g>
<!-- 20&#45;&gt;21 -->
<g id="edge42" class="edge"><title>20&#45;&gt;21</title>
<path fill="none" stroke="grey" d="M650.723,-874.496C638.538,-862.482 621.307,-845.494 609.127,-833.485"/>
</g>
<!-- 20&#45;&gt;33 -->
<g id="edge43" class="edge"><title>20&#45;&gt;33</title>
<path fill="none" stroke="grey" d="M669.602,-871.849C679.363,-831.68 703.611,-731.89 713.32,-691.935"/>
</g>
<!-- 35 -->
<g id="node35" class="node"><title>35</title>
<ellipse fill="blue" stroke="blue" cx="670.435" cy="-530" rx="28.3955" ry="18"/>
<text text-anchor="middle" x="670.435" y="-526.3" font-family="Times,serif" font-size="14.00" fill="white">35: 1</text>
</g>
<!-- 20&#45;&gt;35 -->
<g id="edge44" class="edge"><title>20&#45;&gt;35</title>
<path fill="none" stroke="grey" d="M662.669,-872.004C658.589,-845.416 651.435,-792.333 651.435,-747 651.435,-747 651.435,-747 651.435,-673 651.435,-627.483 661.144,-574.479 666.681,-547.951"/>
</g>
<!-- 21&#45;&gt;23 -->
<g id="edge45" class="edge"><title>21&#45;&gt;23</title>
<path fill="none" stroke="grey" d="M574.752,-804.807C554.138,-792.037 521.943,-772.093 501.271,-759.288"/>
</g>
<!-- 26 -->
<g id="node26" class="node"><title>26</title>
<ellipse fill="red" stroke="red" cx="511.435" cy="-602" rx="28.3955" ry="18"/>
<text text-anchor="middle" x="511.435" y="-598.3" font-family="Times,serif" font-size="14.00">26: 8</text>
</g>
<!-- 21&#45;&gt;26 -->
<g id="edge46" class="edge"><title>21&#45;&gt;26</title>
<path fill="none" stroke="grey" d="M587.922,-800.208C572.406,-760.204 533.402,-659.639 517.917,-619.714"/>
</g>
<!-- 21&#45;&gt;35 -->
<g id="edge47" class="edge"><title>21&#45;&gt;35</title>
<path fill="none" stroke="grey" d="M595.419,-799.738C598.137,-760.268 607.634,-660.902 637.435,-584 642.683,-570.457 651.478,-556.57 658.67,-546.411"/>
</g>
<!-- 22 -->
<g id="node22" class="node"><title>22</title>
<ellipse fill="blue" stroke="blue" cx="404.435" cy="-818" rx="28.3955" ry="18"/>
<text text-anchor="middle" x="404.435" y="-814.3" font-family="Times,serif" font-size="14.00" fill="white">22: 1</text>
</g>
<!-- 22&#45;&gt;23 -->
<g id="edge48" class="edge"><title>22&#45;&gt;23</title>
<path fill="none" stroke="grey" d="M420.017,-802.834C433.376,-790.69 452.523,-773.283 465.876,-761.144"/>
</g>
<!-- 24 -->
<g id="node24" class="node"><title>24</title>
<ellipse fill="blue" stroke="blue" cx="404.435" cy="-674" rx="37.5442" ry="18"/>
<text text-anchor="middle" x="404.435" y="-670.3" font-family="Times,serif" font-size="14.00" fill="white">24: 245</text>
</g>
<!-- 22&#45;&gt;24 -->
<g id="edge49" class="edge"><title>22&#45;&gt;24</title>
<path fill="none" stroke="grey" d="M404.435,-799.871C404.435,-772.578 404.435,-719.52 404.435,-692.189"/>
</g>
<!-- 23&#45;&gt;24 -->
<g id="edge50" class="edge"><title>23&#45;&gt;24</title>
<path fill="none" stroke="grey" d="M465.853,-730.834C452.933,-719.089 434.6,-702.423 421.33,-690.359"/>
</g>
<!-- 25 -->
<g id="node25" class="node"><title>25</title>
<ellipse fill="blue" stroke="blue" cx="415.435" cy="-602" rx="28.3955" ry="18"/>
<text text-anchor="middle" x="415.435" y="-598.3" font-family="Times,serif" font-size="14.00" fill="white">25: 1</text>
</g>
<!-- 23&#45;&gt;25 -->
<g id="edge51" class="edge"><title>23&#45;&gt;25</title>
<path fill="none" stroke="grey" d="M476.911,-728.097C471.709,-709.812 462.333,-680.051 450.435,-656 443.883,-642.756 434.6,-628.856 427.241,-618.615"/>
</g>
<!-- 23&#45;&gt;26 -->
<g id="edge52" class="edge"><title>23&#45;&gt;26</title>
<path fill="none" stroke="grey" d="M485.053,-727.871C490.82,-700.578 502.029,-647.52 507.803,-620.189"/>
</g>
<!-- 27 -->
<g id="node27" class="node"><title>27</title>
<ellipse fill="red" stroke="red" cx="415.435" cy="-530" rx="28.3955" ry="18"/>
<text text-anchor="middle" x="415.435" y="-526.3" font-family="Times,serif" font-size="14.00">27: 1</text>
</g>
<!-- 23&#45;&gt;27 -->
<g id="edge53" class="edge"><title>23&#45;&gt;27</title>
<path fill="none" stroke="grey" d="M480.886,-727.816C479.375,-697.552 473.705,-633.284 452.435,-584 446.476,-570.194 436.618,-556.32 428.575,-546.231"/>
</g>
<!-- 24&#45;&gt;25 -->
<g id="edge54" class="edge"><title>24&#45;&gt;25</title>
<path fill="none" stroke="grey" d="M407.154,-655.697C408.859,-644.846 411.048,-630.917 412.747,-620.104"/>
</g>
<!-- 24&#45;&gt;27 -->
<g id="edge55" class="edge"><title>24&#45;&gt;27</title>
<path fill="none" stroke="grey" d="M387.104,-658.012C383.175,-653.614 379.543,-648.495 377.435,-643 368.04,-618.518 369.41,-608.964 377.435,-584 382.078,-569.556 392.271,-555.712 400.933,-545.797"/>
</g>
<!-- 28 -->
<g id="node28" class="node"><title>28</title>
<ellipse fill="red" stroke="red" cx="205.435" cy="-602" rx="28.3955" ry="18"/>
<text text-anchor="middle" x="205.435" y="-598.3" font-family="Times,serif" font-size="14.00">28: 6</text>
</g>
<!-- 24&#45;&gt;28 -->
<g id="edge56" class="edge"><title>24&#45;&gt;28</title>
<path fill="none" stroke="grey" d="M375.072,-662.671C335.609,-648.79 266.2,-624.375 229.597,-611.499"/>
</g>
<!-- 41 -->
<g id="node41" class="node"><title>41</title>
<ellipse fill="red" stroke="red" cx="281.435" cy="-170" rx="28.3955" ry="18"/>
<text text-anchor="middle" x="281.435" y="-166.3" font-family="Times,serif" font-size="14.00">41: 1</text>
</g>
<!-- 24&#45;&gt;41 -->
<g id="edge57" class="edge"><title>24&#45;&gt;41</title>
<path fill="none" stroke="grey" d="M382.63,-659.106C376.973,-654.579 371.371,-649.121 367.435,-643 339.625,-599.75 338.435,-582.419 338.435,-531 338.435,-531 338.435,-531 338.435,-313 338.435,-264.121 308.988,-212.148 292.425,-186.78"/>
</g>
<!-- 25&#45;&gt;27 -->
<g id="edge58" class="edge"><title>25&#45;&gt;27</title>
<path fill="none" stroke="grey" d="M415.435,-583.697C415.435,-572.846 415.435,-558.917 415.435,-548.104"/>
</g>
<!-- 26&#45;&gt;27 -->
<g id="edge59" class="edge"><title>26&#45;&gt;27</title>
<path fill="none" stroke="grey" d="M493.378,-587.834C476.215,-575.319 450.547,-556.603 433.411,-544.107"/>
</g>
<!-- 26&#45;&gt;35 -->
<g id="edge60" class="edge"><title>26&#45;&gt;35</title>
<path fill="none" stroke="grey" d="M534.216,-590.971C564.441,-577.664 617.492,-554.308 647.696,-541.011"/>
</g>
<!-- 27&#45;&gt;41 -->
<g id="edge61" class="edge"><title>27&#45;&gt;41</title>
<path fill="none" stroke="grey" d="M407.927,-512.338C396.853,-486.197 377.435,-433.702 377.435,-387 377.435,-387 377.435,-387 377.435,-313 377.435,-271.914 375.691,-257.871 352.435,-224 339.81,-205.613 318.709,-191.052 302.783,-181.881"/>
</g>
<!-- 42 -->
<g id="node42" class="node"><title>42</title>
<ellipse fill="beige" stroke="beige" cx="310.435" cy="-98" rx="28.3955" ry="18"/>
<text text-anchor="middle" x="310.435" y="-94.3" font-family="Times,serif" font-size="14.00">42: 6</text>
</g>
<!-- 27&#45;&gt;42 -->
<g id="edge62" class="edge"><title>27&#45;&gt;42</title>
<path fill="none" stroke="grey" d="M415.435,-511.951C415.435,-485.292 415.435,-432.115 415.435,-387 415.435,-387 415.435,-387 415.435,-241 415.435,-183.665 359.408,-134.324 329.207,-111.891"/>
</g>
<!-- 29 -->
<g id="node29" class="node"><title>29</title>
<ellipse fill="beige" stroke="beige" cx="157.435" cy="-530" rx="28.3955" ry="18"/>
<text text-anchor="middle" x="157.435" y="-526.3" font-family="Times,serif" font-size="14.00">29: 2</text>
</g>
<!-- 28&#45;&gt;29 -->
<g id="edge63" class="edge"><title>28&#45;&gt;29</title>
<path fill="none" stroke="grey" d="M194.543,-585.116C186.687,-573.66 176.129,-558.263 168.284,-546.821"/>
</g>
<!-- 30 -->
<g id="node30" class="node"><title>30</title>
<ellipse fill="beige" stroke="beige" cx="177.435" cy="-458" rx="28.3955" ry="18"/>
<text text-anchor="middle" x="177.435" y="-454.3" font-family="Times,serif" font-size="14.00">30: 2</text>
</g>
<!-- 28&#45;&gt;30 -->
<g id="edge64" class="edge"><title>28&#45;&gt;30</title>
<path fill="none" stroke="grey" d="M204.268,-583.777C202.822,-565.729 199.857,-536.632 194.435,-512 191.734,-499.732 187.392,-486.256 183.773,-475.963"/>
</g>
<!-- 31 -->
<g id="node31" class="node"><title>31</title>
<ellipse fill="red" stroke="red" cx="205.435" cy="-386" rx="28.3955" ry="18"/>
<text text-anchor="middle" x="205.435" y="-382.3" font-family="Times,serif" font-size="14.00">31: 1</text>
</g>
<!-- 28&#45;&gt;31 -->
<g id="edge65" class="edge"><title>28&#45;&gt;31</title>
<path fill="none" stroke="grey" d="M207.938,-584.057C211.93,-554.69 218.856,-492.445 214.435,-440 213.415,-427.91 211.111,-414.431 209.089,-404.092"/>
</g>
<!-- 28&#45;&gt;41 -->
<g id="edge66" class="edge"><title>28&#45;&gt;41</title>
<path fill="none" stroke="grey" d="M222.859,-587.33C250.285,-564.132 300.435,-514.17 300.435,-459 300.435,-459 300.435,-459 300.435,-313 300.435,-267.483 290.726,-214.479 285.188,-187.951"/>
</g>
<!-- 29&#45;&gt;30 -->
<g id="edge67" class="edge"><title>29&#45;&gt;30</title>
<path fill="none" stroke="grey" d="M162.276,-512.055C165.421,-501.049 169.502,-486.764 172.638,-475.789"/>
</g>
<!-- 32 -->
<g id="node32" class="node"><title>32</title>
<ellipse fill="beige" stroke="beige" cx="130.435" cy="-386" rx="28.3955" ry="18"/>
<text text-anchor="middle" x="130.435" y="-382.3" font-family="Times,serif" font-size="14.00">32: 2</text>
</g>
<!-- 29&#45;&gt;32 -->
<g id="edge68" class="edge"><title>29&#45;&gt;32</title>
<path fill="none" stroke="grey" d="M150.596,-512.092C146.718,-501.819 142.119,-488.344 139.435,-476 134.089,-451.415 131.905,-422.306 131.022,-404.243"/>
</g>
<!-- 30&#45;&gt;31 -->
<g id="edge69" class="edge"><title>30&#45;&gt;31</title>
<path fill="none" stroke="grey" d="M184.07,-440.411C188.469,-429.414 194.224,-415.027 198.652,-403.956"/>
</g>
<!-- 30&#45;&gt;32 -->
<g id="edge70" class="edge"><title>30&#45;&gt;32</title>
<path fill="none" stroke="grey" d="M166.77,-441.116C159.078,-429.66 148.74,-414.263 141.058,-402.821"/>
</g>
<!-- 38 -->
<g id="node38" class="node"><title>38</title>
<ellipse fill="beige" stroke="beige" cx="167.435" cy="-242" rx="28.3955" ry="18"/>
<text text-anchor="middle" x="167.435" y="-238.3" font-family="Times,serif" font-size="14.00">38: 6</text>
</g>
<!-- 30&#45;&gt;38 -->
<g id="edge71" class="edge"><title>30&#45;&gt;38</title>
<path fill="none" stroke="grey" d="M154.053,-447.346C135.19,-438.516 109.135,-423.812 92.4347,-404 77.2744,-386.015 76.9639,-378.082 72.4347,-355 67.3856,-329.268 59.1569,-318.612 72.4347,-296 76.5947,-288.916 118.987,-266.977 145.718,-253.649"/>
</g>
<!-- 30&#45;&gt;41 -->
<g id="edge72" class="edge"><title>30&#45;&gt;41</title>
<path fill="none" stroke="grey" d="M198.134,-445.661C212.919,-436.432 231.975,-422.004 242.435,-404 284.052,-332.363 284.274,-228.708 282.516,-188.166"/>
</g>
<!-- 31&#45;&gt;41 -->
<g id="edge73" class="edge"><title>31&#45;&gt;41</title>
<path fill="none" stroke="grey" d="M208.261,-367.998C213.616,-338.016 226.692,-274.171 248.435,-224 254.21,-210.673 262.981,-196.777 270.029,-186.558"/>
</g>
<!-- 36 -->
<g id="node36" class="node"><title>36</title>
<ellipse fill="beige" stroke="beige" cx="110.435" cy="-314" rx="28.3955" ry="18"/>
<text text-anchor="middle" x="110.435" y="-310.3" font-family="Times,serif" font-size="14.00">36: 6</text>
</g>
<!-- 32&#45;&gt;36 -->
<g id="edge74" class="edge"><title>32&#45;&gt;36</title>
<path fill="none" stroke="grey" d="M125.593,-368.055C122.449,-357.049 118.367,-342.764 115.232,-331.789"/>
</g>
<!-- 32&#45;&gt;38 -->
<g id="edge75" class="edge"><title>32&#45;&gt;38</title>
<path fill="none" stroke="grey" d="M140.835,-368.976C143.312,-364.586 145.729,-359.73 147.435,-355 159.095,-322.67 164.144,-282.547 166.182,-260.161"/>
</g>
<!-- 34 -->
<g id="node34" class="node"><title>34</title>
<ellipse fill="blue" stroke="blue" cx="708.435" cy="-602" rx="28.3955" ry="18"/>
<text text-anchor="middle" x="708.435" y="-598.3" font-family="Times,serif" font-size="14.00" fill="white">34: 1</text>
</g>
<!-- 33&#45;&gt;34 -->
<g id="edge76" class="edge"><title>33&#45;&gt;34</title>
<path fill="none" stroke="grey" d="M715.21,-655.697C713.815,-644.846 712.024,-630.917 710.634,-620.104"/>
</g>
<!-- 33&#45;&gt;35 -->
<g id="edge77" class="edge"><title>33&#45;&gt;35</title>
<path fill="none" stroke="grey" d="M734.226,-659.346C738.739,-654.687 743.031,-649.098 745.435,-643 755.051,-618.604 757.493,-607.286 745.435,-584 734.657,-563.187 711.528,-548.801 693.785,-540.324"/>
</g>
<!-- 34&#45;&gt;35 -->
<g id="edge78" class="edge"><title>34&#45;&gt;35</title>
<path fill="none" stroke="grey" d="M699.621,-584.765C693.482,-573.456 685.329,-558.437 679.2,-547.147"/>
</g>
<!-- 37 -->
<g id="node37" class="node"><title>37</title>
<ellipse fill="beige" stroke="beige" cx="92.4347" cy="-242" rx="28.3955" ry="18"/>
<text text-anchor="middle" x="92.4347" y="-238.3" font-family="Times,serif" font-size="14.00">37: 2</text>
</g>
<!-- 36&#45;&gt;37 -->
<g id="edge79" class="edge"><title>36&#45;&gt;37</title>
<path fill="none" stroke="grey" d="M106.077,-296.055C103.289,-285.211 99.6818,-271.183 96.8769,-260.275"/>
</g>
<!-- 36&#45;&gt;38 -->
<g id="edge80" class="edge"><title>36&#45;&gt;38</title>
<path fill="none" stroke="grey" d="M123.085,-297.465C132.531,-285.865 145.383,-270.082 154.82,-258.492"/>
</g>
<!-- 39 -->
<g id="node39" class="node"><title>39</title>
<ellipse fill="beige" stroke="beige" cx="72.4347" cy="-170" rx="28.3955" ry="18"/>
<text text-anchor="middle" x="72.4347" y="-166.3" font-family="Times,serif" font-size="14.00">39: 2</text>
</g>
<!-- 36&#45;&gt;39 -->
<g id="edge81" class="edge"><title>36&#45;&gt;39</title>
<path fill="none" stroke="grey" d="M90.9245,-300.819C77.8973,-291.451 61.8439,-277.214 54.4347,-260 44.0887,-235.963 54.7287,-205.677 63.4886,-187.353"/>
</g>
<!-- 40 -->
<g id="node40" class="node"><title>40</title>
<ellipse fill="beige" stroke="beige" cx="62.4347" cy="-98" rx="28.3955" ry="18"/>
<text text-anchor="middle" x="62.4347" y="-94.3" font-family="Times,serif" font-size="14.00">40: 2</text>
</g>
<!-- 36&#45;&gt;40 -->
<g id="edge82" class="edge"><title>36&#45;&gt;40</title>
<path fill="none" stroke="grey" d="M90.1338,-301.158C75.8122,-291.768 57.3104,-277.36 46.4347,-260 34.5314,-240.999 37.1207,-233.26 34.4347,-211 31.2934,-184.967 28.1248,-177.452 34.4347,-152 37.7402,-138.667 45.0812,-124.993 51.4173,-114.874"/>
</g>
<!-- 38&#45;&gt;39 -->
<g id="edge83" class="edge"><title>38&#45;&gt;39</title>
<path fill="none" stroke="grey" d="M149.566,-227.834C132.581,-215.319 107.181,-196.603 90.2234,-184.107"/>
</g>
<!-- 38&#45;&gt;41 -->
<g id="edge84" class="edge"><title>38&#45;&gt;41</title>
<path fill="none" stroke="grey" d="M187.032,-228.967C207.913,-216.145 240.783,-195.962 261.712,-183.111"/>
</g>
<!-- 43 -->
<g id="node43" class="node"><title>43</title>
<ellipse fill="beige" stroke="beige" cx="262.435" cy="-26" rx="28.3955" ry="18"/>
<text text-anchor="middle" x="262.435" y="-22.3" font-family="Times,serif" font-size="14.00">43: 2</text>
</g>
<!-- 38&#45;&gt;43 -->
<g id="edge85" class="edge"><title>38&#45;&gt;43</title>
<path fill="none" stroke="grey" d="M145.73,-230.019C140.5,-227.732 134.855,-225.549 129.435,-224 108.947,-218.146 49.2654,-226.3 34.4347,-211 -6.20696,-169.073 -12.0924,-125.556 24.4347,-80 50.5182,-47.4691 177.396,-33.6198 234.493,-28.9641"/>
</g>
<!-- 39&#45;&gt;40 -->
<g id="edge86" class="edge"><title>39&#45;&gt;40</title>
<path fill="none" stroke="grey" d="M70.014,-152.055C68.4649,-141.211 66.4608,-127.183 64.9026,-116.275"/>
</g>
<!-- 41&#45;&gt;42 -->
<g id="edge87" class="edge"><title>41&#45;&gt;42</title>
<path fill="none" stroke="grey" d="M288.307,-152.411C292.93,-141.252 298.999,-126.604 303.611,-115.47"/>
</g>
<!-- 41&#45;&gt;43 -->
<g id="edge88" class="edge"><title>41&#45;&gt;43</title>
<path fill="none" stroke="grey" d="M278.271,-151.852C276.423,-141.494 274.128,-128.014 272.435,-116 268.919,-91.0579 265.848,-62.0429 264.067,-44.0979"/>
</g>
<!-- 42&#45;&gt;43 -->
<g id="edge89" class="edge"><title>42&#45;&gt;43</title>
<path fill="none" stroke="grey" d="M299.543,-81.1159C291.687,-69.66 281.129,-54.2627 273.284,-42.8212"/>
</g>
</g>
</svg>
