<?xml version="1.0" encoding="UTF-8" standalone="no"?>
<!DOCTYPE svg PUBLIC "-//W3C//DTD SVG 1.1//EN"
 "http://www.w3.org/Graphics/SVG/1.1/DTD/svg11.dtd">
<!-- Generated by graphviz version 2.36.0 (20140111.2315)
 -->
<!-- Title: G Pages: 1 -->
<svg width="805pt" height="1753pt"
 viewBox="7.20 7.20 797.63 1746.20" xmlns="http://www.w3.org/2000/svg" xmlns:xlink="http://www.w3.org/1999/xlink">
<g id="graph0" class="graph" transform="scale(1 1) rotate(0) translate(11.2 1742.2)">
<title>G</title>
<polygon fill="white" stroke="none" points="-4,4 -4,-1735 786.435,-1735 786.435,4 -4,4"/>
<g id="clust1" class="cluster"><title>cluster1</title>
<polygon fill="sandybrown" stroke="sandybrown" points="536.435,-1592 536.435,-1723 662.435,-1723 662.435,-1592 536.435,-1592"/>
<text text-anchor="middle" x="599.435" y="-1707.8" font-family="Times,serif" font-size="14.00">Super region 1 [3]</text>
</g>
<g id="clust2" class="cluster"><title>cluster2</title>
<polygon fill="sandybrown" stroke="sandybrown" points="606.435,-1160 606.435,-1579 772.435,-1579 772.435,-1160 606.435,-1160"/>
<text text-anchor="middle" x="689.435" y="-1563.8" font-family="Times,serif" font-size="14.00">Super region 2 [6]</text>
</g>
<g id="clust3" class="cluster"><title>cluster3</title>
<polygon fill="sandybrown" stroke="sandybrown" points="445.435,-1088 445.435,-1363 599.435,-1363 599.435,-1088 445.435,-1088"/>
<text text-anchor="middle" x="522.435" y="-1347.8" font-family="Times,serif" font-size="14.00">Super region 3 [3]</text>
</g>
<g id="clust4" class="cluster"><title>cluster4</title>
<polygon fill="sandybrown" stroke="sandybrown" points="540.435,-800 540.435,-1075 694.435,-1075 694.435,-800 540.435,-800"/>
<text text-anchor="middle" x="617.435" y="-1059.8" font-family="Times,serif" font-size="14.00">Super region 4 [4]</text>
</g>
<g id="clust5" class="cluster"><title>cluster5</title>
<polygon fill="sandybrown" stroke="sandybrown" points="366.435,-512 366.435,-859 540.435,-859 540.435,-512 366.435,-512"/>
<text text-anchor="middle" x="453.435" y="-843.8" font-family="Times,serif" font-size="14.00">Super region 5 [4]</text>
</g>
<g id="clust6" class="cluster"><title>cluster6</title>
<polygon fill="sandybrown" stroke="sandybrown" points="101.435,-368 101.435,-643 234.435,-643 234.435,-368 101.435,-368"/>
<text text-anchor="middle" x="167.935" y="-627.8" font-family="Times,serif" font-size="14.00">Super region 6 [3]</text>
</g>
<g id="clust7" class="cluster"><title>cluster7</title>
<polygon fill="sandybrown" stroke="sandybrown" points="658.435,-512 658.435,-715 774.435,-715 774.435,-512 658.435,-512"/>
<text text-anchor="middle" x="716.435" y="-699.8" font-family="Times,serif" font-size="14.00">Super region 7 [3]</text>
</g>
<g id="clust8" class="cluster"><title>cluster8</title>
<polygon fill="sandybrown" stroke="sandybrown" points="23.4347,-80 23.4347,-355 196.435,-355 196.435,-80 23.4347,-80"/>
<text text-anchor="middle" x="109.935" y="-339.8" font-family="Times,serif" font-size="14.00">Super region 8 [2]</text>
</g>
<g id="clust9" class="cluster"><title>cluster9</title>
<polygon fill="sandybrown" stroke="sandybrown" points="228.435,-8 228.435,-211 344.435,-211 344.435,-8 228.435,-8"/>
<text text-anchor="middle" x="286.435" y="-195.8" font-family="Times,serif" font-size="14.00">Super region 9 [2]</text>
</g>
<!-- 1 -->
<g id="node1" class="node"><title>1</title>
<ellipse fill="blue" stroke="blue" cx="599.435" cy="-1682" rx="27" ry="18"/>
<text text-anchor="middle" x="599.435" y="-1678.3" font-family="Times,serif" font-size="14.00" fill="white">1: 1</text>
</g>
<!-- 2 -->
<g id="node2" class="node"><title>2</title>
<ellipse fill="blue" stroke="blue" cx="635.435" cy="-1610" rx="27" ry="18"/>
<text text-anchor="middle" x="635.435" y="-1606.3" font-family="Times,serif" font-size="14.00" fill="white">2: 1</text>
</g>
<!-- 1&#45;&gt;2 -->
<g id="edge1" class="edge"><title>1&#45;&gt;2</title>
<path fill="none" stroke="grey" d="M607.784,-1664.76C613.6,-1653.46 621.324,-1638.44 627.13,-1627.15"/>
</g>
<!-- 3 -->
<g id="node3" class="node"><title>3</title>
<ellipse fill="blue" stroke="blue" cx="563.435" cy="-1610" rx="27" ry="18"/>
<text text-anchor="middle" x="563.435" y="-1606.3" font-family="Times,serif" font-size="14.00" fill="white">3: 1</text>
</g>
<!-- 1&#45;&gt;3 -->
<g id="edge2" class="edge"><title>1&#45;&gt;3</title>
<path fill="none" stroke="grey" d="M591.085,-1664.76C585.269,-1653.46 577.545,-1638.44 571.739,-1627.15"/>
</g>
<!-- 4 -->
<g id="node4" class="node"><title>4</title>
<ellipse fill="blue" stroke="blue" cx="673.435" cy="-1538" rx="27" ry="18"/>
<text text-anchor="middle" x="673.435" y="-1534.3" font-family="Times,serif" font-size="14.00" fill="white">4: 1</text>
</g>
<!-- 1&#45;&gt;4 -->
<g id="edge3" class="edge"><title>1&#45;&gt;4</title>
<path fill="none" stroke="grey" d="M621.755,-1671.37C638.733,-1662.72 660.912,-1648.24 671.435,-1628 683.267,-1605.24 680.595,-1574.57 677.254,-1555.83"/>
</g>
<!-- 6 -->
<g id="node6" class="node"><title>6</title>
<ellipse fill="blue" stroke="blue" cx="679.435" cy="-1394" rx="27" ry="18"/>
<text text-anchor="middle" x="679.435" y="-1390.3" font-family="Times,serif" font-size="14.00" fill="white">6: 1</text>
</g>
<!-- 1&#45;&gt;6 -->
<g id="edge4" class="edge"><title>1&#45;&gt;6</title>
<path fill="none" stroke="grey" d="M622.556,-1672.66C642.936,-1664.24 672.153,-1649.41 690.435,-1628 705.601,-1610.24 702.449,-1601.29 709.435,-1579 727.114,-1522.59 755.056,-1502.61 732.435,-1448 725.463,-1431.17 710.266,-1416.9 697.925,-1407.42"/>
</g>
<!-- 11 -->
<g id="node11" class="node"><title>11</title>
<ellipse fill="blue" stroke="blue" cx="521.435" cy="-1322" rx="28.3955" ry="18"/>
<text text-anchor="middle" x="521.435" y="-1318.3" font-family="Times,serif" font-size="14.00" fill="white">11: 1</text>
</g>
<!-- 1&#45;&gt;11 -->
<g id="edge5" class="edge"><title>1&#45;&gt;11</title>
<path fill="none" stroke="grey" d="M578.122,-1670.78C561.714,-1661.8 539.81,-1647.17 527.435,-1628 505.497,-1594.02 508.435,-1579.45 508.435,-1539 508.435,-1539 508.435,-1539 508.435,-1465 508.435,-1419.7 515.078,-1366.6 518.866,-1340"/>
</g>
<!-- 13 -->
<g id="node13" class="node"><title>13</title>
<ellipse fill="blue" stroke="blue" cx="570.435" cy="-1250" rx="28.3955" ry="18"/>
<text text-anchor="middle" x="570.435" y="-1246.3" font-family="Times,serif" font-size="14.00" fill="white">13: 1</text>
</g>
<!-- 1&#45;&gt;13 -->
<g id="edge6" class="edge"><title>1&#45;&gt;13</title>
<path fill="none" stroke="grey" d="M576.464,-1672.36C556.132,-1663.74 526.766,-1648.79 507.435,-1628 477.519,-1595.83 464.435,-1582.93 464.435,-1539 464.435,-1539 464.435,-1539 464.435,-1393 464.435,-1352.55 460.033,-1336.99 483.435,-1304 498.886,-1282.22 526.379,-1267.69 546.331,-1259.44"/>
</g>
<!-- 2&#45;&gt;4 -->
<g id="edge7" class="edge"><title>2&#45;&gt;4</title>
<path fill="none" stroke="grey" d="M644.248,-1592.76C650.387,-1581.46 658.541,-1566.44 664.669,-1555.15"/>
</g>
<!-- 3&#45;&gt;11 -->
<g id="edge8" class="edge"><title>3&#45;&gt;11</title>
<path fill="none" stroke="grey" d="M560.933,-1591.97C553.463,-1541.1 531.376,-1390.7 523.923,-1339.94"/>
</g>
<!-- 5 -->
<g id="node5" class="node"><title>5</title>
<ellipse fill="blue" stroke="blue" cx="696.435" cy="-1466" rx="27" ry="18"/>
<text text-anchor="middle" x="696.435" y="-1462.3" font-family="Times,serif" font-size="14.00" fill="white">5: 1</text>
</g>
<!-- 4&#45;&gt;5 -->
<g id="edge9" class="edge"><title>4&#45;&gt;5</title>
<path fill="none" stroke="grey" d="M679.002,-1520.05C682.619,-1509.05 687.312,-1494.76 690.918,-1483.79"/>
</g>
<!-- 4&#45;&gt;6 -->
<g id="edge10" class="edge"><title>4&#45;&gt;6</title>
<path fill="none" stroke="grey" d="M667.808,-1520.23C662.538,-1502.3 656.076,-1473.08 660.435,-1448 662.644,-1435.29 667.627,-1421.59 671.935,-1411.31"/>
</g>
<!-- 5&#45;&gt;6 -->
<g id="edge11" class="edge"><title>5&#45;&gt;6</title>
<path fill="none" stroke="grey" d="M692.319,-1448.05C689.686,-1437.21 686.279,-1423.18 683.63,-1412.28"/>
</g>
<!-- 7 -->
<g id="node7" class="node"><title>7</title>
<ellipse fill="blue" stroke="blue" cx="725.435" cy="-1322" rx="27" ry="18"/>
<text text-anchor="middle" x="725.435" y="-1318.3" font-family="Times,serif" font-size="14.00" fill="white">7: 1</text>
</g>
<!-- 5&#45;&gt;7 -->
<g id="edge12" class="edge"><title>5&#45;&gt;7</title>
<path fill="none" stroke="grey" d="M703.436,-1448.59C707.557,-1438.27 712.518,-1424.57 715.435,-1412 721.129,-1387.46 723.621,-1358.34 724.683,-1340.26"/>
</g>
<!-- 9 -->
<g id="node9" class="node"><title>9</title>
<ellipse fill="blue" stroke="blue" cx="724.435" cy="-1250" rx="27" ry="18"/>
<text text-anchor="middle" x="724.435" y="-1246.3" font-family="Times,serif" font-size="14.00" fill="white">9: 1</text>
</g>
<!-- 5&#45;&gt;9 -->
<g id="edge13" class="edge"><title>5&#45;&gt;9</title>
<path fill="none" stroke="grey" d="M709.85,-1450.13C725.759,-1431.4 751.385,-1397.47 761.435,-1363 768.774,-1337.83 769.302,-1329.01 761.435,-1304 756.923,-1289.66 746.997,-1275.81 738.561,-1265.86"/>
</g>
<!-- 6&#45;&gt;7 -->
<g id="edge14" class="edge"><title>6&#45;&gt;7</title>
<path fill="none" stroke="grey" d="M689.873,-1377.12C697.401,-1365.66 707.519,-1350.26 715.038,-1338.82"/>
</g>
<!-- 8 -->
<g id="node8" class="node"><title>8</title>
<ellipse fill="blue" stroke="blue" cx="633.435" cy="-1322" rx="27" ry="18"/>
<text text-anchor="middle" x="633.435" y="-1318.3" font-family="Times,serif" font-size="14.00" fill="white">8: 1</text>
</g>
<!-- 6&#45;&gt;8 -->
<g id="edge15" class="edge"><title>6&#45;&gt;8</title>
<path fill="none" stroke="grey" d="M668.997,-1377.12C661.468,-1365.66 651.35,-1350.26 643.832,-1338.82"/>
</g>
<!-- 6&#45;&gt;9 -->
<g id="edge16" class="edge"><title>6&#45;&gt;9</title>
<path fill="none" stroke="grey" d="M679.015,-1375.73C679.105,-1357.39 680.797,-1327.83 689.435,-1304 694.47,-1290.11 703.824,-1276.24 711.595,-1266.17"/>
</g>
<!-- 6&#45;&gt;13 -->
<g id="edge17" class="edge"><title>6&#45;&gt;13</title>
<path fill="none" stroke="grey" d="M652.885,-1389.86C634.76,-1386.33 611.561,-1378.84 597.435,-1363 573.604,-1336.28 569.899,-1292.17 569.825,-1268.05"/>
</g>
<!-- 7&#45;&gt;9 -->
<g id="edge18" class="edge"><title>7&#45;&gt;9</title>
<path fill="none" stroke="grey" d="M725.188,-1303.7C725.033,-1292.85 724.834,-1278.92 724.679,-1268.1"/>
</g>
<!-- 8&#45;&gt;9 -->
<g id="edge19" class="edge"><title>8&#45;&gt;9</title>
<path fill="none" stroke="grey" d="M650.551,-1307.83C666.82,-1295.32 691.151,-1276.6 707.395,-1264.11"/>
</g>
<!-- 8&#45;&gt;13 -->
<g id="edge20" class="edge"><title>8&#45;&gt;13</title>
<path fill="none" stroke="grey" d="M620.074,-1306.15C609.527,-1294.44 594.865,-1278.14 584.212,-1266.31"/>
</g>
<!-- 14 -->
<g id="node14" class="node"><title>14</title>
<ellipse fill="blue" stroke="blue" cx="569.435" cy="-1178" rx="28.3955" ry="18"/>
<text text-anchor="middle" x="569.435" y="-1174.3" font-family="Times,serif" font-size="14.00" fill="white">14: 1</text>
</g>
<!-- 8&#45;&gt;14 -->
<g id="edge21" class="edge"><title>8&#45;&gt;14</title>
<path fill="none" stroke="grey" d="M630.252,-1303.97C626.412,-1285.59 618.992,-1255.74 607.435,-1232 600.793,-1218.36 590.693,-1204.48 582.574,-1194.34"/>
</g>
<!-- 15 -->
<g id="node15" class="node"><title>15</title>
<ellipse fill="blue" stroke="blue" cx="569.435" cy="-1106" rx="28.3955" ry="18"/>
<text text-anchor="middle" x="569.435" y="-1102.3" font-family="Times,serif" font-size="14.00" fill="white">15: 1</text>
</g>
<!-- 8&#45;&gt;15 -->
<g id="edge22" class="edge"><title>8&#45;&gt;15</title>
<path fill="none" stroke="grey" d="M633.686,-1303.8C633.667,-1285.77 632.833,-1256.68 628.435,-1232 622.565,-1199.06 621.079,-1190.09 606.435,-1160 599.853,-1146.48 590.024,-1132.59 582.151,-1122.43"/>
</g>
<!-- 10 -->
<g id="node10" class="node"><title>10</title>
<ellipse fill="blue" stroke="blue" cx="724.435" cy="-1178" rx="28.3955" ry="18"/>
<text text-anchor="middle" x="724.435" y="-1174.3" font-family="Times,serif" font-size="14.00" fill="white">10: 1</text>
</g>
<!-- 9&#45;&gt;10 -->
<g id="edge23" class="edge"><title>9&#45;&gt;10</title>
<path fill="none" stroke="grey" d="M724.435,-1231.7C724.435,-1220.85 724.435,-1206.92 724.435,-1196.1"/>
</g>
<!-- 12 -->
<g id="node12" class="node"><title>12</title>
<ellipse fill="blue" stroke="blue" cx="474.435" cy="-1250" rx="28.3955" ry="18"/>
<text text-anchor="middle" x="474.435" y="-1246.3" font-family="Times,serif" font-size="14.00" fill="white">12: 1</text>
</g>
<!-- 11&#45;&gt;12 -->
<g id="edge24" class="edge"><title>11&#45;&gt;12</title>
<path fill="none" stroke="grey" d="M510.77,-1305.12C503.078,-1293.66 492.74,-1278.26 485.058,-1266.82"/>
</g>
<!-- 11&#45;&gt;13 -->
<g id="edge25" class="edge"><title>11&#45;&gt;13</title>
<path fill="none" stroke="grey" d="M532.554,-1305.12C540.573,-1293.66 551.351,-1278.26 559.36,-1266.82"/>
</g>
<!-- 11&#45;&gt;14 -->
<g id="edge26" class="edge"><title>11&#45;&gt;14</title>
<path fill="none" stroke="grey" d="M521.137,-1303.68C521.373,-1285.3 523.347,-1255.69 532.435,-1232 537.819,-1217.96 547.704,-1204.1 555.903,-1194.07"/>
</g>
<!-- 12&#45;&gt;14 -->
<g id="edge27" class="edge"><title>12&#45;&gt;14</title>
<path fill="none" stroke="grey" d="M492.303,-1235.83C509.288,-1223.32 534.688,-1204.6 551.646,-1192.11"/>
</g>
<!-- 12&#45;&gt;15 -->
<g id="edge28" class="edge"><title>12&#45;&gt;15</title>
<path fill="none" stroke="grey" d="M484.278,-1233.08C495.449,-1215.15 514.341,-1185.21 531.435,-1160 540.076,-1147.26 550.261,-1133.09 557.91,-1122.62"/>
</g>
<!-- 13&#45;&gt;14 -->
<g id="edge29" class="edge"><title>13&#45;&gt;14</title>
<path fill="none" stroke="grey" d="M570.188,-1231.7C570.033,-1220.85 569.834,-1206.92 569.679,-1196.1"/>
</g>
<!-- 14&#45;&gt;15 -->
<g id="edge30" class="edge"><title>14&#45;&gt;15</title>
<path fill="none" stroke="grey" d="M569.435,-1159.7C569.435,-1148.85 569.435,-1134.92 569.435,-1124.1"/>
</g>
<!-- 17 -->
<g id="node17" class="node"><title>17</title>
<ellipse fill="blue" stroke="blue" cx="569.435" cy="-1034" rx="28.3955" ry="18"/>
<text text-anchor="middle" x="569.435" y="-1030.3" font-family="Times,serif" font-size="14.00" fill="white">17: 1</text>
</g>
<!-- 15&#45;&gt;17 -->
<g id="edge31" class="edge"><title>15&#45;&gt;17</title>
<path fill="none" stroke="grey" d="M569.435,-1087.7C569.435,-1076.85 569.435,-1062.92 569.435,-1052.1"/>
</g>
<!-- 16 -->
<g id="node16" class="node"><title>16</title>
<ellipse fill="blue" stroke="blue" cx="644.435" cy="-1034" rx="28.3955" ry="18"/>
<text text-anchor="middle" x="644.435" y="-1030.3" font-family="Times,serif" font-size="14.00" fill="white">16: 1</text>
</g>
<!-- 18 -->
<g id="node18" class="node"><title>18</title>
<ellipse fill="blue" stroke="blue" cx="617.435" cy="-962" rx="33.2209" ry="18"/>
<text text-anchor="middle" x="617.435" y="-958.3" font-family="Times,serif" font-size="14.00" fill="white">18: 14</text>
</g>
<!-- 16&#45;&gt;18 -->
<g id="edge32" class="edge"><title>16&#45;&gt;18</title>
<path fill="none" stroke="grey" d="M638.036,-1016.41C633.794,-1005.41 628.245,-991.027 623.975,-979.956"/>
</g>
<!-- 17&#45;&gt;18 -->
<g id="edge33" class="edge"><title>17&#45;&gt;18</title>
<path fill="none" stroke="grey" d="M580.327,-1017.12C588.071,-1005.82 598.443,-990.696 606.253,-979.307"/>
</g>
<!-- 23 -->
<g id="node23" class="node"><title>23</title>
<ellipse fill="blue" stroke="blue" cx="463.435" cy="-746" rx="28.3955" ry="18"/>
<text text-anchor="middle" x="463.435" y="-742.3" font-family="Times,serif" font-size="14.00" fill="white">23: 1</text>
</g>
<!-- 17&#45;&gt;23 -->
<g id="edge34" class="edge"><title>17&#45;&gt;23</title>
<path fill="none" stroke="grey" d="M557.914,-1017.19C537.145,-987.761 493.788,-921.824 474.435,-859 464.426,-826.51 462.941,-786.445 463.017,-764.112"/>
</g>
<!-- 19 -->
<g id="node19" class="node"><title>19</title>
<ellipse fill="blue" stroke="blue" cx="569.435" cy="-890" rx="28.3955" ry="18"/>
<text text-anchor="middle" x="569.435" y="-886.3" font-family="Times,serif" font-size="14.00" fill="white">19: 1</text>
</g>
<!-- 18&#45;&gt;19 -->
<g id="edge35" class="edge"><title>18&#45;&gt;19</title>
<path fill="none" stroke="grey" d="M606.302,-944.765C598.437,-933.294 587.954,-918.007 580.177,-906.666"/>
</g>
<!-- 20 -->
<g id="node20" class="node"><title>20</title>
<ellipse fill="blue" stroke="blue" cx="665.435" cy="-890" rx="28.3955" ry="18"/>
<text text-anchor="middle" x="665.435" y="-886.3" font-family="Times,serif" font-size="14.00" fill="white">20: 1</text>
</g>
<!-- 18&#45;&gt;20 -->
<g id="edge36" class="edge"><title>18&#45;&gt;20</title>
<path fill="none" stroke="grey" d="M628.568,-944.765C636.433,-933.294 646.916,-918.007 654.692,-906.666"/>
</g>
<!-- 21 -->
<g id="node21" class="node"><title>21</title>
<ellipse fill="blue" stroke="blue" cx="593.435" cy="-818" rx="28.3955" ry="18"/>
<text text-anchor="middle" x="593.435" y="-814.3" font-family="Times,serif" font-size="14.00" fill="white">21: 1</text>
</g>
<!-- 18&#45;&gt;21 -->
<g id="edge37" class="edge"><title>18&#45;&gt;21</title>
<path fill="none" stroke="grey" d="M615.919,-943.847C614.188,-925.857 610.994,-896.806 606.435,-872 604.208,-859.886 600.891,-846.408 598.164,-836.076"/>
</g>
<!-- 18&#45;&gt;23 -->
<g id="edge38" class="edge"><title>18&#45;&gt;23</title>
<path fill="none" stroke="grey" d="M591.898,-950.449C573.034,-941.541 547.879,-927.168 531.435,-908 493.502,-863.784 474.218,-795.33 466.947,-763.866"/>
</g>
<!-- 33 -->
<g id="node33" class="node"><title>33</title>
<ellipse fill="blue" stroke="blue" cx="721.435" cy="-674" rx="28.3955" ry="18"/>
<text text-anchor="middle" x="721.435" y="-670.3" font-family="Times,serif" font-size="14.00" fill="white">33: 1</text>
</g>
<!-- 18&#45;&gt;33 -->
<g id="edge39" class="edge"><title>18&#45;&gt;33</title>
<path fill="none" stroke="grey" d="M644.934,-951.55C664.488,-943.285 689.493,-929.236 702.435,-908 745.204,-837.819 732.199,-732.877 724.896,-692.08"/>
</g>
<!-- 19&#45;&gt;21 -->
<g id="edge40" class="edge"><title>19&#45;&gt;21</title>
<path fill="none" stroke="grey" d="M575.244,-872.055C579.018,-861.049 583.916,-846.764 587.678,-835.789"/>
</g>
<!-- 19&#45;&gt;23 -->
<g id="edge41" class="edge"><title>19&#45;&gt;23</title>
<path fill="none" stroke="grey" d="M560.159,-872.671C549.497,-854.368 531.059,-824.101 512.435,-800 501.86,-786.316 488.448,-771.984 478.33,-761.679"/>
</g>
<!-- 20&#45;&gt;21 -->
<g id="edge42" class="edge"><title>20&#45;&gt;21</title>
<path fill="none" stroke="grey" d="M650.516,-874.496C638.159,-862.482 620.686,-845.494 608.334,-833.485"/>
</g>
<!-- 20&#45;&gt;33 -->
<g id="edge43" class="edge"><title>20&#45;&gt;33</title>
<path fill="none" stroke="grey" d="M669.829,-872.208C680.272,-832.302 706.484,-732.134 716.983,-692.01"/>
</g>
<!-- 35 -->
<g id="node35" class="node"><title>35</title>
<ellipse fill="blue" stroke="blue" cx="687.435" cy="-530" rx="28.3955" ry="18"/>
<text text-anchor="middle" x="687.435" y="-526.3" font-family="Times,serif" font-size="14.00" fill="white">35: 1</text>
</g>
<!-- 20&#45;&gt;35 -->
<g id="edge44" class="edge"><title>20&#45;&gt;35</title>
<path fill="none" stroke="grey" d="M662.471,-872.012C658.1,-845.435 650.435,-792.366 650.435,-747 650.435,-747 650.435,-747 650.435,-673 650.435,-626.379 669.342,-573.849 680.125,-547.682"/>
</g>
<!-- 21&#45;&gt;23 -->
<g id="edge45" class="edge"><title>21&#45;&gt;23</title>
<path fill="none" stroke="grey" d="M572.548,-805.753C548.289,-792.691 508.507,-771.27 484.27,-758.219"/>
</g>
<!-- 26 -->
<g id="node26" class="node"><title>26</title>
<ellipse fill="blue" stroke="blue" cx="511.435" cy="-602" rx="28.3955" ry="18"/>
<text text-anchor="middle" x="511.435" y="-598.3" font-family="Times,serif" font-size="14.00" fill="white">26: 1</text>
</g>
<!-- 21&#45;&gt;26 -->
<g id="edge46" class="edge"><title>21&#45;&gt;26</title>
<path fill="none" stroke="grey" d="M587,-800.208C571.672,-760.204 533.138,-659.639 517.839,-619.714"/>
</g>
<!-- 21&#45;&gt;35 -->
<g id="edge47" class="edge"><title>21&#45;&gt;35</title>
<path fill="none" stroke="grey" d="M593.304,-799.842C593.675,-759.748 598.577,-657.735 636.435,-584 644.483,-568.324 658.675,-554.147 670.047,-544.409"/>
</g>
<!-- 22 -->
<g id="node22" class="node"><title>22</title>
<ellipse fill="blue" stroke="blue" cx="399.435" cy="-818" rx="33.2209" ry="18"/>
<text text-anchor="middle" x="399.435" y="-814.3" font-family="Times,serif" font-size="14.00" fill="white">22: 57</text>
</g>
<!-- 22&#45;&gt;23 -->
<g id="edge48" class="edge"><title>22&#45;&gt;23</title>
<path fill="none" stroke="grey" d="M413.638,-801.465C424.392,-789.703 439.076,-773.642 449.71,-762.011"/>
</g>
<!-- 24 -->
<g id="node24" class="node"><title>24</title>
<ellipse fill="red" stroke="red" cx="395.435" cy="-674" rx="28.3955" ry="18"/>
<text text-anchor="middle" x="395.435" y="-670.3" font-family="Times,serif" font-size="14.00">24: 6</text>
</g>
<!-- 22&#45;&gt;24 -->
<g id="edge49" class="edge"><title>22&#45;&gt;24</title>
<path fill="none" stroke="grey" d="M398.952,-799.871C398.183,-772.578 396.689,-719.52 395.919,-692.189"/>
</g>
<!-- 23&#45;&gt;24 -->
<g id="edge50" class="edge"><title>23&#45;&gt;24</title>
<path fill="none" stroke="grey" d="M449.014,-730.155C437.474,-718.276 421.369,-701.697 409.835,-689.824"/>
</g>
<!-- 25 -->
<g id="node25" class="node"><title>25</title>
<ellipse fill="red" stroke="red" cx="415.435" cy="-602" rx="28.3955" ry="18"/>
<text text-anchor="middle" x="415.435" y="-598.3" font-family="Times,serif" font-size="14.00">25: 1</text>
</g>
<!-- 23&#45;&gt;25 -->
<g id="edge51" class="edge"><title>23&#45;&gt;25</title>
<path fill="none" stroke="grey" d="M457.74,-728.153C448.502,-700.824 430.355,-647.14 421.122,-619.825"/>
</g>
<!-- 23&#45;&gt;26 -->
<g id="edge52" class="edge"><title>23&#45;&gt;26</title>
<path fill="none" stroke="grey" d="M469.129,-728.153C478.367,-700.824 496.514,-647.14 505.747,-619.825"/>
</g>
<!-- 27 -->
<g id="node27" class="node"><title>27</title>
<ellipse fill="blue" stroke="blue" cx="415.435" cy="-530" rx="33.2209" ry="18"/>
<text text-anchor="middle" x="415.435" y="-526.3" font-family="Times,serif" font-size="14.00" fill="white">27: 10</text>
</g>
<!-- 23&#45;&gt;27 -->
<g id="edge53" class="edge"><title>23&#45;&gt;27</title>
<path fill="none" stroke="grey" d="M465.185,-727.951C467.643,-697.895 470.035,-633.941 452.435,-584 447.511,-570.029 437.828,-556.375 429.602,-546.425"/>
</g>
<!-- 24&#45;&gt;25 -->
<g id="edge54" class="edge"><title>24&#45;&gt;25</title>
<path fill="none" stroke="grey" d="M400.276,-656.055C403.421,-645.049 407.502,-630.764 410.638,-619.789"/>
</g>
<!-- 24&#45;&gt;27 -->
<g id="edge55" class="edge"><title>24&#45;&gt;27</title>
<path fill="none" stroke="grey" d="M383.821,-657.229C381.203,-652.837 378.797,-647.917 377.435,-643 370.435,-617.729 369.41,-608.964 377.435,-584 382.008,-569.772 391.968,-556.125 400.544,-546.244"/>
</g>
<!-- 28 -->
<g id="node28" class="node"><title>28</title>
<ellipse fill="red" stroke="red" cx="205.435" cy="-602" rx="28.3955" ry="18"/>
<text text-anchor="middle" x="205.435" y="-598.3" font-family="Times,serif" font-size="14.00">28: 6</text>
</g>
<!-- 24&#45;&gt;28 -->
<g id="edge56" class="edge"><title>24&#45;&gt;28</title>
<path fill="none" stroke="grey" d="M371.371,-664.134C334.824,-650.67 265.734,-625.215 229.303,-611.794"/>
</g>
<!-- 41 -->
<g id="node41" class="node"><title>41</title>
<ellipse fill="beige" stroke="beige" cx="281.435" cy="-170" rx="28.3955" ry="18"/>
<text text-anchor="middle" x="281.435" y="-166.3" font-family="Times,serif" font-size="14.00">41: 2</text>
</g>
<!-- 24&#45;&gt;41 -->
<g id="edge57" class="edge"><title>24&#45;&gt;41</title>
<path fill="none" stroke="grey" d="M380.176,-658.814C375.862,-654.134 371.51,-648.666 368.435,-643 343.852,-597.709 338.435,-582.533 338.435,-531 338.435,-531 338.435,-531 338.435,-313 338.435,-264.121 308.988,-212.148 292.425,-186.78"/>
</g>
<!-- 25&#45;&gt;27 -->
<g id="edge58" class="edge"><title>25&#45;&gt;27</title>
<path fill="none" stroke="grey" d="M415.435,-583.697C415.435,-572.846 415.435,-558.917 415.435,-548.104"/>
</g>
<!-- 26&#45;&gt;27 -->
<g id="edge59" class="edge"><title>26&#45;&gt;27</title>
<path fill="none" stroke="grey" d="M493.378,-587.834C476.54,-575.556 451.519,-557.311 434.396,-544.826"/>
</g>
<!-- 26&#45;&gt;35 -->
<g id="edge60" class="edge"><title>26&#45;&gt;35</title>
<path fill="none" stroke="grey" d="M534.806,-591.705C568.469,-578.316 630.25,-553.744 663.967,-540.334"/>
</g>
<!-- 27&#45;&gt;41 -->
<g id="edge61" class="edge"><title>27&#45;&gt;41</title>
<path fill="none" stroke="grey" d="M407.927,-512.338C396.853,-486.197 377.435,-433.702 377.435,-387 377.435,-387 377.435,-387 377.435,-313 377.435,-271.914 375.691,-257.871 352.435,-224 339.81,-205.613 318.709,-191.052 302.783,-181.881"/>
</g>
<!-- 42 -->
<g id="node42" class="node"><title>42</title>
<ellipse fill="beige" stroke="beige" cx="310.435" cy="-98" rx="28.3955" ry="18"/>
<text text-anchor="middle" x="310.435" y="-94.3" font-family="Times,serif" font-size="14.00">42: 6</text>
</g>
<!-- 27&#45;&gt;42 -->
<g id="edge62" class="edge"><title>27&#45;&gt;42</title>
<path fill="none" stroke="grey" d="M415.435,-511.951C415.435,-485.292 415.435,-432.115 415.435,-387 415.435,-387 415.435,-387 415.435,-241 415.435,-183.665 359.408,-134.324 329.207,-111.891"/>
</g>
<!-- 29 -->
<g id="node29" class="node"><title>29</title>
<ellipse fill="beige" stroke="beige" cx="157.435" cy="-530" rx="28.3955" ry="18"/>
<text text-anchor="middle" x="157.435" y="-526.3" font-family="Times,serif" font-size="14.00">29: 2</text>
</g>
<!-- 28&#45;&gt;29 -->
<g id="edge63" class="edge"><title>28&#45;&gt;29</title>
<path fill="none" stroke="grey" d="M194.543,-585.116C186.687,-573.66 176.129,-558.263 168.284,-546.821"/>
</g>
<!-- 30 -->
<g id="node30" class="node"><title>30</title>
<ellipse fill="beige" stroke="beige" cx="178.435" cy="-458" rx="28.3955" ry="18"/>
<text text-anchor="middle" x="178.435" y="-454.3" font-family="Times,serif" font-size="14.00">30: 2</text>
</g>
<!-- 28&#45;&gt;30 -->
<g id="edge64" class="edge"><title>28&#45;&gt;30</title>
<path fill="none" stroke="grey" d="M204.182,-583.795C202.666,-565.763 199.645,-536.678 194.435,-512 191.853,-499.775 187.768,-486.298 184.371,-475.994"/>
</g>
<!-- 31 -->
<g id="node31" class="node"><title>31</title>
<ellipse fill="beige" stroke="beige" cx="205.435" cy="-386" rx="28.3955" ry="18"/>
<text text-anchor="middle" x="205.435" y="-382.3" font-family="Times,serif" font-size="14.00">31: 1</text>
</g>
<!-- 28&#45;&gt;31 -->
<g id="edge65" class="edge"><title>28&#45;&gt;31</title>
<path fill="none" stroke="grey" d="M208.214,-584.052C212.646,-554.677 220.337,-492.421 215.435,-440 214.301,-427.88 211.74,-414.402 209.494,-404.071"/>
</g>
<!-- 28&#45;&gt;41 -->
<g id="edge66" class="edge"><title>28&#45;&gt;41</title>
<path fill="none" stroke="grey" d="M222.859,-587.33C250.285,-564.132 300.435,-514.17 300.435,-459 300.435,-459 300.435,-459 300.435,-313 300.435,-267.483 290.726,-214.479 285.188,-187.951"/>
</g>
<!-- 29&#45;&gt;30 -->
<g id="edge67" class="edge"><title>29&#45;&gt;30</title>
<path fill="none" stroke="grey" d="M162.518,-512.055C165.82,-501.049 170.106,-486.764 173.398,-475.789"/>
</g>
<!-- 32 -->
<g id="node32" class="node"><title>32</title>
<ellipse fill="beige" stroke="beige" cx="130.435" cy="-386" rx="28.3955" ry="18"/>
<text text-anchor="middle" x="130.435" y="-382.3" font-family="Times,serif" font-size="14.00">32: 2</text>
</g>
<!-- 29&#45;&gt;32 -->
<g id="edge68" class="edge"><title>29&#45;&gt;32</title>
<path fill="none" stroke="grey" d="M151.047,-512.048C147.41,-501.758 143.067,-488.283 140.435,-476 135.156,-451.371 132.553,-422.273 131.354,-404.224"/>
</g>
<!-- 30&#45;&gt;31 -->
<g id="edge69" class="edge"><title>30&#45;&gt;31</title>
<path fill="none" stroke="grey" d="M184.833,-440.411C189.075,-429.414 194.624,-415.027 198.894,-403.956"/>
</g>
<!-- 30&#45;&gt;32 -->
<g id="edge70" class="edge"><title>30&#45;&gt;32</title>
<path fill="none" stroke="grey" d="M167.543,-441.116C159.687,-429.66 149.129,-414.263 141.284,-402.821"/>
</g>
<!-- 38 -->
<g id="node38" class="node"><title>38</title>
<ellipse fill="beige" stroke="beige" cx="167.435" cy="-242" rx="28.3955" ry="18"/>
<text text-anchor="middle" x="167.435" y="-238.3" font-family="Times,serif" font-size="14.00">38: 6</text>
</g>
<!-- 30&#45;&gt;38 -->
<g id="edge71" class="edge"><title>30&#45;&gt;38</title>
<path fill="none" stroke="grey" d="M155.159,-447.588C136.045,-438.816 109.443,-424.07 92.4347,-404 77.2274,-386.055 76.9639,-378.082 72.4347,-355 67.3856,-329.268 59.1569,-318.612 72.4347,-296 76.5947,-288.916 118.987,-266.977 145.718,-253.649"/>
</g>
<!-- 30&#45;&gt;41 -->
<g id="edge72" class="edge"><title>30&#45;&gt;41</title>
<path fill="none" stroke="grey" d="M199.124,-445.391C213.638,-436.118 232.212,-421.752 242.435,-404 283.78,-332.205 284.159,-228.641 282.48,-188.145"/>
</g>
<!-- 31&#45;&gt;41 -->
<g id="edge73" class="edge"><title>31&#45;&gt;41</title>
<path fill="none" stroke="grey" d="M208.261,-367.998C213.616,-338.016 226.692,-274.171 248.435,-224 254.21,-210.673 262.981,-196.777 270.029,-186.558"/>
</g>
<!-- 36 -->
<g id="node36" class="node"><title>36</title>
<ellipse fill="beige" stroke="beige" cx="110.435" cy="-314" rx="28.3955" ry="18"/>
<text text-anchor="middle" x="110.435" y="-310.3" font-family="Times,serif" font-size="14.00">36: 6</text>
</g>
<!-- 32&#45;&gt;36 -->
<g id="edge74" class="edge"><title>32&#45;&gt;36</title>
<path fill="none" stroke="grey" d="M125.593,-368.055C122.449,-357.049 118.367,-342.764 115.232,-331.789"/>
</g>
<!-- 32&#45;&gt;38 -->
<g id="edge75" class="edge"><title>32&#45;&gt;38</title>
<path fill="none" stroke="grey" d="M140.835,-368.976C143.312,-364.586 145.729,-359.73 147.435,-355 159.095,-322.67 164.144,-282.547 166.182,-260.161"/>
</g>
<!-- 34 -->
<g id="node34" class="node"><title>34</title>
<ellipse fill="blue" stroke="blue" cx="716.435" cy="-602" rx="37.5442" ry="18"/>
<text text-anchor="middle" x="716.435" y="-598.3" font-family="Times,serif" font-size="14.00" fill="white">34: 107</text>
</g>
<!-- 33&#45;&gt;34 -->
<g id="edge76" class="edge"><title>33&#45;&gt;34</title>
<path fill="none" stroke="grey" d="M720.199,-655.697C719.424,-644.846 718.429,-630.917 717.656,-620.104"/>
</g>
<!-- 33&#45;&gt;35 -->
<g id="edge77" class="edge"><title>33&#45;&gt;35</title>
<path fill="none" stroke="grey" d="M743.243,-662.482C750.739,-657.665 758.284,-651.18 762.435,-643 774.3,-619.616 774.493,-607.286 762.435,-584 751.657,-563.187 728.528,-548.801 710.785,-540.324"/>
</g>
<!-- 34&#45;&gt;35 -->
<g id="edge78" class="edge"><title>34&#45;&gt;35</title>
<path fill="none" stroke="grey" d="M709.415,-584.055C704.855,-573.049 698.937,-558.764 694.39,-547.789"/>
</g>
<!-- 37 -->
<g id="node37" class="node"><title>37</title>
<ellipse fill="beige" stroke="beige" cx="92.4347" cy="-242" rx="28.3955" ry="18"/>
<text text-anchor="middle" x="92.4347" y="-238.3" font-family="Times,serif" font-size="14.00">37: 2</text>
</g>
<!-- 36&#45;&gt;37 -->
<g id="edge79" class="edge"><title>36&#45;&gt;37</title>
<path fill="none" stroke="grey" d="M106.077,-296.055C103.289,-285.211 99.6818,-271.183 96.8769,-260.275"/>
</g>
<!-- 36&#45;&gt;38 -->
<g id="edge80" class="edge"><title>36&#45;&gt;38</title>
<path fill="none" stroke="grey" d="M123.085,-297.465C132.531,-285.865 145.383,-270.082 154.82,-258.492"/>
</g>
<!-- 39 -->
<g id="node39" class="node"><title>39</title>
<ellipse fill="beige" stroke="beige" cx="72.4347" cy="-170" rx="28.3955" ry="18"/>
<text text-anchor="middle" x="72.4347" y="-166.3" font-family="Times,serif" font-size="14.00">39: 2</text>
</g>
<!-- 36&#45;&gt;39 -->
<g id="edge81" class="edge"><title>36&#45;&gt;39</title>
<path fill="none" stroke="grey" d="M90.9245,-300.819C77.8973,-291.451 61.8439,-277.214 54.4347,-260 44.0887,-235.963 54.7287,-205.677 63.4886,-187.353"/>
</g>
<!-- 40 -->
<g id="node40" class="node"><title>40</title>
<ellipse fill="beige" stroke="beige" cx="62.4347" cy="-98" rx="28.3955" ry="18"/>
<text text-anchor="middle" x="62.4347" y="-94.3" font-family="Times,serif" font-size="14.00">40: 2</text>
</g>
<!-- 36&#45;&gt;40 -->
<g id="edge82" class="edge"><title>36&#45;&gt;40</title>
<path fill="none" stroke="grey" d="M90.1338,-301.158C75.8122,-291.768 57.3104,-277.36 46.4347,-260 34.5314,-240.999 37.1207,-233.26 34.4347,-211 31.2934,-184.967 28.1248,-177.452 34.4347,-152 37.7402,-138.667 45.0812,-124.993 51.4173,-114.874"/>
</g>
<!-- 38&#45;&gt;39 -->
<g id="edge83" class="edge"><title>38&#45;&gt;39</title>
<path fill="none" stroke="grey" d="M149.566,-227.834C132.581,-215.319 107.181,-196.603 90.2234,-184.107"/>
</g>
<!-- 38&#45;&gt;41 -->
<g id="edge84" class="edge"><title>38&#45;&gt;41</title>
<path fill="none" stroke="grey" d="M187.032,-228.967C207.913,-216.145 240.783,-195.962 261.712,-183.111"/>
</g>
<!-- 43 -->
<g id="node43" class="node"><title>43</title>
<ellipse fill="beige" stroke="beige" cx="262.435" cy="-26" rx="28.3955" ry="18"/>
<text text-anchor="middle" x="262.435" y="-22.3" font-family="Times,serif" font-size="14.00">43: 2</text>
</g>
<!-- 38&#45;&gt;43 -->
<g id="edge85" class="edge"><title>38&#45;&gt;43</title>
<path fill="none" stroke="grey" d="M145.73,-230.019C140.5,-227.732 134.855,-225.549 129.435,-224 108.947,-218.146 49.2654,-226.3 34.4347,-211 -6.20696,-169.073 -12.0924,-125.556 24.4347,-80 50.5182,-47.4691 177.396,-33.6198 234.493,-28.9641"/>
</g>
<!-- 39&#45;&gt;40 -->
<g id="edge86" class="edge"><title>39&#45;&gt;40</title>
<path fill="none" stroke="grey" d="M70.014,-152.055C68.4649,-141.211 66.4608,-127.183 64.9026,-116.275"/>
</g>
<!-- 41&#45;&gt;42 -->
<g id="edge87" class="edge"><title>41&#45;&gt;42</title>
<path fill="none" stroke="grey" d="M288.307,-152.411C292.93,-141.252 298.999,-126.604 303.611,-115.47"/>
</g>
<!-- 41&#45;&gt;43 -->
<g id="edge88" class="edge"><title>41&#45;&gt;43</title>
<path fill="none" stroke="grey" d="M278.271,-151.852C276.423,-141.494 274.128,-128.014 272.435,-116 268.919,-91.0579 265.848,-62.0429 264.067,-44.0979"/>
</g>
<!-- 42&#45;&gt;43 -->
<g id="edge89" class="edge"><title>42&#45;&gt;43</title>
<path fill="none" stroke="grey" d="M299.543,-81.1159C291.687,-69.66 281.129,-54.2627 273.284,-42.8212"/>
</g>
</g>
</svg>
