<?xml version="1.0" encoding="UTF-8" standalone="no"?>
<!DOCTYPE svg PUBLIC "-//W3C//DTD SVG 1.1//EN"
 "http://www.w3.org/Graphics/SVG/1.1/DTD/svg11.dtd">
<!-- Generated by graphviz version 2.36.0 (20140111.2315)
 -->
<!-- Title: G Pages: 1 -->
<svg width="844pt" height="1753pt"
 viewBox="7.20 7.20 836.63 1746.20" xmlns="http://www.w3.org/2000/svg" xmlns:xlink="http://www.w3.org/1999/xlink">
<g id="graph0" class="graph" transform="scale(1 1) rotate(0) translate(11.2 1742.2)">
<title>G</title>
<polygon fill="white" stroke="none" points="-4,4 -4,-1735 825.435,-1735 825.435,4 -4,4"/>
<g id="clust1" class="cluster"><title>cluster1</title>
<polygon fill="sandybrown" stroke="sandybrown" points="577.435,-1592 577.435,-1723 703.435,-1723 703.435,-1592 577.435,-1592"/>
<text text-anchor="middle" x="640.435" y="-1707.8" font-family="Times,serif" font-size="14.00">Super region 1 [3]</text>
</g>
<g id="clust2" class="cluster"><title>cluster2</title>
<polygon fill="sandybrown" stroke="sandybrown" points="647.435,-1160 647.435,-1579 813.435,-1579 813.435,-1160 647.435,-1160"/>
<text text-anchor="middle" x="730.435" y="-1563.8" font-family="Times,serif" font-size="14.00">Super region 2 [6]</text>
</g>
<g id="clust3" class="cluster"><title>cluster3</title>
<polygon fill="sandybrown" stroke="sandybrown" points="486.435,-1088 486.435,-1363 640.435,-1363 640.435,-1088 486.435,-1088"/>
<text text-anchor="middle" x="563.435" y="-1347.8" font-family="Times,serif" font-size="14.00">Super region 3 [3]</text>
</g>
<g id="clust4" class="cluster"><title>cluster4</title>
<polygon fill="sandybrown" stroke="sandybrown" points="558.435,-800 558.435,-1075 712.435,-1075 712.435,-800 558.435,-800"/>
<text text-anchor="middle" x="635.435" y="-1059.8" font-family="Times,serif" font-size="14.00">Super region 4 [4]</text>
</g>
<g id="clust5" class="cluster"><title>cluster5</title>
<polygon fill="sandybrown" stroke="sandybrown" points="366.435,-512 366.435,-859 558.435,-859 558.435,-512 366.435,-512"/>
<text text-anchor="middle" x="462.435" y="-843.8" font-family="Times,serif" font-size="14.00">Super region 5 [4]</text>
</g>
<g id="clust6" class="cluster"><title>cluster6</title>
<polygon fill="sandybrown" stroke="sandybrown" points="101.435,-368 101.435,-643 234.435,-643 234.435,-368 101.435,-368"/>
<text text-anchor="middle" x="167.935" y="-627.8" font-family="Times,serif" font-size="14.00">Super region 6 [3]</text>
</g>
<g id="clust7" class="cluster"><title>cluster7</title>
<polygon fill="sandybrown" stroke="sandybrown" points="654.435,-512 654.435,-715 770.435,-715 770.435,-512 654.435,-512"/>
<text text-anchor="middle" x="712.435" y="-699.8" font-family="Times,serif" font-size="14.00">Super region 7 [3]</text>
</g>
<g id="clust8" class="cluster"><title>cluster8</title>
<polygon fill="sandybrown" stroke="sandybrown" points="23.4347,-80 23.4347,-355 196.435,-355 196.435,-80 23.4347,-80"/>
<text text-anchor="middle" x="109.935" y="-339.8" font-family="Times,serif" font-size="14.00">Super region 8 [2]</text>
</g>
<g id="clust9" class="cluster"><title>cluster9</title>
<polygon fill="sandybrown" stroke="sandybrown" points="228.435,-8 228.435,-211 344.435,-211 344.435,-8 228.435,-8"/>
<text text-anchor="middle" x="286.435" y="-195.8" font-family="Times,serif" font-size="14.00">Super region 9 [2]</text>
</g>
<!-- 1 -->
<g id="node1" class="node"><title>1</title>
<ellipse fill="blue" stroke="blue" cx="640.435" cy="-1682" rx="27" ry="18"/>
<text text-anchor="middle" x="640.435" y="-1678.3" font-family="Times,serif" font-size="14.00" fill="white">1: 1</text>
</g>
<!-- 2 -->
<g id="node2" class="node"><title>2</title>
<ellipse fill="blue" stroke="blue" cx="676.435" cy="-1610" rx="27" ry="18"/>
<text text-anchor="middle" x="676.435" y="-1606.3" font-family="Times,serif" font-size="14.00" fill="white">2: 1</text>
</g>
<!-- 1&#45;&gt;2 -->
<g id="edge1" class="edge"><title>1&#45;&gt;2</title>
<path fill="none" stroke="grey" d="M648.784,-1664.76C654.6,-1653.46 662.324,-1638.44 668.13,-1627.15"/>
</g>
<!-- 3 -->
<g id="node3" class="node"><title>3</title>
<ellipse fill="blue" stroke="blue" cx="604.435" cy="-1610" rx="27" ry="18"/>
<text text-anchor="middle" x="604.435" y="-1606.3" font-family="Times,serif" font-size="14.00" fill="white">3: 1</text>
</g>
<!-- 1&#45;&gt;3 -->
<g id="edge2" class="edge"><title>1&#45;&gt;3</title>
<path fill="none" stroke="grey" d="M632.085,-1664.76C626.269,-1653.46 618.545,-1638.44 612.739,-1627.15"/>
</g>
<!-- 4 -->
<g id="node4" class="node"><title>4</title>
<ellipse fill="blue" stroke="blue" cx="714.435" cy="-1538" rx="27" ry="18"/>
<text text-anchor="middle" x="714.435" y="-1534.3" font-family="Times,serif" font-size="14.00" fill="white">4: 1</text>
</g>
<!-- 1&#45;&gt;4 -->
<g id="edge3" class="edge"><title>1&#45;&gt;4</title>
<path fill="none" stroke="grey" d="M662.755,-1671.37C679.733,-1662.72 701.912,-1648.24 712.435,-1628 724.267,-1605.24 721.595,-1574.57 718.254,-1555.83"/>
</g>
<!-- 6 -->
<g id="node6" class="node"><title>6</title>
<ellipse fill="blue" stroke="blue" cx="720.435" cy="-1394" rx="27" ry="18"/>
<text text-anchor="middle" x="720.435" y="-1390.3" font-family="Times,serif" font-size="14.00" fill="white">6: 1</text>
</g>
<!-- 1&#45;&gt;6 -->
<g id="edge4" class="edge"><title>1&#45;&gt;6</title>
<path fill="none" stroke="grey" d="M663.556,-1672.66C683.936,-1664.24 713.153,-1649.41 731.435,-1628 746.601,-1610.24 743.449,-1601.29 750.435,-1579 768.114,-1522.59 796.056,-1502.61 773.435,-1448 766.463,-1431.17 751.266,-1416.9 738.925,-1407.42"/>
</g>
<!-- 11 -->
<g id="node11" class="node"><title>11</title>
<ellipse fill="blue" stroke="blue" cx="562.435" cy="-1322" rx="28.3955" ry="18"/>
<text text-anchor="middle" x="562.435" y="-1318.3" font-family="Times,serif" font-size="14.00" fill="white">11: 1</text>
</g>
<!-- 1&#45;&gt;11 -->
<g id="edge5" class="edge"><title>1&#45;&gt;11</title>
<path fill="none" stroke="grey" d="M619.122,-1670.78C602.714,-1661.8 580.81,-1647.17 568.435,-1628 546.497,-1594.02 549.435,-1579.45 549.435,-1539 549.435,-1539 549.435,-1539 549.435,-1465 549.435,-1419.7 556.078,-1366.6 559.866,-1340"/>
</g>
<!-- 13 -->
<g id="node13" class="node"><title>13</title>
<ellipse fill="blue" stroke="blue" cx="611.435" cy="-1250" rx="28.3955" ry="18"/>
<text text-anchor="middle" x="611.435" y="-1246.3" font-family="Times,serif" font-size="14.00" fill="white">13: 1</text>
</g>
<!-- 1&#45;&gt;13 -->
<g id="edge6" class="edge"><title>1&#45;&gt;13</title>
<path fill="none" stroke="grey" d="M617.464,-1672.36C597.132,-1663.74 567.766,-1648.79 548.435,-1628 518.519,-1595.83 505.435,-1582.93 505.435,-1539 505.435,-1539 505.435,-1539 505.435,-1393 505.435,-1352.55 501.033,-1336.99 524.435,-1304 539.886,-1282.22 567.379,-1267.69 587.331,-1259.44"/>
</g>
<!-- 2&#45;&gt;4 -->
<g id="edge7" class="edge"><title>2&#45;&gt;4</title>
<path fill="none" stroke="grey" d="M685.248,-1592.76C691.387,-1581.46 699.541,-1566.44 705.669,-1555.15"/>
</g>
<!-- 3&#45;&gt;11 -->
<g id="edge8" class="edge"><title>3&#45;&gt;11</title>
<path fill="none" stroke="grey" d="M601.933,-1591.97C594.463,-1541.1 572.376,-1390.7 564.923,-1339.94"/>
</g>
<!-- 5 -->
<g id="node5" class="node"><title>5</title>
<ellipse fill="blue" stroke="blue" cx="737.435" cy="-1466" rx="27" ry="18"/>
<text text-anchor="middle" x="737.435" y="-1462.3" font-family="Times,serif" font-size="14.00" fill="white">5: 1</text>
</g>
<!-- 4&#45;&gt;5 -->
<g id="edge9" class="edge"><title>4&#45;&gt;5</title>
<path fill="none" stroke="grey" d="M720.002,-1520.05C723.619,-1509.05 728.312,-1494.76 731.918,-1483.79"/>
</g>
<!-- 4&#45;&gt;6 -->
<g id="edge10" class="edge"><title>4&#45;&gt;6</title>
<path fill="none" stroke="grey" d="M708.808,-1520.23C703.538,-1502.3 697.076,-1473.08 701.435,-1448 703.644,-1435.29 708.627,-1421.59 712.935,-1411.31"/>
</g>
<!-- 5&#45;&gt;6 -->
<g id="edge11" class="edge"><title>5&#45;&gt;6</title>
<path fill="none" stroke="grey" d="M733.319,-1448.05C730.686,-1437.21 727.279,-1423.18 724.63,-1412.28"/>
</g>
<!-- 7 -->
<g id="node7" class="node"><title>7</title>
<ellipse fill="blue" stroke="blue" cx="766.435" cy="-1322" rx="27" ry="18"/>
<text text-anchor="middle" x="766.435" y="-1318.3" font-family="Times,serif" font-size="14.00" fill="white">7: 1</text>
</g>
<!-- 5&#45;&gt;7 -->
<g id="edge12" class="edge"><title>5&#45;&gt;7</title>
<path fill="none" stroke="grey" d="M744.436,-1448.59C748.557,-1438.27 753.518,-1424.57 756.435,-1412 762.129,-1387.46 764.621,-1358.34 765.683,-1340.26"/>
</g>
<!-- 9 -->
<g id="node9" class="node"><title>9</title>
<ellipse fill="blue" stroke="blue" cx="764.435" cy="-1250" rx="27" ry="18"/>
<text text-anchor="middle" x="764.435" y="-1246.3" font-family="Times,serif" font-size="14.00" fill="white">9: 1</text>
</g>
<!-- 5&#45;&gt;9 -->
<g id="edge13" class="edge"><title>5&#45;&gt;9</title>
<path fill="none" stroke="grey" d="M750.85,-1450.13C766.759,-1431.4 792.385,-1397.47 802.435,-1363 809.774,-1337.83 810.459,-1328.96 802.435,-1304 797.723,-1289.34 787.292,-1275.3 778.55,-1265.36"/>
</g>
<!-- 6&#45;&gt;7 -->
<g id="edge14" class="edge"><title>6&#45;&gt;7</title>
<path fill="none" stroke="grey" d="M730.873,-1377.12C738.401,-1365.66 748.519,-1350.26 756.038,-1338.82"/>
</g>
<!-- 8 -->
<g id="node8" class="node"><title>8</title>
<ellipse fill="blue" stroke="blue" cx="674.435" cy="-1322" rx="27" ry="18"/>
<text text-anchor="middle" x="674.435" y="-1318.3" font-family="Times,serif" font-size="14.00" fill="white">8: 1</text>
</g>
<!-- 6&#45;&gt;8 -->
<g id="edge15" class="edge"><title>6&#45;&gt;8</title>
<path fill="none" stroke="grey" d="M709.997,-1377.12C702.468,-1365.66 692.35,-1350.26 684.832,-1338.82"/>
</g>
<!-- 6&#45;&gt;9 -->
<g id="edge16" class="edge"><title>6&#45;&gt;9</title>
<path fill="none" stroke="grey" d="M720.078,-1375.75C720.22,-1357.43 721.956,-1327.88 730.435,-1304 735.336,-1290.2 744.421,-1276.32 751.968,-1266.23"/>
</g>
<!-- 6&#45;&gt;13 -->
<g id="edge17" class="edge"><title>6&#45;&gt;13</title>
<path fill="none" stroke="grey" d="M693.885,-1389.86C675.76,-1386.33 652.561,-1378.84 638.435,-1363 614.604,-1336.28 610.899,-1292.17 610.825,-1268.05"/>
</g>
<!-- 7&#45;&gt;9 -->
<g id="edge18" class="edge"><title>7&#45;&gt;9</title>
<path fill="none" stroke="grey" d="M765.94,-1303.7C765.63,-1292.85 765.232,-1278.92 764.923,-1268.1"/>
</g>
<!-- 8&#45;&gt;9 -->
<g id="edge19" class="edge"><title>8&#45;&gt;9</title>
<path fill="none" stroke="grey" d="M691.363,-1307.83C707.454,-1295.32 731.517,-1276.6 747.582,-1264.11"/>
</g>
<!-- 8&#45;&gt;13 -->
<g id="edge20" class="edge"><title>8&#45;&gt;13</title>
<path fill="none" stroke="grey" d="M661.074,-1306.15C650.527,-1294.44 635.865,-1278.14 625.212,-1266.31"/>
</g>
<!-- 14 -->
<g id="node14" class="node"><title>14</title>
<ellipse fill="blue" stroke="blue" cx="587.435" cy="-1178" rx="28.3955" ry="18"/>
<text text-anchor="middle" x="587.435" y="-1174.3" font-family="Times,serif" font-size="14.00" fill="white">14: 1</text>
</g>
<!-- 8&#45;&gt;14 -->
<g id="edge21" class="edge"><title>8&#45;&gt;14</title>
<path fill="none" stroke="grey" d="M672.346,-1303.73C669.423,-1284.87 662.764,-1254.36 648.435,-1232 637.763,-1215.34 620.342,-1200.96 606.843,-1191.39"/>
</g>
<!-- 15 -->
<g id="node15" class="node"><title>15</title>
<ellipse fill="blue" stroke="blue" cx="587.435" cy="-1106" rx="28.3955" ry="18"/>
<text text-anchor="middle" x="587.435" y="-1102.3" font-family="Times,serif" font-size="14.00" fill="white">15: 1</text>
</g>
<!-- 8&#45;&gt;15 -->
<g id="edge22" class="edge"><title>8&#45;&gt;15</title>
<path fill="none" stroke="grey" d="M676.248,-1303.81C677.587,-1285.54 678.047,-1256.03 670.435,-1232 656.356,-1187.55 621.386,-1144.15 601.623,-1122.06"/>
</g>
<!-- 10 -->
<g id="node10" class="node"><title>10</title>
<ellipse fill="blue" stroke="blue" cx="764.435" cy="-1178" rx="28.3955" ry="18"/>
<text text-anchor="middle" x="764.435" y="-1174.3" font-family="Times,serif" font-size="14.00" fill="white">10: 1</text>
</g>
<!-- 9&#45;&gt;10 -->
<g id="edge23" class="edge"><title>9&#45;&gt;10</title>
<path fill="none" stroke="grey" d="M764.435,-1231.7C764.435,-1220.85 764.435,-1206.92 764.435,-1196.1"/>
</g>
<!-- 12 -->
<g id="node12" class="node"><title>12</title>
<ellipse fill="blue" stroke="blue" cx="515.435" cy="-1250" rx="28.3955" ry="18"/>
<text text-anchor="middle" x="515.435" y="-1246.3" font-family="Times,serif" font-size="14.00" fill="white">12: 1</text>
</g>
<!-- 11&#45;&gt;12 -->
<g id="edge24" class="edge"><title>11&#45;&gt;12</title>
<path fill="none" stroke="grey" d="M551.77,-1305.12C544.078,-1293.66 533.74,-1278.26 526.058,-1266.82"/>
</g>
<!-- 11&#45;&gt;13 -->
<g id="edge25" class="edge"><title>11&#45;&gt;13</title>
<path fill="none" stroke="grey" d="M573.554,-1305.12C581.573,-1293.66 592.351,-1278.26 600.36,-1266.82"/>
</g>
<!-- 11&#45;&gt;14 -->
<g id="edge26" class="edge"><title>11&#45;&gt;14</title>
<path fill="none" stroke="grey" d="M563.862,-1303.83C565.521,-1285.83 568.656,-1256.76 573.435,-1232 575.779,-1219.85 579.352,-1206.37 582.302,-1196.05"/>
</g>
<!-- 12&#45;&gt;14 -->
<g id="edge27" class="edge"><title>12&#45;&gt;14</title>
<path fill="none" stroke="grey" d="M530.353,-1234.5C542.71,-1222.48 560.184,-1205.49 572.535,-1193.49"/>
</g>
<!-- 12&#45;&gt;15 -->
<g id="edge28" class="edge"><title>12&#45;&gt;15</title>
<path fill="none" stroke="grey" d="M520.473,-1232.03C526.246,-1213.7 536.585,-1183.89 549.435,-1160 556.621,-1146.64 566.696,-1132.74 574.666,-1122.53"/>
</g>
<!-- 13&#45;&gt;14 -->
<g id="edge29" class="edge"><title>13&#45;&gt;14</title>
<path fill="none" stroke="grey" d="M605.625,-1232.05C601.852,-1221.05 596.954,-1206.76 593.191,-1195.79"/>
</g>
<!-- 14&#45;&gt;15 -->
<g id="edge30" class="edge"><title>14&#45;&gt;15</title>
<path fill="none" stroke="grey" d="M587.435,-1159.7C587.435,-1148.85 587.435,-1134.92 587.435,-1124.1"/>
</g>
<!-- 17 -->
<g id="node17" class="node"><title>17</title>
<ellipse fill="blue" stroke="blue" cx="587.435" cy="-1034" rx="28.3955" ry="18"/>
<text text-anchor="middle" x="587.435" y="-1030.3" font-family="Times,serif" font-size="14.00" fill="white">17: 1</text>
</g>
<!-- 15&#45;&gt;17 -->
<g id="edge31" class="edge"><title>15&#45;&gt;17</title>
<path fill="none" stroke="grey" d="M587.435,-1087.7C587.435,-1076.85 587.435,-1062.92 587.435,-1052.1"/>
</g>
<!-- 16 -->
<g id="node16" class="node"><title>16</title>
<ellipse fill="blue" stroke="blue" cx="662.435" cy="-1034" rx="28.3955" ry="18"/>
<text text-anchor="middle" x="662.435" y="-1030.3" font-family="Times,serif" font-size="14.00" fill="white">16: 1</text>
</g>
<!-- 18 -->
<g id="node18" class="node"><title>18</title>
<ellipse fill="blue" stroke="blue" cx="635.435" cy="-962" rx="28.3955" ry="18"/>
<text text-anchor="middle" x="635.435" y="-958.3" font-family="Times,serif" font-size="14.00" fill="white">18: 1</text>
</g>
<!-- 16&#45;&gt;18 -->
<g id="edge32" class="edge"><title>16&#45;&gt;18</title>
<path fill="none" stroke="grey" d="M656.036,-1016.41C651.794,-1005.41 646.245,-991.027 641.975,-979.956"/>
</g>
<!-- 17&#45;&gt;18 -->
<g id="edge33" class="edge"><title>17&#45;&gt;18</title>
<path fill="none" stroke="grey" d="M598.327,-1017.12C606.182,-1005.66 616.74,-990.263 624.586,-978.821"/>
</g>
<!-- 23 -->
<g id="node23" class="node"><title>23</title>
<ellipse fill="blue" stroke="blue" cx="481.435" cy="-746" rx="37.5442" ry="18"/>
<text text-anchor="middle" x="481.435" y="-742.3" font-family="Times,serif" font-size="14.00" fill="white">23: 105</text>
</g>
<!-- 17&#45;&gt;23 -->
<g id="edge34" class="edge"><title>17&#45;&gt;23</title>
<path fill="none" stroke="grey" d="M575.557,-1017.27C554.163,-987.96 509.601,-922.216 490.435,-859 480.587,-826.518 479.968,-786.45 480.582,-764.114"/>
</g>
<!-- 19 -->
<g id="node19" class="node"><title>19</title>
<ellipse fill="blue" stroke="blue" cx="587.435" cy="-890" rx="28.3955" ry="18"/>
<text text-anchor="middle" x="587.435" y="-886.3" font-family="Times,serif" font-size="14.00" fill="white">19: 1</text>
</g>
<!-- 18&#45;&gt;19 -->
<g id="edge35" class="edge"><title>18&#45;&gt;19</title>
<path fill="none" stroke="grey" d="M624.543,-945.116C616.687,-933.66 606.129,-918.263 598.284,-906.821"/>
</g>
<!-- 20 -->
<g id="node20" class="node"><title>20</title>
<ellipse fill="blue" stroke="blue" cx="683.435" cy="-890" rx="28.3955" ry="18"/>
<text text-anchor="middle" x="683.435" y="-886.3" font-family="Times,serif" font-size="14.00" fill="white">20: 1</text>
</g>
<!-- 18&#45;&gt;20 -->
<g id="edge36" class="edge"><title>18&#45;&gt;20</title>
<path fill="none" stroke="grey" d="M646.327,-945.116C654.182,-933.66 664.74,-918.263 672.586,-906.821"/>
</g>
<!-- 21 -->
<g id="node21" class="node"><title>21</title>
<ellipse fill="blue" stroke="blue" cx="607.435" cy="-818" rx="28.3955" ry="18"/>
<text text-anchor="middle" x="607.435" y="-814.3" font-family="Times,serif" font-size="14.00" fill="white">21: 1</text>
</g>
<!-- 18&#45;&gt;21 -->
<g id="edge37" class="edge"><title>18&#45;&gt;21</title>
<path fill="none" stroke="grey" d="M634.268,-943.777C632.822,-925.729 629.857,-896.632 624.435,-872 621.734,-859.732 617.392,-846.256 613.773,-835.963"/>
</g>
<!-- 18&#45;&gt;23 -->
<g id="edge38" class="edge"><title>18&#45;&gt;23</title>
<path fill="none" stroke="grey" d="M612.422,-951.36C593.467,-942.449 566.952,-927.627 549.435,-908 510.642,-864.537 491.789,-795.706 484.786,-764.007"/>
</g>
<!-- 33 -->
<g id="node33" class="node"><title>33</title>
<ellipse fill="blue" stroke="blue" cx="730.435" cy="-674" rx="28.3955" ry="18"/>
<text text-anchor="middle" x="730.435" y="-670.3" font-family="Times,serif" font-size="14.00" fill="white">33: 1</text>
</g>
<!-- 18&#45;&gt;33 -->
<g id="edge39" class="edge"><title>18&#45;&gt;33</title>
<path fill="none" stroke="grey" d="M660.325,-952.854C680.367,-944.856 707.291,-930.532 720.435,-908 761.747,-837.179 743.959,-732.61 734.72,-691.996"/>
</g>
<!-- 19&#45;&gt;21 -->
<g id="edge40" class="edge"><title>19&#45;&gt;21</title>
<path fill="none" stroke="grey" d="M592.276,-872.055C595.421,-861.049 599.502,-846.764 602.638,-835.789"/>
</g>
<!-- 19&#45;&gt;23 -->
<g id="edge41" class="edge"><title>19&#45;&gt;23</title>
<path fill="none" stroke="grey" d="M577.117,-872.896C565.357,-854.796 545.313,-824.709 526.435,-800 516.615,-787.147 504.746,-773.228 495.663,-762.881"/>
</g>
<!-- 20&#45;&gt;21 -->
<g id="edge42" class="edge"><title>20&#45;&gt;21</title>
<path fill="none" stroke="grey" d="M667.623,-874.693C662.165,-869.736 656.02,-864.136 650.435,-859 641.279,-850.58 631.084,-841.101 622.919,-833.484"/>
</g>
<!-- 20&#45;&gt;33 -->
<g id="edge43" class="edge"><title>20&#45;&gt;33</title>
<path fill="none" stroke="grey" d="M687.201,-871.849C696.024,-831.68 717.94,-731.89 726.715,-691.935"/>
</g>
<!-- 35 -->
<g id="node35" class="node"><title>35</title>
<ellipse fill="blue" stroke="blue" cx="683.435" cy="-530" rx="28.3955" ry="18"/>
<text text-anchor="middle" x="683.435" y="-526.3" font-family="Times,serif" font-size="14.00" fill="white">35: 1</text>
</g>
<!-- 20&#45;&gt;35 -->
<g id="edge44" class="edge"><title>20&#45;&gt;35</title>
<path fill="none" stroke="grey" d="M679.681,-872.049C674.144,-845.521 664.435,-792.517 664.435,-747 664.435,-747 664.435,-747 664.435,-673 664.435,-627.483 674.144,-574.479 679.681,-547.951"/>
</g>
<!-- 21&#45;&gt;23 -->
<g id="edge45" class="edge"><title>21&#45;&gt;23</title>
<path fill="none" stroke="grey" d="M586.91,-805.597C564.456,-793.123 528.527,-773.162 504.953,-760.066"/>
</g>
<!-- 26 -->
<g id="node26" class="node"><title>26</title>
<ellipse fill="red" stroke="red" cx="529.435" cy="-602" rx="28.3955" ry="18"/>
<text text-anchor="middle" x="529.435" y="-598.3" font-family="Times,serif" font-size="14.00">26: 3</text>
</g>
<!-- 21&#45;&gt;26 -->
<g id="edge46" class="edge"><title>21&#45;&gt;26</title>
<path fill="none" stroke="grey" d="M601.314,-800.208C586.733,-760.204 550.079,-659.639 535.527,-619.714"/>
</g>
<!-- 21&#45;&gt;35 -->
<g id="edge47" class="edge"><title>21&#45;&gt;35</title>
<path fill="none" stroke="grey" d="M608.419,-799.738C611.137,-760.268 620.634,-660.902 650.435,-584 655.683,-570.457 664.478,-556.57 671.67,-546.411"/>
</g>
<!-- 22 -->
<g id="node22" class="node"><title>22</title>
<ellipse fill="blue" stroke="blue" cx="408.435" cy="-818" rx="28.3955" ry="18"/>
<text text-anchor="middle" x="408.435" y="-814.3" font-family="Times,serif" font-size="14.00" fill="white">22: 1</text>
</g>
<!-- 22&#45;&gt;23 -->
<g id="edge48" class="edge"><title>22&#45;&gt;23</title>
<path fill="none" stroke="grey" d="M423.56,-802.496C435.755,-790.803 452.864,-774.397 465.316,-762.457"/>
</g>
<!-- 24 -->
<g id="node24" class="node"><title>24</title>
<ellipse fill="blue" stroke="blue" cx="401.435" cy="-674" rx="33.2209" ry="18"/>
<text text-anchor="middle" x="401.435" y="-670.3" font-family="Times,serif" font-size="14.00" fill="white">24: 21</text>
</g>
<!-- 22&#45;&gt;24 -->
<g id="edge49" class="edge"><title>22&#45;&gt;24</title>
<path fill="none" stroke="grey" d="M407.59,-799.871C406.245,-772.578 403.629,-719.52 402.282,-692.189"/>
</g>
<!-- 23&#45;&gt;24 -->
<g id="edge50" class="edge"><title>23&#45;&gt;24</title>
<path fill="none" stroke="grey" d="M464.076,-729.811C450.473,-717.909 431.662,-701.449 418.211,-689.68"/>
</g>
<!-- 25 -->
<g id="node25" class="node"><title>25</title>
<ellipse fill="blue" stroke="blue" cx="424.435" cy="-602" rx="37.5442" ry="18"/>
<text text-anchor="middle" x="424.435" y="-598.3" font-family="Times,serif" font-size="14.00" fill="white">25: 121</text>
</g>
<!-- 23&#45;&gt;25 -->
<g id="edge51" class="edge"><title>23&#45;&gt;25</title>
<path fill="none" stroke="grey" d="M474.672,-728.153C463.702,-700.824 442.153,-647.14 431.188,-619.825"/>
</g>
<!-- 23&#45;&gt;26 -->
<g id="edge52" class="edge"><title>23&#45;&gt;26</title>
<path fill="none" stroke="grey" d="M487.129,-728.153C496.367,-700.824 514.514,-647.14 523.747,-619.825"/>
</g>
<!-- 27 -->
<g id="node27" class="node"><title>27</title>
<ellipse fill="red" stroke="red" cx="422.435" cy="-530" rx="28.3955" ry="18"/>
<text text-anchor="middle" x="422.435" y="-526.3" font-family="Times,serif" font-size="14.00">27: 1</text>
</g>
<!-- 23&#45;&gt;27 -->
<g id="edge53" class="edge"><title>23&#45;&gt;27</title>
<path fill="none" stroke="grey" d="M483.827,-727.702C487.277,-697.261 491.156,-632.728 470.435,-584 463.828,-568.463 450.694,-554.476 439.833,-544.777"/>
</g>
<!-- 24&#45;&gt;25 -->
<g id="edge54" class="edge"><title>24&#45;&gt;25</title>
<path fill="none" stroke="grey" d="M407.002,-656.055C410.565,-645.211 415.175,-631.183 418.759,-620.275"/>
</g>
<!-- 24&#45;&gt;27 -->
<g id="edge55" class="edge"><title>24&#45;&gt;27</title>
<path fill="none" stroke="grey" d="M386.002,-657.73C382.511,-653.334 379.289,-648.287 377.435,-643 368.755,-618.256 368.395,-608.615 377.435,-584 383.094,-568.59 395.441,-554.595 405.772,-544.861"/>
</g>
<!-- 28 -->
<g id="node28" class="node"><title>28</title>
<ellipse fill="red" stroke="red" cx="205.435" cy="-602" rx="28.3955" ry="18"/>
<text text-anchor="middle" x="205.435" y="-598.3" font-family="Times,serif" font-size="14.00">28: 1</text>
</g>
<!-- 24&#45;&gt;28 -->
<g id="edge56" class="edge"><title>24&#45;&gt;28</title>
<path fill="none" stroke="grey" d="M374.593,-663.414C336.22,-649.709 266.268,-624.726 229.494,-611.593"/>
</g>
<!-- 41 -->
<g id="node41" class="node"><title>41</title>
<ellipse fill="red" stroke="red" cx="281.435" cy="-170" rx="28.3955" ry="18"/>
<text text-anchor="middle" x="281.435" y="-166.3" font-family="Times,serif" font-size="14.00">41: 1</text>
</g>
<!-- 24&#45;&gt;41 -->
<g id="edge57" class="edge"><title>24&#45;&gt;41</title>
<path fill="none" stroke="grey" d="M381.763,-659.133C376.444,-654.538 371.141,-649.038 367.435,-643 340.533,-599.18 338.435,-582.419 338.435,-531 338.435,-531 338.435,-531 338.435,-313 338.435,-264.121 308.988,-212.148 292.425,-186.78"/>
</g>
<!-- 25&#45;&gt;27 -->
<g id="edge58" class="edge"><title>25&#45;&gt;27</title>
<path fill="none" stroke="grey" d="M423.94,-583.697C423.63,-572.846 423.232,-558.917 422.923,-548.104"/>
</g>
<!-- 26&#45;&gt;27 -->
<g id="edge59" class="edge"><title>26&#45;&gt;27</title>
<path fill="none" stroke="grey" d="M510.305,-588.485C490.829,-575.744 460.815,-556.108 441.399,-543.406"/>
</g>
<!-- 26&#45;&gt;35 -->
<g id="edge60" class="edge"><title>26&#45;&gt;35</title>
<path fill="none" stroke="grey" d="M551.828,-590.821C581.025,-577.55 631.804,-554.468 661.015,-541.191"/>
</g>
<!-- 27&#45;&gt;41 -->
<g id="edge61" class="edge"><title>27&#45;&gt;41</title>
<path fill="none" stroke="grey" d="M413.544,-512.49C400.43,-486.553 377.435,-434.326 377.435,-387 377.435,-387 377.435,-387 377.435,-313 377.435,-271.914 375.691,-257.871 352.435,-224 339.81,-205.613 318.709,-191.052 302.783,-181.881"/>
</g>
<!-- 42 -->
<g id="node42" class="node"><title>42</title>
<ellipse fill="beige" stroke="beige" cx="310.435" cy="-98" rx="28.3955" ry="18"/>
<text text-anchor="middle" x="310.435" y="-94.3" font-family="Times,serif" font-size="14.00">42: 6</text>
</g>
<!-- 27&#45;&gt;42 -->
<g id="edge62" class="edge"><title>27&#45;&gt;42</title>
<path fill="none" stroke="grey" d="M422.04,-511.952C421.457,-485.294 420.435,-432.119 420.435,-387 420.435,-387 420.435,-387 420.435,-241 420.435,-182.373 361.111,-133.273 329.595,-111.325"/>
</g>
<!-- 29 -->
<g id="node29" class="node"><title>29</title>
<ellipse fill="beige" stroke="beige" cx="157.435" cy="-530" rx="28.3955" ry="18"/>
<text text-anchor="middle" x="157.435" y="-526.3" font-family="Times,serif" font-size="14.00">29: 2</text>
</g>
<!-- 28&#45;&gt;29 -->
<g id="edge63" class="edge"><title>28&#45;&gt;29</title>
<path fill="none" stroke="grey" d="M194.543,-585.116C186.687,-573.66 176.129,-558.263 168.284,-546.821"/>
</g>
<!-- 30 -->
<g id="node30" class="node"><title>30</title>
<ellipse fill="beige" stroke="beige" cx="178.435" cy="-458" rx="28.3955" ry="18"/>
<text text-anchor="middle" x="178.435" y="-454.3" font-family="Times,serif" font-size="14.00">30: 2</text>
</g>
<!-- 28&#45;&gt;30 -->
<g id="edge64" class="edge"><title>28&#45;&gt;30</title>
<path fill="none" stroke="grey" d="M204.182,-583.795C202.666,-565.763 199.645,-536.678 194.435,-512 191.853,-499.775 187.768,-486.298 184.371,-475.994"/>
</g>
<!-- 31 -->
<g id="node31" class="node"><title>31</title>
<ellipse fill="red" stroke="red" cx="205.435" cy="-386" rx="28.3955" ry="18"/>
<text text-anchor="middle" x="205.435" y="-382.3" font-family="Times,serif" font-size="14.00">31: 6</text>
</g>
<!-- 28&#45;&gt;31 -->
<g id="edge65" class="edge"><title>28&#45;&gt;31</title>
<path fill="none" stroke="grey" d="M208.214,-584.052C212.646,-554.677 220.337,-492.421 215.435,-440 214.301,-427.88 211.74,-414.402 209.494,-404.071"/>
</g>
<!-- 28&#45;&gt;41 -->
<g id="edge66" class="edge"><title>28&#45;&gt;41</title>
<path fill="none" stroke="grey" d="M222.859,-587.33C250.285,-564.132 300.435,-514.17 300.435,-459 300.435,-459 300.435,-459 300.435,-313 300.435,-267.483 290.726,-214.479 285.188,-187.951"/>
</g>
<!-- 29&#45;&gt;30 -->
<g id="edge67" class="edge"><title>29&#45;&gt;30</title>
<path fill="none" stroke="grey" d="M162.518,-512.055C165.82,-501.049 170.106,-486.764 173.398,-475.789"/>
</g>
<!-- 32 -->
<g id="node32" class="node"><title>32</title>
<ellipse fill="beige" stroke="beige" cx="130.435" cy="-386" rx="28.3955" ry="18"/>
<text text-anchor="middle" x="130.435" y="-382.3" font-family="Times,serif" font-size="14.00">32: 2</text>
</g>
<!-- 29&#45;&gt;32 -->
<g id="edge68" class="edge"><title>29&#45;&gt;32</title>
<path fill="none" stroke="grey" d="M151.047,-512.048C147.41,-501.758 143.067,-488.283 140.435,-476 135.156,-451.371 132.553,-422.273 131.354,-404.224"/>
</g>
<!-- 30&#45;&gt;31 -->
<g id="edge69" class="edge"><title>30&#45;&gt;31</title>
<path fill="none" stroke="grey" d="M184.833,-440.411C189.075,-429.414 194.624,-415.027 198.894,-403.956"/>
</g>
<!-- 30&#45;&gt;32 -->
<g id="edge70" class="edge"><title>30&#45;&gt;32</title>
<path fill="none" stroke="grey" d="M167.543,-441.116C159.687,-429.66 149.129,-414.263 141.284,-402.821"/>
</g>
<!-- 38 -->
<g id="node38" class="node"><title>38</title>
<ellipse fill="beige" stroke="beige" cx="167.435" cy="-242" rx="28.3955" ry="18"/>
<text text-anchor="middle" x="167.435" y="-238.3" font-family="Times,serif" font-size="14.00">38: 6</text>
</g>
<!-- 30&#45;&gt;38 -->
<g id="edge71" class="edge"><title>30&#45;&gt;38</title>
<path fill="none" stroke="grey" d="M155.159,-447.588C136.045,-438.816 109.443,-424.07 92.4347,-404 77.2274,-386.055 76.9639,-378.082 72.4347,-355 67.3856,-329.268 59.1569,-318.612 72.4347,-296 76.5947,-288.916 118.987,-266.977 145.718,-253.649"/>
</g>
<!-- 30&#45;&gt;41 -->
<g id="edge72" class="edge"><title>30&#45;&gt;41</title>
<path fill="none" stroke="grey" d="M199.124,-445.391C213.638,-436.118 232.212,-421.752 242.435,-404 283.78,-332.205 284.159,-228.641 282.48,-188.145"/>
</g>
<!-- 31&#45;&gt;41 -->
<g id="edge73" class="edge"><title>31&#45;&gt;41</title>
<path fill="none" stroke="grey" d="M208.261,-367.998C213.616,-338.016 226.692,-274.171 248.435,-224 254.21,-210.673 262.981,-196.777 270.029,-186.558"/>
</g>
<!-- 36 -->
<g id="node36" class="node"><title>36</title>
<ellipse fill="beige" stroke="beige" cx="110.435" cy="-314" rx="28.3955" ry="18"/>
<text text-anchor="middle" x="110.435" y="-310.3" font-family="Times,serif" font-size="14.00">36: 6</text>
</g>
<!-- 32&#45;&gt;36 -->
<g id="edge74" class="edge"><title>32&#45;&gt;36</title>
<path fill="none" stroke="grey" d="M125.593,-368.055C122.449,-357.049 118.367,-342.764 115.232,-331.789"/>
</g>
<!-- 32&#45;&gt;38 -->
<g id="edge75" class="edge"><title>32&#45;&gt;38</title>
<path fill="none" stroke="grey" d="M140.835,-368.976C143.312,-364.586 145.729,-359.73 147.435,-355 159.095,-322.67 164.144,-282.547 166.182,-260.161"/>
</g>
<!-- 34 -->
<g id="node34" class="node"><title>34</title>
<ellipse fill="blue" stroke="blue" cx="721.435" cy="-602" rx="28.3955" ry="18"/>
<text text-anchor="middle" x="721.435" y="-598.3" font-family="Times,serif" font-size="14.00" fill="white">34: 1</text>
</g>
<!-- 33&#45;&gt;34 -->
<g id="edge76" class="edge"><title>33&#45;&gt;34</title>
<path fill="none" stroke="grey" d="M728.21,-655.697C726.815,-644.846 725.024,-630.917 723.634,-620.104"/>
</g>
<!-- 33&#45;&gt;35 -->
<g id="edge77" class="edge"><title>33&#45;&gt;35</title>
<path fill="none" stroke="grey" d="M747.226,-659.346C751.739,-654.687 756.031,-649.098 758.435,-643 768.051,-618.604 770.493,-607.286 758.435,-584 747.657,-563.187 724.528,-548.801 706.785,-540.324"/>
</g>
<!-- 34&#45;&gt;35 -->
<g id="edge78" class="edge"><title>34&#45;&gt;35</title>
<path fill="none" stroke="grey" d="M712.621,-584.765C706.482,-573.456 698.329,-558.437 692.2,-547.147"/>
</g>
<!-- 37 -->
<g id="node37" class="node"><title>37</title>
<ellipse fill="beige" stroke="beige" cx="92.4347" cy="-242" rx="28.3955" ry="18"/>
<text text-anchor="middle" x="92.4347" y="-238.3" font-family="Times,serif" font-size="14.00">37: 2</text>
</g>
<!-- 36&#45;&gt;37 -->
<g id="edge79" class="edge"><title>36&#45;&gt;37</title>
<path fill="none" stroke="grey" d="M106.077,-296.055C103.289,-285.211 99.6818,-271.183 96.8769,-260.275"/>
</g>
<!-- 36&#45;&gt;38 -->
<g id="edge80" class="edge"><title>36&#45;&gt;38</title>
<path fill="none" stroke="grey" d="M123.085,-297.465C132.531,-285.865 145.383,-270.082 154.82,-258.492"/>
</g>
<!-- 39 -->
<g id="node39" class="node"><title>39</title>
<ellipse fill="beige" stroke="beige" cx="72.4347" cy="-170" rx="28.3955" ry="18"/>
<text text-anchor="middle" x="72.4347" y="-166.3" font-family="Times,serif" font-size="14.00">39: 2</text>
</g>
<!-- 36&#45;&gt;39 -->
<g id="edge81" class="edge"><title>36&#45;&gt;39</title>
<path fill="none" stroke="grey" d="M90.9245,-300.819C77.8973,-291.451 61.8439,-277.214 54.4347,-260 44.0887,-235.963 54.7287,-205.677 63.4886,-187.353"/>
</g>
<!-- 40 -->
<g id="node40" class="node"><title>40</title>
<ellipse fill="beige" stroke="beige" cx="62.4347" cy="-98" rx="28.3955" ry="18"/>
<text text-anchor="middle" x="62.4347" y="-94.3" font-family="Times,serif" font-size="14.00">40: 2</text>
</g>
<!-- 36&#45;&gt;40 -->
<g id="edge82" class="edge"><title>36&#45;&gt;40</title>
<path fill="none" stroke="grey" d="M90.1338,-301.158C75.8122,-291.768 57.3104,-277.36 46.4347,-260 34.5314,-240.999 37.1207,-233.26 34.4347,-211 31.2934,-184.967 28.1248,-177.452 34.4347,-152 37.7402,-138.667 45.0812,-124.993 51.4173,-114.874"/>
</g>
<!-- 38&#45;&gt;39 -->
<g id="edge83" class="edge"><title>38&#45;&gt;39</title>
<path fill="none" stroke="grey" d="M149.566,-227.834C132.581,-215.319 107.181,-196.603 90.2234,-184.107"/>
</g>
<!-- 38&#45;&gt;41 -->
<g id="edge84" class="edge"><title>38&#45;&gt;41</title>
<path fill="none" stroke="grey" d="M187.032,-228.967C207.913,-216.145 240.783,-195.962 261.712,-183.111"/>
</g>
<!-- 43 -->
<g id="node43" class="node"><title>43</title>
<ellipse fill="beige" stroke="beige" cx="262.435" cy="-26" rx="28.3955" ry="18"/>
<text text-anchor="middle" x="262.435" y="-22.3" font-family="Times,serif" font-size="14.00">43: 2</text>
</g>
<!-- 38&#45;&gt;43 -->
<g id="edge85" class="edge"><title>38&#45;&gt;43</title>
<path fill="none" stroke="grey" d="M145.73,-230.019C140.5,-227.732 134.855,-225.549 129.435,-224 108.947,-218.146 49.2654,-226.3 34.4347,-211 -6.20696,-169.073 -12.0924,-125.556 24.4347,-80 50.5182,-47.4691 177.396,-33.6198 234.493,-28.9641"/>
</g>
<!-- 39&#45;&gt;40 -->
<g id="edge86" class="edge"><title>39&#45;&gt;40</title>
<path fill="none" stroke="grey" d="M70.014,-152.055C68.4649,-141.211 66.4608,-127.183 64.9026,-116.275"/>
</g>
<!-- 41&#45;&gt;42 -->
<g id="edge87" class="edge"><title>41&#45;&gt;42</title>
<path fill="none" stroke="grey" d="M288.307,-152.411C292.93,-141.252 298.999,-126.604 303.611,-115.47"/>
</g>
<!-- 41&#45;&gt;43 -->
<g id="edge88" class="edge"><title>41&#45;&gt;43</title>
<path fill="none" stroke="grey" d="M278.271,-151.852C276.423,-141.494 274.128,-128.014 272.435,-116 268.919,-91.0579 265.848,-62.0429 264.067,-44.0979"/>
</g>
<!-- 42&#45;&gt;43 -->
<g id="edge89" class="edge"><title>42&#45;&gt;43</title>
<path fill="none" stroke="grey" d="M299.543,-81.1159C291.687,-69.66 281.129,-54.2627 273.284,-42.8212"/>
</g>
</g>
</svg>
